# Tiled2Unity generated file. Do not modify by hand.
# Wavefront file for 'beginning_mesh_0012.obj'

# Vertices (Count = 48)
v -70.48649 -1.297297 0
v -70.91892 -1.297297 0
v -70.91892 -0.8648649 0
v -70.48649 -0.8648649 0
v -70.91892 -1.297297 0
v -71.35136 -1.297297 0
v -71.35136 -0.8648649 0
v -70.91892 -0.8648649 0
v -77.83784 -1.297297 0
v -78.27027 -1.297297 0
v -78.27027 -0.8648649 0
v -77.83784 -0.8648649 0
v -78.27027 -1.297297 0
v -78.70271 -1.297297 0
v -78.70271 -0.8648649 0
v -78.27027 -0.8648649 0
v -86.48649 -3.891892 0
v -86.91892 -3.891892 0
v -86.91892 -3.45946 0
v -86.48649 -3.45946 0
v -86.91892 -3.891892 0
v -87.35136 -3.891892 0
v -87.35136 -3.45946 0
v -86.91892 -3.45946 0
v -87.35136 -3.891892 0
v -87.78378 -3.891892 0
v -87.78378 -3.45946 0
v -87.35136 -3.45946 0
v -87.78378 -3.891892 0
v -88.21622 -3.891892 0
v -88.21622 -3.45946 0
v -87.78378 -3.45946 0
v -95.13514 -3.891892 0
v -95.56757 -3.891892 0
v -95.56757 -3.45946 0
v -95.13514 -3.45946 0
v -95.56757 -3.891892 0
v -96 -3.891892 0
v -96 -3.45946 0
v -95.56757 -3.45946 0
v -95.13514 -6.054054 0
v -95.56757 -6.054054 0
v -95.56757 -5.621622 0
v -95.13514 -5.621622 0
v -95.56757 -6.054054 0
v -96 -6.054054 0
v -96 -5.621622 0
v -95.56757 -5.621622 0

# Texture cooridinates (Count = 8)
vt 0.4998779 0.6667887
vt 0.4167887 0.6667887
vt 0.4167887 0.7498779
vt 0.4998779 0.7498779
vt 0.4165446 0.6667887
vt 0.3334554 0.6667887
vt 0.3334554 0.7498779
vt 0.4165446 0.7498779

# Normal
vn 0 0 -1

# Mesh description
g beginning_mesh_0012

# Faces
f 1/1/1 2/2/1 3/3/1 4/4/1
f 5/5/1 6/6/1 7/7/1 8/8/1
f 9/6/1 10/5/1 11/8/1 12/7/1
f 13/2/1 14/1/1 15/4/1 16/3/1
f 17/1/1 18/2/1 19/3/1 20/4/1
f 21/5/1 22/6/1 23/7/1 24/8/1
f 25/6/1 26/5/1 27/8/1 28/7/1
f 29/2/1 30/1/1 31/4/1 32/3/1
f 33/1/1 34/2/1 35/3/1 36/4/1
f 37/5/1 38/6/1 39/7/1 40/8/1
f 41/1/1 42/2/1 43/3/1 44/4/1
f 45/5/1 46/6/1 47/7/1 48/8/1

