# Tiled2Unity generated file. Do not modify by hand.
# Wavefront file for 'beginning_mesh_0024.obj'

# Vertices (Count = 156)
v -11.24324 -6.054054 0
v -11.67568 -6.054054 0
v -11.67568 -5.621622 0
v -11.24324 -5.621622 0
v -11.67568 -6.054054 0
v -12.10811 -6.054054 0
v -12.10811 -5.621622 0
v -11.67568 -5.621622 0
v -12.10811 -6.054054 0
v -12.54054 -6.054054 0
v -12.54054 -5.621622 0
v -12.10811 -5.621622 0
v -12.54054 -6.054054 0
v -12.97297 -6.054054 0
v -12.97297 -5.621622 0
v -12.54054 -5.621622 0
v -11.24324 -6.486486 0
v -11.67568 -6.486486 0
v -11.67568 -6.054054 0
v -11.24324 -6.054054 0
v -11.67568 -6.486486 0
v -12.10811 -6.486486 0
v -12.10811 -6.054054 0
v -11.67568 -6.054054 0
v -12.10811 -6.486486 0
v -12.54054 -6.486486 0
v -12.54054 -6.054054 0
v -12.10811 -6.054054 0
v -12.54054 -6.486486 0
v -12.97297 -6.486486 0
v -12.97297 -6.054054 0
v -12.54054 -6.054054 0
v -11.24324 -6.918919 0
v -11.67568 -6.918919 0
v -11.67568 -6.486486 0
v -11.24324 -6.486486 0
v -11.67568 -6.918919 0
v -12.10811 -6.918919 0
v -12.10811 -6.486486 0
v -11.67568 -6.486486 0
v -12.10811 -6.918919 0
v -12.54054 -6.918919 0
v -12.54054 -6.486486 0
v -12.10811 -6.486486 0
v -12.54054 -6.918919 0
v -12.97297 -6.918919 0
v -12.97297 -6.486486 0
v -12.54054 -6.486486 0
v -16.43243 -7.351352 0
v -16.86486 -7.351352 0
v -16.86486 -6.918919 0
v -16.43243 -6.918919 0
v -16.86486 -7.351352 0
v -17.2973 -7.351352 0
v -17.2973 -6.918919 0
v -16.86486 -6.918919 0
v -17.2973 -7.351352 0
v -17.72973 -7.351352 0
v -17.72973 -6.918919 0
v -17.2973 -6.918919 0
v -17.72973 -7.351352 0
v -18.16216 -7.351352 0
v -18.16216 -6.918919 0
v -17.72973 -6.918919 0
v -18.16216 -7.351352 0
v -18.59459 -7.351352 0
v -18.59459 -6.918919 0
v -18.16216 -6.918919 0
v -18.59459 -7.351352 0
v -19.02703 -7.351352 0
v -19.02703 -6.918919 0
v -18.59459 -6.918919 0
v -19.02703 -7.351352 0
v -19.45946 -7.351352 0
v -19.45946 -6.918919 0
v -19.02703 -6.918919 0
v -16.43243 -7.783784 0
v -16.86486 -7.783784 0
v -16.86486 -7.351352 0
v -16.43243 -7.351352 0
v -16.86486 -7.783784 0
v -17.2973 -7.783784 0
v -17.2973 -7.351352 0
v -16.86486 -7.351352 0
v -17.2973 -7.783784 0
v -17.72973 -7.783784 0
v -17.72973 -7.351352 0
v -17.2973 -7.351352 0
v -17.72973 -7.783784 0
v -18.16216 -7.783784 0
v -18.16216 -7.351352 0
v -17.72973 -7.351352 0
v -18.16216 -7.783784 0
v -18.59459 -7.783784 0
v -18.59459 -7.351352 0
v -18.16216 -7.351352 0
v -18.59459 -7.783784 0
v -19.02703 -7.783784 0
v -19.02703 -7.351352 0
v -18.59459 -7.351352 0
v -19.02703 -7.783784 0
v -19.45946 -7.783784 0
v -19.45946 -7.351352 0
v -19.02703 -7.351352 0
v -10.37838 -8.216216 0
v -10.81081 -8.216216 0
v -10.81081 -7.783784 0
v -10.37838 -7.783784 0
v -10.81081 -8.216216 0
v -11.24324 -8.216216 0
v -11.24324 -7.783784 0
v -10.81081 -7.783784 0
v -16.43243 -8.216216 0
v -16.86486 -8.216216 0
v -16.86486 -7.783784 0
v -16.43243 -7.783784 0
v -16.86486 -8.216216 0
v -17.2973 -8.216216 0
v -17.2973 -7.783784 0
v -16.86486 -7.783784 0
v -17.2973 -8.216216 0
v -17.72973 -8.216216 0
v -17.72973 -7.783784 0
v -17.2973 -7.783784 0
v -17.72973 -8.216216 0
v -18.16216 -8.216216 0
v -18.16216 -7.783784 0
v -17.72973 -7.783784 0
v -18.16216 -8.216216 0
v -18.59459 -8.216216 0
v -18.59459 -7.783784 0
v -18.16216 -7.783784 0
v -18.59459 -8.216216 0
v -19.02703 -8.216216 0
v -19.02703 -7.783784 0
v -18.59459 -7.783784 0
v -19.02703 -8.216216 0
v -19.45946 -8.216216 0
v -19.45946 -7.783784 0
v -19.02703 -7.783784 0
v -10.37838 -8.648649 0
v -10.81081 -8.648649 0
v -10.81081 -8.216216 0
v -10.37838 -8.216216 0
v -10.81081 -8.648649 0
v -11.24324 -8.648649 0
v -11.24324 -8.216216 0
v -10.81081 -8.216216 0
v -18.59459 -8.648649 0
v -19.02703 -8.648649 0
v -19.02703 -8.216216 0
v -18.59459 -8.216216 0
v -19.02703 -8.648649 0
v -19.45946 -8.648649 0
v -19.45946 -8.216216 0
v -19.02703 -8.216216 0

# Texture cooridinates (Count = 96)
vt 0.0001220703 0.1667888
vt 0.08321127 0.1667888
vt 0.08321127 0.2498779
vt 0.0001220703 0.2498779
vt 0.08345541 0.1667888
vt 0.1665446 0.1667888
vt 0.1665446 0.2498779
vt 0.08345541 0.2498779
vt 0.1667887 0.1667888
vt 0.2498779 0.1667888
vt 0.2498779 0.2498779
vt 0.1667887 0.2498779
vt 0.2501221 0.1667888
vt 0.3332113 0.1667888
vt 0.3332113 0.2498779
vt 0.2501221 0.2498779
vt 0.0001220703 0.08345538
vt 0.08321127 0.08345538
vt 0.08321127 0.1665446
vt 0.0001220703 0.1665446
vt 0.08345541 0.08345538
vt 0.1665446 0.08345538
vt 0.1665446 0.1665446
vt 0.08345541 0.1665446
vt 0.1667887 0.08345538
vt 0.2498779 0.08345538
vt 0.2498779 0.1665446
vt 0.1667887 0.1665446
vt 0.2501221 0.08345538
vt 0.3332113 0.08345538
vt 0.3332113 0.1665446
vt 0.2501221 0.1665446
vt 0.0001220703 0.0001220703
vt 0.08321127 0.0001220703
vt 0.08321127 0.08321124
vt 0.0001220703 0.08321124
vt 0.08345541 0.0001220703
vt 0.1665446 0.0001220703
vt 0.1665446 0.08321124
vt 0.08345541 0.08321124
vt 0.1667887 0.0001220703
vt 0.2498779 0.0001220703
vt 0.2498779 0.08321124
vt 0.1667887 0.08321124
vt 0.2501221 0.0001220703
vt 0.3332113 0.0001220703
vt 0.3332113 0.08321124
vt 0.2501221 0.08321124
vt 0.1667887 0.5001221
vt 0.2498779 0.5001221
vt 0.2498779 0.5832113
vt 0.1667887 0.5832113
vt 0.2501221 0.5001221
vt 0.3332113 0.5001221
vt 0.3332113 0.5832113
vt 0.2501221 0.5832113
vt 0.3334554 0.5001221
vt 0.4165446 0.5001221
vt 0.4165446 0.5832113
vt 0.3334554 0.5832113
vt 0.4167887 0.5001221
vt 0.4998779 0.5001221
vt 0.4998779 0.5832113
vt 0.4167887 0.5832113
vt 0.1667887 0.4167888
vt 0.2498779 0.4167888
vt 0.2498779 0.4998779
vt 0.1667887 0.4998779
vt 0.2501221 0.4167888
vt 0.3332113 0.4167888
vt 0.3332113 0.4998779
vt 0.2501221 0.4998779
vt 0.3334554 0.4167888
vt 0.4165446 0.4167888
vt 0.4165446 0.4998779
vt 0.3334554 0.4998779
vt 0.4167887 0.4167888
vt 0.4998779 0.4167888
vt 0.4998779 0.4998779
vt 0.4167887 0.4998779
vt 0.1667887 0.3334554
vt 0.2498779 0.3334554
vt 0.2498779 0.4165446
vt 0.1667887 0.4165446
vt 0.2501221 0.3334554
vt 0.3332113 0.3334554
vt 0.3332113 0.4165446
vt 0.2501221 0.4165446
vt 0.3334554 0.3334554
vt 0.4165446 0.3334554
vt 0.4165446 0.4165446
vt 0.3334554 0.4165446
vt 0.4167887 0.3334554
vt 0.4998779 0.3334554
vt 0.4998779 0.4165446
vt 0.4167887 0.4165446

# Normal
vn 0 0 -1

# Mesh description
g beginning_mesh_0024

# Faces
f 1/1/1 2/2/1 3/3/1 4/4/1
f 5/5/1 6/6/1 7/7/1 8/8/1
f 9/9/1 10/10/1 11/11/1 12/12/1
f 13/13/1 14/14/1 15/15/1 16/16/1
f 17/17/1 18/18/1 19/19/1 20/20/1
f 21/21/1 22/22/1 23/23/1 24/24/1
f 25/25/1 26/26/1 27/27/1 28/28/1
f 29/29/1 30/30/1 31/31/1 32/32/1
f 33/33/1 34/34/1 35/35/1 36/36/1
f 37/37/1 38/38/1 39/39/1 40/40/1
f 41/41/1 42/42/1 43/43/1 44/44/1
f 45/45/1 46/46/1 47/47/1 48/48/1
f 49/49/1 50/50/1 51/51/1 52/52/1
f 53/49/1 54/50/1 55/51/1 56/52/1
f 57/53/1 58/54/1 59/55/1 60/56/1
f 61/49/1 62/50/1 63/51/1 64/52/1
f 65/49/1 66/50/1 67/51/1 68/52/1
f 69/57/1 70/58/1 71/59/1 72/60/1
f 73/61/1 74/62/1 75/63/1 76/64/1
f 77/65/1 78/66/1 79/67/1 80/68/1
f 81/65/1 82/66/1 83/67/1 84/68/1
f 85/69/1 86/70/1 87/71/1 88/72/1
f 89/65/1 90/66/1 91/67/1 92/68/1
f 93/65/1 94/66/1 95/67/1 96/68/1
f 97/73/1 98/74/1 99/75/1 100/76/1
f 101/77/1 102/78/1 103/79/1 104/80/1
f 105/1/1 106/2/1 107/3/1 108/4/1
f 109/5/1 110/6/1 111/7/1 112/8/1
f 113/81/1 114/82/1 115/83/1 116/84/1
f 117/81/1 118/82/1 119/83/1 120/84/1
f 121/85/1 122/86/1 123/87/1 124/88/1
f 125/81/1 126/82/1 127/83/1 128/84/1
f 129/81/1 130/82/1 131/83/1 132/84/1
f 133/89/1 134/90/1 135/91/1 136/92/1
f 137/93/1 138/94/1 139/95/1 140/96/1
f 141/17/1 142/18/1 143/19/1 144/20/1
f 145/21/1 146/22/1 147/23/1 148/24/1
f 149/89/1 150/90/1 151/91/1 152/92/1
f 153/93/1 154/94/1 155/95/1 156/96/1

