# Tiled2Unity generated file. Do not modify by hand.
# Wavefront file for 'beginning_mesh_0030.obj'

# Vertices (Count = 24)
v -15.56757 -7.351352 0
v -16 -7.351352 0
v -16 -6.918919 0
v -15.56757 -6.918919 0
v -16 -7.351352 0
v -16.43243 -7.351352 0
v -16.43243 -6.918919 0
v -16 -6.918919 0
v -15.56757 -7.783784 0
v -16 -7.783784 0
v -16 -7.351352 0
v -15.56757 -7.351352 0
v -16 -7.783784 0
v -16.43243 -7.783784 0
v -16.43243 -7.351352 0
v -16 -7.351352 0
v -15.56757 -8.216216 0
v -16 -8.216216 0
v -16 -7.783784 0
v -15.56757 -7.783784 0
v -16 -8.216216 0
v -16.43243 -8.216216 0
v -16.43243 -7.783784 0
v -16 -7.783784 0

# Texture cooridinates (Count = 24)
vt 0.5001221 0.5001221
vt 0.5832112 0.5001221
vt 0.5832112 0.5832113
vt 0.5001221 0.5832113
vt 0.5834554 0.5001221
vt 0.6665446 0.5001221
vt 0.6665446 0.5832113
vt 0.5834554 0.5832113
vt 0.5001221 0.4167888
vt 0.5832112 0.4167888
vt 0.5832112 0.4998779
vt 0.5001221 0.4998779
vt 0.5834554 0.4167888
vt 0.6665446 0.4167888
vt 0.6665446 0.4998779
vt 0.5834554 0.4998779
vt 0.5001221 0.3334554
vt 0.5832112 0.3334554
vt 0.5832112 0.4165446
vt 0.5001221 0.4165446
vt 0.5834554 0.3334554
vt 0.6665446 0.3334554
vt 0.6665446 0.4165446
vt 0.5834554 0.4165446

# Normal
vn 0 0 -1

# Mesh description
g beginning_mesh_0030

# Faces
f 1/1/1 2/2/1 3/3/1 4/4/1
f 5/5/1 6/6/1 7/7/1 8/8/1
f 9/9/1 10/10/1 11/11/1 12/12/1
f 13/13/1 14/14/1 15/15/1 16/16/1
f 17/17/1 18/18/1 19/19/1 20/20/1
f 21/21/1 22/22/1 23/23/1 24/24/1

