# Tiled2Unity generated file. Do not modify by hand.
# Wavefront file for 'beginning_mesh_0021.obj'

# Vertices (Count = 412)
v 0 -5.189189 0
v -0.4324324 -5.189189 0
v -0.4324324 -4.756757 0
v 0 -4.756757 0
v -0.4324324 -5.189189 0
v -0.8648649 -5.189189 0
v -0.8648649 -4.756757 0
v -0.4324324 -4.756757 0
v -0.8648649 -5.189189 0
v -1.297297 -5.189189 0
v -1.297297 -4.756757 0
v -0.8648649 -4.756757 0
v -1.297297 -5.189189 0
v -1.72973 -5.189189 0
v -1.72973 -4.756757 0
v -1.297297 -4.756757 0
v -1.72973 -5.189189 0
v -2.162162 -5.189189 0
v -2.162162 -4.756757 0
v -1.72973 -4.756757 0
v -2.162162 -5.189189 0
v -2.594595 -5.189189 0
v -2.594595 -4.756757 0
v -2.162162 -4.756757 0
v -2.594595 -5.189189 0
v -3.027027 -5.189189 0
v -3.027027 -4.756757 0
v -2.594595 -4.756757 0
v -3.027027 -5.189189 0
v -3.45946 -5.189189 0
v -3.45946 -4.756757 0
v -3.027027 -4.756757 0
v -3.45946 -5.189189 0
v -3.891892 -5.189189 0
v -3.891892 -4.756757 0
v -3.45946 -4.756757 0
v -3.891892 -5.189189 0
v -4.324325 -5.189189 0
v -4.324325 -4.756757 0
v -3.891892 -4.756757 0
v -4.324325 -5.189189 0
v -4.756757 -5.189189 0
v -4.756757 -4.756757 0
v -4.324325 -4.756757 0
v -4.756757 -5.189189 0
v -5.189189 -5.189189 0
v -5.189189 -4.756757 0
v -4.756757 -4.756757 0
v -5.189189 -5.189189 0
v -5.621622 -5.189189 0
v -5.621622 -4.756757 0
v -5.189189 -4.756757 0
v 0 -5.621622 0
v -0.4324324 -5.621622 0
v -0.4324324 -5.189189 0
v 0 -5.189189 0
v -0.4324324 -5.621622 0
v -0.8648649 -5.621622 0
v -0.8648649 -5.189189 0
v -0.4324324 -5.189189 0
v -0.8648649 -5.621622 0
v -1.297297 -5.621622 0
v -1.297297 -5.189189 0
v -0.8648649 -5.189189 0
v -1.297297 -5.621622 0
v -1.72973 -5.621622 0
v -1.72973 -5.189189 0
v -1.297297 -5.189189 0
v -1.72973 -5.621622 0
v -2.162162 -5.621622 0
v -2.162162 -5.189189 0
v -1.72973 -5.189189 0
v -2.162162 -5.621622 0
v -2.594595 -5.621622 0
v -2.594595 -5.189189 0
v -2.162162 -5.189189 0
v -2.594595 -5.621622 0
v -3.027027 -5.621622 0
v -3.027027 -5.189189 0
v -2.594595 -5.189189 0
v -3.027027 -5.621622 0
v -3.45946 -5.621622 0
v -3.45946 -5.189189 0
v -3.027027 -5.189189 0
v -3.45946 -5.621622 0
v -3.891892 -5.621622 0
v -3.891892 -5.189189 0
v -3.45946 -5.189189 0
v -3.891892 -5.621622 0
v -4.324325 -5.621622 0
v -4.324325 -5.189189 0
v -3.891892 -5.189189 0
v -4.324325 -5.621622 0
v -4.756757 -5.621622 0
v -4.756757 -5.189189 0
v -4.324325 -5.189189 0
v -4.756757 -5.621622 0
v -5.189189 -5.621622 0
v -5.189189 -5.189189 0
v -4.756757 -5.189189 0
v -5.189189 -5.621622 0
v -5.621622 -5.621622 0
v -5.621622 -5.189189 0
v -5.189189 -5.189189 0
v 0 -6.054054 0
v -0.4324324 -6.054054 0
v -0.4324324 -5.621622 0
v 0 -5.621622 0
v -0.4324324 -6.054054 0
v -0.8648649 -6.054054 0
v -0.8648649 -5.621622 0
v -0.4324324 -5.621622 0
v -0.8648649 -6.054054 0
v -1.297297 -6.054054 0
v -1.297297 -5.621622 0
v -0.8648649 -5.621622 0
v -1.297297 -6.054054 0
v -1.72973 -6.054054 0
v -1.72973 -5.621622 0
v -1.297297 -5.621622 0
v -1.72973 -6.054054 0
v -2.162162 -6.054054 0
v -2.162162 -5.621622 0
v -1.72973 -5.621622 0
v -2.162162 -6.054054 0
v -2.594595 -6.054054 0
v -2.594595 -5.621622 0
v -2.162162 -5.621622 0
v -2.594595 -6.054054 0
v -3.027027 -6.054054 0
v -3.027027 -5.621622 0
v -2.594595 -5.621622 0
v -3.027027 -6.054054 0
v -3.45946 -6.054054 0
v -3.45946 -5.621622 0
v -3.027027 -5.621622 0
v -3.45946 -6.054054 0
v -3.891892 -6.054054 0
v -3.891892 -5.621622 0
v -3.45946 -5.621622 0
v -3.891892 -6.054054 0
v -4.324325 -6.054054 0
v -4.324325 -5.621622 0
v -3.891892 -5.621622 0
v -4.324325 -6.054054 0
v -4.756757 -6.054054 0
v -4.756757 -5.621622 0
v -4.324325 -5.621622 0
v -4.756757 -6.054054 0
v -5.189189 -6.054054 0
v -5.189189 -5.621622 0
v -4.756757 -5.621622 0
v -5.189189 -6.054054 0
v -5.621622 -6.054054 0
v -5.621622 -5.621622 0
v -5.189189 -5.621622 0
v 0 -6.486486 0
v -0.4324324 -6.486486 0
v -0.4324324 -6.054054 0
v 0 -6.054054 0
v -0.4324324 -6.486486 0
v -0.8648649 -6.486486 0
v -0.8648649 -6.054054 0
v -0.4324324 -6.054054 0
v -0.8648649 -6.486486 0
v -1.297297 -6.486486 0
v -1.297297 -6.054054 0
v -0.8648649 -6.054054 0
v -1.297297 -6.486486 0
v -1.72973 -6.486486 0
v -1.72973 -6.054054 0
v -1.297297 -6.054054 0
v -1.72973 -6.486486 0
v -2.162162 -6.486486 0
v -2.162162 -6.054054 0
v -1.72973 -6.054054 0
v -2.162162 -6.486486 0
v -2.594595 -6.486486 0
v -2.594595 -6.054054 0
v -2.162162 -6.054054 0
v -2.594595 -6.486486 0
v -3.027027 -6.486486 0
v -3.027027 -6.054054 0
v -2.594595 -6.054054 0
v -3.027027 -6.486486 0
v -3.45946 -6.486486 0
v -3.45946 -6.054054 0
v -3.027027 -6.054054 0
v -3.45946 -6.486486 0
v -3.891892 -6.486486 0
v -3.891892 -6.054054 0
v -3.45946 -6.054054 0
v -3.891892 -6.486486 0
v -4.324325 -6.486486 0
v -4.324325 -6.054054 0
v -3.891892 -6.054054 0
v -4.324325 -6.486486 0
v -4.756757 -6.486486 0
v -4.756757 -6.054054 0
v -4.324325 -6.054054 0
v -4.756757 -6.486486 0
v -5.189189 -6.486486 0
v -5.189189 -6.054054 0
v -4.756757 -6.054054 0
v -5.189189 -6.486486 0
v -5.621622 -6.486486 0
v -5.621622 -6.054054 0
v -5.189189 -6.054054 0
v 0 -6.918919 0
v -0.4324324 -6.918919 0
v -0.4324324 -6.486486 0
v 0 -6.486486 0
v -0.4324324 -6.918919 0
v -0.8648649 -6.918919 0
v -0.8648649 -6.486486 0
v -0.4324324 -6.486486 0
v -0.8648649 -6.918919 0
v -1.297297 -6.918919 0
v -1.297297 -6.486486 0
v -0.8648649 -6.486486 0
v -1.297297 -6.918919 0
v -1.72973 -6.918919 0
v -1.72973 -6.486486 0
v -1.297297 -6.486486 0
v -1.72973 -6.918919 0
v -2.162162 -6.918919 0
v -2.162162 -6.486486 0
v -1.72973 -6.486486 0
v -2.162162 -6.918919 0
v -2.594595 -6.918919 0
v -2.594595 -6.486486 0
v -2.162162 -6.486486 0
v -2.594595 -6.918919 0
v -3.027027 -6.918919 0
v -3.027027 -6.486486 0
v -2.594595 -6.486486 0
v -3.027027 -6.918919 0
v -3.45946 -6.918919 0
v -3.45946 -6.486486 0
v -3.027027 -6.486486 0
v -3.45946 -6.918919 0
v -3.891892 -6.918919 0
v -3.891892 -6.486486 0
v -3.45946 -6.486486 0
v -3.891892 -6.918919 0
v -4.324325 -6.918919 0
v -4.324325 -6.486486 0
v -3.891892 -6.486486 0
v -4.324325 -6.918919 0
v -4.756757 -6.918919 0
v -4.756757 -6.486486 0
v -4.324325 -6.486486 0
v 0 -7.351352 0
v -0.4324324 -7.351352 0
v -0.4324324 -6.918919 0
v 0 -6.918919 0
v -0.4324324 -7.351352 0
v -0.8648649 -7.351352 0
v -0.8648649 -6.918919 0
v -0.4324324 -6.918919 0
v -0.8648649 -7.351352 0
v -1.297297 -7.351352 0
v -1.297297 -6.918919 0
v -0.8648649 -6.918919 0
v -1.297297 -7.351352 0
v -1.72973 -7.351352 0
v -1.72973 -6.918919 0
v -1.297297 -6.918919 0
v -1.72973 -7.351352 0
v -2.162162 -7.351352 0
v -2.162162 -6.918919 0
v -1.72973 -6.918919 0
v -2.162162 -7.351352 0
v -2.594595 -7.351352 0
v -2.594595 -6.918919 0
v -2.162162 -6.918919 0
v -2.594595 -7.351352 0
v -3.027027 -7.351352 0
v -3.027027 -6.918919 0
v -2.594595 -6.918919 0
v -3.027027 -7.351352 0
v -3.45946 -7.351352 0
v -3.45946 -6.918919 0
v -3.027027 -6.918919 0
v -3.45946 -7.351352 0
v -3.891892 -7.351352 0
v -3.891892 -6.918919 0
v -3.45946 -6.918919 0
v -3.891892 -7.351352 0
v -4.324325 -7.351352 0
v -4.324325 -6.918919 0
v -3.891892 -6.918919 0
v -4.324325 -7.351352 0
v -4.756757 -7.351352 0
v -4.756757 -6.918919 0
v -4.324325 -6.918919 0
v 0 -7.783784 0
v -0.4324324 -7.783784 0
v -0.4324324 -7.351352 0
v 0 -7.351352 0
v -0.4324324 -7.783784 0
v -0.8648649 -7.783784 0
v -0.8648649 -7.351352 0
v -0.4324324 -7.351352 0
v -0.8648649 -7.783784 0
v -1.297297 -7.783784 0
v -1.297297 -7.351352 0
v -0.8648649 -7.351352 0
v -1.297297 -7.783784 0
v -1.72973 -7.783784 0
v -1.72973 -7.351352 0
v -1.297297 -7.351352 0
v -1.72973 -7.783784 0
v -2.162162 -7.783784 0
v -2.162162 -7.351352 0
v -1.72973 -7.351352 0
v -2.162162 -7.783784 0
v -2.594595 -7.783784 0
v -2.594595 -7.351352 0
v -2.162162 -7.351352 0
v -2.594595 -7.783784 0
v -3.027027 -7.783784 0
v -3.027027 -7.351352 0
v -2.594595 -7.351352 0
v -3.027027 -7.783784 0
v -3.45946 -7.783784 0
v -3.45946 -7.351352 0
v -3.027027 -7.351352 0
v -3.45946 -7.783784 0
v -3.891892 -7.783784 0
v -3.891892 -7.351352 0
v -3.45946 -7.351352 0
v -3.891892 -7.783784 0
v -4.324325 -7.783784 0
v -4.324325 -7.351352 0
v -3.891892 -7.351352 0
v 0 -8.216216 0
v -0.4324324 -8.216216 0
v -0.4324324 -7.783784 0
v 0 -7.783784 0
v -0.4324324 -8.216216 0
v -0.8648649 -8.216216 0
v -0.8648649 -7.783784 0
v -0.4324324 -7.783784 0
v -0.8648649 -8.216216 0
v -1.297297 -8.216216 0
v -1.297297 -7.783784 0
v -0.8648649 -7.783784 0
v -1.297297 -8.216216 0
v -1.72973 -8.216216 0
v -1.72973 -7.783784 0
v -1.297297 -7.783784 0
v -1.72973 -8.216216 0
v -2.162162 -8.216216 0
v -2.162162 -7.783784 0
v -1.72973 -7.783784 0
v -2.162162 -8.216216 0
v -2.594595 -8.216216 0
v -2.594595 -7.783784 0
v -2.162162 -7.783784 0
v -2.594595 -8.216216 0
v -3.027027 -8.216216 0
v -3.027027 -7.783784 0
v -2.594595 -7.783784 0
v -3.027027 -8.216216 0
v -3.45946 -8.216216 0
v -3.45946 -7.783784 0
v -3.027027 -7.783784 0
v -3.45946 -8.216216 0
v -3.891892 -8.216216 0
v -3.891892 -7.783784 0
v -3.45946 -7.783784 0
v -3.891892 -8.216216 0
v -4.324325 -8.216216 0
v -4.324325 -7.783784 0
v -3.891892 -7.783784 0
v 0 -8.648649 0
v -0.4324324 -8.648649 0
v -0.4324324 -8.216216 0
v 0 -8.216216 0
v -0.4324324 -8.648649 0
v -0.8648649 -8.648649 0
v -0.8648649 -8.216216 0
v -0.4324324 -8.216216 0
v -0.8648649 -8.648649 0
v -1.297297 -8.648649 0
v -1.297297 -8.216216 0
v -0.8648649 -8.216216 0
v -1.297297 -8.648649 0
v -1.72973 -8.648649 0
v -1.72973 -8.216216 0
v -1.297297 -8.216216 0
v -1.72973 -8.648649 0
v -2.162162 -8.648649 0
v -2.162162 -8.216216 0
v -1.72973 -8.216216 0
v -2.162162 -8.648649 0
v -2.594595 -8.648649 0
v -2.594595 -8.216216 0
v -2.162162 -8.216216 0
v -2.594595 -8.648649 0
v -3.027027 -8.648649 0
v -3.027027 -8.216216 0
v -2.594595 -8.216216 0
v -3.027027 -8.648649 0
v -3.45946 -8.648649 0
v -3.45946 -8.216216 0
v -3.027027 -8.216216 0
v -3.45946 -8.648649 0
v -3.891892 -8.648649 0
v -3.891892 -8.216216 0
v -3.45946 -8.216216 0

# Texture cooridinates (Count = 32)
vt 0.4001221 0.8751221
vt 0.4998779 0.8751221
vt 0.4998779 0.9998779
vt 0.4001221 0.9998779
vt 0.5001221 0.8751221
vt 0.599878 0.8751221
vt 0.599878 0.9998779
vt 0.5001221 0.9998779
vt 0.2001221 0.8751221
vt 0.2998779 0.8751221
vt 0.2998779 0.9998779
vt 0.2001221 0.9998779
vt 0.3001221 0.8751221
vt 0.3998779 0.8751221
vt 0.3998779 0.9998779
vt 0.3001221 0.9998779
vt 0.4001221 0.7501221
vt 0.4998779 0.7501221
vt 0.4998779 0.8748779
vt 0.4001221 0.8748779
vt 0.5001221 0.7501221
vt 0.599878 0.7501221
vt 0.599878 0.8748779
vt 0.5001221 0.8748779
vt 0.2001221 0.7501221
vt 0.2998779 0.7501221
vt 0.2998779 0.8748779
vt 0.2001221 0.8748779
vt 0.3001221 0.7501221
vt 0.3998779 0.7501221
vt 0.3998779 0.8748779
vt 0.3001221 0.8748779

# Normal
vn 0 0 -1

# Mesh description
g beginning_mesh_0021

# Faces
f 1/1/1 2/2/1 3/3/1 4/4/1
f 5/5/1 6/6/1 7/7/1 8/8/1
f 9/1/1 10/2/1 11/3/1 12/4/1
f 13/5/1 14/6/1 15/7/1 16/8/1
f 17/5/1 18/6/1 19/7/1 20/8/1
f 21/1/1 22/2/1 23/3/1 24/4/1
f 25/5/1 26/6/1 27/7/1 28/8/1
f 29/1/1 30/2/1 31/3/1 32/4/1
f 33/5/1 34/6/1 35/7/1 36/8/1
f 37/1/1 38/2/1 39/3/1 40/4/1
f 41/5/1 42/6/1 43/7/1 44/8/1
f 45/9/1 46/10/1 47/11/1 48/12/1
f 49/13/1 50/14/1 51/15/1 52/16/1
f 53/17/1 54/18/1 55/19/1 56/20/1
f 57/21/1 58/22/1 59/23/1 60/24/1
f 61/17/1 62/18/1 63/19/1 64/20/1
f 65/21/1 66/22/1 67/23/1 68/24/1
f 69/21/1 70/22/1 71/23/1 72/24/1
f 73/17/1 74/18/1 75/19/1 76/20/1
f 77/21/1 78/22/1 79/23/1 80/24/1
f 81/17/1 82/18/1 83/19/1 84/20/1
f 85/21/1 86/22/1 87/23/1 88/24/1
f 89/17/1 90/18/1 91/19/1 92/20/1
f 93/21/1 94/22/1 95/23/1 96/24/1
f 97/25/1 98/26/1 99/27/1 100/28/1
f 101/29/1 102/30/1 103/31/1 104/32/1
f 105/1/1 106/2/1 107/3/1 108/4/1
f 109/5/1 110/6/1 111/7/1 112/8/1
f 113/1/1 114/2/1 115/3/1 116/4/1
f 117/5/1 118/6/1 119/7/1 120/8/1
f 121/5/1 122/6/1 123/7/1 124/8/1
f 125/1/1 126/2/1 127/3/1 128/4/1
f 129/5/1 130/6/1 131/7/1 132/8/1
f 133/1/1 134/2/1 135/3/1 136/4/1
f 137/5/1 138/6/1 139/7/1 140/8/1
f 141/1/1 142/2/1 143/3/1 144/4/1
f 145/5/1 146/6/1 147/7/1 148/8/1
f 149/9/1 150/10/1 151/11/1 152/12/1
f 153/13/1 154/14/1 155/15/1 156/16/1
f 157/17/1 158/18/1 159/19/1 160/20/1
f 161/21/1 162/22/1 163/23/1 164/24/1
f 165/17/1 166/18/1 167/19/1 168/20/1
f 169/21/1 170/22/1 171/23/1 172/24/1
f 173/5/1 174/6/1 175/7/1 176/8/1
f 177/1/1 178/2/1 179/3/1 180/4/1
f 181/5/1 182/6/1 183/7/1 184/8/1
f 185/17/1 186/18/1 187/19/1 188/20/1
f 189/21/1 190/22/1 191/23/1 192/24/1
f 193/17/1 194/18/1 195/19/1 196/20/1
f 197/21/1 198/22/1 199/23/1 200/24/1
f 201/25/1 202/26/1 203/27/1 204/28/1
f 205/29/1 206/30/1 207/31/1 208/32/1
f 209/1/1 210/2/1 211/3/1 212/4/1
f 213/5/1 214/6/1 215/7/1 216/8/1
f 217/1/1 218/2/1 219/3/1 220/4/1
f 221/5/1 222/6/1 223/7/1 224/8/1
f 225/21/1 226/22/1 227/23/1 228/24/1
f 229/17/1 230/18/1 231/19/1 232/20/1
f 233/21/1 234/22/1 235/23/1 236/24/1
f 237/1/1 238/2/1 239/3/1 240/4/1
f 241/5/1 242/6/1 243/7/1 244/8/1
f 245/1/1 246/2/1 247/3/1 248/4/1
f 249/5/1 250/6/1 251/7/1 252/8/1
f 253/17/1 254/18/1 255/19/1 256/20/1
f 257/21/1 258/22/1 259/23/1 260/24/1
f 261/17/1 262/18/1 263/19/1 264/20/1
f 265/21/1 266/22/1 267/23/1 268/24/1
f 269/5/1 270/6/1 271/7/1 272/8/1
f 273/1/1 274/2/1 275/3/1 276/4/1
f 277/5/1 278/6/1 279/7/1 280/8/1
f 281/17/1 282/18/1 283/19/1 284/20/1
f 285/21/1 286/22/1 287/23/1 288/24/1
f 289/17/1 290/18/1 291/19/1 292/20/1
f 293/21/1 294/22/1 295/23/1 296/24/1
f 297/17/1 298/18/1 299/19/1 300/20/1
f 301/21/1 302/22/1 303/23/1 304/24/1
f 305/17/1 306/18/1 307/19/1 308/20/1
f 309/21/1 310/22/1 311/23/1 312/24/1
f 313/21/1 314/22/1 315/23/1 316/24/1
f 317/17/1 318/18/1 319/19/1 320/20/1
f 321/21/1 322/22/1 323/23/1 324/24/1
f 325/1/1 326/2/1 327/3/1 328/4/1
f 329/1/1 330/2/1 331/3/1 332/4/1
f 333/5/1 334/6/1 335/7/1 336/8/1
f 337/1/1 338/2/1 339/3/1 340/4/1
f 341/5/1 342/6/1 343/7/1 344/8/1
f 345/1/1 346/2/1 347/3/1 348/4/1
f 349/5/1 350/6/1 351/7/1 352/8/1
f 353/5/1 354/6/1 355/7/1 356/8/1
f 357/1/1 358/2/1 359/3/1 360/4/1
f 361/5/1 362/6/1 363/7/1 364/8/1
f 365/17/1 366/18/1 367/19/1 368/20/1
f 369/1/1 370/2/1 371/3/1 372/4/1
f 373/5/1 374/6/1 375/7/1 376/8/1
f 377/17/1 378/18/1 379/19/1 380/20/1
f 381/21/1 382/22/1 383/23/1 384/24/1
f 385/17/1 386/18/1 387/19/1 388/20/1
f 389/21/1 390/22/1 391/23/1 392/24/1
f 393/21/1 394/22/1 395/23/1 396/24/1
f 397/17/1 398/18/1 399/19/1 400/20/1
f 401/21/1 402/22/1 403/23/1 404/24/1
f 405/17/1 406/18/1 407/19/1 408/20/1
f 409/17/1 410/18/1 411/19/1 412/20/1

