# Tiled2Unity generated file. Do not modify by hand.
# Wavefront file for 'beginning_mesh_0025.obj'

# Vertices (Count = 88)
v -12.97297 -6.054054 0
v -13.40541 -6.054054 0
v -13.40541 -5.621622 0
v -12.97297 -5.621622 0
v -13.40541 -6.054054 0
v -13.83784 -6.054054 0
v -13.83784 -5.621622 0
v -13.40541 -5.621622 0
v -13.83784 -6.054054 0
v -14.27027 -6.054054 0
v -14.27027 -5.621622 0
v -13.83784 -5.621622 0
v -14.27027 -6.054054 0
v -14.7027 -6.054054 0
v -14.7027 -5.621622 0
v -14.27027 -5.621622 0
v -12.97297 -6.486486 0
v -13.40541 -6.486486 0
v -13.40541 -6.054054 0
v -12.97297 -6.054054 0
v -13.40541 -6.486486 0
v -13.83784 -6.486486 0
v -13.83784 -6.054054 0
v -13.40541 -6.054054 0
v -13.83784 -6.486486 0
v -14.27027 -6.486486 0
v -14.27027 -6.054054 0
v -13.83784 -6.054054 0
v -14.27027 -6.486486 0
v -14.7027 -6.486486 0
v -14.7027 -6.054054 0
v -14.27027 -6.054054 0
v -12.97297 -6.918919 0
v -13.40541 -6.918919 0
v -13.40541 -6.486486 0
v -12.97297 -6.486486 0
v -13.40541 -6.918919 0
v -13.83784 -6.918919 0
v -13.83784 -6.486486 0
v -13.40541 -6.486486 0
v -13.83784 -6.918919 0
v -14.27027 -6.918919 0
v -14.27027 -6.486486 0
v -13.83784 -6.486486 0
v -14.27027 -6.918919 0
v -14.7027 -6.918919 0
v -14.7027 -6.486486 0
v -14.27027 -6.486486 0
v -14.7027 -6.918919 0
v -15.13514 -6.918919 0
v -15.13514 -6.486486 0
v -14.7027 -6.486486 0
v -15.13514 -6.918919 0
v -15.56757 -6.918919 0
v -15.56757 -6.486486 0
v -15.13514 -6.486486 0
v -12.97297 -7.351352 0
v -13.40541 -7.351352 0
v -13.40541 -6.918919 0
v -12.97297 -6.918919 0
v -13.40541 -7.351352 0
v -13.83784 -7.351352 0
v -13.83784 -6.918919 0
v -13.40541 -6.918919 0
v -13.83784 -7.351352 0
v -14.27027 -7.351352 0
v -14.27027 -6.918919 0
v -13.83784 -6.918919 0
v -14.27027 -7.351352 0
v -14.7027 -7.351352 0
v -14.7027 -6.918919 0
v -14.27027 -6.918919 0
v -14.7027 -7.351352 0
v -15.13514 -7.351352 0
v -15.13514 -6.918919 0
v -14.7027 -6.918919 0
v -15.13514 -7.351352 0
v -15.56757 -7.351352 0
v -15.56757 -6.918919 0
v -15.13514 -6.918919 0
v -14.7027 -7.783784 0
v -15.13514 -7.783784 0
v -15.13514 -7.351352 0
v -14.7027 -7.351352 0
v -15.13514 -7.783784 0
v -15.56757 -7.783784 0
v -15.56757 -7.351352 0
v -15.13514 -7.351352 0

# Texture cooridinates (Count = 64)
vt 0.6667888 0.8001221
vt 0.7498779 0.8001221
vt 0.7498779 0.8998779
vt 0.6667888 0.8998779
vt 0.7501221 0.8001221
vt 0.8332112 0.8001221
vt 0.8332112 0.8998779
vt 0.7501221 0.8998779
vt 0.8334554 0.8001221
vt 0.9165446 0.8001221
vt 0.9165446 0.8998779
vt 0.8334554 0.8998779
vt 0.9167888 0.8001221
vt 0.9998779 0.8001221
vt 0.9998779 0.8998779
vt 0.9167888 0.8998779
vt 0.6667888 0.7001221
vt 0.7498779 0.7001221
vt 0.7498779 0.7998779
vt 0.6667888 0.7998779
vt 0.7501221 0.7001221
vt 0.8332112 0.7001221
vt 0.8332112 0.7998779
vt 0.7501221 0.7998779
vt 0.8334554 0.7001221
vt 0.9165446 0.7001221
vt 0.9165446 0.7998779
vt 0.8334554 0.7998779
vt 0.9167888 0.7001221
vt 0.9998779 0.7001221
vt 0.9998779 0.7998779
vt 0.9167888 0.7998779
vt 0.6667888 0.6001221
vt 0.7498779 0.6001221
vt 0.7498779 0.6998779
vt 0.6667888 0.6998779
vt 0.7501221 0.6001221
vt 0.8332112 0.6001221
vt 0.8332112 0.6998779
vt 0.7501221 0.6998779
vt 0.8334554 0.6001221
vt 0.9165446 0.6001221
vt 0.9165446 0.6998779
vt 0.8334554 0.6998779
vt 0.9167888 0.6001221
vt 0.9998779 0.6001221
vt 0.9998779 0.6998779
vt 0.9167888 0.6998779
vt 0.6667888 0.5001221
vt 0.7498779 0.5001221
vt 0.7498779 0.599878
vt 0.6667888 0.599878
vt 0.7501221 0.5001221
vt 0.8332112 0.5001221
vt 0.8332112 0.599878
vt 0.7501221 0.599878
vt 0.8334554 0.5001221
vt 0.9165446 0.5001221
vt 0.9165446 0.599878
vt 0.8334554 0.599878
vt 0.9167888 0.5001221
vt 0.9998779 0.5001221
vt 0.9998779 0.599878
vt 0.9167888 0.599878

# Normal
vn 0 0 -1

# Mesh description
g beginning_mesh_0025

# Faces
f 1/1/1 2/2/1 3/3/1 4/4/1
f 5/5/1 6/6/1 7/7/1 8/8/1
f 9/9/1 10/10/1 11/11/1 12/12/1
f 13/13/1 14/14/1 15/15/1 16/16/1
f 17/17/1 18/18/1 19/19/1 20/20/1
f 21/21/1 22/22/1 23/23/1 24/24/1
f 25/25/1 26/26/1 27/27/1 28/28/1
f 29/29/1 30/30/1 31/31/1 32/32/1
f 33/33/1 34/34/1 35/35/1 36/36/1
f 37/37/1 38/38/1 39/39/1 40/40/1
f 41/41/1 42/42/1 43/43/1 44/44/1
f 45/45/1 46/46/1 47/47/1 48/48/1
f 49/25/1 50/26/1 51/27/1 52/28/1
f 53/29/1 54/30/1 55/31/1 56/32/1
f 57/49/1 58/50/1 59/51/1 60/52/1
f 61/53/1 62/54/1 63/55/1 64/56/1
f 65/57/1 66/58/1 67/59/1 68/60/1
f 69/61/1 70/62/1 71/63/1 72/64/1
f 73/41/1 74/42/1 75/43/1 76/44/1
f 77/45/1 78/46/1 79/47/1 80/48/1
f 81/57/1 82/58/1 83/59/1 84/60/1
f 85/61/1 86/62/1 87/63/1 88/64/1

