# Tiled2Unity generated file. Do not modify by hand.
# Wavefront file for 'beginning_mesh_0018.obj'

# Vertices (Count = 252)
v -32 -3.891892 0
v -32.43243 -3.891892 0
v -32.43243 -3.45946 0
v -32 -3.45946 0
v -32.43243 -3.891892 0
v -32.86486 -3.891892 0
v -32.86486 -3.45946 0
v -32.43243 -3.45946 0
v -57.08108 -3.891892 0
v -57.51352 -3.891892 0
v -57.51352 -3.45946 0
v -57.08108 -3.45946 0
v -57.51352 -3.891892 0
v -57.94595 -3.891892 0
v -57.94595 -3.45946 0
v -57.51352 -3.45946 0
v -57.94595 -3.891892 0
v -58.37838 -3.891892 0
v -58.37838 -3.45946 0
v -57.94595 -3.45946 0
v -58.37838 -3.891892 0
v -58.81081 -3.891892 0
v -58.81081 -3.45946 0
v -58.37838 -3.45946 0
v -58.81081 -3.891892 0
v -59.24324 -3.891892 0
v -59.24324 -3.45946 0
v -58.81081 -3.45946 0
v -59.24324 -3.891892 0
v -59.67568 -3.891892 0
v -59.67568 -3.45946 0
v -59.24324 -3.45946 0
v -64 -3.891892 0
v -64.43243 -3.891892 0
v -64.43243 -3.45946 0
v -64 -3.45946 0
v -64.43243 -3.891892 0
v -64.86487 -3.891892 0
v -64.86487 -3.45946 0
v -64.43243 -3.45946 0
v -64.86487 -3.891892 0
v -65.2973 -3.891892 0
v -65.2973 -3.45946 0
v -64.86487 -3.45946 0
v -65.2973 -3.891892 0
v -65.72973 -3.891892 0
v -65.72973 -3.45946 0
v -65.2973 -3.45946 0
v -65.72973 -3.891892 0
v -66.16216 -3.891892 0
v -66.16216 -3.45946 0
v -65.72973 -3.45946 0
v -66.16216 -3.891892 0
v -66.5946 -3.891892 0
v -66.5946 -3.45946 0
v -66.16216 -3.45946 0
v -32 -4.324325 0
v -32.43243 -4.324325 0
v -32.43243 -3.891892 0
v -32 -3.891892 0
v -32.43243 -4.324325 0
v -32.86486 -4.324325 0
v -32.86486 -3.891892 0
v -32.43243 -3.891892 0
v -51.02703 -4.324325 0
v -51.45946 -4.324325 0
v -51.45946 -3.891892 0
v -51.02703 -3.891892 0
v -51.45946 -4.324325 0
v -51.89189 -4.324325 0
v -51.89189 -3.891892 0
v -51.45946 -3.891892 0
v -51.89189 -4.324325 0
v -52.32433 -4.324325 0
v -52.32433 -3.891892 0
v -51.89189 -3.891892 0
v -52.32433 -4.324325 0
v -52.75676 -4.324325 0
v -52.75676 -3.891892 0
v -52.32433 -3.891892 0
v -52.75676 -4.324325 0
v -53.18919 -4.324325 0
v -53.18919 -3.891892 0
v -52.75676 -3.891892 0
v -53.18919 -4.324325 0
v -53.62162 -4.324325 0
v -53.62162 -3.891892 0
v -53.18919 -3.891892 0
v -57.08108 -4.324325 0
v -57.51352 -4.324325 0
v -57.51352 -3.891892 0
v -57.08108 -3.891892 0
v -57.51352 -4.324325 0
v -57.94595 -4.324325 0
v -57.94595 -3.891892 0
v -57.51352 -3.891892 0
v -57.94595 -4.324325 0
v -58.37838 -4.324325 0
v -58.37838 -3.891892 0
v -57.94595 -3.891892 0
v -58.37838 -4.324325 0
v -58.81081 -4.324325 0
v -58.81081 -3.891892 0
v -58.37838 -3.891892 0
v -58.81081 -4.324325 0
v -59.24324 -4.324325 0
v -59.24324 -3.891892 0
v -58.81081 -3.891892 0
v -59.24324 -4.324325 0
v -59.67568 -4.324325 0
v -59.67568 -3.891892 0
v -59.24324 -3.891892 0
v -64 -4.324325 0
v -64.43243 -4.324325 0
v -64.43243 -3.891892 0
v -64 -3.891892 0
v -64.43243 -4.324325 0
v -64.86487 -4.324325 0
v -64.86487 -3.891892 0
v -64.43243 -3.891892 0
v -64.86487 -4.324325 0
v -65.2973 -4.324325 0
v -65.2973 -3.891892 0
v -64.86487 -3.891892 0
v -65.2973 -4.324325 0
v -65.72973 -4.324325 0
v -65.72973 -3.891892 0
v -65.2973 -3.891892 0
v -65.72973 -4.324325 0
v -66.16216 -4.324325 0
v -66.16216 -3.891892 0
v -65.72973 -3.891892 0
v -66.16216 -4.324325 0
v -66.5946 -4.324325 0
v -66.5946 -3.891892 0
v -66.16216 -3.891892 0
v -32 -4.756757 0
v -32.43243 -4.756757 0
v -32.43243 -4.324325 0
v -32 -4.324325 0
v -51.02703 -4.756757 0
v -51.45946 -4.756757 0
v -51.45946 -4.324325 0
v -51.02703 -4.324325 0
v -51.45946 -4.756757 0
v -51.89189 -4.756757 0
v -51.89189 -4.324325 0
v -51.45946 -4.324325 0
v -51.89189 -4.756757 0
v -52.32433 -4.756757 0
v -52.32433 -4.324325 0
v -51.89189 -4.324325 0
v -52.32433 -4.756757 0
v -52.75676 -4.756757 0
v -52.75676 -4.324325 0
v -52.32433 -4.324325 0
v -52.75676 -4.756757 0
v -53.18919 -4.756757 0
v -53.18919 -4.324325 0
v -52.75676 -4.324325 0
v -53.18919 -4.756757 0
v -53.62162 -4.756757 0
v -53.62162 -4.324325 0
v -53.18919 -4.324325 0
v -57.08108 -4.756757 0
v -57.51352 -4.756757 0
v -57.51352 -4.324325 0
v -57.08108 -4.324325 0
v -57.51352 -4.756757 0
v -57.94595 -4.756757 0
v -57.94595 -4.324325 0
v -57.51352 -4.324325 0
v -57.94595 -4.756757 0
v -58.37838 -4.756757 0
v -58.37838 -4.324325 0
v -57.94595 -4.324325 0
v -58.37838 -4.756757 0
v -58.81081 -4.756757 0
v -58.81081 -4.324325 0
v -58.37838 -4.324325 0
v -58.81081 -4.756757 0
v -59.24324 -4.756757 0
v -59.24324 -4.324325 0
v -58.81081 -4.324325 0
v -59.24324 -4.756757 0
v -59.67568 -4.756757 0
v -59.67568 -4.324325 0
v -59.24324 -4.324325 0
v -64 -4.756757 0
v -64.43243 -4.756757 0
v -64.43243 -4.324325 0
v -64 -4.324325 0
v -64.43243 -4.756757 0
v -64.86487 -4.756757 0
v -64.86487 -4.324325 0
v -64.43243 -4.324325 0
v -64.86487 -4.756757 0
v -65.2973 -4.756757 0
v -65.2973 -4.324325 0
v -64.86487 -4.324325 0
v -65.2973 -4.756757 0
v -65.72973 -4.756757 0
v -65.72973 -4.324325 0
v -65.2973 -4.324325 0
v -65.72973 -4.756757 0
v -66.16216 -4.756757 0
v -66.16216 -4.324325 0
v -65.72973 -4.324325 0
v -66.16216 -4.756757 0
v -66.5946 -4.756757 0
v -66.5946 -4.324325 0
v -66.16216 -4.324325 0
v -51.02703 -5.189189 0
v -51.45946 -5.189189 0
v -51.45946 -4.756757 0
v -51.02703 -4.756757 0
v -51.45946 -5.189189 0
v -51.89189 -5.189189 0
v -51.89189 -4.756757 0
v -51.45946 -4.756757 0
v -51.89189 -5.189189 0
v -52.32433 -5.189189 0
v -52.32433 -4.756757 0
v -51.89189 -4.756757 0
v -52.32433 -5.189189 0
v -52.75676 -5.189189 0
v -52.75676 -4.756757 0
v -52.32433 -4.756757 0
v -52.75676 -5.189189 0
v -53.18919 -5.189189 0
v -53.18919 -4.756757 0
v -52.75676 -4.756757 0
v -53.18919 -5.189189 0
v -53.62162 -5.189189 0
v -53.62162 -4.756757 0
v -53.18919 -4.756757 0
v -43.24324 -5.621622 0
v -43.67568 -5.621622 0
v -43.67568 -5.189189 0
v -43.24324 -5.189189 0
v -43.67568 -5.621622 0
v -44.10811 -5.621622 0
v -44.10811 -5.189189 0
v -43.67568 -5.189189 0
v -44.10811 -5.621622 0
v -44.54054 -5.621622 0
v -44.54054 -5.189189 0
v -44.10811 -5.189189 0
v -44.97297 -5.621622 0
v -45.40541 -5.621622 0
v -45.40541 -5.189189 0
v -44.97297 -5.189189 0

# Texture cooridinates (Count = 72)
vt 0.0001220703 0.8334554
vt 0.08321127 0.8334554
vt 0.08321127 0.9165446
vt 0.0001220703 0.9165446
vt 0.08345541 0.8334554
vt 0.1665446 0.8334554
vt 0.1665446 0.9165446
vt 0.08345541 0.9165446
vt 0.1667887 0.8334554
vt 0.2498779 0.8334554
vt 0.2498779 0.9165446
vt 0.1667887 0.9165446
vt 0.2501221 0.8334554
vt 0.3332113 0.8334554
vt 0.3332113 0.9165446
vt 0.2501221 0.9165446
vt 0.3334554 0.8334554
vt 0.4165446 0.8334554
vt 0.4165446 0.9165446
vt 0.3334554 0.9165446
vt 0.4167887 0.8334554
vt 0.4998779 0.8334554
vt 0.4998779 0.9165446
vt 0.4167887 0.9165446
vt 0.0001220703 0.7501221
vt 0.08321127 0.7501221
vt 0.08321127 0.8332112
vt 0.0001220703 0.8332112
vt 0.08345541 0.7501221
vt 0.1665446 0.7501221
vt 0.1665446 0.8332112
vt 0.08345541 0.8332112
vt 0.1667887 0.7501221
vt 0.2498779 0.7501221
vt 0.2498779 0.8332112
vt 0.1667887 0.8332112
vt 0.2501221 0.7501221
vt 0.3332113 0.7501221
vt 0.3332113 0.8332112
vt 0.2501221 0.8332112
vt 0.3334554 0.7501221
vt 0.4165446 0.7501221
vt 0.4165446 0.8332112
vt 0.3334554 0.8332112
vt 0.4167887 0.7501221
vt 0.4998779 0.7501221
vt 0.4998779 0.8332112
vt 0.4167887 0.8332112
vt 0.0001220703 0.6667887
vt 0.08321127 0.6667887
vt 0.08321127 0.7498779
vt 0.0001220703 0.7498779
vt 0.08345541 0.6667887
vt 0.1665446 0.6667887
vt 0.1665446 0.7498779
vt 0.08345541 0.7498779
vt 0.1667887 0.6667887
vt 0.2498779 0.6667887
vt 0.2498779 0.7498779
vt 0.1667887 0.7498779
vt 0.2501221 0.6667887
vt 0.3332113 0.6667887
vt 0.3332113 0.7498779
vt 0.2501221 0.7498779
vt 0.3334554 0.6667887
vt 0.4165446 0.6667887
vt 0.4165446 0.7498779
vt 0.3334554 0.7498779
vt 0.4167887 0.6667887
vt 0.4998779 0.6667887
vt 0.4998779 0.7498779
vt 0.4167887 0.7498779

# Normal
vn 0 0 -1

# Mesh description
g beginning_mesh_0018

# Faces
f 1/1/1 2/2/1 3/3/1 4/4/1
f 5/5/1 6/6/1 7/7/1 8/8/1
f 9/1/1 10/2/1 11/3/1 12/4/1
f 13/5/1 14/6/1 15/7/1 16/8/1
f 17/9/1 18/10/1 19/11/1 20/12/1
f 21/13/1 22/14/1 23/15/1 24/16/1
f 25/17/1 26/18/1 27/19/1 28/20/1
f 29/21/1 30/22/1 31/23/1 32/24/1
f 33/1/1 34/2/1 35/3/1 36/4/1
f 37/5/1 38/6/1 39/7/1 40/8/1
f 41/9/1 42/10/1 43/11/1 44/12/1
f 45/13/1 46/14/1 47/15/1 48/16/1
f 49/17/1 50/18/1 51/19/1 52/20/1
f 53/21/1 54/22/1 55/23/1 56/24/1
f 57/25/1 58/26/1 59/27/1 60/28/1
f 61/29/1 62/30/1 63/31/1 64/32/1
f 65/1/1 66/2/1 67/3/1 68/4/1
f 69/5/1 70/6/1 71/7/1 72/8/1
f 73/9/1 74/10/1 75/11/1 76/12/1
f 77/13/1 78/14/1 79/15/1 80/16/1
f 81/17/1 82/18/1 83/19/1 84/20/1
f 85/21/1 86/22/1 87/23/1 88/24/1
f 89/25/1 90/26/1 91/27/1 92/28/1
f 93/29/1 94/30/1 95/31/1 96/32/1
f 97/33/1 98/34/1 99/35/1 100/36/1
f 101/37/1 102/38/1 103/39/1 104/40/1
f 105/41/1 106/42/1 107/43/1 108/44/1
f 109/45/1 110/46/1 111/47/1 112/48/1
f 113/25/1 114/26/1 115/27/1 116/28/1
f 117/29/1 118/30/1 119/31/1 120/32/1
f 121/33/1 122/34/1 123/35/1 124/36/1
f 125/37/1 126/38/1 127/39/1 128/40/1
f 129/41/1 130/42/1 131/43/1 132/44/1
f 133/45/1 134/46/1 135/47/1 136/48/1
f 137/49/1 138/50/1 139/51/1 140/52/1
f 141/25/1 142/26/1 143/27/1 144/28/1
f 145/29/1 146/30/1 147/31/1 148/32/1
f 149/33/1 150/34/1 151/35/1 152/36/1
f 153/37/1 154/38/1 155/39/1 156/40/1
f 157/41/1 158/42/1 159/43/1 160/44/1
f 161/45/1 162/46/1 163/47/1 164/48/1
f 165/49/1 166/50/1 167/51/1 168/52/1
f 169/53/1 170/54/1 171/55/1 172/56/1
f 173/57/1 174/58/1 175/59/1 176/60/1
f 177/61/1 178/62/1 179/63/1 180/64/1
f 181/65/1 182/66/1 183/67/1 184/68/1
f 185/69/1 186/70/1 187/71/1 188/72/1
f 189/49/1 190/50/1 191/51/1 192/52/1
f 193/53/1 194/54/1 195/55/1 196/56/1
f 197/57/1 198/58/1 199/59/1 200/60/1
f 201/61/1 202/62/1 203/63/1 204/64/1
f 205/65/1 206/66/1 207/67/1 208/68/1
f 209/69/1 210/70/1 211/71/1 212/72/1
f 213/49/1 214/50/1 215/51/1 216/52/1
f 217/53/1 218/54/1 219/55/1 220/56/1
f 221/57/1 222/58/1 223/59/1 224/60/1
f 225/61/1 226/62/1 227/63/1 228/64/1
f 229/65/1 230/66/1 231/67/1 232/68/1
f 233/69/1 234/70/1 235/71/1 236/72/1
f 237/57/1 238/58/1 239/59/1 240/60/1
f 241/61/1 242/62/1 243/63/1 244/64/1
f 245/65/1 246/66/1 247/67/1 248/68/1
f 249/50/1 250/49/1 251/52/1 252/51/1

