# Tiled2Unity generated file. Do not modify by hand.
# Wavefront file for 'beginning_mesh_0026.obj'

# Vertices (Count = 32)
v -11.24324 -7.351352 0
v -11.67568 -7.351352 0
v -11.67568 -6.918919 0
v -11.24324 -6.918919 0
v -11.67568 -7.351352 0
v -12.10811 -7.351352 0
v -12.10811 -6.918919 0
v -11.67568 -6.918919 0
v -11.24324 -7.783784 0
v -11.67568 -7.783784 0
v -11.67568 -7.351352 0
v -11.24324 -7.351352 0
v -11.67568 -7.783784 0
v -12.10811 -7.783784 0
v -12.10811 -7.351352 0
v -11.67568 -7.351352 0
v -11.24324 -8.216216 0
v -11.67568 -8.216216 0
v -11.67568 -7.783784 0
v -11.24324 -7.783784 0
v -11.67568 -8.216216 0
v -12.10811 -8.216216 0
v -12.10811 -7.783784 0
v -11.67568 -7.783784 0
v -11.24324 -8.648649 0
v -11.67568 -8.648649 0
v -11.67568 -8.216216 0
v -11.24324 -8.216216 0
v -11.67568 -8.648649 0
v -12.10811 -8.648649 0
v -12.10811 -8.216216 0
v -11.67568 -8.216216 0

# Texture cooridinates (Count = 32)
vt 0.0001220703 0.6667887
vt 0.1248779 0.6667887
vt 0.1248779 0.7082113
vt 0.0001220703 0.7082113
vt 0.1251221 0.6667887
vt 0.2498779 0.6667887
vt 0.2498779 0.7082113
vt 0.1251221 0.7082113
vt 0.0001220703 0.6251221
vt 0.1248779 0.6251221
vt 0.1248779 0.6665446
vt 0.0001220703 0.6665446
vt 0.1251221 0.6251221
vt 0.2498779 0.6251221
vt 0.2498779 0.6665446
vt 0.1251221 0.6665446
vt 0.0001220703 0.5834554
vt 0.1248779 0.5834554
vt 0.1248779 0.6248779
vt 0.0001220703 0.6248779
vt 0.1251221 0.5834554
vt 0.2498779 0.5834554
vt 0.2498779 0.6248779
vt 0.1251221 0.6248779
vt 0.2501221 0.2917888
vt 0.3748779 0.2917888
vt 0.3748779 0.3332112
vt 0.2501221 0.3332112
vt 0.8751221 0.2084554
vt 0.9998779 0.2084554
vt 0.9998779 0.2498779
vt 0.8751221 0.2498779

# Normal
vn 0 0 -1

# Mesh description
g beginning_mesh_0026

# Faces
f 1/1/1 2/2/1 3/3/1 4/4/1
f 5/5/1 6/6/1 7/7/1 8/8/1
f 9/9/1 10/10/1 11/11/1 12/12/1
f 13/13/1 14/14/1 15/15/1 16/16/1
f 17/17/1 18/18/1 19/19/1 20/20/1
f 21/21/1 22/22/1 23/23/1 24/24/1
f 25/25/1 26/26/1 27/27/1 28/28/1
f 29/29/1 30/30/1 31/31/1 32/32/1

