# Tiled2Unity generated file. Do not modify by hand.
# Wavefront file for 'beginning_mesh_0009.obj'

# Vertices (Count = 84)
v 0 -0.4324324 0
v -0.4324324 -0.4324324 0
v -0.4324324 0 0
v 0 0 0
v -0.4324324 -0.4324324 0
v -0.8648649 -0.4324324 0
v -0.8648649 0 0
v -0.4324324 0 0
v -0.8648649 -0.4324324 0
v -1.297297 -0.4324324 0
v -1.297297 0 0
v -0.8648649 0 0
v -1.297297 -0.4324324 0
v -1.72973 -0.4324324 0
v -1.72973 0 0
v -1.297297 0 0
v -1.72973 -0.4324324 0
v -2.162162 -0.4324324 0
v -2.162162 0 0
v -1.72973 0 0
v -2.162162 -0.4324324 0
v -2.594595 -0.4324324 0
v -2.594595 0 0
v -2.162162 0 0
v -2.594595 -0.4324324 0
v -3.027027 -0.4324324 0
v -3.027027 0 0
v -2.594595 0 0
v 0 -0.8648649 0
v -0.4324324 -0.8648649 0
v -0.4324324 -0.4324324 0
v 0 -0.4324324 0
v -0.4324324 -0.8648649 0
v -0.8648649 -0.8648649 0
v -0.8648649 -0.4324324 0
v -0.4324324 -0.4324324 0
v -0.8648649 -0.8648649 0
v -1.297297 -0.8648649 0
v -1.297297 -0.4324324 0
v -0.8648649 -0.4324324 0
v -1.297297 -0.8648649 0
v -1.72973 -0.8648649 0
v -1.72973 -0.4324324 0
v -1.297297 -0.4324324 0
v -1.72973 -0.8648649 0
v -2.162162 -0.8648649 0
v -2.162162 -0.4324324 0
v -1.72973 -0.4324324 0
v -2.162162 -0.8648649 0
v -2.594595 -0.8648649 0
v -2.594595 -0.4324324 0
v -2.162162 -0.4324324 0
v -2.594595 -0.8648649 0
v -3.027027 -0.8648649 0
v -3.027027 -0.4324324 0
v -2.594595 -0.4324324 0
v 0 -1.297297 0
v -0.4324324 -1.297297 0
v -0.4324324 -0.8648649 0
v 0 -0.8648649 0
v -0.4324324 -1.297297 0
v -0.8648649 -1.297297 0
v -0.8648649 -0.8648649 0
v -0.4324324 -0.8648649 0
v -0.8648649 -1.297297 0
v -1.297297 -1.297297 0
v -1.297297 -0.8648649 0
v -0.8648649 -0.8648649 0
v -1.297297 -1.297297 0
v -1.72973 -1.297297 0
v -1.72973 -0.8648649 0
v -1.297297 -0.8648649 0
v -1.72973 -1.297297 0
v -2.162162 -1.297297 0
v -2.162162 -0.8648649 0
v -1.72973 -0.8648649 0
v -2.162162 -1.297297 0
v -2.594595 -1.297297 0
v -2.594595 -0.8648649 0
v -2.162162 -0.8648649 0
v -2.594595 -1.297297 0
v -3.027027 -1.297297 0
v -3.027027 -0.8648649 0
v -2.594595 -0.8648649 0

# Texture cooridinates (Count = 84)
vt 0.1786935 0.5834554
vt 0.2141636 0.5834554
vt 0.2141636 0.6665446
vt 0.1786935 0.6665446
vt 0.2144078 0.5834554
vt 0.2498779 0.5834554
vt 0.2498779 0.6665446
vt 0.2144078 0.6665446
vt 0.2501221 0.5834554
vt 0.2855922 0.5834554
vt 0.2855922 0.6665446
vt 0.2501221 0.6665446
vt 0.2858364 0.5834554
vt 0.3213065 0.5834554
vt 0.3213065 0.6665446
vt 0.2858364 0.6665446
vt 0.3215506 0.5834554
vt 0.3570208 0.5834554
vt 0.3570208 0.6665446
vt 0.3215506 0.6665446
vt 0.3572649 0.5834554
vt 0.3927351 0.5834554
vt 0.3927351 0.6665446
vt 0.3572649 0.6665446
vt 0.3929792 0.5834554
vt 0.4284494 0.5834554
vt 0.4284494 0.6665446
vt 0.3929792 0.6665446
vt 0.1786935 0.5001221
vt 0.2141636 0.5001221
vt 0.2141636 0.5832113
vt 0.1786935 0.5832113
vt 0.2144078 0.5001221
vt 0.2498779 0.5001221
vt 0.2498779 0.5832113
vt 0.2144078 0.5832113
vt 0.2501221 0.5001221
vt 0.2855922 0.5001221
vt 0.2855922 0.5832113
vt 0.2501221 0.5832113
vt 0.2858364 0.5001221
vt 0.3213065 0.5001221
vt 0.3213065 0.5832113
vt 0.2858364 0.5832113
vt 0.3215506 0.5001221
vt 0.3570208 0.5001221
vt 0.3570208 0.5832113
vt 0.3215506 0.5832113
vt 0.3572649 0.5001221
vt 0.3927351 0.5001221
vt 0.3927351 0.5832113
vt 0.3572649 0.5832113
vt 0.3929792 0.5001221
vt 0.4284494 0.5001221
vt 0.4284494 0.5832113
vt 0.3929792 0.5832113
vt 0.1786935 0.4167888
vt 0.2141636 0.4167888
vt 0.2141636 0.4998779
vt 0.1786935 0.4998779
vt 0.2144078 0.4167888
vt 0.2498779 0.4167888
vt 0.2498779 0.4998779
vt 0.2144078 0.4998779
vt 0.2501221 0.4167888
vt 0.2855922 0.4167888
vt 0.2855922 0.4998779
vt 0.2501221 0.4998779
vt 0.2858364 0.4167888
vt 0.3213065 0.4167888
vt 0.3213065 0.4998779
vt 0.2858364 0.4998779
vt 0.3215506 0.4167888
vt 0.3570208 0.4167888
vt 0.3570208 0.4998779
vt 0.3215506 0.4998779
vt 0.3572649 0.4167888
vt 0.3927351 0.4167888
vt 0.3927351 0.4998779
vt 0.3572649 0.4998779
vt 0.3929792 0.4167888
vt 0.4284494 0.4167888
vt 0.4284494 0.4998779
vt 0.3929792 0.4998779

# Normal
vn 0 0 -1

# Mesh description
g beginning_mesh_0009

# Faces
f 1/1/1 2/2/1 3/3/1 4/4/1
f 5/5/1 6/6/1 7/7/1 8/8/1
f 9/9/1 10/10/1 11/11/1 12/12/1
f 13/13/1 14/14/1 15/15/1 16/16/1
f 17/17/1 18/18/1 19/19/1 20/20/1
f 21/21/1 22/22/1 23/23/1 24/24/1
f 25/25/1 26/26/1 27/27/1 28/28/1
f 29/29/1 30/30/1 31/31/1 32/32/1
f 33/33/1 34/34/1 35/35/1 36/36/1
f 37/37/1 38/38/1 39/39/1 40/40/1
f 41/41/1 42/42/1 43/43/1 44/44/1
f 45/45/1 46/46/1 47/47/1 48/48/1
f 49/49/1 50/50/1 51/51/1 52/52/1
f 53/53/1 54/54/1 55/55/1 56/56/1
f 57/57/1 58/58/1 59/59/1 60/60/1
f 61/61/1 62/62/1 63/63/1 64/64/1
f 65/65/1 66/66/1 67/67/1 68/68/1
f 69/69/1 70/70/1 71/71/1 72/72/1
f 73/73/1 74/74/1 75/75/1 76/76/1
f 77/77/1 78/78/1 79/79/1 80/80/1
f 81/81/1 82/82/1 83/83/1 84/84/1

