# Tiled2Unity generated file. Do not modify by hand.
# Wavefront file for 'beginning_mesh_0017.obj'

# Vertices (Count = 156)
v 0 -3.891892 0
v -0.4324324 -3.891892 0
v -0.4324324 -3.45946 0
v 0 -3.45946 0
v -0.4324324 -3.891892 0
v -0.8648649 -3.891892 0
v -0.8648649 -3.45946 0
v -0.4324324 -3.45946 0
v -0.8648649 -3.891892 0
v -1.297297 -3.891892 0
v -1.297297 -3.45946 0
v -0.8648649 -3.45946 0
v -1.297297 -3.891892 0
v -1.72973 -3.891892 0
v -1.72973 -3.45946 0
v -1.297297 -3.45946 0
v -1.72973 -3.891892 0
v -2.162162 -3.891892 0
v -2.162162 -3.45946 0
v -1.72973 -3.45946 0
v -2.162162 -3.891892 0
v -2.594595 -3.891892 0
v -2.594595 -3.45946 0
v -2.162162 -3.45946 0
v -2.594595 -3.891892 0
v -3.027027 -3.891892 0
v -3.027027 -3.45946 0
v -2.594595 -3.45946 0
v -3.027027 -3.891892 0
v -3.45946 -3.891892 0
v -3.45946 -3.45946 0
v -3.027027 -3.45946 0
v -3.45946 -3.891892 0
v -3.891892 -3.891892 0
v -3.891892 -3.45946 0
v -3.45946 -3.45946 0
v -3.891892 -3.891892 0
v -4.324325 -3.891892 0
v -4.324325 -3.45946 0
v -3.891892 -3.45946 0
v -4.324325 -3.891892 0
v -4.756757 -3.891892 0
v -4.756757 -3.45946 0
v -4.324325 -3.45946 0
v -4.756757 -3.891892 0
v -5.189189 -3.891892 0
v -5.189189 -3.45946 0
v -4.756757 -3.45946 0
v -5.189189 -3.891892 0
v -5.621622 -3.891892 0
v -5.621622 -3.45946 0
v -5.189189 -3.45946 0
v 0 -4.324325 0
v -0.4324324 -4.324325 0
v -0.4324324 -3.891892 0
v 0 -3.891892 0
v -0.4324324 -4.324325 0
v -0.8648649 -4.324325 0
v -0.8648649 -3.891892 0
v -0.4324324 -3.891892 0
v -0.8648649 -4.324325 0
v -1.297297 -4.324325 0
v -1.297297 -3.891892 0
v -0.8648649 -3.891892 0
v -1.297297 -4.324325 0
v -1.72973 -4.324325 0
v -1.72973 -3.891892 0
v -1.297297 -3.891892 0
v -1.72973 -4.324325 0
v -2.162162 -4.324325 0
v -2.162162 -3.891892 0
v -1.72973 -3.891892 0
v -2.162162 -4.324325 0
v -2.594595 -4.324325 0
v -2.594595 -3.891892 0
v -2.162162 -3.891892 0
v -2.594595 -4.324325 0
v -3.027027 -4.324325 0
v -3.027027 -3.891892 0
v -2.594595 -3.891892 0
v -3.027027 -4.324325 0
v -3.45946 -4.324325 0
v -3.45946 -3.891892 0
v -3.027027 -3.891892 0
v -3.45946 -4.324325 0
v -3.891892 -4.324325 0
v -3.891892 -3.891892 0
v -3.45946 -3.891892 0
v -3.891892 -4.324325 0
v -4.324325 -4.324325 0
v -4.324325 -3.891892 0
v -3.891892 -3.891892 0
v -4.324325 -4.324325 0
v -4.756757 -4.324325 0
v -4.756757 -3.891892 0
v -4.324325 -3.891892 0
v -4.756757 -4.324325 0
v -5.189189 -4.324325 0
v -5.189189 -3.891892 0
v -4.756757 -3.891892 0
v -5.189189 -4.324325 0
v -5.621622 -4.324325 0
v -5.621622 -3.891892 0
v -5.189189 -3.891892 0
v 0 -4.756757 0
v -0.4324324 -4.756757 0
v -0.4324324 -4.324325 0
v 0 -4.324325 0
v -0.4324324 -4.756757 0
v -0.8648649 -4.756757 0
v -0.8648649 -4.324325 0
v -0.4324324 -4.324325 0
v -0.8648649 -4.756757 0
v -1.297297 -4.756757 0
v -1.297297 -4.324325 0
v -0.8648649 -4.324325 0
v -1.297297 -4.756757 0
v -1.72973 -4.756757 0
v -1.72973 -4.324325 0
v -1.297297 -4.324325 0
v -1.72973 -4.756757 0
v -2.162162 -4.756757 0
v -2.162162 -4.324325 0
v -1.72973 -4.324325 0
v -2.162162 -4.756757 0
v -2.594595 -4.756757 0
v -2.594595 -4.324325 0
v -2.162162 -4.324325 0
v -2.594595 -4.756757 0
v -3.027027 -4.756757 0
v -3.027027 -4.324325 0
v -2.594595 -4.324325 0
v -3.027027 -4.756757 0
v -3.45946 -4.756757 0
v -3.45946 -4.324325 0
v -3.027027 -4.324325 0
v -3.45946 -4.756757 0
v -3.891892 -4.756757 0
v -3.891892 -4.324325 0
v -3.45946 -4.324325 0
v -3.891892 -4.756757 0
v -4.324325 -4.756757 0
v -4.324325 -4.324325 0
v -3.891892 -4.324325 0
v -4.324325 -4.756757 0
v -4.756757 -4.756757 0
v -4.756757 -4.324325 0
v -4.324325 -4.324325 0
v -4.756757 -4.756757 0
v -5.189189 -4.756757 0
v -5.189189 -4.324325 0
v -4.756757 -4.324325 0
v -5.189189 -4.756757 0
v -5.621622 -4.756757 0
v -5.621622 -4.324325 0
v -5.189189 -4.324325 0

# Texture cooridinates (Count = 48)
vt 0.1667887 0.5001221
vt 0.2498779 0.5001221
vt 0.2498779 0.5832113
vt 0.1667887 0.5832113
vt 0.2501221 0.5001221
vt 0.3332113 0.5001221
vt 0.3332113 0.5832113
vt 0.2501221 0.5832113
vt 0.3334554 0.5001221
vt 0.4165446 0.5001221
vt 0.4165446 0.5832113
vt 0.3334554 0.5832113
vt 0.4167887 0.5001221
vt 0.4998779 0.5001221
vt 0.4998779 0.5832113
vt 0.4167887 0.5832113
vt 0.1667887 0.4167888
vt 0.2498779 0.4167888
vt 0.2498779 0.4998779
vt 0.1667887 0.4998779
vt 0.2501221 0.4167888
vt 0.3332113 0.4167888
vt 0.3332113 0.4998779
vt 0.2501221 0.4998779
vt 0.3334554 0.4167888
vt 0.4165446 0.4167888
vt 0.4165446 0.4998779
vt 0.3334554 0.4998779
vt 0.4167887 0.4167888
vt 0.4998779 0.4167888
vt 0.4998779 0.4998779
vt 0.4167887 0.4998779
vt 0.1667887 0.3334554
vt 0.2498779 0.3334554
vt 0.2498779 0.4165446
vt 0.1667887 0.4165446
vt 0.2501221 0.3334554
vt 0.3332113 0.3334554
vt 0.3332113 0.4165446
vt 0.2501221 0.4165446
vt 0.3334554 0.3334554
vt 0.4165446 0.3334554
vt 0.4165446 0.4165446
vt 0.3334554 0.4165446
vt 0.4167887 0.3334554
vt 0.4998779 0.3334554
vt 0.4998779 0.4165446
vt 0.4167887 0.4165446

# Normal
vn 0 0 -1

# Mesh description
g beginning_mesh_0017

# Faces
f 1/1/1 2/2/1 3/3/1 4/4/1
f 5/5/1 6/6/1 7/7/1 8/8/1
f 9/5/1 10/6/1 11/7/1 12/8/1
f 13/1/1 14/2/1 15/3/1 16/4/1
f 17/5/1 18/6/1 19/7/1 20/8/1
f 21/1/1 22/2/1 23/3/1 24/4/1
f 25/5/1 26/6/1 27/7/1 28/8/1
f 29/1/1 30/2/1 31/3/1 32/4/1
f 33/5/1 34/6/1 35/7/1 36/8/1
f 37/1/1 38/2/1 39/3/1 40/4/1
f 41/5/1 42/6/1 43/7/1 44/8/1
f 45/9/1 46/10/1 47/11/1 48/12/1
f 49/13/1 50/14/1 51/15/1 52/16/1
f 53/17/1 54/18/1 55/19/1 56/20/1
f 57/21/1 58/22/1 59/23/1 60/24/1
f 61/21/1 62/22/1 63/23/1 64/24/1
f 65/17/1 66/18/1 67/19/1 68/20/1
f 69/21/1 70/22/1 71/23/1 72/24/1
f 73/17/1 74/18/1 75/19/1 76/20/1
f 77/21/1 78/22/1 79/23/1 80/24/1
f 81/17/1 82/18/1 83/19/1 84/20/1
f 85/21/1 86/22/1 87/23/1 88/24/1
f 89/17/1 90/18/1 91/19/1 92/20/1
f 93/21/1 94/22/1 95/23/1 96/24/1
f 97/25/1 98/26/1 99/27/1 100/28/1
f 101/29/1 102/30/1 103/31/1 104/32/1
f 105/33/1 106/34/1 107/35/1 108/36/1
f 109/37/1 110/38/1 111/39/1 112/40/1
f 113/37/1 114/38/1 115/39/1 116/40/1
f 117/33/1 118/34/1 119/35/1 120/36/1
f 121/37/1 122/38/1 123/39/1 124/40/1
f 125/33/1 126/34/1 127/35/1 128/36/1
f 129/37/1 130/38/1 131/39/1 132/40/1
f 133/33/1 134/34/1 135/35/1 136/36/1
f 137/37/1 138/38/1 139/39/1 140/40/1
f 141/33/1 142/34/1 143/35/1 144/36/1
f 145/37/1 146/38/1 147/39/1 148/40/1
f 149/41/1 150/42/1 151/43/1 152/44/1
f 153/45/1 154/46/1 155/47/1 156/48/1

