# Tiled2Unity generated file. Do not modify by hand.
# Wavefront file for 'struggle_mesh_0012.obj'

# Vertices (Count = 128)
v -6.486486 -6.918919 0
v -6.918919 -6.918919 0
v -6.918919 -6.486486 0
v -6.486486 -6.486486 0
v -6.918919 -6.918919 0
v -7.351352 -6.918919 0
v -7.351352 -6.486486 0
v -6.918919 -6.486486 0
v -6.486486 -7.351352 0
v -6.918919 -7.351352 0
v -6.918919 -6.918919 0
v -6.486486 -6.918919 0
v -6.918919 -7.351352 0
v -7.351352 -7.351352 0
v -7.351352 -6.918919 0
v -6.918919 -6.918919 0
v -91.67567 -7.351352 0
v -92.10811 -7.351352 0
v -92.10811 -6.918919 0
v -91.67567 -6.918919 0
v -92.10811 -7.351352 0
v -92.54054 -7.351352 0
v -92.54054 -6.918919 0
v -92.10811 -6.918919 0
v -93.40541 -7.351352 0
v -93.83784 -7.351352 0
v -93.83784 -6.918919 0
v -93.40541 -6.918919 0
v -93.83784 -7.351352 0
v -94.27027 -7.351352 0
v -94.27027 -6.918919 0
v -93.83784 -6.918919 0
v -12.54054 -7.783784 0
v -12.97297 -7.783784 0
v -12.97297 -7.351352 0
v -12.54054 -7.351352 0
v -12.97297 -7.783784 0
v -13.40541 -7.783784 0
v -13.40541 -7.351352 0
v -12.97297 -7.351352 0
v -91.67567 -7.783784 0
v -92.10811 -7.783784 0
v -92.10811 -7.351352 0
v -91.67567 -7.351352 0
v -92.10811 -7.783784 0
v -92.54054 -7.783784 0
v -92.54054 -7.351352 0
v -92.10811 -7.351352 0
v -93.40541 -7.783784 0
v -93.83784 -7.783784 0
v -93.83784 -7.351352 0
v -93.40541 -7.351352 0
v -93.83784 -7.783784 0
v -94.27027 -7.783784 0
v -94.27027 -7.351352 0
v -93.83784 -7.351352 0
v -12.54054 -8.216216 0
v -12.97297 -8.216216 0
v -12.97297 -7.783784 0
v -12.54054 -7.783784 0
v -12.97297 -8.216216 0
v -13.40541 -8.216216 0
v -13.40541 -7.783784 0
v -12.97297 -7.783784 0
v -70.05405 -8.216216 0
v -70.48649 -8.216216 0
v -70.48649 -7.783784 0
v -70.05405 -7.783784 0
v -70.48649 -8.216216 0
v -70.91892 -8.216216 0
v -70.91892 -7.783784 0
v -70.48649 -7.783784 0
v -83.02703 -8.216216 0
v -83.45947 -8.216216 0
v -83.45947 -7.783784 0
v -83.02703 -7.783784 0
v -83.45947 -8.216216 0
v -83.89189 -8.216216 0
v -83.89189 -7.783784 0
v -83.45947 -7.783784 0
v -91.67567 -8.216216 0
v -92.10811 -8.216216 0
v -92.10811 -7.783784 0
v -91.67567 -7.783784 0
v -92.10811 -8.216216 0
v -92.54054 -8.216216 0
v -92.54054 -7.783784 0
v -92.10811 -7.783784 0
v -93.40541 -8.216216 0
v -93.83784 -8.216216 0
v -93.83784 -7.783784 0
v -93.40541 -7.783784 0
v -93.83784 -8.216216 0
v -94.27027 -8.216216 0
v -94.27027 -7.783784 0
v -93.83784 -7.783784 0
v -70.05405 -8.648649 0
v -70.48649 -8.648649 0
v -70.48649 -8.216216 0
v -70.05405 -8.216216 0
v -70.48649 -8.648649 0
v -70.91892 -8.648649 0
v -70.91892 -8.216216 0
v -70.48649 -8.216216 0
v -83.02703 -8.648649 0
v -83.45947 -8.648649 0
v -83.45947 -8.216216 0
v -83.02703 -8.216216 0
v -83.45947 -8.648649 0
v -83.89189 -8.648649 0
v -83.89189 -8.216216 0
v -83.45947 -8.216216 0
v -91.67567 -8.648649 0
v -92.10811 -8.648649 0
v -92.10811 -8.216216 0
v -91.67567 -8.216216 0
v -92.10811 -8.648649 0
v -92.54054 -8.648649 0
v -92.54054 -8.216216 0
v -92.10811 -8.216216 0
v -93.40541 -8.648649 0
v -93.83784 -8.648649 0
v -93.83784 -8.216216 0
v -93.40541 -8.216216 0
v -93.83784 -8.648649 0
v -94.27027 -8.648649 0
v -94.27027 -8.216216 0
v -93.83784 -8.216216 0

# Texture cooridinates (Count = 40)
vt 0.4998779 0.9584554
vt 0.3751221 0.9584554
vt 0.3751221 0.9998779
vt 0.4998779 0.9998779
vt 0.3748779 0.9584554
vt 0.2501221 0.9584554
vt 0.2501221 0.9998779
vt 0.3748779 0.9998779
vt 0.4998779 0.8751221
vt 0.3751221 0.8751221
vt 0.3751221 0.9165446
vt 0.4998779 0.9165446
vt 0.3748779 0.8751221
vt 0.2501221 0.8751221
vt 0.2501221 0.9165446
vt 0.3748779 0.9165446
vt 0.2501221 0.8334554
vt 0.3748779 0.8334554
vt 0.3748779 0.8748779
vt 0.2501221 0.8748779
vt 0.4998779 0.8334554
vt 0.3751221 0.8334554
vt 0.3751221 0.8748779
vt 0.4998779 0.8748779
vt 0.2501221 0.7917888
vt 0.3748779 0.7917888
vt 0.3748779 0.8332112
vt 0.2501221 0.8332112
vt 0.4998779 0.7917888
vt 0.3751221 0.7917888
vt 0.3751221 0.8332112
vt 0.4998779 0.8332112
vt 0.4998779 0.7501221
vt 0.3751221 0.7501221
vt 0.3751221 0.7915446
vt 0.4998779 0.7915446
vt 0.3748779 0.7501221
vt 0.2501221 0.7501221
vt 0.2501221 0.7915446
vt 0.3748779 0.7915446

# Normal
vn 0 0 -1

# Mesh description
g struggle_mesh_0012

# Faces
f 1/1/1 2/2/1 3/3/1 4/4/1
f 5/5/1 6/6/1 7/7/1 8/8/1
f 9/1/1 10/2/1 11/3/1 12/4/1
f 13/5/1 14/6/1 15/7/1 16/8/1
f 17/9/1 18/10/1 19/11/1 20/12/1
f 21/13/1 22/14/1 23/15/1 24/16/1
f 25/17/1 26/18/1 27/19/1 28/20/1
f 29/10/1 30/9/1 31/12/1 32/11/1
f 33/6/1 34/5/1 35/8/1 36/7/1
f 37/2/1 38/1/1 39/4/1 40/3/1
f 41/21/1 42/22/1 43/23/1 44/24/1
f 45/18/1 46/17/1 47/20/1 48/19/1
f 49/25/1 50/26/1 51/27/1 52/28/1
f 53/22/1 54/21/1 55/24/1 56/23/1
f 57/6/1 58/5/1 59/8/1 60/7/1
f 61/2/1 62/1/1 63/4/1 64/3/1
f 65/9/1 66/10/1 67/11/1 68/12/1
f 69/18/1 70/17/1 71/20/1 72/19/1
f 73/17/1 74/18/1 75/19/1 76/20/1
f 77/10/1 78/9/1 79/12/1 80/11/1
f 81/29/1 82/30/1 83/31/1 84/32/1
f 85/26/1 86/25/1 87/28/1 88/27/1
f 89/17/1 90/18/1 91/19/1 92/20/1
f 93/30/1 94/29/1 95/32/1 96/31/1
f 97/21/1 98/22/1 99/23/1 100/24/1
f 101/26/1 102/25/1 103/28/1 104/27/1
f 105/25/1 106/26/1 107/27/1 108/28/1
f 109/22/1 110/21/1 111/24/1 112/23/1
f 113/33/1 114/34/1 115/35/1 116/36/1
f 117/37/1 118/38/1 119/39/1 120/40/1
f 121/25/1 122/26/1 123/27/1 124/28/1
f 125/34/1 126/33/1 127/36/1 128/35/1

