# Tiled2Unity generated file. Do not modify by hand.
# Wavefront file for 'struggle_mesh_0010.obj'

# Vertices (Count = 108)
v -64.86487 -6.054054 0
v -65.2973 -6.054054 0
v -65.2973 -5.621622 0
v -64.86487 -5.621622 0
v -65.2973 -6.054054 0
v -65.72973 -6.054054 0
v -65.72973 -5.621622 0
v -65.2973 -5.621622 0
v -65.72973 -6.054054 0
v -66.16216 -6.054054 0
v -66.16216 -5.621622 0
v -65.72973 -5.621622 0
v -66.16216 -6.054054 0
v -66.5946 -6.054054 0
v -66.5946 -5.621622 0
v -66.16216 -5.621622 0
v -66.5946 -6.054054 0
v -67.02703 -6.054054 0
v -67.02703 -5.621622 0
v -66.5946 -5.621622 0
v -67.02703 -6.054054 0
v -67.45946 -6.054054 0
v -67.45946 -5.621622 0
v -67.02703 -5.621622 0
v -67.45946 -6.054054 0
v -67.89189 -6.054054 0
v -67.89189 -5.621622 0
v -67.45946 -5.621622 0
v -67.89189 -6.054054 0
v -68.32433 -6.054054 0
v -68.32433 -5.621622 0
v -67.89189 -5.621622 0
v -68.32433 -6.054054 0
v -68.75676 -6.054054 0
v -68.75676 -5.621622 0
v -68.32433 -5.621622 0
v -64.86487 -6.486486 0
v -65.2973 -6.486486 0
v -65.2973 -6.054054 0
v -64.86487 -6.054054 0
v -65.2973 -6.486486 0
v -65.72973 -6.486486 0
v -65.72973 -6.054054 0
v -65.2973 -6.054054 0
v -65.72973 -6.486486 0
v -66.16216 -6.486486 0
v -66.16216 -6.054054 0
v -65.72973 -6.054054 0
v -66.16216 -6.486486 0
v -66.5946 -6.486486 0
v -66.5946 -6.054054 0
v -66.16216 -6.054054 0
v -66.5946 -6.486486 0
v -67.02703 -6.486486 0
v -67.02703 -6.054054 0
v -66.5946 -6.054054 0
v -67.02703 -6.486486 0
v -67.45946 -6.486486 0
v -67.45946 -6.054054 0
v -67.02703 -6.054054 0
v -67.45946 -6.486486 0
v -67.89189 -6.486486 0
v -67.89189 -6.054054 0
v -67.45946 -6.054054 0
v -67.89189 -6.486486 0
v -68.32433 -6.486486 0
v -68.32433 -6.054054 0
v -67.89189 -6.054054 0
v -68.32433 -6.486486 0
v -68.75676 -6.486486 0
v -68.75676 -6.054054 0
v -68.32433 -6.054054 0
v -64.86487 -6.918919 0
v -65.2973 -6.918919 0
v -65.2973 -6.486486 0
v -64.86487 -6.486486 0
v -65.2973 -6.918919 0
v -65.72973 -6.918919 0
v -65.72973 -6.486486 0
v -65.2973 -6.486486 0
v -65.72973 -6.918919 0
v -66.16216 -6.918919 0
v -66.16216 -6.486486 0
v -65.72973 -6.486486 0
v -66.16216 -6.918919 0
v -66.5946 -6.918919 0
v -66.5946 -6.486486 0
v -66.16216 -6.486486 0
v -66.5946 -6.918919 0
v -67.02703 -6.918919 0
v -67.02703 -6.486486 0
v -66.5946 -6.486486 0
v -67.02703 -6.918919 0
v -67.45946 -6.918919 0
v -67.45946 -6.486486 0
v -67.02703 -6.486486 0
v -67.45946 -6.918919 0
v -67.89189 -6.918919 0
v -67.89189 -6.486486 0
v -67.45946 -6.486486 0
v -67.89189 -6.918919 0
v -68.32433 -6.918919 0
v -68.32433 -6.486486 0
v -67.89189 -6.486486 0
v -68.32433 -6.918919 0
v -68.75676 -6.918919 0
v -68.75676 -6.486486 0
v -68.32433 -6.486486 0

# Texture cooridinates (Count = 72)
vt 0.0001220703 0.8334554
vt 0.08321127 0.8334554
vt 0.08321127 0.9165446
vt 0.0001220703 0.9165446
vt 0.08345541 0.8334554
vt 0.1665446 0.8334554
vt 0.1665446 0.9165446
vt 0.08345541 0.9165446
vt 0.1667887 0.8334554
vt 0.2498779 0.8334554
vt 0.2498779 0.9165446
vt 0.1667887 0.9165446
vt 0.2501221 0.8334554
vt 0.3332113 0.8334554
vt 0.3332113 0.9165446
vt 0.2501221 0.9165446
vt 0.3334554 0.8334554
vt 0.4165446 0.8334554
vt 0.4165446 0.9165446
vt 0.3334554 0.9165446
vt 0.4167887 0.8334554
vt 0.4998779 0.8334554
vt 0.4998779 0.9165446
vt 0.4167887 0.9165446
vt 0.0001220703 0.7501221
vt 0.08321127 0.7501221
vt 0.08321127 0.8332112
vt 0.0001220703 0.8332112
vt 0.08345541 0.7501221
vt 0.1665446 0.7501221
vt 0.1665446 0.8332112
vt 0.08345541 0.8332112
vt 0.1667887 0.7501221
vt 0.2498779 0.7501221
vt 0.2498779 0.8332112
vt 0.1667887 0.8332112
vt 0.2501221 0.7501221
vt 0.3332113 0.7501221
vt 0.3332113 0.8332112
vt 0.2501221 0.8332112
vt 0.3334554 0.7501221
vt 0.4165446 0.7501221
vt 0.4165446 0.8332112
vt 0.3334554 0.8332112
vt 0.4167887 0.7501221
vt 0.4998779 0.7501221
vt 0.4998779 0.8332112
vt 0.4167887 0.8332112
vt 0.0001220703 0.6667887
vt 0.08321127 0.6667887
vt 0.08321127 0.7498779
vt 0.0001220703 0.7498779
vt 0.08345541 0.6667887
vt 0.1665446 0.6667887
vt 0.1665446 0.7498779
vt 0.08345541 0.7498779
vt 0.1667887 0.6667887
vt 0.2498779 0.6667887
vt 0.2498779 0.7498779
vt 0.1667887 0.7498779
vt 0.2501221 0.6667887
vt 0.3332113 0.6667887
vt 0.3332113 0.7498779
vt 0.2501221 0.7498779
vt 0.3334554 0.6667887
vt 0.4165446 0.6667887
vt 0.4165446 0.7498779
vt 0.3334554 0.7498779
vt 0.4167887 0.6667887
vt 0.4998779 0.6667887
vt 0.4998779 0.7498779
vt 0.4167887 0.7498779

# Normal
vn 0 0 -1

# Mesh description
g struggle_mesh_0010

# Faces
f 1/1/1 2/2/1 3/3/1 4/4/1
f 5/5/1 6/6/1 7/7/1 8/8/1
f 9/9/1 10/10/1 11/11/1 12/12/1
f 13/9/1 14/10/1 15/11/1 16/12/1
f 17/13/1 18/14/1 19/15/1 20/16/1
f 21/9/1 22/10/1 23/11/1 24/12/1
f 25/13/1 26/14/1 27/15/1 28/16/1
f 29/17/1 30/18/1 31/19/1 32/20/1
f 33/21/1 34/22/1 35/23/1 36/24/1
f 37/25/1 38/26/1 39/27/1 40/28/1
f 41/29/1 42/30/1 43/31/1 44/32/1
f 45/33/1 46/34/1 47/35/1 48/36/1
f 49/33/1 50/34/1 51/35/1 52/36/1
f 53/37/1 54/38/1 55/39/1 56/40/1
f 57/33/1 58/34/1 59/35/1 60/36/1
f 61/37/1 62/38/1 63/39/1 64/40/1
f 65/41/1 66/42/1 67/43/1 68/44/1
f 69/45/1 70/46/1 71/47/1 72/48/1
f 73/49/1 74/50/1 75/51/1 76/52/1
f 77/53/1 78/54/1 79/55/1 80/56/1
f 81/57/1 82/58/1 83/59/1 84/60/1
f 85/57/1 86/58/1 87/59/1 88/60/1
f 89/61/1 90/62/1 91/63/1 92/64/1
f 93/57/1 94/58/1 95/59/1 96/60/1
f 97/61/1 98/62/1 99/63/1 100/64/1
f 101/65/1 102/66/1 103/67/1 104/68/1
f 105/69/1 106/70/1 107/71/1 108/72/1

