# Tiled2Unity generated file. Do not modify by hand.
# Wavefront file for 'struggle_mesh_0005.obj'

# Vertices (Count = 8)
v -92.10811 -8.216216 0
v -92.54054 -8.216216 0
v -92.54054 -7.783784 0
v -92.10811 -7.783784 0
v -91.67567 -9.513514 0
v -92.10811 -9.513514 0
v -92.10811 -9.081081 0
v -91.67567 -9.081081 0

# Texture cooridinates (Count = 4)
vt 0.6251221 0.3751221
vt 0.7498779 0.3751221
vt 0.7498779 0.4998779
vt 0.6251221 0.4998779

# Normal
vn 0 0 -1

# Mesh description
g struggle_mesh_0005

# Faces
f 1/1/1 2/2/1 3/3/1 4/4/1
f 5/1/1 6/2/1 7/3/1 8/4/1

