# Tiled2Unity generated file. Do not modify by hand.
# Wavefront file for 'struggle_mesh_0017.obj'

# Vertices (Count = 592)
v -22.48649 -4.756757 0
v -22.91892 -4.756757 0
v -22.91892 -4.324325 0
v -22.48649 -4.324325 0
v -22.91892 -4.756757 0
v -23.35135 -4.756757 0
v -23.35135 -4.324325 0
v -22.91892 -4.324325 0
v -24.21622 -4.756757 0
v -24.64865 -4.756757 0
v -24.64865 -4.324325 0
v -24.21622 -4.324325 0
v -24.64865 -4.756757 0
v -25.08108 -4.756757 0
v -25.08108 -4.324325 0
v -24.64865 -4.324325 0
v 0 -5.189189 0
v -0.4324324 -5.189189 0
v -0.4324324 -4.756757 0
v 0 -4.756757 0
v -20.32433 -5.189189 0
v -20.75676 -5.189189 0
v -20.75676 -4.756757 0
v -20.32433 -4.756757 0
v -22.48649 -5.189189 0
v -22.91892 -5.189189 0
v -22.91892 -4.756757 0
v -22.48649 -4.756757 0
v -22.91892 -5.189189 0
v -23.35135 -5.189189 0
v -23.35135 -4.756757 0
v -22.91892 -4.756757 0
v -24.21622 -5.189189 0
v -24.64865 -5.189189 0
v -24.64865 -4.756757 0
v -24.21622 -4.756757 0
v -24.64865 -5.189189 0
v -25.08108 -5.189189 0
v -25.08108 -4.756757 0
v -24.64865 -4.756757 0
v -36.32433 -5.189189 0
v -36.75676 -5.189189 0
v -36.75676 -4.756757 0
v -36.32433 -4.756757 0
v -41.08108 -5.189189 0
v -41.51352 -5.189189 0
v -41.51352 -4.756757 0
v -41.08108 -4.756757 0
v -44.97297 -5.189189 0
v -45.40541 -5.189189 0
v -45.40541 -4.756757 0
v -44.97297 -4.756757 0
v -48.43243 -5.189189 0
v -48.86486 -5.189189 0
v -48.86486 -4.756757 0
v -48.43243 -4.756757 0
v -51.89189 -5.189189 0
v -52.32433 -5.189189 0
v -52.32433 -4.756757 0
v -51.89189 -4.756757 0
v 0 -5.621622 0
v -0.4324324 -5.621622 0
v -0.4324324 -5.189189 0
v 0 -5.189189 0
v -19.89189 -5.621622 0
v -20.32433 -5.621622 0
v -20.32433 -5.189189 0
v -19.89189 -5.189189 0
v -20.32433 -5.621622 0
v -20.75676 -5.621622 0
v -20.75676 -5.189189 0
v -20.32433 -5.189189 0
v -24.21622 -5.621622 0
v -24.64865 -5.621622 0
v -24.64865 -5.189189 0
v -24.21622 -5.189189 0
v -24.64865 -5.621622 0
v -25.08108 -5.621622 0
v -25.08108 -5.189189 0
v -24.64865 -5.189189 0
v -35.89189 -5.621622 0
v -36.32433 -5.621622 0
v -36.32433 -5.189189 0
v -35.89189 -5.189189 0
v -36.32433 -5.621622 0
v -36.75676 -5.621622 0
v -36.75676 -5.189189 0
v -36.32433 -5.189189 0
v -41.08108 -5.621622 0
v -41.51352 -5.621622 0
v -41.51352 -5.189189 0
v -41.08108 -5.189189 0
v -41.51352 -5.621622 0
v -41.94595 -5.621622 0
v -41.94595 -5.189189 0
v -41.51352 -5.189189 0
v -44.54054 -5.621622 0
v -44.97297 -5.621622 0
v -44.97297 -5.189189 0
v -44.54054 -5.189189 0
v -44.97297 -5.621622 0
v -45.40541 -5.621622 0
v -45.40541 -5.189189 0
v -44.97297 -5.189189 0
v -48.43243 -5.621622 0
v -48.86486 -5.621622 0
v -48.86486 -5.189189 0
v -48.43243 -5.189189 0
v -48.86486 -5.621622 0
v -49.2973 -5.621622 0
v -49.2973 -5.189189 0
v -48.86486 -5.189189 0
v -51.45946 -5.621622 0
v -51.89189 -5.621622 0
v -51.89189 -5.189189 0
v -51.45946 -5.189189 0
v -51.89189 -5.621622 0
v -52.32433 -5.621622 0
v -52.32433 -5.189189 0
v -51.89189 -5.189189 0
v 0 -6.054054 0
v -0.4324324 -6.054054 0
v -0.4324324 -5.621622 0
v 0 -5.621622 0
v -19.89189 -6.054054 0
v -20.32433 -6.054054 0
v -20.32433 -5.621622 0
v -19.89189 -5.621622 0
v -20.32433 -6.054054 0
v -20.75676 -6.054054 0
v -20.75676 -5.621622 0
v -20.32433 -5.621622 0
v -24.21622 -6.054054 0
v -24.64865 -6.054054 0
v -24.64865 -5.621622 0
v -24.21622 -5.621622 0
v -24.64865 -6.054054 0
v -25.08108 -6.054054 0
v -25.08108 -5.621622 0
v -24.64865 -5.621622 0
v -35.89189 -6.054054 0
v -36.32433 -6.054054 0
v -36.32433 -5.621622 0
v -35.89189 -5.621622 0
v -36.32433 -6.054054 0
v -36.75676 -6.054054 0
v -36.75676 -5.621622 0
v -36.32433 -5.621622 0
v -41.08108 -6.054054 0
v -41.51352 -6.054054 0
v -41.51352 -5.621622 0
v -41.08108 -5.621622 0
v -41.51352 -6.054054 0
v -41.94595 -6.054054 0
v -41.94595 -5.621622 0
v -41.51352 -5.621622 0
v -44.54054 -6.054054 0
v -44.97297 -6.054054 0
v -44.97297 -5.621622 0
v -44.54054 -5.621622 0
v -44.97297 -6.054054 0
v -45.40541 -6.054054 0
v -45.40541 -5.621622 0
v -44.97297 -5.621622 0
v -48.43243 -6.054054 0
v -48.86486 -6.054054 0
v -48.86486 -5.621622 0
v -48.43243 -5.621622 0
v -48.86486 -6.054054 0
v -49.2973 -6.054054 0
v -49.2973 -5.621622 0
v -48.86486 -5.621622 0
v -51.45946 -6.054054 0
v -51.89189 -6.054054 0
v -51.89189 -5.621622 0
v -51.45946 -5.621622 0
v -51.89189 -6.054054 0
v -52.32433 -6.054054 0
v -52.32433 -5.621622 0
v -51.89189 -5.621622 0
v 0 -6.486486 0
v -0.4324324 -6.486486 0
v -0.4324324 -6.054054 0
v 0 -6.054054 0
v -19.89189 -6.486486 0
v -20.32433 -6.486486 0
v -20.32433 -6.054054 0
v -19.89189 -6.054054 0
v -20.32433 -6.486486 0
v -20.75676 -6.486486 0
v -20.75676 -6.054054 0
v -20.32433 -6.054054 0
v -24.21622 -6.486486 0
v -24.64865 -6.486486 0
v -24.64865 -6.054054 0
v -24.21622 -6.054054 0
v -24.64865 -6.486486 0
v -25.08108 -6.486486 0
v -25.08108 -6.054054 0
v -24.64865 -6.054054 0
v -35.89189 -6.486486 0
v -36.32433 -6.486486 0
v -36.32433 -6.054054 0
v -35.89189 -6.054054 0
v -36.32433 -6.486486 0
v -36.75676 -6.486486 0
v -36.75676 -6.054054 0
v -36.32433 -6.054054 0
v -41.08108 -6.486486 0
v -41.51352 -6.486486 0
v -41.51352 -6.054054 0
v -41.08108 -6.054054 0
v -41.51352 -6.486486 0
v -41.94595 -6.486486 0
v -41.94595 -6.054054 0
v -41.51352 -6.054054 0
v -44.54054 -6.486486 0
v -44.97297 -6.486486 0
v -44.97297 -6.054054 0
v -44.54054 -6.054054 0
v -44.97297 -6.486486 0
v -45.40541 -6.486486 0
v -45.40541 -6.054054 0
v -44.97297 -6.054054 0
v -48.43243 -6.486486 0
v -48.86486 -6.486486 0
v -48.86486 -6.054054 0
v -48.43243 -6.054054 0
v -48.86486 -6.486486 0
v -49.2973 -6.486486 0
v -49.2973 -6.054054 0
v -48.86486 -6.054054 0
v -51.45946 -6.486486 0
v -51.89189 -6.486486 0
v -51.89189 -6.054054 0
v -51.45946 -6.054054 0
v -51.89189 -6.486486 0
v -52.32433 -6.486486 0
v -52.32433 -6.054054 0
v -51.89189 -6.054054 0
v 0 -6.918919 0
v -0.4324324 -6.918919 0
v -0.4324324 -6.486486 0
v 0 -6.486486 0
v -19.89189 -6.918919 0
v -20.32433 -6.918919 0
v -20.32433 -6.486486 0
v -19.89189 -6.486486 0
v -20.32433 -6.918919 0
v -20.75676 -6.918919 0
v -20.75676 -6.486486 0
v -20.32433 -6.486486 0
v -24.21622 -6.918919 0
v -24.64865 -6.918919 0
v -24.64865 -6.486486 0
v -24.21622 -6.486486 0
v -24.64865 -6.918919 0
v -25.08108 -6.918919 0
v -25.08108 -6.486486 0
v -24.64865 -6.486486 0
v -35.89189 -6.918919 0
v -36.32433 -6.918919 0
v -36.32433 -6.486486 0
v -35.89189 -6.486486 0
v -36.32433 -6.918919 0
v -36.75676 -6.918919 0
v -36.75676 -6.486486 0
v -36.32433 -6.486486 0
v -41.08108 -6.918919 0
v -41.51352 -6.918919 0
v -41.51352 -6.486486 0
v -41.08108 -6.486486 0
v -41.51352 -6.918919 0
v -41.94595 -6.918919 0
v -41.94595 -6.486486 0
v -41.51352 -6.486486 0
v -44.54054 -6.918919 0
v -44.97297 -6.918919 0
v -44.97297 -6.486486 0
v -44.54054 -6.486486 0
v -44.97297 -6.918919 0
v -45.40541 -6.918919 0
v -45.40541 -6.486486 0
v -44.97297 -6.486486 0
v -48.43243 -6.918919 0
v -48.86486 -6.918919 0
v -48.86486 -6.486486 0
v -48.43243 -6.486486 0
v -48.86486 -6.918919 0
v -49.2973 -6.918919 0
v -49.2973 -6.486486 0
v -48.86486 -6.486486 0
v -51.45946 -6.918919 0
v -51.89189 -6.918919 0
v -51.89189 -6.486486 0
v -51.45946 -6.486486 0
v -51.89189 -6.918919 0
v -52.32433 -6.918919 0
v -52.32433 -6.486486 0
v -51.89189 -6.486486 0
v 0 -7.351352 0
v -0.4324324 -7.351352 0
v -0.4324324 -6.918919 0
v 0 -6.918919 0
v -0.8648649 -7.351352 0
v -1.297297 -7.351352 0
v -1.297297 -6.918919 0
v -0.8648649 -6.918919 0
v -19.89189 -7.351352 0
v -20.32433 -7.351352 0
v -20.32433 -6.918919 0
v -19.89189 -6.918919 0
v -20.32433 -7.351352 0
v -20.75676 -7.351352 0
v -20.75676 -6.918919 0
v -20.32433 -6.918919 0
v -24.21622 -7.351352 0
v -24.64865 -7.351352 0
v -24.64865 -6.918919 0
v -24.21622 -6.918919 0
v -24.64865 -7.351352 0
v -25.08108 -7.351352 0
v -25.08108 -6.918919 0
v -24.64865 -6.918919 0
v -35.89189 -7.351352 0
v -36.32433 -7.351352 0
v -36.32433 -6.918919 0
v -35.89189 -6.918919 0
v -36.32433 -7.351352 0
v -36.75676 -7.351352 0
v -36.75676 -6.918919 0
v -36.32433 -6.918919 0
v -41.08108 -7.351352 0
v -41.51352 -7.351352 0
v -41.51352 -6.918919 0
v -41.08108 -6.918919 0
v -41.51352 -7.351352 0
v -41.94595 -7.351352 0
v -41.94595 -6.918919 0
v -41.51352 -6.918919 0
v -44.54054 -7.351352 0
v -44.97297 -7.351352 0
v -44.97297 -6.918919 0
v -44.54054 -6.918919 0
v -44.97297 -7.351352 0
v -45.40541 -7.351352 0
v -45.40541 -6.918919 0
v -44.97297 -6.918919 0
v -48.43243 -7.351352 0
v -48.86486 -7.351352 0
v -48.86486 -6.918919 0
v -48.43243 -6.918919 0
v -48.86486 -7.351352 0
v -49.2973 -7.351352 0
v -49.2973 -6.918919 0
v -48.86486 -6.918919 0
v -51.45946 -7.351352 0
v -51.89189 -7.351352 0
v -51.89189 -6.918919 0
v -51.45946 -6.918919 0
v -51.89189 -7.351352 0
v -52.32433 -7.351352 0
v -52.32433 -6.918919 0
v -51.89189 -6.918919 0
v 0 -7.783784 0
v -0.4324324 -7.783784 0
v -0.4324324 -7.351352 0
v 0 -7.351352 0
v -0.8648649 -7.783784 0
v -1.297297 -7.783784 0
v -1.297297 -7.351352 0
v -0.8648649 -7.351352 0
v -19.89189 -7.783784 0
v -20.32433 -7.783784 0
v -20.32433 -7.351352 0
v -19.89189 -7.351352 0
v -20.32433 -7.783784 0
v -20.75676 -7.783784 0
v -20.75676 -7.351352 0
v -20.32433 -7.351352 0
v -24.21622 -7.783784 0
v -24.64865 -7.783784 0
v -24.64865 -7.351352 0
v -24.21622 -7.351352 0
v -24.64865 -7.783784 0
v -25.08108 -7.783784 0
v -25.08108 -7.351352 0
v -24.64865 -7.351352 0
v -35.89189 -7.783784 0
v -36.32433 -7.783784 0
v -36.32433 -7.351352 0
v -35.89189 -7.351352 0
v -36.32433 -7.783784 0
v -36.75676 -7.783784 0
v -36.75676 -7.351352 0
v -36.32433 -7.351352 0
v -41.08108 -7.783784 0
v -41.51352 -7.783784 0
v -41.51352 -7.351352 0
v -41.08108 -7.351352 0
v -41.51352 -7.783784 0
v -41.94595 -7.783784 0
v -41.94595 -7.351352 0
v -41.51352 -7.351352 0
v -44.54054 -7.783784 0
v -44.97297 -7.783784 0
v -44.97297 -7.351352 0
v -44.54054 -7.351352 0
v -44.97297 -7.783784 0
v -45.40541 -7.783784 0
v -45.40541 -7.351352 0
v -44.97297 -7.351352 0
v -48.43243 -7.783784 0
v -48.86486 -7.783784 0
v -48.86486 -7.351352 0
v -48.43243 -7.351352 0
v -48.86486 -7.783784 0
v -49.2973 -7.783784 0
v -49.2973 -7.351352 0
v -48.86486 -7.351352 0
v -51.45946 -7.783784 0
v -51.89189 -7.783784 0
v -51.89189 -7.351352 0
v -51.45946 -7.351352 0
v -51.89189 -7.783784 0
v -52.32433 -7.783784 0
v -52.32433 -7.351352 0
v -51.89189 -7.351352 0
v -62.70271 -7.783784 0
v -63.13514 -7.783784 0
v -63.13514 -7.351352 0
v -62.70271 -7.351352 0
v -63.13514 -7.783784 0
v -63.56757 -7.783784 0
v -63.56757 -7.351352 0
v -63.13514 -7.351352 0
v 0 -8.216216 0
v -0.4324324 -8.216216 0
v -0.4324324 -7.783784 0
v 0 -7.783784 0
v -0.8648649 -8.216216 0
v -1.297297 -8.216216 0
v -1.297297 -7.783784 0
v -0.8648649 -7.783784 0
v -19.89189 -8.216216 0
v -20.32433 -8.216216 0
v -20.32433 -7.783784 0
v -19.89189 -7.783784 0
v -20.32433 -8.216216 0
v -20.75676 -8.216216 0
v -20.75676 -7.783784 0
v -20.32433 -7.783784 0
v -24.21622 -8.216216 0
v -24.64865 -8.216216 0
v -24.64865 -7.783784 0
v -24.21622 -7.783784 0
v -24.64865 -8.216216 0
v -25.08108 -8.216216 0
v -25.08108 -7.783784 0
v -24.64865 -7.783784 0
v -35.89189 -8.216216 0
v -36.32433 -8.216216 0
v -36.32433 -7.783784 0
v -35.89189 -7.783784 0
v -36.32433 -8.216216 0
v -36.75676 -8.216216 0
v -36.75676 -7.783784 0
v -36.32433 -7.783784 0
v -41.08108 -8.216216 0
v -41.51352 -8.216216 0
v -41.51352 -7.783784 0
v -41.08108 -7.783784 0
v -41.51352 -8.216216 0
v -41.94595 -8.216216 0
v -41.94595 -7.783784 0
v -41.51352 -7.783784 0
v -44.54054 -8.216216 0
v -44.97297 -8.216216 0
v -44.97297 -7.783784 0
v -44.54054 -7.783784 0
v -44.97297 -8.216216 0
v -45.40541 -8.216216 0
v -45.40541 -7.783784 0
v -44.97297 -7.783784 0
v -48.43243 -8.216216 0
v -48.86486 -8.216216 0
v -48.86486 -7.783784 0
v -48.43243 -7.783784 0
v -48.86486 -8.216216 0
v -49.2973 -8.216216 0
v -49.2973 -7.783784 0
v -48.86486 -7.783784 0
v -51.45946 -8.216216 0
v -51.89189 -8.216216 0
v -51.89189 -7.783784 0
v -51.45946 -7.783784 0
v -51.89189 -8.216216 0
v -52.32433 -8.216216 0
v -52.32433 -7.783784 0
v -51.89189 -7.783784 0
v -62.70271 -8.216216 0
v -63.13514 -8.216216 0
v -63.13514 -7.783784 0
v -62.70271 -7.783784 0
v -63.13514 -8.216216 0
v -63.56757 -8.216216 0
v -63.56757 -7.783784 0
v -63.13514 -7.783784 0
v 0 -8.648649 0
v -0.4324324 -8.648649 0
v -0.4324324 -8.216216 0
v 0 -8.216216 0
v -0.8648649 -8.648649 0
v -1.297297 -8.648649 0
v -1.297297 -8.216216 0
v -0.8648649 -8.216216 0
v -14.27027 -8.648649 0
v -14.7027 -8.648649 0
v -14.7027 -8.216216 0
v -14.27027 -8.216216 0
v -14.7027 -8.648649 0
v -15.13514 -8.648649 0
v -15.13514 -8.216216 0
v -14.7027 -8.216216 0
v -19.89189 -8.648649 0
v -20.32433 -8.648649 0
v -20.32433 -8.216216 0
v -19.89189 -8.216216 0
v -20.32433 -8.648649 0
v -20.75676 -8.648649 0
v -20.75676 -8.216216 0
v -20.32433 -8.216216 0
v -22.91892 -8.648649 0
v -23.35135 -8.648649 0
v -23.35135 -8.216216 0
v -22.91892 -8.216216 0
v -24.21622 -8.648649 0
v -24.64865 -8.648649 0
v -24.64865 -8.216216 0
v -24.21622 -8.216216 0
v -24.64865 -8.648649 0
v -25.08108 -8.648649 0
v -25.08108 -8.216216 0
v -24.64865 -8.216216 0
v -35.89189 -8.648649 0
v -36.32433 -8.648649 0
v -36.32433 -8.216216 0
v -35.89189 -8.216216 0
v -36.32433 -8.648649 0
v -36.75676 -8.648649 0
v -36.75676 -8.216216 0
v -36.32433 -8.216216 0
v -41.08108 -8.648649 0
v -41.51352 -8.648649 0
v -41.51352 -8.216216 0
v -41.08108 -8.216216 0
v -41.51352 -8.648649 0
v -41.94595 -8.648649 0
v -41.94595 -8.216216 0
v -41.51352 -8.216216 0
v -44.54054 -8.648649 0
v -44.97297 -8.648649 0
v -44.97297 -8.216216 0
v -44.54054 -8.216216 0
v -44.97297 -8.648649 0
v -45.40541 -8.648649 0
v -45.40541 -8.216216 0
v -44.97297 -8.216216 0
v -48.43243 -8.648649 0
v -48.86486 -8.648649 0
v -48.86486 -8.216216 0
v -48.43243 -8.216216 0
v -48.86486 -8.648649 0
v -49.2973 -8.648649 0
v -49.2973 -8.216216 0
v -48.86486 -8.216216 0
v -51.45946 -8.648649 0
v -51.89189 -8.648649 0
v -51.89189 -8.216216 0
v -51.45946 -8.216216 0
v -51.89189 -8.648649 0
v -52.32433 -8.648649 0
v -52.32433 -8.216216 0
v -51.89189 -8.216216 0
v -62.70271 -8.648649 0
v -63.13514 -8.648649 0
v -63.13514 -8.216216 0
v -62.70271 -8.216216 0
v -63.13514 -8.648649 0
v -63.56757 -8.648649 0
v -63.56757 -8.216216 0
v -63.13514 -8.216216 0

# Texture cooridinates (Count = 68)
vt 0.2501221 0.2084554
vt 0.3748779 0.2084554
vt 0.3748779 0.2498779
vt 0.2501221 0.2498779
vt 0.3751221 0.2917888
vt 0.4998779 0.2917888
vt 0.4998779 0.3332112
vt 0.3751221 0.3332112
vt 0.2501221 0.8334554
vt 0.3748779 0.8334554
vt 0.3748779 0.8748779
vt 0.2501221 0.8748779
vt 0.3751221 0.8751221
vt 0.4998779 0.8751221
vt 0.4998779 0.9165446
vt 0.3751221 0.9165446
vt 0.3748779 0.9584554
vt 0.2501221 0.9584554
vt 0.2501221 0.9998779
vt 0.3748779 0.9998779
vt 0.2501221 0.2501221
vt 0.3748779 0.2501221
vt 0.3748779 0.2915446
vt 0.2501221 0.2915446
vt 0.3751221 0.2501221
vt 0.4998779 0.2501221
vt 0.4998779 0.2915446
vt 0.3751221 0.2915446
vt 0.2501221 0.7917888
vt 0.3748779 0.7917888
vt 0.3748779 0.8332112
vt 0.2501221 0.8332112
vt 0.3751221 0.8334554
vt 0.4998779 0.8334554
vt 0.4998779 0.8748779
vt 0.3751221 0.8748779
vt 0.2501221 0.7501221
vt 0.3748779 0.7501221
vt 0.3748779 0.7915446
vt 0.2501221 0.7915446
vt 0.3751221 0.7917888
vt 0.4998779 0.7917888
vt 0.4998779 0.8332112
vt 0.3751221 0.8332112
vt 0.2501221 0.7084554
vt 0.3748779 0.7084554
vt 0.3748779 0.7498779
vt 0.2501221 0.7498779
vt 0.3751221 0.7501221
vt 0.4998779 0.7501221
vt 0.4998779 0.7915446
vt 0.3751221 0.7915446
vt 0.2501221 0.6667887
vt 0.3748779 0.6667887
vt 0.3748779 0.7082113
vt 0.2501221 0.7082113
vt 0.3751221 0.9167888
vt 0.4998779 0.9167888
vt 0.4998779 0.9582112
vt 0.3751221 0.9582112
vt 0.2498779 0.5834554
vt 0.1251221 0.5834554
vt 0.1251221 0.6248779
vt 0.2498779 0.6248779
vt 0.3751221 0.9584554
vt 0.4998779 0.9584554
vt 0.4998779 0.9998779
vt 0.3751221 0.9998779

# Normal
vn 0 0 -1

# Mesh description
g struggle_mesh_0017

# Faces
f 1/1/1 2/2/1 3/3/1 4/4/1
f 5/5/1 6/6/1 7/7/1 8/8/1
f 9/9/1 10/10/1 11/11/1 12/12/1
f 13/13/1 14/14/1 15/15/1 16/16/1
f 17/17/1 18/18/1 19/19/1 20/20/1
f 21/17/1 22/18/1 23/19/1 24/20/1
f 25/21/1 26/22/1 27/23/1 28/24/1
f 29/25/1 30/26/1 31/27/1 32/28/1
f 33/29/1 34/30/1 35/31/1 36/32/1
f 37/33/1 38/34/1 39/35/1 40/36/1
f 41/17/1 42/18/1 43/19/1 44/20/1
f 45/18/1 46/17/1 47/20/1 48/19/1
f 49/17/1 50/18/1 51/19/1 52/20/1
f 53/18/1 54/17/1 55/20/1 56/19/1
f 57/17/1 58/18/1 59/19/1 60/20/1
f 61/10/1 62/9/1 63/12/1 64/11/1
f 65/14/1 66/13/1 67/16/1 68/15/1
f 69/10/1 70/9/1 71/12/1 72/11/1
f 73/37/1 74/38/1 75/39/1 76/40/1
f 77/41/1 78/42/1 79/43/1 80/44/1
f 81/14/1 82/13/1 83/16/1 84/15/1
f 85/10/1 86/9/1 87/12/1 88/11/1
f 89/9/1 90/10/1 91/11/1 92/12/1
f 93/13/1 94/14/1 95/15/1 96/16/1
f 97/14/1 98/13/1 99/16/1 100/15/1
f 101/10/1 102/9/1 103/12/1 104/11/1
f 105/9/1 106/10/1 107/11/1 108/12/1
f 109/13/1 110/14/1 111/15/1 112/16/1
f 113/14/1 114/13/1 115/16/1 116/15/1
f 117/10/1 118/9/1 119/12/1 120/11/1
f 121/30/1 122/29/1 123/32/1 124/31/1
f 125/34/1 126/33/1 127/36/1 128/35/1
f 129/30/1 130/29/1 131/32/1 132/31/1
f 133/45/1 134/46/1 135/47/1 136/48/1
f 137/49/1 138/50/1 139/51/1 140/52/1
f 141/34/1 142/33/1 143/36/1 144/35/1
f 145/30/1 146/29/1 147/32/1 148/31/1
f 149/29/1 150/30/1 151/31/1 152/32/1
f 153/33/1 154/34/1 155/35/1 156/36/1
f 157/34/1 158/33/1 159/36/1 160/35/1
f 161/30/1 162/29/1 163/32/1 164/31/1
f 165/29/1 166/30/1 167/31/1 168/32/1
f 169/33/1 170/34/1 171/35/1 172/36/1
f 173/34/1 174/33/1 175/36/1 176/35/1
f 177/30/1 178/29/1 179/32/1 180/31/1
f 181/38/1 182/37/1 183/40/1 184/39/1
f 185/42/1 186/41/1 187/44/1 188/43/1
f 189/38/1 190/37/1 191/40/1 192/39/1
f 193/53/1 194/54/1 195/55/1 196/56/1
f 197/57/1 198/58/1 199/59/1 200/60/1
f 201/42/1 202/41/1 203/44/1 204/43/1
f 205/38/1 206/37/1 207/40/1 208/39/1
f 209/37/1 210/38/1 211/39/1 212/40/1
f 213/41/1 214/42/1 215/43/1 216/44/1
f 217/42/1 218/41/1 219/44/1 220/43/1
f 221/38/1 222/37/1 223/40/1 224/39/1
f 225/37/1 226/38/1 227/39/1 228/40/1
f 229/41/1 230/42/1 231/43/1 232/44/1
f 233/42/1 234/41/1 235/44/1 236/43/1
f 237/38/1 238/37/1 239/40/1 240/39/1
f 241/46/1 242/45/1 243/48/1 244/47/1
f 245/50/1 246/49/1 247/52/1 248/51/1
f 249/46/1 250/45/1 251/48/1 252/47/1
f 253/29/1 254/30/1 255/31/1 256/32/1
f 257/33/1 258/34/1 259/35/1 260/36/1
f 261/50/1 262/49/1 263/52/1 264/51/1
f 265/46/1 266/45/1 267/48/1 268/47/1
f 269/45/1 270/46/1 271/47/1 272/48/1
f 273/49/1 274/50/1 275/51/1 276/52/1
f 277/50/1 278/49/1 279/52/1 280/51/1
f 281/46/1 282/45/1 283/48/1 284/47/1
f 285/45/1 286/46/1 287/47/1 288/48/1
f 289/49/1 290/50/1 291/51/1 292/52/1
f 293/50/1 294/49/1 295/52/1 296/51/1
f 297/46/1 298/45/1 299/48/1 300/47/1
f 301/54/1 302/53/1 303/56/1 304/55/1
f 305/61/1 306/62/1 307/63/1 308/64/1
f 309/58/1 310/57/1 311/60/1 312/59/1
f 313/54/1 314/53/1 315/56/1 316/55/1
f 317/29/1 318/30/1 319/31/1 320/32/1
f 321/33/1 322/34/1 323/35/1 324/36/1
f 325/58/1 326/57/1 327/60/1 328/59/1
f 329/54/1 330/53/1 331/56/1 332/55/1
f 333/53/1 334/54/1 335/55/1 336/56/1
f 337/57/1 338/58/1 339/59/1 340/60/1
f 341/58/1 342/57/1 343/60/1 344/59/1
f 345/54/1 346/53/1 347/56/1 348/55/1
f 349/53/1 350/54/1 351/55/1 352/56/1
f 353/57/1 354/58/1 355/59/1 356/60/1
f 357/58/1 358/57/1 359/60/1 360/59/1
f 361/54/1 362/53/1 363/56/1 364/55/1
f 365/54/1 366/53/1 367/56/1 368/55/1
f 369/61/1 370/62/1 371/63/1 372/64/1
f 373/34/1 374/33/1 375/36/1 376/35/1
f 377/30/1 378/29/1 379/32/1 380/31/1
f 381/37/1 382/38/1 383/39/1 384/40/1
f 385/41/1 386/42/1 387/43/1 388/44/1
f 389/34/1 390/33/1 391/36/1 392/35/1
f 393/30/1 394/29/1 395/32/1 396/31/1
f 397/29/1 398/30/1 399/31/1 400/32/1
f 401/33/1 402/34/1 403/35/1 404/36/1
f 405/34/1 406/33/1 407/36/1 408/35/1
f 409/30/1 410/29/1 411/32/1 412/31/1
f 413/29/1 414/30/1 415/31/1 416/32/1
f 417/33/1 418/34/1 419/35/1 420/36/1
f 421/34/1 422/33/1 423/36/1 424/35/1
f 425/30/1 426/29/1 427/32/1 428/31/1
f 429/29/1 430/30/1 431/31/1 432/32/1
f 433/33/1 434/34/1 435/35/1 436/36/1
f 437/54/1 438/53/1 439/56/1 440/55/1
f 441/61/1 442/62/1 443/63/1 444/64/1
f 445/34/1 446/33/1 447/36/1 448/35/1
f 449/30/1 450/29/1 451/32/1 452/31/1
f 453/45/1 454/46/1 455/47/1 456/48/1
f 457/49/1 458/50/1 459/51/1 460/52/1
f 461/34/1 462/33/1 463/36/1 464/35/1
f 465/30/1 466/29/1 467/32/1 468/31/1
f 469/29/1 470/30/1 471/31/1 472/32/1
f 473/33/1 474/34/1 475/35/1 476/36/1
f 477/34/1 478/33/1 479/36/1 480/35/1
f 481/30/1 482/29/1 483/32/1 484/31/1
f 485/29/1 486/30/1 487/31/1 488/32/1
f 489/33/1 490/34/1 491/35/1 492/36/1
f 493/34/1 494/33/1 495/36/1 496/35/1
f 497/30/1 498/29/1 499/32/1 500/31/1
f 501/29/1 502/30/1 503/31/1 504/32/1
f 505/33/1 506/34/1 507/35/1 508/36/1
f 509/54/1 510/53/1 511/56/1 512/55/1
f 513/61/1 514/62/1 515/63/1 516/64/1
f 517/18/1 518/17/1 519/20/1 520/19/1
f 521/65/1 522/66/1 523/67/1 524/68/1
f 525/42/1 526/41/1 527/44/1 528/43/1
f 529/38/1 530/37/1 531/40/1 532/39/1
f 533/46/1 534/45/1 535/48/1 536/47/1
f 537/53/1 538/54/1 539/55/1 540/56/1
f 541/57/1 542/58/1 543/59/1 544/60/1
f 545/42/1 546/41/1 547/44/1 548/43/1
f 549/38/1 550/37/1 551/40/1 552/39/1
f 553/37/1 554/38/1 555/39/1 556/40/1
f 557/41/1 558/42/1 559/43/1 560/44/1
f 561/42/1 562/41/1 563/44/1 564/43/1
f 565/38/1 566/37/1 567/40/1 568/39/1
f 569/37/1 570/38/1 571/39/1 572/40/1
f 573/41/1 574/42/1 575/43/1 576/44/1
f 577/42/1 578/41/1 579/44/1 580/43/1
f 581/38/1 582/37/1 583/40/1 584/39/1
f 585/37/1 586/38/1 587/39/1 588/40/1
f 589/41/1 590/42/1 591/43/1 592/44/1

