# Tiled2Unity generated file. Do not modify by hand.
# Wavefront file for 'struggle_mesh_0006.obj'

# Vertices (Count = 12)
v -1.72973 -2.594595 0
v -2.162162 -2.594595 0
v -2.162162 -2.162162 0
v -1.72973 -2.162162 0
v -1.72973 -3.027027 0
v -2.162162 -3.027027 0
v -2.162162 -2.594595 0
v -1.72973 -2.594595 0
v -1.72973 -3.45946 0
v -2.162162 -3.45946 0
v -2.162162 -3.027027 0
v -1.72973 -3.027027 0

# Texture cooridinates (Count = 12)
vt 0.9616605 0.4707103
vt 0.9998779 0.4707103
vt 0.9998779 0.4998779
vt 0.9616605 0.4998779
vt 0.9616605 0.4412985
vt 0.9998779 0.4412985
vt 0.9998779 0.4704661
vt 0.9616605 0.4704661
vt 0.9616605 0.4118868
vt 0.9998779 0.4118868
vt 0.9998779 0.4410544
vt 0.9616605 0.4410544

# Normal
vn 0 0 -1

# Mesh description
g struggle_mesh_0006

# Faces
f 1/1/1 2/2/1 3/3/1 4/4/1
f 5/5/1 6/6/1 7/7/1 8/8/1
f 9/9/1 10/10/1 11/11/1 12/12/1

