# Tiled2Unity generated file. Do not modify by hand.
# Wavefront file for 'struggle_mesh_0008.obj'

# Vertices (Count = 64)
v 0 -0.4324324 0
v -0.4324324 -0.4324324 0
v -0.4324324 0 0
v 0 0 0
v 0 -0.8648649 0
v -0.4324324 -0.8648649 0
v -0.4324324 -0.4324324 0
v 0 -0.4324324 0
v -0.8648649 -0.8648649 0
v -1.297297 -0.8648649 0
v -1.297297 -0.4324324 0
v -0.8648649 -0.4324324 0
v 0 -1.297297 0
v -0.4324324 -1.297297 0
v -0.4324324 -0.8648649 0
v 0 -0.8648649 0
v 0 -1.72973 0
v -0.4324324 -1.72973 0
v -0.4324324 -1.297297 0
v 0 -1.297297 0
v -1.72973 -1.72973 0
v -2.162162 -1.72973 0
v -2.162162 -1.297297 0
v -1.72973 -1.297297 0
v 0 -2.162162 0
v -0.4324324 -2.162162 0
v -0.4324324 -1.72973 0
v 0 -1.72973 0
v -1.72973 -2.162162 0
v -2.162162 -2.162162 0
v -2.162162 -1.72973 0
v -1.72973 -1.72973 0
v -1.297297 -2.594595 0
v -1.72973 -2.594595 0
v -1.72973 -2.162162 0
v -1.297297 -2.162162 0
v -1.72973 -2.594595 0
v -2.162162 -2.594595 0
v -2.162162 -2.162162 0
v -1.72973 -2.162162 0
v -0.8648649 -3.027027 0
v -1.297297 -3.027027 0
v -1.297297 -2.594595 0
v -0.8648649 -2.594595 0
v -1.297297 -3.027027 0
v -1.72973 -3.027027 0
v -1.72973 -2.594595 0
v -1.297297 -2.594595 0
v -1.72973 -3.027027 0
v -2.162162 -3.027027 0
v -2.162162 -2.594595 0
v -1.72973 -2.594595 0
v -0.8648649 -3.45946 0
v -1.297297 -3.45946 0
v -1.297297 -3.027027 0
v -0.8648649 -3.027027 0
v -1.297297 -3.45946 0
v -1.72973 -3.45946 0
v -1.72973 -3.027027 0
v -1.297297 -3.027027 0
v -1.72973 -3.45946 0
v -2.162162 -3.45946 0
v -2.162162 -3.027027 0
v -1.72973 -3.027027 0

# Texture cooridinates (Count = 64)
vt 0.8078144 0.6177691
vt 0.8460318 0.6177691
vt 0.8460318 0.6469368
vt 0.8078144 0.6469368
vt 0.8078144 0.5883573
vt 0.8460318 0.5883573
vt 0.8460318 0.617525
vt 0.8078144 0.617525
vt 0.8847374 0.5883573
vt 0.9229549 0.5883573
vt 0.9229549 0.617525
vt 0.8847374 0.617525
vt 0.8078144 0.5589456
vt 0.8460318 0.5589456
vt 0.8460318 0.5881132
vt 0.8078144 0.5881132
vt 0.8078144 0.5295339
vt 0.8460318 0.5295339
vt 0.8460318 0.5587015
vt 0.8078144 0.5587015
vt 0.9616605 0.5295339
vt 0.9998779 0.5295339
vt 0.9998779 0.5587015
vt 0.9616605 0.5587015
vt 0.8078144 0.5001221
vt 0.8460318 0.5001221
vt 0.8460318 0.5292897
vt 0.8078144 0.5292897
vt 0.9616605 0.5001221
vt 0.9998779 0.5001221
vt 0.9998779 0.5292897
vt 0.9616605 0.5292897
vt 0.923199 0.4707103
vt 0.9614164 0.4707103
vt 0.9614164 0.4998779
vt 0.923199 0.4998779
vt 0.9616605 0.4707103
vt 0.9998779 0.4707103
vt 0.9998779 0.4998779
vt 0.9616605 0.4998779
vt 0.8847374 0.4412985
vt 0.9229549 0.4412985
vt 0.9229549 0.4704661
vt 0.8847374 0.4704661
vt 0.923199 0.4412985
vt 0.9614164 0.4412985
vt 0.9614164 0.4704661
vt 0.923199 0.4704661
vt 0.9616605 0.4412985
vt 0.9998779 0.4412985
vt 0.9998779 0.4704661
vt 0.9616605 0.4704661
vt 0.8847374 0.4118868
vt 0.9229549 0.4118868
vt 0.9229549 0.4410544
vt 0.8847374 0.4410544
vt 0.923199 0.4118868
vt 0.9614164 0.4118868
vt 0.9614164 0.4410544
vt 0.923199 0.4410544
vt 0.9616605 0.4118868
vt 0.9998779 0.4118868
vt 0.9998779 0.4410544
vt 0.9616605 0.4410544

# Normal
vn 0 0 -1

# Mesh description
g struggle_mesh_0008

# Faces
f 1/1/1 2/2/1 3/3/1 4/4/1
f 5/5/1 6/6/1 7/7/1 8/8/1
f 9/9/1 10/10/1 11/11/1 12/12/1
f 13/13/1 14/14/1 15/15/1 16/16/1
f 17/17/1 18/18/1 19/19/1 20/20/1
f 21/21/1 22/22/1 23/23/1 24/24/1
f 25/25/1 26/26/1 27/27/1 28/28/1
f 29/29/1 30/30/1 31/31/1 32/32/1
f 33/33/1 34/34/1 35/35/1 36/36/1
f 37/37/1 38/38/1 39/39/1 40/40/1
f 41/41/1 42/42/1 43/43/1 44/44/1
f 45/45/1 46/46/1 47/47/1 48/48/1
f 49/49/1 50/50/1 51/51/1 52/52/1
f 53/53/1 54/54/1 55/55/1 56/56/1
f 57/57/1 58/58/1 59/59/1 60/60/1
f 61/61/1 62/62/1 63/63/1 64/64/1

