# Tiled2Unity generated file. Do not modify by hand.
# Wavefront file for 'struggle_mesh_0011.obj'

# Vertices (Count = 600)
v -91.67567 -6.054054 0
v -92.10811 -6.054054 0
v -92.10811 -5.621622 0
v -91.67567 -5.621622 0
v -92.10811 -6.054054 0
v -92.54054 -6.054054 0
v -92.54054 -5.621622 0
v -92.10811 -5.621622 0
v -92.54054 -6.054054 0
v -92.97298 -6.054054 0
v -92.97298 -5.621622 0
v -92.54054 -5.621622 0
v -92.97298 -6.054054 0
v -93.40541 -6.054054 0
v -93.40541 -5.621622 0
v -92.97298 -5.621622 0
v -93.40541 -6.054054 0
v -93.83784 -6.054054 0
v -93.83784 -5.621622 0
v -93.40541 -5.621622 0
v -93.83784 -6.054054 0
v -94.27027 -6.054054 0
v -94.27027 -5.621622 0
v -93.83784 -5.621622 0
v -91.67567 -6.486486 0
v -92.10811 -6.486486 0
v -92.10811 -6.054054 0
v -91.67567 -6.054054 0
v -92.10811 -6.486486 0
v -92.54054 -6.486486 0
v -92.54054 -6.054054 0
v -92.10811 -6.054054 0
v -92.54054 -6.486486 0
v -92.97298 -6.486486 0
v -92.97298 -6.054054 0
v -92.54054 -6.054054 0
v -92.97298 -6.486486 0
v -93.40541 -6.486486 0
v -93.40541 -6.054054 0
v -92.97298 -6.054054 0
v -93.40541 -6.486486 0
v -93.83784 -6.486486 0
v -93.83784 -6.054054 0
v -93.40541 -6.054054 0
v -93.83784 -6.486486 0
v -94.27027 -6.486486 0
v -94.27027 -6.054054 0
v -93.83784 -6.054054 0
v -70.05405 -6.918919 0
v -70.48649 -6.918919 0
v -70.48649 -6.486486 0
v -70.05405 -6.486486 0
v -70.48649 -6.918919 0
v -70.91892 -6.918919 0
v -70.91892 -6.486486 0
v -70.48649 -6.486486 0
v -70.91892 -6.918919 0
v -71.35136 -6.918919 0
v -71.35136 -6.486486 0
v -70.91892 -6.486486 0
v -71.35136 -6.918919 0
v -71.78378 -6.918919 0
v -71.78378 -6.486486 0
v -71.35136 -6.486486 0
v -71.78378 -6.918919 0
v -72.21622 -6.918919 0
v -72.21622 -6.486486 0
v -71.78378 -6.486486 0
v -72.21622 -6.918919 0
v -72.64865 -6.918919 0
v -72.64865 -6.486486 0
v -72.21622 -6.486486 0
v -72.64865 -6.918919 0
v -73.08109 -6.918919 0
v -73.08109 -6.486486 0
v -72.64865 -6.486486 0
v -73.08109 -6.918919 0
v -73.51351 -6.918919 0
v -73.51351 -6.486486 0
v -73.08109 -6.486486 0
v -73.51351 -6.918919 0
v -73.94595 -6.918919 0
v -73.94595 -6.486486 0
v -73.51351 -6.486486 0
v -73.94595 -6.918919 0
v -74.37838 -6.918919 0
v -74.37838 -6.486486 0
v -73.94595 -6.486486 0
v -74.37838 -6.918919 0
v -74.81081 -6.918919 0
v -74.81081 -6.486486 0
v -74.37838 -6.486486 0
v -74.81081 -6.918919 0
v -75.24325 -6.918919 0
v -75.24325 -6.486486 0
v -74.81081 -6.486486 0
v -75.24325 -6.918919 0
v -75.67567 -6.918919 0
v -75.67567 -6.486486 0
v -75.24325 -6.486486 0
v -75.67567 -6.918919 0
v -76.10811 -6.918919 0
v -76.10811 -6.486486 0
v -75.67567 -6.486486 0
v -76.10811 -6.918919 0
v -76.54054 -6.918919 0
v -76.54054 -6.486486 0
v -76.10811 -6.486486 0
v -76.54054 -6.918919 0
v -76.97298 -6.918919 0
v -76.97298 -6.486486 0
v -76.54054 -6.486486 0
v -76.97298 -6.918919 0
v -77.40541 -6.918919 0
v -77.40541 -6.486486 0
v -76.97298 -6.486486 0
v -77.40541 -6.918919 0
v -77.83784 -6.918919 0
v -77.83784 -6.486486 0
v -77.40541 -6.486486 0
v -77.83784 -6.918919 0
v -78.27027 -6.918919 0
v -78.27027 -6.486486 0
v -77.83784 -6.486486 0
v -78.27027 -6.918919 0
v -78.70271 -6.918919 0
v -78.70271 -6.486486 0
v -78.27027 -6.486486 0
v -78.70271 -6.918919 0
v -79.13514 -6.918919 0
v -79.13514 -6.486486 0
v -78.70271 -6.486486 0
v -79.13514 -6.918919 0
v -79.56757 -6.918919 0
v -79.56757 -6.486486 0
v -79.13514 -6.486486 0
v -79.56757 -6.918919 0
v -80 -6.918919 0
v -80 -6.486486 0
v -79.56757 -6.486486 0
v -80 -6.918919 0
v -80.43243 -6.918919 0
v -80.43243 -6.486486 0
v -80 -6.486486 0
v -80.43243 -6.918919 0
v -80.86487 -6.918919 0
v -80.86487 -6.486486 0
v -80.43243 -6.486486 0
v -80.86487 -6.918919 0
v -81.2973 -6.918919 0
v -81.2973 -6.486486 0
v -80.86487 -6.486486 0
v -81.2973 -6.918919 0
v -81.72973 -6.918919 0
v -81.72973 -6.486486 0
v -81.2973 -6.486486 0
v -81.72973 -6.918919 0
v -82.16216 -6.918919 0
v -82.16216 -6.486486 0
v -81.72973 -6.486486 0
v -82.16216 -6.918919 0
v -82.5946 -6.918919 0
v -82.5946 -6.486486 0
v -82.16216 -6.486486 0
v -82.5946 -6.918919 0
v -83.02703 -6.918919 0
v -83.02703 -6.486486 0
v -82.5946 -6.486486 0
v -83.02703 -6.918919 0
v -83.45947 -6.918919 0
v -83.45947 -6.486486 0
v -83.02703 -6.486486 0
v -83.45947 -6.918919 0
v -83.89189 -6.918919 0
v -83.89189 -6.486486 0
v -83.45947 -6.486486 0
v -91.67567 -6.918919 0
v -92.10811 -6.918919 0
v -92.10811 -6.486486 0
v -91.67567 -6.486486 0
v -92.10811 -6.918919 0
v -92.54054 -6.918919 0
v -92.54054 -6.486486 0
v -92.10811 -6.486486 0
v -92.54054 -6.918919 0
v -92.97298 -6.918919 0
v -92.97298 -6.486486 0
v -92.54054 -6.486486 0
v -92.97298 -6.918919 0
v -93.40541 -6.918919 0
v -93.40541 -6.486486 0
v -92.97298 -6.486486 0
v -93.40541 -6.918919 0
v -93.83784 -6.918919 0
v -93.83784 -6.486486 0
v -93.40541 -6.486486 0
v -93.83784 -6.918919 0
v -94.27027 -6.918919 0
v -94.27027 -6.486486 0
v -93.83784 -6.486486 0
v -70.05405 -7.351352 0
v -70.48649 -7.351352 0
v -70.48649 -6.918919 0
v -70.05405 -6.918919 0
v -70.48649 -7.351352 0
v -70.91892 -7.351352 0
v -70.91892 -6.918919 0
v -70.48649 -6.918919 0
v -70.91892 -7.351352 0
v -71.35136 -7.351352 0
v -71.35136 -6.918919 0
v -70.91892 -6.918919 0
v -71.35136 -7.351352 0
v -71.78378 -7.351352 0
v -71.78378 -6.918919 0
v -71.35136 -6.918919 0
v -71.78378 -7.351352 0
v -72.21622 -7.351352 0
v -72.21622 -6.918919 0
v -71.78378 -6.918919 0
v -72.21622 -7.351352 0
v -72.64865 -7.351352 0
v -72.64865 -6.918919 0
v -72.21622 -6.918919 0
v -72.64865 -7.351352 0
v -73.08109 -7.351352 0
v -73.08109 -6.918919 0
v -72.64865 -6.918919 0
v -73.08109 -7.351352 0
v -73.51351 -7.351352 0
v -73.51351 -6.918919 0
v -73.08109 -6.918919 0
v -73.51351 -7.351352 0
v -73.94595 -7.351352 0
v -73.94595 -6.918919 0
v -73.51351 -6.918919 0
v -73.94595 -7.351352 0
v -74.37838 -7.351352 0
v -74.37838 -6.918919 0
v -73.94595 -6.918919 0
v -74.37838 -7.351352 0
v -74.81081 -7.351352 0
v -74.81081 -6.918919 0
v -74.37838 -6.918919 0
v -74.81081 -7.351352 0
v -75.24325 -7.351352 0
v -75.24325 -6.918919 0
v -74.81081 -6.918919 0
v -75.24325 -7.351352 0
v -75.67567 -7.351352 0
v -75.67567 -6.918919 0
v -75.24325 -6.918919 0
v -75.67567 -7.351352 0
v -76.10811 -7.351352 0
v -76.10811 -6.918919 0
v -75.67567 -6.918919 0
v -76.10811 -7.351352 0
v -76.54054 -7.351352 0
v -76.54054 -6.918919 0
v -76.10811 -6.918919 0
v -76.54054 -7.351352 0
v -76.97298 -7.351352 0
v -76.97298 -6.918919 0
v -76.54054 -6.918919 0
v -76.97298 -7.351352 0
v -77.40541 -7.351352 0
v -77.40541 -6.918919 0
v -76.97298 -6.918919 0
v -77.40541 -7.351352 0
v -77.83784 -7.351352 0
v -77.83784 -6.918919 0
v -77.40541 -6.918919 0
v -77.83784 -7.351352 0
v -78.27027 -7.351352 0
v -78.27027 -6.918919 0
v -77.83784 -6.918919 0
v -78.27027 -7.351352 0
v -78.70271 -7.351352 0
v -78.70271 -6.918919 0
v -78.27027 -6.918919 0
v -78.70271 -7.351352 0
v -79.13514 -7.351352 0
v -79.13514 -6.918919 0
v -78.70271 -6.918919 0
v -79.13514 -7.351352 0
v -79.56757 -7.351352 0
v -79.56757 -6.918919 0
v -79.13514 -6.918919 0
v -79.56757 -7.351352 0
v -80 -7.351352 0
v -80 -6.918919 0
v -79.56757 -6.918919 0
v -80 -7.351352 0
v -80.43243 -7.351352 0
v -80.43243 -6.918919 0
v -80 -6.918919 0
v -80.43243 -7.351352 0
v -80.86487 -7.351352 0
v -80.86487 -6.918919 0
v -80.43243 -6.918919 0
v -80.86487 -7.351352 0
v -81.2973 -7.351352 0
v -81.2973 -6.918919 0
v -80.86487 -6.918919 0
v -81.2973 -7.351352 0
v -81.72973 -7.351352 0
v -81.72973 -6.918919 0
v -81.2973 -6.918919 0
v -81.72973 -7.351352 0
v -82.16216 -7.351352 0
v -82.16216 -6.918919 0
v -81.72973 -6.918919 0
v -82.16216 -7.351352 0
v -82.5946 -7.351352 0
v -82.5946 -6.918919 0
v -82.16216 -6.918919 0
v -82.5946 -7.351352 0
v -83.02703 -7.351352 0
v -83.02703 -6.918919 0
v -82.5946 -6.918919 0
v -83.02703 -7.351352 0
v -83.45947 -7.351352 0
v -83.45947 -6.918919 0
v -83.02703 -6.918919 0
v -83.45947 -7.351352 0
v -83.89189 -7.351352 0
v -83.89189 -6.918919 0
v -83.45947 -6.918919 0
v -70.05405 -7.783784 0
v -70.48649 -7.783784 0
v -70.48649 -7.351352 0
v -70.05405 -7.351352 0
v -70.48649 -7.783784 0
v -70.91892 -7.783784 0
v -70.91892 -7.351352 0
v -70.48649 -7.351352 0
v -70.91892 -7.783784 0
v -71.35136 -7.783784 0
v -71.35136 -7.351352 0
v -70.91892 -7.351352 0
v -71.35136 -7.783784 0
v -71.78378 -7.783784 0
v -71.78378 -7.351352 0
v -71.35136 -7.351352 0
v -71.78378 -7.783784 0
v -72.21622 -7.783784 0
v -72.21622 -7.351352 0
v -71.78378 -7.351352 0
v -72.21622 -7.783784 0
v -72.64865 -7.783784 0
v -72.64865 -7.351352 0
v -72.21622 -7.351352 0
v -72.64865 -7.783784 0
v -73.08109 -7.783784 0
v -73.08109 -7.351352 0
v -72.64865 -7.351352 0
v -73.08109 -7.783784 0
v -73.51351 -7.783784 0
v -73.51351 -7.351352 0
v -73.08109 -7.351352 0
v -73.51351 -7.783784 0
v -73.94595 -7.783784 0
v -73.94595 -7.351352 0
v -73.51351 -7.351352 0
v -73.94595 -7.783784 0
v -74.37838 -7.783784 0
v -74.37838 -7.351352 0
v -73.94595 -7.351352 0
v -74.37838 -7.783784 0
v -74.81081 -7.783784 0
v -74.81081 -7.351352 0
v -74.37838 -7.351352 0
v -74.81081 -7.783784 0
v -75.24325 -7.783784 0
v -75.24325 -7.351352 0
v -74.81081 -7.351352 0
v -75.24325 -7.783784 0
v -75.67567 -7.783784 0
v -75.67567 -7.351352 0
v -75.24325 -7.351352 0
v -75.67567 -7.783784 0
v -76.10811 -7.783784 0
v -76.10811 -7.351352 0
v -75.67567 -7.351352 0
v -76.10811 -7.783784 0
v -76.54054 -7.783784 0
v -76.54054 -7.351352 0
v -76.10811 -7.351352 0
v -76.54054 -7.783784 0
v -76.97298 -7.783784 0
v -76.97298 -7.351352 0
v -76.54054 -7.351352 0
v -76.97298 -7.783784 0
v -77.40541 -7.783784 0
v -77.40541 -7.351352 0
v -76.97298 -7.351352 0
v -77.40541 -7.783784 0
v -77.83784 -7.783784 0
v -77.83784 -7.351352 0
v -77.40541 -7.351352 0
v -77.83784 -7.783784 0
v -78.27027 -7.783784 0
v -78.27027 -7.351352 0
v -77.83784 -7.351352 0
v -78.27027 -7.783784 0
v -78.70271 -7.783784 0
v -78.70271 -7.351352 0
v -78.27027 -7.351352 0
v -78.70271 -7.783784 0
v -79.13514 -7.783784 0
v -79.13514 -7.351352 0
v -78.70271 -7.351352 0
v -79.13514 -7.783784 0
v -79.56757 -7.783784 0
v -79.56757 -7.351352 0
v -79.13514 -7.351352 0
v -79.56757 -7.783784 0
v -80 -7.783784 0
v -80 -7.351352 0
v -79.56757 -7.351352 0
v -80 -7.783784 0
v -80.43243 -7.783784 0
v -80.43243 -7.351352 0
v -80 -7.351352 0
v -80.43243 -7.783784 0
v -80.86487 -7.783784 0
v -80.86487 -7.351352 0
v -80.43243 -7.351352 0
v -80.86487 -7.783784 0
v -81.2973 -7.783784 0
v -81.2973 -7.351352 0
v -80.86487 -7.351352 0
v -81.2973 -7.783784 0
v -81.72973 -7.783784 0
v -81.72973 -7.351352 0
v -81.2973 -7.351352 0
v -81.72973 -7.783784 0
v -82.16216 -7.783784 0
v -82.16216 -7.351352 0
v -81.72973 -7.351352 0
v -82.16216 -7.783784 0
v -82.5946 -7.783784 0
v -82.5946 -7.351352 0
v -82.16216 -7.351352 0
v -82.5946 -7.783784 0
v -83.02703 -7.783784 0
v -83.02703 -7.351352 0
v -82.5946 -7.351352 0
v -83.02703 -7.783784 0
v -83.45947 -7.783784 0
v -83.45947 -7.351352 0
v -83.02703 -7.351352 0
v -83.45947 -7.783784 0
v -83.89189 -7.783784 0
v -83.89189 -7.351352 0
v -83.45947 -7.351352 0
v -26.81081 -8.216216 0
v -27.24324 -8.216216 0
v -27.24324 -7.783784 0
v -26.81081 -7.783784 0
v -27.24324 -8.216216 0
v -27.67568 -8.216216 0
v -27.67568 -7.783784 0
v -27.24324 -7.783784 0
v -27.67568 -8.216216 0
v -28.10811 -8.216216 0
v -28.10811 -7.783784 0
v -27.67568 -7.783784 0
v -28.10811 -8.216216 0
v -28.54054 -8.216216 0
v -28.54054 -7.783784 0
v -28.10811 -7.783784 0
v -28.54054 -8.216216 0
v -28.97297 -8.216216 0
v -28.97297 -7.783784 0
v -28.54054 -7.783784 0
v -28.97297 -8.216216 0
v -29.40541 -8.216216 0
v -29.40541 -7.783784 0
v -28.97297 -7.783784 0
v -29.40541 -8.216216 0
v -29.83784 -8.216216 0
v -29.83784 -7.783784 0
v -29.40541 -7.783784 0
v -29.83784 -8.216216 0
v -30.27027 -8.216216 0
v -30.27027 -7.783784 0
v -29.83784 -7.783784 0
v -30.27027 -8.216216 0
v -30.7027 -8.216216 0
v -30.7027 -7.783784 0
v -30.27027 -7.783784 0
v -30.7027 -8.216216 0
v -31.13514 -8.216216 0
v -31.13514 -7.783784 0
v -30.7027 -7.783784 0
v -31.13514 -8.216216 0
v -31.56757 -8.216216 0
v -31.56757 -7.783784 0
v -31.13514 -7.783784 0
v -31.56757 -8.216216 0
v -32 -8.216216 0
v -32 -7.783784 0
v -31.56757 -7.783784 0
v -32 -8.216216 0
v -32.43243 -8.216216 0
v -32.43243 -7.783784 0
v -32 -7.783784 0
v -32.43243 -8.216216 0
v -32.86486 -8.216216 0
v -32.86486 -7.783784 0
v -32.43243 -7.783784 0
v -32.86486 -8.216216 0
v -33.2973 -8.216216 0
v -33.2973 -7.783784 0
v -32.86486 -7.783784 0
v -33.2973 -8.216216 0
v -33.72973 -8.216216 0
v -33.72973 -7.783784 0
v -33.2973 -7.783784 0
v -33.72973 -8.216216 0
v -34.16216 -8.216216 0
v -34.16216 -7.783784 0
v -33.72973 -7.783784 0
v -34.16216 -8.216216 0
v -34.5946 -8.216216 0
v -34.5946 -7.783784 0
v -34.16216 -7.783784 0
v -26.81081 -8.648649 0
v -27.24324 -8.648649 0
v -27.24324 -8.216216 0
v -26.81081 -8.216216 0
v -27.24324 -8.648649 0
v -27.67568 -8.648649 0
v -27.67568 -8.216216 0
v -27.24324 -8.216216 0
v -27.67568 -8.648649 0
v -28.10811 -8.648649 0
v -28.10811 -8.216216 0
v -27.67568 -8.216216 0
v -28.10811 -8.648649 0
v -28.54054 -8.648649 0
v -28.54054 -8.216216 0
v -28.10811 -8.216216 0
v -28.54054 -8.648649 0
v -28.97297 -8.648649 0
v -28.97297 -8.216216 0
v -28.54054 -8.216216 0
v -28.97297 -8.648649 0
v -29.40541 -8.648649 0
v -29.40541 -8.216216 0
v -28.97297 -8.216216 0
v -29.40541 -8.648649 0
v -29.83784 -8.648649 0
v -29.83784 -8.216216 0
v -29.40541 -8.216216 0
v -29.83784 -8.648649 0
v -30.27027 -8.648649 0
v -30.27027 -8.216216 0
v -29.83784 -8.216216 0
v -30.27027 -8.648649 0
v -30.7027 -8.648649 0
v -30.7027 -8.216216 0
v -30.27027 -8.216216 0
v -30.7027 -8.648649 0
v -31.13514 -8.648649 0
v -31.13514 -8.216216 0
v -30.7027 -8.216216 0
v -31.13514 -8.648649 0
v -31.56757 -8.648649 0
v -31.56757 -8.216216 0
v -31.13514 -8.216216 0
v -31.56757 -8.648649 0
v -32 -8.648649 0
v -32 -8.216216 0
v -31.56757 -8.216216 0
v -32 -8.648649 0
v -32.43243 -8.648649 0
v -32.43243 -8.216216 0
v -32 -8.216216 0
v -32.43243 -8.648649 0
v -32.86486 -8.648649 0
v -32.86486 -8.216216 0
v -32.43243 -8.216216 0
v -32.86486 -8.648649 0
v -33.2973 -8.648649 0
v -33.2973 -8.216216 0
v -32.86486 -8.216216 0
v -33.2973 -8.648649 0
v -33.72973 -8.648649 0
v -33.72973 -8.216216 0
v -33.2973 -8.216216 0
v -33.72973 -8.648649 0
v -34.16216 -8.648649 0
v -34.16216 -8.216216 0
v -33.72973 -8.216216 0
v -34.16216 -8.648649 0
v -34.5946 -8.648649 0
v -34.5946 -8.216216 0
v -34.16216 -8.216216 0

# Texture cooridinates (Count = 72)
vt 0.4998779 0.8334554
vt 0.4167887 0.8334554
vt 0.4167887 0.9165446
vt 0.4998779 0.9165446
vt 0.4165446 0.8334554
vt 0.3334554 0.8334554
vt 0.3334554 0.9165446
vt 0.4165446 0.9165446
vt 0.1667887 0.8334554
vt 0.2498779 0.8334554
vt 0.2498779 0.9165446
vt 0.1667887 0.9165446
vt 0.2501221 0.8334554
vt 0.3332113 0.8334554
vt 0.3332113 0.9165446
vt 0.2501221 0.9165446
vt 0.4998779 0.7501221
vt 0.4167887 0.7501221
vt 0.4167887 0.8332112
vt 0.4998779 0.8332112
vt 0.4165446 0.7501221
vt 0.3334554 0.7501221
vt 0.3334554 0.8332112
vt 0.4165446 0.8332112
vt 0.1667887 0.7501221
vt 0.2498779 0.7501221
vt 0.2498779 0.8332112
vt 0.1667887 0.8332112
vt 0.2501221 0.7501221
vt 0.3332113 0.7501221
vt 0.3332113 0.8332112
vt 0.2501221 0.8332112
vt 0.0001220703 0.8334554
vt 0.08321127 0.8334554
vt 0.08321127 0.9165446
vt 0.0001220703 0.9165446
vt 0.08345541 0.8334554
vt 0.1665446 0.8334554
vt 0.1665446 0.9165446
vt 0.08345541 0.9165446
vt 0.4998779 0.6667887
vt 0.4167887 0.6667887
vt 0.4167887 0.7498779
vt 0.4998779 0.7498779
vt 0.4165446 0.6667887
vt 0.3334554 0.6667887
vt 0.3334554 0.7498779
vt 0.4165446 0.7498779
vt 0.1667887 0.6667887
vt 0.2498779 0.6667887
vt 0.2498779 0.7498779
vt 0.1667887 0.7498779
vt 0.2501221 0.6667887
vt 0.3332113 0.6667887
vt 0.3332113 0.7498779
vt 0.2501221 0.7498779
vt 0.0001220703 0.7501221
vt 0.08321127 0.7501221
vt 0.08321127 0.8332112
vt 0.0001220703 0.8332112
vt 0.08345541 0.7501221
vt 0.1665446 0.7501221
vt 0.1665446 0.8332112
vt 0.08345541 0.8332112
vt 0.0001220703 0.6667887
vt 0.08321127 0.6667887
vt 0.08321127 0.7498779
vt 0.0001220703 0.7498779
vt 0.08345541 0.6667887
vt 0.1665446 0.6667887
vt 0.1665446 0.7498779
vt 0.08345541 0.7498779

# Normal
vn 0 0 -1

# Mesh description
g struggle_mesh_0011

# Faces
f 1/1/1 2/2/1 3/3/1 4/4/1
f 5/5/1 6/6/1 7/7/1 8/8/1
f 9/9/1 10/10/1 11/11/1 12/12/1
f 13/13/1 14/14/1 15/15/1 16/16/1
f 17/13/1 18/14/1 19/15/1 20/16/1
f 21/2/1 22/1/1 23/4/1 24/3/1
f 25/17/1 26/18/1 27/19/1 28/20/1
f 29/21/1 30/22/1 31/23/1 32/24/1
f 33/25/1 34/26/1 35/27/1 36/28/1
f 37/29/1 38/30/1 39/31/1 40/32/1
f 41/29/1 42/30/1 43/31/1 44/32/1
f 45/18/1 46/17/1 47/20/1 48/19/1
f 49/33/1 50/34/1 51/35/1 52/36/1
f 53/37/1 54/38/1 55/39/1 56/40/1
f 57/9/1 58/10/1 59/11/1 60/12/1
f 61/13/1 62/14/1 63/15/1 64/16/1
f 65/9/1 66/10/1 67/11/1 68/12/1
f 69/9/1 70/10/1 71/11/1 72/12/1
f 73/13/1 74/14/1 75/15/1 76/16/1
f 77/13/1 78/14/1 79/15/1 80/16/1
f 81/13/1 82/14/1 83/15/1 84/16/1
f 85/13/1 86/14/1 87/15/1 88/16/1
f 89/13/1 90/14/1 91/15/1 92/16/1
f 93/13/1 94/14/1 95/15/1 96/16/1
f 97/13/1 98/14/1 99/15/1 100/16/1
f 101/13/1 102/14/1 103/15/1 104/16/1
f 105/13/1 106/14/1 107/15/1 108/16/1
f 109/13/1 110/14/1 111/15/1 112/16/1
f 113/13/1 114/14/1 115/15/1 116/16/1
f 117/13/1 118/14/1 119/15/1 120/16/1
f 121/13/1 122/14/1 123/15/1 124/16/1
f 125/14/1 126/13/1 127/16/1 128/15/1
f 129/10/1 130/9/1 131/12/1 132/11/1
f 133/14/1 134/13/1 135/16/1 136/15/1
f 137/14/1 138/13/1 139/16/1 140/15/1
f 141/13/1 142/14/1 143/15/1 144/16/1
f 145/13/1 146/14/1 147/15/1 148/16/1
f 149/9/1 150/10/1 151/11/1 152/12/1
f 153/13/1 154/14/1 155/15/1 156/16/1
f 157/13/1 158/14/1 159/15/1 160/16/1
f 161/13/1 162/14/1 163/15/1 164/16/1
f 165/9/1 166/10/1 167/11/1 168/12/1
f 169/6/1 170/5/1 171/8/1 172/7/1
f 173/2/1 174/1/1 175/4/1 176/3/1
f 177/41/1 178/42/1 179/43/1 180/44/1
f 181/45/1 182/46/1 183/47/1 184/48/1
f 185/49/1 186/50/1 187/51/1 188/52/1
f 189/53/1 190/54/1 191/55/1 192/56/1
f 193/46/1 194/45/1 195/48/1 196/47/1
f 197/42/1 198/41/1 199/44/1 200/43/1
f 201/57/1 202/58/1 203/59/1 204/60/1
f 205/61/1 206/62/1 207/63/1 208/64/1
f 209/25/1 210/26/1 211/27/1 212/28/1
f 213/29/1 214/30/1 215/31/1 216/32/1
f 217/25/1 218/26/1 219/27/1 220/28/1
f 221/25/1 222/26/1 223/27/1 224/28/1
f 225/29/1 226/30/1 227/31/1 228/32/1
f 229/29/1 230/30/1 231/31/1 232/32/1
f 233/29/1 234/30/1 235/31/1 236/32/1
f 237/29/1 238/30/1 239/31/1 240/32/1
f 241/29/1 242/30/1 243/31/1 244/32/1
f 245/29/1 246/30/1 247/31/1 248/32/1
f 249/29/1 250/30/1 251/31/1 252/32/1
f 253/29/1 254/30/1 255/31/1 256/32/1
f 257/29/1 258/30/1 259/31/1 260/32/1
f 261/29/1 262/30/1 263/31/1 264/32/1
f 265/29/1 266/30/1 267/31/1 268/32/1
f 269/29/1 270/30/1 271/31/1 272/32/1
f 273/29/1 274/30/1 275/31/1 276/32/1
f 277/30/1 278/29/1 279/32/1 280/31/1
f 281/26/1 282/25/1 283/28/1 284/27/1
f 285/30/1 286/29/1 287/32/1 288/31/1
f 289/30/1 290/29/1 291/32/1 292/31/1
f 293/29/1 294/30/1 295/31/1 296/32/1
f 297/29/1 298/30/1 299/31/1 300/32/1
f 301/25/1 302/26/1 303/27/1 304/28/1
f 305/29/1 306/30/1 307/31/1 308/32/1
f 309/29/1 310/30/1 311/31/1 312/32/1
f 313/29/1 314/30/1 315/31/1 316/32/1
f 317/25/1 318/26/1 319/27/1 320/28/1
f 321/22/1 322/21/1 323/24/1 324/23/1
f 325/18/1 326/17/1 327/20/1 328/19/1
f 329/65/1 330/66/1 331/67/1 332/68/1
f 333/69/1 334/70/1 335/71/1 336/72/1
f 337/49/1 338/50/1 339/51/1 340/52/1
f 341/53/1 342/54/1 343/55/1 344/56/1
f 345/49/1 346/50/1 347/51/1 348/52/1
f 349/49/1 350/50/1 351/51/1 352/52/1
f 353/53/1 354/54/1 355/55/1 356/56/1
f 357/53/1 358/54/1 359/55/1 360/56/1
f 361/53/1 362/54/1 363/55/1 364/56/1
f 365/53/1 366/54/1 367/55/1 368/56/1
f 369/53/1 370/54/1 371/55/1 372/56/1
f 373/53/1 374/54/1 375/55/1 376/56/1
f 377/53/1 378/54/1 379/55/1 380/56/1
f 381/53/1 382/54/1 383/55/1 384/56/1
f 385/53/1 386/54/1 387/55/1 388/56/1
f 389/53/1 390/54/1 391/55/1 392/56/1
f 393/53/1 394/54/1 395/55/1 396/56/1
f 397/53/1 398/54/1 399/55/1 400/56/1
f 401/53/1 402/54/1 403/55/1 404/56/1
f 405/54/1 406/53/1 407/56/1 408/55/1
f 409/50/1 410/49/1 411/52/1 412/51/1
f 413/54/1 414/53/1 415/56/1 416/55/1
f 417/54/1 418/53/1 419/56/1 420/55/1
f 421/53/1 422/54/1 423/55/1 424/56/1
f 425/53/1 426/54/1 427/55/1 428/56/1
f 429/49/1 430/50/1 431/51/1 432/52/1
f 433/53/1 434/54/1 435/55/1 436/56/1
f 437/53/1 438/54/1 439/55/1 440/56/1
f 441/53/1 442/54/1 443/55/1 444/56/1
f 445/49/1 446/50/1 447/51/1 448/52/1
f 449/46/1 450/45/1 451/48/1 452/47/1
f 453/42/1 454/41/1 455/44/1 456/43/1
f 457/33/1 458/34/1 459/35/1 460/36/1
f 461/37/1 462/38/1 463/39/1 464/40/1
f 465/9/1 466/10/1 467/11/1 468/12/1
f 469/9/1 470/10/1 471/11/1 472/12/1
f 473/13/1 474/14/1 475/15/1 476/16/1
f 477/9/1 478/10/1 479/11/1 480/12/1
f 481/9/1 482/10/1 483/11/1 484/12/1
f 485/9/1 486/10/1 487/11/1 488/12/1
f 489/9/1 490/10/1 491/11/1 492/12/1
f 493/13/1 494/14/1 495/15/1 496/16/1
f 497/9/1 498/10/1 499/11/1 500/12/1
f 501/9/1 502/10/1 503/11/1 504/12/1
f 505/9/1 506/10/1 507/11/1 508/12/1
f 509/9/1 510/10/1 511/11/1 512/12/1
f 513/9/1 514/10/1 515/11/1 516/12/1
f 517/13/1 518/14/1 519/15/1 520/16/1
f 521/38/1 522/37/1 523/40/1 524/39/1
f 525/34/1 526/33/1 527/36/1 528/35/1
f 529/57/1 530/58/1 531/59/1 532/60/1
f 533/61/1 534/62/1 535/63/1 536/64/1
f 537/25/1 538/26/1 539/27/1 540/28/1
f 541/25/1 542/26/1 543/27/1 544/28/1
f 545/29/1 546/30/1 547/31/1 548/32/1
f 549/25/1 550/26/1 551/27/1 552/28/1
f 553/25/1 554/26/1 555/27/1 556/28/1
f 557/25/1 558/26/1 559/27/1 560/28/1
f 561/25/1 562/26/1 563/27/1 564/28/1
f 565/29/1 566/30/1 567/31/1 568/32/1
f 569/25/1 570/26/1 571/27/1 572/28/1
f 573/25/1 574/26/1 575/27/1 576/28/1
f 577/25/1 578/26/1 579/27/1 580/28/1
f 581/25/1 582/26/1 583/27/1 584/28/1
f 585/25/1 586/26/1 587/27/1 588/28/1
f 589/29/1 590/30/1 591/31/1 592/32/1
f 593/62/1 594/61/1 595/64/1 596/63/1
f 597/58/1 598/57/1 599/60/1 600/59/1

