# Tiled2Unity generated file. Do not modify by hand.
# Wavefront file for 'destroyer_mesh_0004.obj'

# Vertices (Count = 36)
v 0 -0.4324324 0
v -0.4324324 -0.4324324 0
v -0.4324324 0 0
v 0 0 0
v -1.72973 -0.8648649 0
v -2.162162 -0.8648649 0
v -2.162162 -0.4324324 0
v -1.72973 -0.4324324 0
v -0.4324324 -1.297297 0
v -0.8648649 -1.297297 0
v -0.8648649 -0.8648649 0
v -0.4324324 -0.8648649 0
v -1.297297 -1.297297 0
v -1.72973 -1.297297 0
v -1.72973 -0.8648649 0
v -1.297297 -0.8648649 0
v -1.72973 -1.297297 0
v -2.162162 -1.297297 0
v -2.162162 -0.8648649 0
v -1.72973 -0.8648649 0
v -1.297297 -2.162162 0
v -1.72973 -2.162162 0
v -1.72973 -1.72973 0
v -1.297297 -1.72973 0
v -1.72973 -2.162162 0
v -2.162162 -2.162162 0
v -2.162162 -1.72973 0
v -1.72973 -1.72973 0
v -1.297297 -2.594595 0
v -1.72973 -2.594595 0
v -1.72973 -2.162162 0
v -1.297297 -2.162162 0
v -1.72973 -3.027027 0
v -2.162162 -3.027027 0
v -2.162162 -2.594595 0
v -1.72973 -2.594595 0

# Texture cooridinates (Count = 36)
vt 0.7693529 0.5001221
vt 0.8075702 0.5001221
vt 0.8075702 0.5292897
vt 0.7693529 0.5292897
vt 0.923199 0.4707103
vt 0.9614164 0.4707103
vt 0.9614164 0.4998779
vt 0.923199 0.4998779
vt 0.8078144 0.4412985
vt 0.8460318 0.4412985
vt 0.8460318 0.4704661
vt 0.8078144 0.4704661
vt 0.8847374 0.4412985
vt 0.9229549 0.4412985
vt 0.9229549 0.4704661
vt 0.8847374 0.4704661
vt 0.923199 0.4412985
vt 0.9614164 0.4412985
vt 0.9614164 0.4704661
vt 0.923199 0.4704661
vt 0.8847374 0.382475
vt 0.9229549 0.382475
vt 0.9229549 0.4116426
vt 0.8847374 0.4116426
vt 0.923199 0.382475
vt 0.9614164 0.382475
vt 0.9614164 0.4116426
vt 0.923199 0.4116426
vt 0.8847374 0.3530632
vt 0.9229549 0.3530632
vt 0.9229549 0.3822309
vt 0.8847374 0.3822309
vt 0.923199 0.3236515
vt 0.9614164 0.3236515
vt 0.9614164 0.3528191
vt 0.923199 0.3528191

# Normal
vn 0 0 -1

# Mesh description
g destroyer_mesh_0004

# Faces
f 1/1/1 2/2/1 3/3/1 4/4/1
f 5/5/1 6/6/1 7/7/1 8/8/1
f 9/9/1 10/10/1 11/11/1 12/12/1
f 13/13/1 14/14/1 15/15/1 16/16/1
f 17/17/1 18/18/1 19/19/1 20/20/1
f 21/21/1 22/22/1 23/23/1 24/24/1
f 25/25/1 26/26/1 27/27/1 28/28/1
f 29/29/1 30/30/1 31/31/1 32/32/1
f 33/33/1 34/34/1 35/35/1 36/36/1

