# Tiled2Unity generated file. Do not modify by hand.
# Wavefront file for 'destroyer_mesh_0018.obj'

# Vertices (Count = 288)
v -23.78378 -7.351352 0
v -24.21622 -7.351352 0
v -24.21622 -6.918919 0
v -23.78378 -6.918919 0
v -24.21622 -7.351352 0
v -24.64865 -7.351352 0
v -24.64865 -6.918919 0
v -24.21622 -6.918919 0
v -24.64865 -7.351352 0
v -25.08108 -7.351352 0
v -25.08108 -6.918919 0
v -24.64865 -6.918919 0
v -25.08108 -7.351352 0
v -25.51351 -7.351352 0
v -25.51351 -6.918919 0
v -25.08108 -6.918919 0
v -25.51351 -7.351352 0
v -25.94595 -7.351352 0
v -25.94595 -6.918919 0
v -25.51351 -6.918919 0
v -25.94595 -7.351352 0
v -26.37838 -7.351352 0
v -26.37838 -6.918919 0
v -25.94595 -6.918919 0
v -26.37838 -7.351352 0
v -26.81081 -7.351352 0
v -26.81081 -6.918919 0
v -26.37838 -6.918919 0
v -26.81081 -7.351352 0
v -27.24324 -7.351352 0
v -27.24324 -6.918919 0
v -26.81081 -6.918919 0
v -27.24324 -7.351352 0
v -27.67568 -7.351352 0
v -27.67568 -6.918919 0
v -27.24324 -6.918919 0
v -27.67568 -7.351352 0
v -28.10811 -7.351352 0
v -28.10811 -6.918919 0
v -27.67568 -6.918919 0
v -28.10811 -7.351352 0
v -28.54054 -7.351352 0
v -28.54054 -6.918919 0
v -28.10811 -6.918919 0
v -28.54054 -7.351352 0
v -28.97297 -7.351352 0
v -28.97297 -6.918919 0
v -28.54054 -6.918919 0
v -28.97297 -7.351352 0
v -29.40541 -7.351352 0
v -29.40541 -6.918919 0
v -28.97297 -6.918919 0
v -29.40541 -7.351352 0
v -29.83784 -7.351352 0
v -29.83784 -6.918919 0
v -29.40541 -6.918919 0
v -29.83784 -7.351352 0
v -30.27027 -7.351352 0
v -30.27027 -6.918919 0
v -29.83784 -6.918919 0
v -30.27027 -7.351352 0
v -30.7027 -7.351352 0
v -30.7027 -6.918919 0
v -30.27027 -6.918919 0
v -30.7027 -7.351352 0
v -31.13514 -7.351352 0
v -31.13514 -6.918919 0
v -30.7027 -6.918919 0
v -31.13514 -7.351352 0
v -31.56757 -7.351352 0
v -31.56757 -6.918919 0
v -31.13514 -6.918919 0
v -31.56757 -7.351352 0
v -32 -7.351352 0
v -32 -6.918919 0
v -31.56757 -6.918919 0
v -32 -7.351352 0
v -32.43243 -7.351352 0
v -32.43243 -6.918919 0
v -32 -6.918919 0
v -32.43243 -7.351352 0
v -32.86486 -7.351352 0
v -32.86486 -6.918919 0
v -32.43243 -6.918919 0
v -32.86486 -7.351352 0
v -33.2973 -7.351352 0
v -33.2973 -6.918919 0
v -32.86486 -6.918919 0
v -33.2973 -7.351352 0
v -33.72973 -7.351352 0
v -33.72973 -6.918919 0
v -33.2973 -6.918919 0
v -33.72973 -7.351352 0
v -34.16216 -7.351352 0
v -34.16216 -6.918919 0
v -33.72973 -6.918919 0
v -23.78378 -7.783784 0
v -24.21622 -7.783784 0
v -24.21622 -7.351352 0
v -23.78378 -7.351352 0
v -24.21622 -7.783784 0
v -24.64865 -7.783784 0
v -24.64865 -7.351352 0
v -24.21622 -7.351352 0
v -24.64865 -7.783784 0
v -25.08108 -7.783784 0
v -25.08108 -7.351352 0
v -24.64865 -7.351352 0
v -25.08108 -7.783784 0
v -25.51351 -7.783784 0
v -25.51351 -7.351352 0
v -25.08108 -7.351352 0
v -25.51351 -7.783784 0
v -25.94595 -7.783784 0
v -25.94595 -7.351352 0
v -25.51351 -7.351352 0
v -25.94595 -7.783784 0
v -26.37838 -7.783784 0
v -26.37838 -7.351352 0
v -25.94595 -7.351352 0
v -26.37838 -7.783784 0
v -26.81081 -7.783784 0
v -26.81081 -7.351352 0
v -26.37838 -7.351352 0
v -26.81081 -7.783784 0
v -27.24324 -7.783784 0
v -27.24324 -7.351352 0
v -26.81081 -7.351352 0
v -27.24324 -7.783784 0
v -27.67568 -7.783784 0
v -27.67568 -7.351352 0
v -27.24324 -7.351352 0
v -27.67568 -7.783784 0
v -28.10811 -7.783784 0
v -28.10811 -7.351352 0
v -27.67568 -7.351352 0
v -28.10811 -7.783784 0
v -28.54054 -7.783784 0
v -28.54054 -7.351352 0
v -28.10811 -7.351352 0
v -28.54054 -7.783784 0
v -28.97297 -7.783784 0
v -28.97297 -7.351352 0
v -28.54054 -7.351352 0
v -28.97297 -7.783784 0
v -29.40541 -7.783784 0
v -29.40541 -7.351352 0
v -28.97297 -7.351352 0
v -29.40541 -7.783784 0
v -29.83784 -7.783784 0
v -29.83784 -7.351352 0
v -29.40541 -7.351352 0
v -29.83784 -7.783784 0
v -30.27027 -7.783784 0
v -30.27027 -7.351352 0
v -29.83784 -7.351352 0
v -30.27027 -7.783784 0
v -30.7027 -7.783784 0
v -30.7027 -7.351352 0
v -30.27027 -7.351352 0
v -30.7027 -7.783784 0
v -31.13514 -7.783784 0
v -31.13514 -7.351352 0
v -30.7027 -7.351352 0
v -31.13514 -7.783784 0
v -31.56757 -7.783784 0
v -31.56757 -7.351352 0
v -31.13514 -7.351352 0
v -31.56757 -7.783784 0
v -32 -7.783784 0
v -32 -7.351352 0
v -31.56757 -7.351352 0
v -32 -7.783784 0
v -32.43243 -7.783784 0
v -32.43243 -7.351352 0
v -32 -7.351352 0
v -32.43243 -7.783784 0
v -32.86486 -7.783784 0
v -32.86486 -7.351352 0
v -32.43243 -7.351352 0
v -32.86486 -7.783784 0
v -33.2973 -7.783784 0
v -33.2973 -7.351352 0
v -32.86486 -7.351352 0
v -33.2973 -7.783784 0
v -33.72973 -7.783784 0
v -33.72973 -7.351352 0
v -33.2973 -7.351352 0
v -33.72973 -7.783784 0
v -34.16216 -7.783784 0
v -34.16216 -7.351352 0
v -33.72973 -7.351352 0
v -23.78378 -8.216216 0
v -24.21622 -8.216216 0
v -24.21622 -7.783784 0
v -23.78378 -7.783784 0
v -24.21622 -8.216216 0
v -24.64865 -8.216216 0
v -24.64865 -7.783784 0
v -24.21622 -7.783784 0
v -24.64865 -8.216216 0
v -25.08108 -8.216216 0
v -25.08108 -7.783784 0
v -24.64865 -7.783784 0
v -25.08108 -8.216216 0
v -25.51351 -8.216216 0
v -25.51351 -7.783784 0
v -25.08108 -7.783784 0
v -25.51351 -8.216216 0
v -25.94595 -8.216216 0
v -25.94595 -7.783784 0
v -25.51351 -7.783784 0
v -25.94595 -8.216216 0
v -26.37838 -8.216216 0
v -26.37838 -7.783784 0
v -25.94595 -7.783784 0
v -26.37838 -8.216216 0
v -26.81081 -8.216216 0
v -26.81081 -7.783784 0
v -26.37838 -7.783784 0
v -26.81081 -8.216216 0
v -27.24324 -8.216216 0
v -27.24324 -7.783784 0
v -26.81081 -7.783784 0
v -27.24324 -8.216216 0
v -27.67568 -8.216216 0
v -27.67568 -7.783784 0
v -27.24324 -7.783784 0
v -27.67568 -8.216216 0
v -28.10811 -8.216216 0
v -28.10811 -7.783784 0
v -27.67568 -7.783784 0
v -28.10811 -8.216216 0
v -28.54054 -8.216216 0
v -28.54054 -7.783784 0
v -28.10811 -7.783784 0
v -28.54054 -8.216216 0
v -28.97297 -8.216216 0
v -28.97297 -7.783784 0
v -28.54054 -7.783784 0
v -28.97297 -8.216216 0
v -29.40541 -8.216216 0
v -29.40541 -7.783784 0
v -28.97297 -7.783784 0
v -29.40541 -8.216216 0
v -29.83784 -8.216216 0
v -29.83784 -7.783784 0
v -29.40541 -7.783784 0
v -29.83784 -8.216216 0
v -30.27027 -8.216216 0
v -30.27027 -7.783784 0
v -29.83784 -7.783784 0
v -30.27027 -8.216216 0
v -30.7027 -8.216216 0
v -30.7027 -7.783784 0
v -30.27027 -7.783784 0
v -30.7027 -8.216216 0
v -31.13514 -8.216216 0
v -31.13514 -7.783784 0
v -30.7027 -7.783784 0
v -31.13514 -8.216216 0
v -31.56757 -8.216216 0
v -31.56757 -7.783784 0
v -31.13514 -7.783784 0
v -31.56757 -8.216216 0
v -32 -8.216216 0
v -32 -7.783784 0
v -31.56757 -7.783784 0
v -32 -8.216216 0
v -32.43243 -8.216216 0
v -32.43243 -7.783784 0
v -32 -7.783784 0
v -32.43243 -8.216216 0
v -32.86486 -8.216216 0
v -32.86486 -7.783784 0
v -32.43243 -7.783784 0
v -32.86486 -8.216216 0
v -33.2973 -8.216216 0
v -33.2973 -7.783784 0
v -32.86486 -7.783784 0
v -33.2973 -8.216216 0
v -33.72973 -8.216216 0
v -33.72973 -7.783784 0
v -33.2973 -7.783784 0
v -33.72973 -8.216216 0
v -34.16216 -8.216216 0
v -34.16216 -7.783784 0
v -33.72973 -7.783784 0

# Texture cooridinates (Count = 120)
vt 0.0001220703 0.1667888
vt 0.08321127 0.1667888
vt 0.08321127 0.2498779
vt 0.0001220703 0.2498779
vt 0.08345541 0.1667888
vt 0.1665446 0.1667888
vt 0.1665446 0.2498779
vt 0.08345541 0.2498779
vt 0.1667887 0.1667888
vt 0.2498779 0.1667888
vt 0.2498779 0.2498779
vt 0.1667887 0.2498779
vt 0.2501221 0.1667888
vt 0.3332113 0.1667888
vt 0.3332113 0.2498779
vt 0.2501221 0.2498779
vt 0.7501221 0.8334554
vt 0.8332112 0.8334554
vt 0.8332112 0.9165446
vt 0.7501221 0.9165446
vt 0.1667887 0.8334554
vt 0.2498779 0.8334554
vt 0.2498779 0.9165446
vt 0.1667887 0.9165446
vt 0.2501221 0.8334554
vt 0.3332113 0.8334554
vt 0.3332113 0.9165446
vt 0.2501221 0.9165446
vt 0.5001221 0.8334554
vt 0.5832112 0.8334554
vt 0.5832112 0.9165446
vt 0.5001221 0.9165446
vt 0.3334554 0.1667888
vt 0.4165446 0.1667888
vt 0.4165446 0.2498779
vt 0.3334554 0.2498779
vt 0.4167887 0.1667888
vt 0.4998779 0.1667888
vt 0.4998779 0.2498779
vt 0.4167887 0.2498779
vt 0.0001220703 0.08345538
vt 0.08321127 0.08345538
vt 0.08321127 0.1665446
vt 0.0001220703 0.1665446
vt 0.08345541 0.08345538
vt 0.1665446 0.08345538
vt 0.1665446 0.1665446
vt 0.08345541 0.1665446
vt 0.1667887 0.08345538
vt 0.2498779 0.08345538
vt 0.2498779 0.1665446
vt 0.1667887 0.1665446
vt 0.2501221 0.08345538
vt 0.3332113 0.08345538
vt 0.3332113 0.1665446
vt 0.2501221 0.1665446
vt 0.7501221 0.7501221
vt 0.8332112 0.7501221
vt 0.8332112 0.8332112
vt 0.7501221 0.8332112
vt 0.1667887 0.7501221
vt 0.2498779 0.7501221
vt 0.2498779 0.8332112
vt 0.1667887 0.8332112
vt 0.2501221 0.7501221
vt 0.3332113 0.7501221
vt 0.3332113 0.8332112
vt 0.2501221 0.8332112
vt 0.5001221 0.7501221
vt 0.5832112 0.7501221
vt 0.5832112 0.8332112
vt 0.5001221 0.8332112
vt 0.3334554 0.08345538
vt 0.4165446 0.08345538
vt 0.4165446 0.1665446
vt 0.3334554 0.1665446
vt 0.4167887 0.08345538
vt 0.4998779 0.08345538
vt 0.4998779 0.1665446
vt 0.4167887 0.1665446
vt 0.0001220703 0.0001220703
vt 0.08321127 0.0001220703
vt 0.08321127 0.08321124
vt 0.0001220703 0.08321124
vt 0.08345541 0.0001220703
vt 0.1665446 0.0001220703
vt 0.1665446 0.08321124
vt 0.08345541 0.08321124
vt 0.1667887 0.0001220703
vt 0.2498779 0.0001220703
vt 0.2498779 0.08321124
vt 0.1667887 0.08321124
vt 0.2501221 0.0001220703
vt 0.3332113 0.0001220703
vt 0.3332113 0.08321124
vt 0.2501221 0.08321124
vt 0.7501221 0.6667887
vt 0.8332112 0.6667887
vt 0.8332112 0.7498779
vt 0.7501221 0.7498779
vt 0.1667887 0.6667887
vt 0.2498779 0.6667887
vt 0.2498779 0.7498779
vt 0.1667887 0.7498779
vt 0.2501221 0.6667887
vt 0.3332113 0.6667887
vt 0.3332113 0.7498779
vt 0.2501221 0.7498779
vt 0.5001221 0.6667887
vt 0.5832112 0.6667887
vt 0.5832112 0.7498779
vt 0.5001221 0.7498779
vt 0.3334554 0.0001220703
vt 0.4165446 0.0001220703
vt 0.4165446 0.08321124
vt 0.3334554 0.08321124
vt 0.4167887 0.0001220703
vt 0.4998779 0.0001220703
vt 0.4998779 0.08321124
vt 0.4167887 0.08321124

# Normal
vn 0 0 -1

# Mesh description
g destroyer_mesh_0018

# Faces
f 1/1/1 2/2/1 3/3/1 4/4/1
f 5/5/1 6/6/1 7/7/1 8/8/1
f 9/9/1 10/10/1 11/11/1 12/12/1
f 13/9/1 14/10/1 15/11/1 16/12/1
f 17/13/1 18/14/1 19/15/1 20/16/1
f 21/9/1 22/10/1 23/11/1 24/12/1
f 25/17/1 26/18/1 27/19/1 28/20/1
f 29/21/1 30/22/1 31/23/1 32/24/1
f 33/25/1 34/26/1 35/27/1 36/28/1
f 37/25/1 38/26/1 39/27/1 40/28/1
f 41/29/1 42/30/1 43/31/1 44/32/1
f 45/9/1 46/10/1 47/11/1 48/12/1
f 49/9/1 50/10/1 51/11/1 52/12/1
f 53/9/1 54/10/1 55/11/1 56/12/1
f 57/9/1 58/10/1 59/11/1 60/12/1
f 61/9/1 62/10/1 63/11/1 64/12/1
f 65/9/1 66/10/1 67/11/1 68/12/1
f 69/13/1 70/14/1 71/15/1 72/16/1
f 73/9/1 74/10/1 75/11/1 76/12/1
f 77/13/1 78/14/1 79/15/1 80/16/1
f 81/9/1 82/10/1 83/11/1 84/12/1
f 85/13/1 86/14/1 87/15/1 88/16/1
f 89/33/1 90/34/1 91/35/1 92/36/1
f 93/37/1 94/38/1 95/39/1 96/40/1
f 97/41/1 98/42/1 99/43/1 100/44/1
f 101/45/1 102/46/1 103/47/1 104/48/1
f 105/49/1 106/50/1 107/51/1 108/52/1
f 109/49/1 110/50/1 111/51/1 112/52/1
f 113/53/1 114/54/1 115/55/1 116/56/1
f 117/49/1 118/50/1 119/51/1 120/52/1
f 121/57/1 122/58/1 123/59/1 124/60/1
f 125/61/1 126/62/1 127/63/1 128/64/1
f 129/65/1 130/66/1 131/67/1 132/68/1
f 133/65/1 134/66/1 135/67/1 136/68/1
f 137/69/1 138/70/1 139/71/1 140/72/1
f 141/49/1 142/50/1 143/51/1 144/52/1
f 145/49/1 146/50/1 147/51/1 148/52/1
f 149/49/1 150/50/1 151/51/1 152/52/1
f 153/49/1 154/50/1 155/51/1 156/52/1
f 157/49/1 158/50/1 159/51/1 160/52/1
f 161/49/1 162/50/1 163/51/1 164/52/1
f 165/53/1 166/54/1 167/55/1 168/56/1
f 169/49/1 170/50/1 171/51/1 172/52/1
f 173/53/1 174/54/1 175/55/1 176/56/1
f 177/49/1 178/50/1 179/51/1 180/52/1
f 181/53/1 182/54/1 183/55/1 184/56/1
f 185/73/1 186/74/1 187/75/1 188/76/1
f 189/77/1 190/78/1 191/79/1 192/80/1
f 193/81/1 194/82/1 195/83/1 196/84/1
f 197/85/1 198/86/1 199/87/1 200/88/1
f 201/89/1 202/90/1 203/91/1 204/92/1
f 205/89/1 206/90/1 207/91/1 208/92/1
f 209/93/1 210/94/1 211/95/1 212/96/1
f 213/89/1 214/90/1 215/91/1 216/92/1
f 217/97/1 218/98/1 219/99/1 220/100/1
f 221/101/1 222/102/1 223/103/1 224/104/1
f 225/105/1 226/106/1 227/107/1 228/108/1
f 229/105/1 230/106/1 231/107/1 232/108/1
f 233/109/1 234/110/1 235/111/1 236/112/1
f 237/89/1 238/90/1 239/91/1 240/92/1
f 241/89/1 242/90/1 243/91/1 244/92/1
f 245/89/1 246/90/1 247/91/1 248/92/1
f 249/89/1 250/90/1 251/91/1 252/92/1
f 253/89/1 254/90/1 255/91/1 256/92/1
f 257/89/1 258/90/1 259/91/1 260/92/1
f 261/93/1 262/94/1 263/95/1 264/96/1
f 265/89/1 266/90/1 267/91/1 268/92/1
f 269/93/1 270/94/1 271/95/1 272/96/1
f 273/89/1 274/90/1 275/91/1 276/92/1
f 277/93/1 278/94/1 279/95/1 280/96/1
f 281/113/1 282/114/1 283/115/1 284/116/1
f 285/117/1 286/118/1 287/119/1 288/120/1

