# Tiled2Unity generated file. Do not modify by hand.
# Wavefront file for 'destroyer_mesh_0008.obj'

# Vertices (Count = 336)
v -2.594595 -3.45946 0
v -3.027027 -3.45946 0
v -3.027027 -3.027027 0
v -2.594595 -3.027027 0
v -3.027027 -3.45946 0
v -3.45946 -3.45946 0
v -3.45946 -3.027027 0
v -3.027027 -3.027027 0
v -3.45946 -3.45946 0
v -3.891892 -3.45946 0
v -3.891892 -3.027027 0
v -3.45946 -3.027027 0
v -3.45946 -3.891892 0
v -3.891892 -3.891892 0
v -3.891892 -3.45946 0
v -3.45946 -3.45946 0
v -50.5946 -6.054054 0
v -51.02703 -6.054054 0
v -51.02703 -5.621622 0
v -50.5946 -5.621622 0
v -51.02703 -6.054054 0
v -51.45946 -6.054054 0
v -51.45946 -5.621622 0
v -51.02703 -5.621622 0
v -51.45946 -6.054054 0
v -51.89189 -6.054054 0
v -51.89189 -5.621622 0
v -51.45946 -5.621622 0
v -51.89189 -6.054054 0
v -52.32433 -6.054054 0
v -52.32433 -5.621622 0
v -51.89189 -5.621622 0
v -54.91892 -6.054054 0
v -55.35135 -6.054054 0
v -55.35135 -5.621622 0
v -54.91892 -5.621622 0
v -55.35135 -6.054054 0
v -55.78379 -6.054054 0
v -55.78379 -5.621622 0
v -55.35135 -5.621622 0
v -55.78379 -6.054054 0
v -56.21622 -6.054054 0
v -56.21622 -5.621622 0
v -55.78379 -5.621622 0
v -56.21622 -6.054054 0
v -56.64865 -6.054054 0
v -56.64865 -5.621622 0
v -56.21622 -5.621622 0
v -50.5946 -6.486486 0
v -51.02703 -6.486486 0
v -51.02703 -6.054054 0
v -50.5946 -6.054054 0
v -51.02703 -6.486486 0
v -51.45946 -6.486486 0
v -51.45946 -6.054054 0
v -51.02703 -6.054054 0
v -51.45946 -6.486486 0
v -51.89189 -6.486486 0
v -51.89189 -6.054054 0
v -51.45946 -6.054054 0
v -51.89189 -6.486486 0
v -52.32433 -6.486486 0
v -52.32433 -6.054054 0
v -51.89189 -6.054054 0
v -54.91892 -6.486486 0
v -55.35135 -6.486486 0
v -55.35135 -6.054054 0
v -54.91892 -6.054054 0
v -55.35135 -6.486486 0
v -55.78379 -6.486486 0
v -55.78379 -6.054054 0
v -55.35135 -6.054054 0
v -55.78379 -6.486486 0
v -56.21622 -6.486486 0
v -56.21622 -6.054054 0
v -55.78379 -6.054054 0
v -56.21622 -6.486486 0
v -56.64865 -6.486486 0
v -56.64865 -6.054054 0
v -56.21622 -6.054054 0
v -48.86486 -6.918919 0
v -49.2973 -6.918919 0
v -49.2973 -6.486486 0
v -48.86486 -6.486486 0
v -49.2973 -6.918919 0
v -49.72973 -6.918919 0
v -49.72973 -6.486486 0
v -49.2973 -6.486486 0
v -49.72973 -6.918919 0
v -50.16216 -6.918919 0
v -50.16216 -6.486486 0
v -49.72973 -6.486486 0
v -50.16216 -6.918919 0
v -50.5946 -6.918919 0
v -50.5946 -6.486486 0
v -50.16216 -6.486486 0
v -50.5946 -6.918919 0
v -51.02703 -6.918919 0
v -51.02703 -6.486486 0
v -50.5946 -6.486486 0
v -51.02703 -6.918919 0
v -51.45946 -6.918919 0
v -51.45946 -6.486486 0
v -51.02703 -6.486486 0
v -51.45946 -6.918919 0
v -51.89189 -6.918919 0
v -51.89189 -6.486486 0
v -51.45946 -6.486486 0
v -51.89189 -6.918919 0
v -52.32433 -6.918919 0
v -52.32433 -6.486486 0
v -51.89189 -6.486486 0
v -54.91892 -6.918919 0
v -55.35135 -6.918919 0
v -55.35135 -6.486486 0
v -54.91892 -6.486486 0
v -55.35135 -6.918919 0
v -55.78379 -6.918919 0
v -55.78379 -6.486486 0
v -55.35135 -6.486486 0
v -55.78379 -6.918919 0
v -56.21622 -6.918919 0
v -56.21622 -6.486486 0
v -55.78379 -6.486486 0
v -56.21622 -6.918919 0
v -56.64865 -6.918919 0
v -56.64865 -6.486486 0
v -56.21622 -6.486486 0
v -56.64865 -6.918919 0
v -57.08108 -6.918919 0
v -57.08108 -6.486486 0
v -56.64865 -6.486486 0
v -57.08108 -6.918919 0
v -57.51352 -6.918919 0
v -57.51352 -6.486486 0
v -57.08108 -6.486486 0
v -57.51352 -6.918919 0
v -57.94595 -6.918919 0
v -57.94595 -6.486486 0
v -57.51352 -6.486486 0
v -57.94595 -6.918919 0
v -58.37838 -6.918919 0
v -58.37838 -6.486486 0
v -57.94595 -6.486486 0
v -48.86486 -7.351352 0
v -49.2973 -7.351352 0
v -49.2973 -6.918919 0
v -48.86486 -6.918919 0
v -49.2973 -7.351352 0
v -49.72973 -7.351352 0
v -49.72973 -6.918919 0
v -49.2973 -6.918919 0
v -49.72973 -7.351352 0
v -50.16216 -7.351352 0
v -50.16216 -6.918919 0
v -49.72973 -6.918919 0
v -50.16216 -7.351352 0
v -50.5946 -7.351352 0
v -50.5946 -6.918919 0
v -50.16216 -6.918919 0
v -50.5946 -7.351352 0
v -51.02703 -7.351352 0
v -51.02703 -6.918919 0
v -50.5946 -6.918919 0
v -51.02703 -7.351352 0
v -51.45946 -7.351352 0
v -51.45946 -6.918919 0
v -51.02703 -6.918919 0
v -51.45946 -7.351352 0
v -51.89189 -7.351352 0
v -51.89189 -6.918919 0
v -51.45946 -6.918919 0
v -51.89189 -7.351352 0
v -52.32433 -7.351352 0
v -52.32433 -6.918919 0
v -51.89189 -6.918919 0
v -54.91892 -7.351352 0
v -55.35135 -7.351352 0
v -55.35135 -6.918919 0
v -54.91892 -6.918919 0
v -55.35135 -7.351352 0
v -55.78379 -7.351352 0
v -55.78379 -6.918919 0
v -55.35135 -6.918919 0
v -55.78379 -7.351352 0
v -56.21622 -7.351352 0
v -56.21622 -6.918919 0
v -55.78379 -6.918919 0
v -56.21622 -7.351352 0
v -56.64865 -7.351352 0
v -56.64865 -6.918919 0
v -56.21622 -6.918919 0
v -56.64865 -7.351352 0
v -57.08108 -7.351352 0
v -57.08108 -6.918919 0
v -56.64865 -6.918919 0
v -57.08108 -7.351352 0
v -57.51352 -7.351352 0
v -57.51352 -6.918919 0
v -57.08108 -6.918919 0
v -57.51352 -7.351352 0
v -57.94595 -7.351352 0
v -57.94595 -6.918919 0
v -57.51352 -6.918919 0
v -57.94595 -7.351352 0
v -58.37838 -7.351352 0
v -58.37838 -6.918919 0
v -57.94595 -6.918919 0
v -48.86486 -7.783784 0
v -49.2973 -7.783784 0
v -49.2973 -7.351352 0
v -48.86486 -7.351352 0
v -49.2973 -7.783784 0
v -49.72973 -7.783784 0
v -49.72973 -7.351352 0
v -49.2973 -7.351352 0
v -49.72973 -7.783784 0
v -50.16216 -7.783784 0
v -50.16216 -7.351352 0
v -49.72973 -7.351352 0
v -50.16216 -7.783784 0
v -50.5946 -7.783784 0
v -50.5946 -7.351352 0
v -50.16216 -7.351352 0
v -50.5946 -7.783784 0
v -51.02703 -7.783784 0
v -51.02703 -7.351352 0
v -50.5946 -7.351352 0
v -51.02703 -7.783784 0
v -51.45946 -7.783784 0
v -51.45946 -7.351352 0
v -51.02703 -7.351352 0
v -51.45946 -7.783784 0
v -51.89189 -7.783784 0
v -51.89189 -7.351352 0
v -51.45946 -7.351352 0
v -51.89189 -7.783784 0
v -52.32433 -7.783784 0
v -52.32433 -7.351352 0
v -51.89189 -7.351352 0
v -54.91892 -7.783784 0
v -55.35135 -7.783784 0
v -55.35135 -7.351352 0
v -54.91892 -7.351352 0
v -55.35135 -7.783784 0
v -55.78379 -7.783784 0
v -55.78379 -7.351352 0
v -55.35135 -7.351352 0
v -55.78379 -7.783784 0
v -56.21622 -7.783784 0
v -56.21622 -7.351352 0
v -55.78379 -7.351352 0
v -56.21622 -7.783784 0
v -56.64865 -7.783784 0
v -56.64865 -7.351352 0
v -56.21622 -7.351352 0
v -56.64865 -7.783784 0
v -57.08108 -7.783784 0
v -57.08108 -7.351352 0
v -56.64865 -7.351352 0
v -57.08108 -7.783784 0
v -57.51352 -7.783784 0
v -57.51352 -7.351352 0
v -57.08108 -7.351352 0
v -57.51352 -7.783784 0
v -57.94595 -7.783784 0
v -57.94595 -7.351352 0
v -57.51352 -7.351352 0
v -57.94595 -7.783784 0
v -58.37838 -7.783784 0
v -58.37838 -7.351352 0
v -57.94595 -7.351352 0
v -48.86486 -8.216216 0
v -49.2973 -8.216216 0
v -49.2973 -7.783784 0
v -48.86486 -7.783784 0
v -49.2973 -8.216216 0
v -49.72973 -8.216216 0
v -49.72973 -7.783784 0
v -49.2973 -7.783784 0
v -49.72973 -8.216216 0
v -50.16216 -8.216216 0
v -50.16216 -7.783784 0
v -49.72973 -7.783784 0
v -50.16216 -8.216216 0
v -50.5946 -8.216216 0
v -50.5946 -7.783784 0
v -50.16216 -7.783784 0
v -56.64865 -8.216216 0
v -57.08108 -8.216216 0
v -57.08108 -7.783784 0
v -56.64865 -7.783784 0
v -57.08108 -8.216216 0
v -57.51352 -8.216216 0
v -57.51352 -7.783784 0
v -57.08108 -7.783784 0
v -57.51352 -8.216216 0
v -57.94595 -8.216216 0
v -57.94595 -7.783784 0
v -57.51352 -7.783784 0
v -57.94595 -8.216216 0
v -58.37838 -8.216216 0
v -58.37838 -7.783784 0
v -57.94595 -7.783784 0
v -48.86486 -8.648649 0
v -49.2973 -8.648649 0
v -49.2973 -8.216216 0
v -48.86486 -8.216216 0
v -49.2973 -8.648649 0
v -49.72973 -8.648649 0
v -49.72973 -8.216216 0
v -49.2973 -8.216216 0
v -49.72973 -8.648649 0
v -50.16216 -8.648649 0
v -50.16216 -8.216216 0
v -49.72973 -8.216216 0
v -50.16216 -8.648649 0
v -50.5946 -8.648649 0
v -50.5946 -8.216216 0
v -50.16216 -8.216216 0
v -56.64865 -8.648649 0
v -57.08108 -8.648649 0
v -57.08108 -8.216216 0
v -56.64865 -8.216216 0
v -57.08108 -8.648649 0
v -57.51352 -8.648649 0
v -57.51352 -8.216216 0
v -57.08108 -8.216216 0
v -57.51352 -8.648649 0
v -57.94595 -8.648649 0
v -57.94595 -8.216216 0
v -57.51352 -8.216216 0
v -57.94595 -8.648649 0
v -58.37838 -8.648649 0
v -58.37838 -8.216216 0
v -57.94595 -8.216216 0

# Texture cooridinates (Count = 96)
vt 0.7501221 0.8001221
vt 0.8332112 0.8001221
vt 0.8332112 0.8998779
vt 0.7501221 0.8998779
vt 0.8334554 0.8001221
vt 0.9165446 0.8001221
vt 0.9165446 0.8998779
vt 0.8334554 0.8998779
vt 0.9167888 0.8001221
vt 0.9998779 0.8001221
vt 0.9998779 0.8998779
vt 0.9167888 0.8998779
vt 0.9167888 0.7001221
vt 0.9998779 0.7001221
vt 0.9998779 0.7998779
vt 0.9167888 0.7998779
vt 0.3334554 0.8001221
vt 0.4165446 0.8001221
vt 0.4165446 0.8998779
vt 0.3334554 0.8998779
vt 0.4167887 0.8001221
vt 0.4998779 0.8001221
vt 0.4998779 0.8998779
vt 0.4167887 0.8998779
vt 0.5001221 0.8001221
vt 0.5832112 0.8001221
vt 0.5832112 0.8998779
vt 0.5001221 0.8998779
vt 0.5834554 0.8001221
vt 0.6665446 0.8001221
vt 0.6665446 0.8998779
vt 0.5834554 0.8998779
vt 0.3334554 0.7001221
vt 0.4165446 0.7001221
vt 0.4165446 0.7998779
vt 0.3334554 0.7998779
vt 0.4167887 0.7001221
vt 0.4998779 0.7001221
vt 0.4998779 0.7998779
vt 0.4167887 0.7998779
vt 0.5001221 0.7001221
vt 0.5832112 0.7001221
vt 0.5832112 0.7998779
vt 0.5001221 0.7998779
vt 0.5834554 0.7001221
vt 0.6665446 0.7001221
vt 0.6665446 0.7998779
vt 0.5834554 0.7998779
vt 0.3334554 0.6001221
vt 0.4165446 0.6001221
vt 0.4165446 0.6998779
vt 0.3334554 0.6998779
vt 0.4167887 0.6001221
vt 0.4998779 0.6001221
vt 0.4998779 0.6998779
vt 0.4167887 0.6998779
vt 0.5001221 0.6001221
vt 0.5832112 0.6001221
vt 0.5832112 0.6998779
vt 0.5001221 0.6998779
vt 0.5834554 0.6001221
vt 0.6665446 0.6001221
vt 0.6665446 0.6998779
vt 0.5834554 0.6998779
vt 0.3334554 0.5001221
vt 0.4165446 0.5001221
vt 0.4165446 0.599878
vt 0.3334554 0.599878
vt 0.4167887 0.5001221
vt 0.4998779 0.5001221
vt 0.4998779 0.599878
vt 0.4167887 0.599878
vt 0.5001221 0.5001221
vt 0.5832112 0.5001221
vt 0.5832112 0.599878
vt 0.5001221 0.599878
vt 0.5834554 0.5001221
vt 0.6665446 0.5001221
vt 0.6665446 0.599878
vt 0.5834554 0.599878
vt 0.3334554 0.400122
vt 0.4165446 0.400122
vt 0.4165446 0.4998779
vt 0.3334554 0.4998779
vt 0.4167887 0.400122
vt 0.4998779 0.400122
vt 0.4998779 0.4998779
vt 0.4167887 0.4998779
vt 0.5001221 0.400122
vt 0.5832112 0.400122
vt 0.5832112 0.4998779
vt 0.5001221 0.4998779
vt 0.5834554 0.400122
vt 0.6665446 0.400122
vt 0.6665446 0.4998779
vt 0.5834554 0.4998779

# Normal
vn 0 0 -1

# Mesh description
g destroyer_mesh_0008

# Faces
f 1/1/1 2/2/1 3/3/1 4/4/1
f 5/5/1 6/6/1 7/7/1 8/8/1
f 9/9/1 10/10/1 11/11/1 12/12/1
f 13/13/1 14/14/1 15/15/1 16/16/1
f 17/17/1 18/18/1 19/19/1 20/20/1
f 21/21/1 22/22/1 23/23/1 24/24/1
f 25/25/1 26/26/1 27/27/1 28/28/1
f 29/29/1 30/30/1 31/31/1 32/32/1
f 33/30/1 34/29/1 35/32/1 36/31/1
f 37/26/1 38/25/1 39/28/1 40/27/1
f 41/22/1 42/21/1 43/24/1 44/23/1
f 45/18/1 46/17/1 47/20/1 48/19/1
f 49/33/1 50/34/1 51/35/1 52/36/1
f 53/37/1 54/38/1 55/39/1 56/40/1
f 57/41/1 58/42/1 59/43/1 60/44/1
f 61/45/1 62/46/1 63/47/1 64/48/1
f 65/46/1 66/45/1 67/48/1 68/47/1
f 69/42/1 70/41/1 71/44/1 72/43/1
f 73/38/1 74/37/1 75/40/1 76/39/1
f 77/34/1 78/33/1 79/36/1 80/35/1
f 81/17/1 82/18/1 83/19/1 84/20/1
f 85/21/1 86/22/1 87/23/1 88/24/1
f 89/25/1 90/26/1 91/27/1 92/28/1
f 93/29/1 94/30/1 95/31/1 96/32/1
f 97/49/1 98/50/1 99/51/1 100/52/1
f 101/53/1 102/54/1 103/55/1 104/56/1
f 105/57/1 106/58/1 107/59/1 108/60/1
f 109/61/1 110/62/1 111/63/1 112/64/1
f 113/62/1 114/61/1 115/64/1 116/63/1
f 117/58/1 118/57/1 119/60/1 120/59/1
f 121/54/1 122/53/1 123/56/1 124/55/1
f 125/50/1 126/49/1 127/52/1 128/51/1
f 129/30/1 130/29/1 131/32/1 132/31/1
f 133/26/1 134/25/1 135/28/1 136/27/1
f 137/22/1 138/21/1 139/24/1 140/23/1
f 141/18/1 142/17/1 143/20/1 144/19/1
f 145/33/1 146/34/1 147/35/1 148/36/1
f 149/37/1 150/38/1 151/39/1 152/40/1
f 153/41/1 154/42/1 155/43/1 156/44/1
f 157/45/1 158/46/1 159/47/1 160/48/1
f 161/65/1 162/66/1 163/67/1 164/68/1
f 165/69/1 166/70/1 167/71/1 168/72/1
f 169/73/1 170/74/1 171/75/1 172/76/1
f 173/77/1 174/78/1 175/79/1 176/80/1
f 177/78/1 178/77/1 179/80/1 180/79/1
f 181/74/1 182/73/1 183/76/1 184/75/1
f 185/70/1 186/69/1 187/72/1 188/71/1
f 189/66/1 190/65/1 191/68/1 192/67/1
f 193/46/1 194/45/1 195/48/1 196/47/1
f 197/42/1 198/41/1 199/44/1 200/43/1
f 201/38/1 202/37/1 203/40/1 204/39/1
f 205/34/1 206/33/1 207/36/1 208/35/1
f 209/49/1 210/50/1 211/51/1 212/52/1
f 213/53/1 214/54/1 215/55/1 216/56/1
f 217/57/1 218/58/1 219/59/1 220/60/1
f 221/61/1 222/62/1 223/63/1 224/64/1
f 225/81/1 226/82/1 227/83/1 228/84/1
f 229/85/1 230/86/1 231/87/1 232/88/1
f 233/89/1 234/90/1 235/91/1 236/92/1
f 237/93/1 238/94/1 239/95/1 240/96/1
f 241/94/1 242/93/1 243/96/1 244/95/1
f 245/90/1 246/89/1 247/92/1 248/91/1
f 249/86/1 250/85/1 251/88/1 252/87/1
f 253/82/1 254/81/1 255/84/1 256/83/1
f 257/62/1 258/61/1 259/64/1 260/63/1
f 261/58/1 262/57/1 263/60/1 264/59/1
f 265/54/1 266/53/1 267/56/1 268/55/1
f 269/50/1 270/49/1 271/52/1 272/51/1
f 273/65/1 274/66/1 275/67/1 276/68/1
f 277/69/1 278/70/1 279/71/1 280/72/1
f 281/73/1 282/74/1 283/75/1 284/76/1
f 285/77/1 286/78/1 287/79/1 288/80/1
f 289/78/1 290/77/1 291/80/1 292/79/1
f 293/74/1 294/73/1 295/76/1 296/75/1
f 297/70/1 298/69/1 299/72/1 300/71/1
f 301/66/1 302/65/1 303/68/1 304/67/1
f 305/81/1 306/82/1 307/83/1 308/84/1
f 309/85/1 310/86/1 311/87/1 312/88/1
f 313/89/1 314/90/1 315/91/1 316/92/1
f 317/93/1 318/94/1 319/95/1 320/96/1
f 321/94/1 322/93/1 323/96/1 324/95/1
f 325/90/1 326/89/1 327/92/1 328/91/1
f 329/86/1 330/85/1 331/88/1 332/87/1
f 333/82/1 334/81/1 335/84/1 336/83/1

