# Tiled2Unity generated file. Do not modify by hand.
# Wavefront file for 'destroyer_mesh_0015.obj'

# Vertices (Count = 160)
v -21.62162 -6.486486 0
v -22.05405 -6.486486 0
v -22.05405 -6.054054 0
v -21.62162 -6.054054 0
v -12.54054 -6.918919 0
v -12.97297 -6.918919 0
v -12.97297 -6.486486 0
v -12.54054 -6.486486 0
v -21.62162 -6.918919 0
v -22.05405 -6.918919 0
v -22.05405 -6.486486 0
v -21.62162 -6.486486 0
v -22.05405 -6.918919 0
v -22.48649 -6.918919 0
v -22.48649 -6.486486 0
v -22.05405 -6.486486 0
v -12.54054 -7.351352 0
v -12.97297 -7.351352 0
v -12.97297 -6.918919 0
v -12.54054 -6.918919 0
v -12.97297 -7.351352 0
v -13.40541 -7.351352 0
v -13.40541 -6.918919 0
v -12.97297 -6.918919 0
v -21.62162 -7.351352 0
v -22.05405 -7.351352 0
v -22.05405 -6.918919 0
v -21.62162 -6.918919 0
v -22.05405 -7.351352 0
v -22.48649 -7.351352 0
v -22.48649 -6.918919 0
v -22.05405 -6.918919 0
v -12.54054 -7.783784 0
v -12.97297 -7.783784 0
v -12.97297 -7.351352 0
v -12.54054 -7.351352 0
v -12.97297 -7.783784 0
v -13.40541 -7.783784 0
v -13.40541 -7.351352 0
v -12.97297 -7.351352 0
v -21.62162 -7.783784 0
v -22.05405 -7.783784 0
v -22.05405 -7.351352 0
v -21.62162 -7.351352 0
v -22.05405 -7.783784 0
v -22.48649 -7.783784 0
v -22.48649 -7.351352 0
v -22.05405 -7.351352 0
v -12.54054 -8.216216 0
v -12.97297 -8.216216 0
v -12.97297 -7.783784 0
v -12.54054 -7.783784 0
v -12.97297 -8.216216 0
v -13.40541 -8.216216 0
v -13.40541 -7.783784 0
v -12.97297 -7.783784 0
v -21.62162 -8.216216 0
v -22.05405 -8.216216 0
v -22.05405 -7.783784 0
v -21.62162 -7.783784 0
v -22.05405 -8.216216 0
v -22.48649 -8.216216 0
v -22.48649 -7.783784 0
v -22.05405 -7.783784 0
v -11.67568 -8.648649 0
v -12.10811 -8.648649 0
v -12.10811 -8.216216 0
v -11.67568 -8.216216 0
v -12.54054 -8.648649 0
v -12.97297 -8.648649 0
v -12.97297 -8.216216 0
v -12.54054 -8.216216 0
v -12.97297 -8.648649 0
v -13.40541 -8.648649 0
v -13.40541 -8.216216 0
v -12.97297 -8.216216 0
v -21.62162 -8.648649 0
v -22.05405 -8.648649 0
v -22.05405 -8.216216 0
v -21.62162 -8.216216 0
v -22.05405 -8.648649 0
v -22.48649 -8.648649 0
v -22.48649 -8.216216 0
v -22.05405 -8.216216 0
v -20.32433 -9.081081 0
v -20.75676 -9.081081 0
v -20.75676 -8.648649 0
v -20.32433 -8.648649 0
v -21.62162 -9.081081 0
v -22.05405 -9.081081 0
v -22.05405 -8.648649 0
v -21.62162 -8.648649 0
v -22.05405 -9.081081 0
v -22.48649 -9.081081 0
v -22.48649 -8.648649 0
v -22.05405 -8.648649 0
v -19.89189 -9.513514 0
v -20.32433 -9.513514 0
v -20.32433 -9.081081 0
v -19.89189 -9.081081 0
v -20.32433 -9.513514 0
v -20.75676 -9.513514 0
v -20.75676 -9.081081 0
v -20.32433 -9.081081 0
v -21.62162 -9.513514 0
v -22.05405 -9.513514 0
v -22.05405 -9.081081 0
v -21.62162 -9.081081 0
v -22.05405 -9.513514 0
v -22.48649 -9.513514 0
v -22.48649 -9.081081 0
v -22.05405 -9.081081 0
v -19.89189 -9.945946 0
v -20.32433 -9.945946 0
v -20.32433 -9.513514 0
v -19.89189 -9.513514 0
v -20.32433 -9.945946 0
v -20.75676 -9.945946 0
v -20.75676 -9.513514 0
v -20.32433 -9.513514 0
v -21.62162 -9.945946 0
v -22.05405 -9.945946 0
v -22.05405 -9.513514 0
v -21.62162 -9.513514 0
v -22.05405 -9.945946 0
v -22.48649 -9.945946 0
v -22.48649 -9.513514 0
v -22.05405 -9.513514 0
v -19.89189 -10.37838 0
v -20.32433 -10.37838 0
v -20.32433 -9.945946 0
v -19.89189 -9.945946 0
v -20.32433 -10.37838 0
v -20.75676 -10.37838 0
v -20.75676 -9.945946 0
v -20.32433 -9.945946 0
v -21.62162 -10.37838 0
v -22.05405 -10.37838 0
v -22.05405 -9.945946 0
v -21.62162 -9.945946 0
v -22.05405 -10.37838 0
v -22.48649 -10.37838 0
v -22.48649 -9.945946 0
v -22.05405 -9.945946 0
v -19.89189 -10.81081 0
v -20.32433 -10.81081 0
v -20.32433 -10.37838 0
v -19.89189 -10.37838 0
v -20.32433 -10.81081 0
v -20.75676 -10.81081 0
v -20.75676 -10.37838 0
v -20.32433 -10.37838 0
v -21.62162 -10.81081 0
v -22.05405 -10.81081 0
v -22.05405 -10.37838 0
v -21.62162 -10.37838 0
v -22.05405 -10.81081 0
v -22.48649 -10.81081 0
v -22.48649 -10.37838 0
v -22.05405 -10.37838 0

# Texture cooridinates (Count = 48)
vt 0.2501221 0.9584554
vt 0.3748779 0.9584554
vt 0.3748779 0.9998779
vt 0.2501221 0.9998779
vt 0.2501221 0.8334554
vt 0.3748779 0.8334554
vt 0.3748779 0.8748779
vt 0.2501221 0.8748779
vt 0.3751221 0.8751221
vt 0.4998779 0.8751221
vt 0.4998779 0.9165446
vt 0.3751221 0.9165446
vt 0.2501221 0.7917888
vt 0.3748779 0.7917888
vt 0.3748779 0.8332112
vt 0.2501221 0.8332112
vt 0.3751221 0.8334554
vt 0.4998779 0.8334554
vt 0.4998779 0.8748779
vt 0.3751221 0.8748779
vt 0.2501221 0.7501221
vt 0.3748779 0.7501221
vt 0.3748779 0.7915446
vt 0.2501221 0.7915446
vt 0.3751221 0.7917888
vt 0.4998779 0.7917888
vt 0.4998779 0.8332112
vt 0.3751221 0.8332112
vt 0.2501221 0.7084554
vt 0.3748779 0.7084554
vt 0.3748779 0.7498779
vt 0.2501221 0.7498779
vt 0.3751221 0.7501221
vt 0.4998779 0.7501221
vt 0.4998779 0.7915446
vt 0.3751221 0.7915446
vt 0.1251221 0.5834554
vt 0.2498779 0.5834554
vt 0.2498779 0.6248779
vt 0.1251221 0.6248779
vt 0.2501221 0.6667887
vt 0.3748779 0.6667887
vt 0.3748779 0.7082113
vt 0.2501221 0.7082113
vt 0.3751221 0.9167888
vt 0.4998779 0.9167888
vt 0.4998779 0.9582112
vt 0.3751221 0.9582112

# Normal
vn 0 0 -1

# Mesh description
g destroyer_mesh_0015

# Faces
f 1/1/1 2/2/1 3/3/1 4/4/1
f 5/1/1 6/2/1 7/3/1 8/4/1
f 9/5/1 10/6/1 11/7/1 12/8/1
f 13/9/1 14/10/1 15/11/1 16/12/1
f 17/13/1 18/14/1 19/15/1 20/16/1
f 21/17/1 22/18/1 23/19/1 24/20/1
f 25/13/1 26/14/1 27/15/1 28/16/1
f 29/17/1 30/18/1 31/19/1 32/20/1
f 33/21/1 34/22/1 35/23/1 36/24/1
f 37/25/1 38/26/1 39/27/1 40/28/1
f 41/21/1 42/22/1 43/23/1 44/24/1
f 45/25/1 46/26/1 47/27/1 48/28/1
f 49/29/1 50/30/1 51/31/1 52/32/1
f 53/33/1 54/34/1 55/35/1 56/36/1
f 57/29/1 58/30/1 59/31/1 60/32/1
f 61/33/1 62/34/1 63/35/1 64/36/1
f 65/37/1 66/38/1 67/39/1 68/40/1
f 69/41/1 70/42/1 71/43/1 72/44/1
f 73/45/1 74/46/1 75/47/1 76/48/1
f 77/41/1 78/42/1 79/43/1 80/44/1
f 81/45/1 82/46/1 83/47/1 84/48/1
f 85/2/1 86/1/1 87/4/1 88/3/1
f 89/13/1 90/14/1 91/15/1 92/16/1
f 93/17/1 94/18/1 95/19/1 96/20/1
f 97/10/1 98/9/1 99/12/1 100/11/1
f 101/6/1 102/5/1 103/8/1 104/7/1
f 105/13/1 106/14/1 107/15/1 108/16/1
f 109/17/1 110/18/1 111/19/1 112/20/1
f 113/18/1 114/17/1 115/20/1 116/19/1
f 117/14/1 118/13/1 119/16/1 120/15/1
f 121/21/1 122/22/1 123/23/1 124/24/1
f 125/25/1 126/26/1 127/27/1 128/28/1
f 129/26/1 130/25/1 131/28/1 132/27/1
f 133/22/1 134/21/1 135/24/1 136/23/1
f 137/29/1 138/30/1 139/31/1 140/32/1
f 141/33/1 142/34/1 143/35/1 144/36/1
f 145/34/1 146/33/1 147/36/1 148/35/1
f 149/30/1 150/29/1 151/32/1 152/31/1
f 153/41/1 154/42/1 155/43/1 156/44/1
f 157/45/1 158/46/1 159/47/1 160/48/1

