# Tiled2Unity generated file. Do not modify by hand.
# Wavefront file for 'destroyer_mesh_0011.obj'

# Vertices (Count = 736)
v 0 -5.621622 0
v -0.4324324 -5.621622 0
v -0.4324324 -5.189189 0
v 0 -5.189189 0
v -0.4324324 -5.621622 0
v -0.8648649 -5.621622 0
v -0.8648649 -5.189189 0
v -0.4324324 -5.189189 0
v -0.8648649 -5.621622 0
v -1.297297 -5.621622 0
v -1.297297 -5.189189 0
v -0.8648649 -5.189189 0
v -1.297297 -5.621622 0
v -1.72973 -5.621622 0
v -1.72973 -5.189189 0
v -1.297297 -5.189189 0
v -1.72973 -5.621622 0
v -2.162162 -5.621622 0
v -2.162162 -5.189189 0
v -1.72973 -5.189189 0
v -2.162162 -5.621622 0
v -2.594595 -5.621622 0
v -2.594595 -5.189189 0
v -2.162162 -5.189189 0
v -2.594595 -5.621622 0
v -3.027027 -5.621622 0
v -3.027027 -5.189189 0
v -2.594595 -5.189189 0
v -3.027027 -5.621622 0
v -3.45946 -5.621622 0
v -3.45946 -5.189189 0
v -3.027027 -5.189189 0
v -3.45946 -5.621622 0
v -3.891892 -5.621622 0
v -3.891892 -5.189189 0
v -3.45946 -5.189189 0
v -3.891892 -5.621622 0
v -4.324325 -5.621622 0
v -4.324325 -5.189189 0
v -3.891892 -5.189189 0
v -4.324325 -5.621622 0
v -4.756757 -5.621622 0
v -4.756757 -5.189189 0
v -4.324325 -5.189189 0
v 0 -6.054054 0
v -0.4324324 -6.054054 0
v -0.4324324 -5.621622 0
v 0 -5.621622 0
v -0.4324324 -6.054054 0
v -0.8648649 -6.054054 0
v -0.8648649 -5.621622 0
v -0.4324324 -5.621622 0
v -0.8648649 -6.054054 0
v -1.297297 -6.054054 0
v -1.297297 -5.621622 0
v -0.8648649 -5.621622 0
v -1.297297 -6.054054 0
v -1.72973 -6.054054 0
v -1.72973 -5.621622 0
v -1.297297 -5.621622 0
v -1.72973 -6.054054 0
v -2.162162 -6.054054 0
v -2.162162 -5.621622 0
v -1.72973 -5.621622 0
v -2.162162 -6.054054 0
v -2.594595 -6.054054 0
v -2.594595 -5.621622 0
v -2.162162 -5.621622 0
v -2.594595 -6.054054 0
v -3.027027 -6.054054 0
v -3.027027 -5.621622 0
v -2.594595 -5.621622 0
v -3.027027 -6.054054 0
v -3.45946 -6.054054 0
v -3.45946 -5.621622 0
v -3.027027 -5.621622 0
v -3.45946 -6.054054 0
v -3.891892 -6.054054 0
v -3.891892 -5.621622 0
v -3.45946 -5.621622 0
v -3.891892 -6.054054 0
v -4.324325 -6.054054 0
v -4.324325 -5.621622 0
v -3.891892 -5.621622 0
v -4.324325 -6.054054 0
v -4.756757 -6.054054 0
v -4.756757 -5.621622 0
v -4.324325 -5.621622 0
v -73.08109 -6.054054 0
v -73.51351 -6.054054 0
v -73.51351 -5.621622 0
v -73.08109 -5.621622 0
v -73.51351 -6.054054 0
v -73.94595 -6.054054 0
v -73.94595 -5.621622 0
v -73.51351 -5.621622 0
v -73.94595 -6.054054 0
v -74.37838 -6.054054 0
v -74.37838 -5.621622 0
v -73.94595 -5.621622 0
v -74.37838 -6.054054 0
v -74.81081 -6.054054 0
v -74.81081 -5.621622 0
v -74.37838 -5.621622 0
v 0 -6.486486 0
v -0.4324324 -6.486486 0
v -0.4324324 -6.054054 0
v 0 -6.054054 0
v -0.4324324 -6.486486 0
v -0.8648649 -6.486486 0
v -0.8648649 -6.054054 0
v -0.4324324 -6.054054 0
v -0.8648649 -6.486486 0
v -1.297297 -6.486486 0
v -1.297297 -6.054054 0
v -0.8648649 -6.054054 0
v -1.297297 -6.486486 0
v -1.72973 -6.486486 0
v -1.72973 -6.054054 0
v -1.297297 -6.054054 0
v -1.72973 -6.486486 0
v -2.162162 -6.486486 0
v -2.162162 -6.054054 0
v -1.72973 -6.054054 0
v -2.162162 -6.486486 0
v -2.594595 -6.486486 0
v -2.594595 -6.054054 0
v -2.162162 -6.054054 0
v -2.594595 -6.486486 0
v -3.027027 -6.486486 0
v -3.027027 -6.054054 0
v -2.594595 -6.054054 0
v -3.027027 -6.486486 0
v -3.45946 -6.486486 0
v -3.45946 -6.054054 0
v -3.027027 -6.054054 0
v -3.45946 -6.486486 0
v -3.891892 -6.486486 0
v -3.891892 -6.054054 0
v -3.45946 -6.054054 0
v -3.891892 -6.486486 0
v -4.324325 -6.486486 0
v -4.324325 -6.054054 0
v -3.891892 -6.054054 0
v -4.324325 -6.486486 0
v -4.756757 -6.486486 0
v -4.756757 -6.054054 0
v -4.324325 -6.054054 0
v -28.10811 -6.486486 0
v -28.54054 -6.486486 0
v -28.54054 -6.054054 0
v -28.10811 -6.054054 0
v -70.91892 -6.486486 0
v -71.35136 -6.486486 0
v -71.35136 -6.054054 0
v -70.91892 -6.054054 0
v -73.08109 -6.486486 0
v -73.51351 -6.486486 0
v -73.51351 -6.054054 0
v -73.08109 -6.054054 0
v -73.51351 -6.486486 0
v -73.94595 -6.486486 0
v -73.94595 -6.054054 0
v -73.51351 -6.054054 0
v -73.94595 -6.486486 0
v -74.37838 -6.486486 0
v -74.37838 -6.054054 0
v -73.94595 -6.054054 0
v -74.37838 -6.486486 0
v -74.81081 -6.486486 0
v -74.81081 -6.054054 0
v -74.37838 -6.054054 0
v 0 -6.918919 0
v -0.4324324 -6.918919 0
v -0.4324324 -6.486486 0
v 0 -6.486486 0
v -0.4324324 -6.918919 0
v -0.8648649 -6.918919 0
v -0.8648649 -6.486486 0
v -0.4324324 -6.486486 0
v -0.8648649 -6.918919 0
v -1.297297 -6.918919 0
v -1.297297 -6.486486 0
v -0.8648649 -6.486486 0
v -1.297297 -6.918919 0
v -1.72973 -6.918919 0
v -1.72973 -6.486486 0
v -1.297297 -6.486486 0
v -1.72973 -6.918919 0
v -2.162162 -6.918919 0
v -2.162162 -6.486486 0
v -1.72973 -6.486486 0
v -2.162162 -6.918919 0
v -2.594595 -6.918919 0
v -2.594595 -6.486486 0
v -2.162162 -6.486486 0
v -2.594595 -6.918919 0
v -3.027027 -6.918919 0
v -3.027027 -6.486486 0
v -2.594595 -6.486486 0
v -3.027027 -6.918919 0
v -3.45946 -6.918919 0
v -3.45946 -6.486486 0
v -3.027027 -6.486486 0
v -3.45946 -6.918919 0
v -3.891892 -6.918919 0
v -3.891892 -6.486486 0
v -3.45946 -6.486486 0
v -3.891892 -6.918919 0
v -4.324325 -6.918919 0
v -4.324325 -6.486486 0
v -3.891892 -6.486486 0
v -4.324325 -6.918919 0
v -4.756757 -6.918919 0
v -4.756757 -6.486486 0
v -4.324325 -6.486486 0
v -28.10811 -6.918919 0
v -28.54054 -6.918919 0
v -28.54054 -6.486486 0
v -28.10811 -6.486486 0
v -70.91892 -6.918919 0
v -71.35136 -6.918919 0
v -71.35136 -6.486486 0
v -70.91892 -6.486486 0
v -73.08109 -6.918919 0
v -73.51351 -6.918919 0
v -73.51351 -6.486486 0
v -73.08109 -6.486486 0
v -73.51351 -6.918919 0
v -73.94595 -6.918919 0
v -73.94595 -6.486486 0
v -73.51351 -6.486486 0
v -73.94595 -6.918919 0
v -74.37838 -6.918919 0
v -74.37838 -6.486486 0
v -73.94595 -6.486486 0
v -74.37838 -6.918919 0
v -74.81081 -6.918919 0
v -74.81081 -6.486486 0
v -74.37838 -6.486486 0
v 0 -7.351352 0
v -0.4324324 -7.351352 0
v -0.4324324 -6.918919 0
v 0 -6.918919 0
v -0.4324324 -7.351352 0
v -0.8648649 -7.351352 0
v -0.8648649 -6.918919 0
v -0.4324324 -6.918919 0
v -0.8648649 -7.351352 0
v -1.297297 -7.351352 0
v -1.297297 -6.918919 0
v -0.8648649 -6.918919 0
v -1.297297 -7.351352 0
v -1.72973 -7.351352 0
v -1.72973 -6.918919 0
v -1.297297 -6.918919 0
v -1.72973 -7.351352 0
v -2.162162 -7.351352 0
v -2.162162 -6.918919 0
v -1.72973 -6.918919 0
v -2.162162 -7.351352 0
v -2.594595 -7.351352 0
v -2.594595 -6.918919 0
v -2.162162 -6.918919 0
v -2.594595 -7.351352 0
v -3.027027 -7.351352 0
v -3.027027 -6.918919 0
v -2.594595 -6.918919 0
v -3.027027 -7.351352 0
v -3.45946 -7.351352 0
v -3.45946 -6.918919 0
v -3.027027 -6.918919 0
v -3.45946 -7.351352 0
v -3.891892 -7.351352 0
v -3.891892 -6.918919 0
v -3.45946 -6.918919 0
v -3.891892 -7.351352 0
v -4.324325 -7.351352 0
v -4.324325 -6.918919 0
v -3.891892 -6.918919 0
v -4.324325 -7.351352 0
v -4.756757 -7.351352 0
v -4.756757 -6.918919 0
v -4.324325 -6.918919 0
v -28.10811 -7.351352 0
v -28.54054 -7.351352 0
v -28.54054 -6.918919 0
v -28.10811 -6.918919 0
v -70.91892 -7.351352 0
v -71.35136 -7.351352 0
v -71.35136 -6.918919 0
v -70.91892 -6.918919 0
v -73.08109 -7.351352 0
v -73.51351 -7.351352 0
v -73.51351 -6.918919 0
v -73.08109 -6.918919 0
v -73.51351 -7.351352 0
v -73.94595 -7.351352 0
v -73.94595 -6.918919 0
v -73.51351 -6.918919 0
v -73.94595 -7.351352 0
v -74.37838 -7.351352 0
v -74.37838 -6.918919 0
v -73.94595 -6.918919 0
v -74.37838 -7.351352 0
v -74.81081 -7.351352 0
v -74.81081 -6.918919 0
v -74.37838 -6.918919 0
v -76.54054 -7.351352 0
v -76.97298 -7.351352 0
v -76.97298 -6.918919 0
v -76.54054 -6.918919 0
v -76.97298 -7.351352 0
v -77.40541 -7.351352 0
v -77.40541 -6.918919 0
v -76.97298 -6.918919 0
v -92.54054 -7.351352 0
v -92.97298 -7.351352 0
v -92.97298 -6.918919 0
v -92.54054 -6.918919 0
v -92.97298 -7.351352 0
v -93.40541 -7.351352 0
v -93.40541 -6.918919 0
v -92.97298 -6.918919 0
v -70.91892 -7.783784 0
v -71.35136 -7.783784 0
v -71.35136 -7.351352 0
v -70.91892 -7.351352 0
v -73.08109 -7.783784 0
v -73.51351 -7.783784 0
v -73.51351 -7.351352 0
v -73.08109 -7.351352 0
v -73.51351 -7.783784 0
v -73.94595 -7.783784 0
v -73.94595 -7.351352 0
v -73.51351 -7.351352 0
v -73.94595 -7.783784 0
v -74.37838 -7.783784 0
v -74.37838 -7.351352 0
v -73.94595 -7.351352 0
v -74.37838 -7.783784 0
v -74.81081 -7.783784 0
v -74.81081 -7.351352 0
v -74.37838 -7.351352 0
v -76.54054 -7.783784 0
v -76.97298 -7.783784 0
v -76.97298 -7.351352 0
v -76.54054 -7.351352 0
v -76.97298 -7.783784 0
v -77.40541 -7.783784 0
v -77.40541 -7.351352 0
v -76.97298 -7.351352 0
v -77.40541 -7.783784 0
v -77.83784 -7.783784 0
v -77.83784 -7.351352 0
v -77.40541 -7.351352 0
v -77.83784 -7.783784 0
v -78.27027 -7.783784 0
v -78.27027 -7.351352 0
v -77.83784 -7.351352 0
v -92.54054 -7.783784 0
v -92.97298 -7.783784 0
v -92.97298 -7.351352 0
v -92.54054 -7.351352 0
v -92.97298 -7.783784 0
v -93.40541 -7.783784 0
v -93.40541 -7.351352 0
v -92.97298 -7.351352 0
v -28.10811 -8.216216 0
v -28.54054 -8.216216 0
v -28.54054 -7.783784 0
v -28.10811 -7.783784 0
v -28.54054 -8.216216 0
v -28.97297 -8.216216 0
v -28.97297 -7.783784 0
v -28.54054 -7.783784 0
v -28.97297 -8.216216 0
v -29.40541 -8.216216 0
v -29.40541 -7.783784 0
v -28.97297 -7.783784 0
v -50.5946 -8.216216 0
v -51.02703 -8.216216 0
v -51.02703 -7.783784 0
v -50.5946 -7.783784 0
v -51.02703 -8.216216 0
v -51.45946 -8.216216 0
v -51.45946 -7.783784 0
v -51.02703 -7.783784 0
v -51.45946 -8.216216 0
v -51.89189 -8.216216 0
v -51.89189 -7.783784 0
v -51.45946 -7.783784 0
v -51.89189 -8.216216 0
v -52.32433 -8.216216 0
v -52.32433 -7.783784 0
v -51.89189 -7.783784 0
v -55.35135 -8.216216 0
v -55.78379 -8.216216 0
v -55.78379 -7.783784 0
v -55.35135 -7.783784 0
v -55.78379 -8.216216 0
v -56.21622 -8.216216 0
v -56.21622 -7.783784 0
v -55.78379 -7.783784 0
v -56.21622 -8.216216 0
v -56.64865 -8.216216 0
v -56.64865 -7.783784 0
v -56.21622 -7.783784 0
v -70.91892 -8.216216 0
v -71.35136 -8.216216 0
v -71.35136 -7.783784 0
v -70.91892 -7.783784 0
v -73.08109 -8.216216 0
v -73.51351 -8.216216 0
v -73.51351 -7.783784 0
v -73.08109 -7.783784 0
v -73.51351 -8.216216 0
v -73.94595 -8.216216 0
v -73.94595 -7.783784 0
v -73.51351 -7.783784 0
v -73.94595 -8.216216 0
v -74.37838 -8.216216 0
v -74.37838 -7.783784 0
v -73.94595 -7.783784 0
v -74.37838 -8.216216 0
v -74.81081 -8.216216 0
v -74.81081 -7.783784 0
v -74.37838 -7.783784 0
v -76.54054 -8.216216 0
v -76.97298 -8.216216 0
v -76.97298 -7.783784 0
v -76.54054 -7.783784 0
v -76.97298 -8.216216 0
v -77.40541 -8.216216 0
v -77.40541 -7.783784 0
v -76.97298 -7.783784 0
v -77.40541 -8.216216 0
v -77.83784 -8.216216 0
v -77.83784 -7.783784 0
v -77.40541 -7.783784 0
v -77.83784 -8.216216 0
v -78.27027 -8.216216 0
v -78.27027 -7.783784 0
v -77.83784 -7.783784 0
v -78.27027 -8.216216 0
v -78.70271 -8.216216 0
v -78.70271 -7.783784 0
v -78.27027 -7.783784 0
v -78.70271 -8.216216 0
v -79.13514 -8.216216 0
v -79.13514 -7.783784 0
v -78.70271 -7.783784 0
v -79.13514 -8.216216 0
v -79.56757 -8.216216 0
v -79.56757 -7.783784 0
v -79.13514 -7.783784 0
v -79.56757 -8.216216 0
v -80 -8.216216 0
v -80 -7.783784 0
v -79.56757 -7.783784 0
v -80 -8.216216 0
v -80.43243 -8.216216 0
v -80.43243 -7.783784 0
v -80 -7.783784 0
v -80.43243 -8.216216 0
v -80.86487 -8.216216 0
v -80.86487 -7.783784 0
v -80.43243 -7.783784 0
v -80.86487 -8.216216 0
v -81.2973 -8.216216 0
v -81.2973 -7.783784 0
v -80.86487 -7.783784 0
v -81.2973 -8.216216 0
v -81.72973 -8.216216 0
v -81.72973 -7.783784 0
v -81.2973 -7.783784 0
v -81.72973 -8.216216 0
v -82.16216 -8.216216 0
v -82.16216 -7.783784 0
v -81.72973 -7.783784 0
v -82.16216 -8.216216 0
v -82.5946 -8.216216 0
v -82.5946 -7.783784 0
v -82.16216 -7.783784 0
v -82.5946 -8.216216 0
v -83.02703 -8.216216 0
v -83.02703 -7.783784 0
v -82.5946 -7.783784 0
v -83.02703 -8.216216 0
v -83.45947 -8.216216 0
v -83.45947 -7.783784 0
v -83.02703 -7.783784 0
v -83.45947 -8.216216 0
v -83.89189 -8.216216 0
v -83.89189 -7.783784 0
v -83.45947 -7.783784 0
v -83.89189 -8.216216 0
v -84.32433 -8.216216 0
v -84.32433 -7.783784 0
v -83.89189 -7.783784 0
v -84.32433 -8.216216 0
v -84.75676 -8.216216 0
v -84.75676 -7.783784 0
v -84.32433 -7.783784 0
v -84.75676 -8.216216 0
v -85.18919 -8.216216 0
v -85.18919 -7.783784 0
v -84.75676 -7.783784 0
v -85.18919 -8.216216 0
v -85.62162 -8.216216 0
v -85.62162 -7.783784 0
v -85.18919 -7.783784 0
v -85.62162 -8.216216 0
v -86.05405 -8.216216 0
v -86.05405 -7.783784 0
v -85.62162 -7.783784 0
v -86.05405 -8.216216 0
v -86.48649 -8.216216 0
v -86.48649 -7.783784 0
v -86.05405 -7.783784 0
v -86.48649 -8.216216 0
v -86.91892 -8.216216 0
v -86.91892 -7.783784 0
v -86.48649 -7.783784 0
v -86.91892 -8.216216 0
v -87.35136 -8.216216 0
v -87.35136 -7.783784 0
v -86.91892 -7.783784 0
v -87.35136 -8.216216 0
v -87.78378 -8.216216 0
v -87.78378 -7.783784 0
v -87.35136 -7.783784 0
v -87.78378 -8.216216 0
v -88.21622 -8.216216 0
v -88.21622 -7.783784 0
v -87.78378 -7.783784 0
v -88.21622 -8.216216 0
v -88.64865 -8.216216 0
v -88.64865 -7.783784 0
v -88.21622 -7.783784 0
v -92.54054 -8.216216 0
v -92.97298 -8.216216 0
v -92.97298 -7.783784 0
v -92.54054 -7.783784 0
v -92.97298 -8.216216 0
v -93.40541 -8.216216 0
v -93.40541 -7.783784 0
v -92.97298 -7.783784 0
v -28.10811 -8.648649 0
v -28.54054 -8.648649 0
v -28.54054 -8.216216 0
v -28.10811 -8.216216 0
v -28.54054 -8.648649 0
v -28.97297 -8.648649 0
v -28.97297 -8.216216 0
v -28.54054 -8.216216 0
v -28.97297 -8.648649 0
v -29.40541 -8.648649 0
v -29.40541 -8.216216 0
v -28.97297 -8.216216 0
v -35.89189 -8.648649 0
v -36.32433 -8.648649 0
v -36.32433 -8.216216 0
v -35.89189 -8.216216 0
v -42.37838 -8.648649 0
v -42.81081 -8.648649 0
v -42.81081 -8.216216 0
v -42.37838 -8.216216 0
v -50.5946 -8.648649 0
v -51.02703 -8.648649 0
v -51.02703 -8.216216 0
v -50.5946 -8.216216 0
v -51.02703 -8.648649 0
v -51.45946 -8.648649 0
v -51.45946 -8.216216 0
v -51.02703 -8.216216 0
v -51.45946 -8.648649 0
v -51.89189 -8.648649 0
v -51.89189 -8.216216 0
v -51.45946 -8.216216 0
v -51.89189 -8.648649 0
v -52.32433 -8.648649 0
v -52.32433 -8.216216 0
v -51.89189 -8.216216 0
v -55.35135 -8.648649 0
v -55.78379 -8.648649 0
v -55.78379 -8.216216 0
v -55.35135 -8.216216 0
v -55.78379 -8.648649 0
v -56.21622 -8.648649 0
v -56.21622 -8.216216 0
v -55.78379 -8.216216 0
v -56.21622 -8.648649 0
v -56.64865 -8.648649 0
v -56.64865 -8.216216 0
v -56.21622 -8.216216 0
v -70.91892 -8.648649 0
v -71.35136 -8.648649 0
v -71.35136 -8.216216 0
v -70.91892 -8.216216 0
v -73.08109 -8.648649 0
v -73.51351 -8.648649 0
v -73.51351 -8.216216 0
v -73.08109 -8.216216 0
v -73.51351 -8.648649 0
v -73.94595 -8.648649 0
v -73.94595 -8.216216 0
v -73.51351 -8.216216 0
v -73.94595 -8.648649 0
v -74.37838 -8.648649 0
v -74.37838 -8.216216 0
v -73.94595 -8.216216 0
v -74.37838 -8.648649 0
v -74.81081 -8.648649 0
v -74.81081 -8.216216 0
v -74.37838 -8.216216 0
v -76.54054 -8.648649 0
v -76.97298 -8.648649 0
v -76.97298 -8.216216 0
v -76.54054 -8.216216 0
v -76.97298 -8.648649 0
v -77.40541 -8.648649 0
v -77.40541 -8.216216 0
v -76.97298 -8.216216 0
v -77.40541 -8.648649 0
v -77.83784 -8.648649 0
v -77.83784 -8.216216 0
v -77.40541 -8.216216 0
v -77.83784 -8.648649 0
v -78.27027 -8.648649 0
v -78.27027 -8.216216 0
v -77.83784 -8.216216 0
v -78.27027 -8.648649 0
v -78.70271 -8.648649 0
v -78.70271 -8.216216 0
v -78.27027 -8.216216 0
v -78.70271 -8.648649 0
v -79.13514 -8.648649 0
v -79.13514 -8.216216 0
v -78.70271 -8.216216 0
v -79.13514 -8.648649 0
v -79.56757 -8.648649 0
v -79.56757 -8.216216 0
v -79.13514 -8.216216 0
v -79.56757 -8.648649 0
v -80 -8.648649 0
v -80 -8.216216 0
v -79.56757 -8.216216 0
v -80 -8.648649 0
v -80.43243 -8.648649 0
v -80.43243 -8.216216 0
v -80 -8.216216 0
v -80.43243 -8.648649 0
v -80.86487 -8.648649 0
v -80.86487 -8.216216 0
v -80.43243 -8.216216 0
v -80.86487 -8.648649 0
v -81.2973 -8.648649 0
v -81.2973 -8.216216 0
v -80.86487 -8.216216 0
v -81.2973 -8.648649 0
v -81.72973 -8.648649 0
v -81.72973 -8.216216 0
v -81.2973 -8.216216 0
v -81.72973 -8.648649 0
v -82.16216 -8.648649 0
v -82.16216 -8.216216 0
v -81.72973 -8.216216 0
v -82.16216 -8.648649 0
v -82.5946 -8.648649 0
v -82.5946 -8.216216 0
v -82.16216 -8.216216 0
v -82.5946 -8.648649 0
v -83.02703 -8.648649 0
v -83.02703 -8.216216 0
v -82.5946 -8.216216 0
v -83.02703 -8.648649 0
v -83.45947 -8.648649 0
v -83.45947 -8.216216 0
v -83.02703 -8.216216 0
v -83.45947 -8.648649 0
v -83.89189 -8.648649 0
v -83.89189 -8.216216 0
v -83.45947 -8.216216 0
v -83.89189 -8.648649 0
v -84.32433 -8.648649 0
v -84.32433 -8.216216 0
v -83.89189 -8.216216 0
v -84.32433 -8.648649 0
v -84.75676 -8.648649 0
v -84.75676 -8.216216 0
v -84.32433 -8.216216 0
v -84.75676 -8.648649 0
v -85.18919 -8.648649 0
v -85.18919 -8.216216 0
v -84.75676 -8.216216 0
v -85.18919 -8.648649 0
v -85.62162 -8.648649 0
v -85.62162 -8.216216 0
v -85.18919 -8.216216 0
v -85.62162 -8.648649 0
v -86.05405 -8.648649 0
v -86.05405 -8.216216 0
v -85.62162 -8.216216 0
v -86.05405 -8.648649 0
v -86.48649 -8.648649 0
v -86.48649 -8.216216 0
v -86.05405 -8.216216 0
v -86.48649 -8.648649 0
v -86.91892 -8.648649 0
v -86.91892 -8.216216 0
v -86.48649 -8.216216 0
v -86.91892 -8.648649 0
v -87.35136 -8.648649 0
v -87.35136 -8.216216 0
v -86.91892 -8.216216 0
v -87.35136 -8.648649 0
v -87.78378 -8.648649 0
v -87.78378 -8.216216 0
v -87.35136 -8.216216 0
v -87.78378 -8.648649 0
v -88.21622 -8.648649 0
v -88.21622 -8.216216 0
v -87.78378 -8.216216 0
v -88.21622 -8.648649 0
v -88.64865 -8.648649 0
v -88.64865 -8.216216 0
v -88.21622 -8.216216 0
v -92.54054 -8.648649 0
v -92.97298 -8.648649 0
v -92.97298 -8.216216 0
v -92.54054 -8.216216 0
v -92.97298 -8.648649 0
v -93.40541 -8.648649 0
v -93.40541 -8.216216 0
v -92.97298 -8.216216 0

# Texture cooridinates (Count = 16)
vt 0.6251221 0.3751221
vt 0.7498779 0.3751221
vt 0.7498779 0.4998779
vt 0.6251221 0.4998779
vt 0.7501221 0.3751221
vt 0.8748779 0.3751221
vt 0.8748779 0.4998779
vt 0.7501221 0.4998779
vt 0.1251221 0.7501221
vt 0.2498779 0.7501221
vt 0.2498779 0.8748779
vt 0.1251221 0.8748779
vt 0.8748779 0.2501221
vt 0.7501221 0.2501221
vt 0.7501221 0.3748779
vt 0.8748779 0.3748779

# Normal
vn 0 0 -1

# Mesh description
g destroyer_mesh_0011

# Faces
f 1/1/1 2/2/1 3/3/1 4/4/1
f 5/1/1 6/2/1 7/3/1 8/4/1
f 9/1/1 10/2/1 11/3/1 12/4/1
f 13/1/1 14/2/1 15/3/1 16/4/1
f 17/1/1 18/2/1 19/3/1 20/4/1
f 21/1/1 22/2/1 23/3/1 24/4/1
f 25/1/1 26/2/1 27/3/1 28/4/1
f 29/1/1 30/2/1 31/3/1 32/4/1
f 33/1/1 34/2/1 35/3/1 36/4/1
f 37/1/1 38/2/1 39/3/1 40/4/1
f 41/1/1 42/2/1 43/3/1 44/4/1
f 45/1/1 46/2/1 47/3/1 48/4/1
f 49/1/1 50/2/1 51/3/1 52/4/1
f 53/1/1 54/2/1 55/3/1 56/4/1
f 57/1/1 58/2/1 59/3/1 60/4/1
f 61/1/1 62/2/1 63/3/1 64/4/1
f 65/1/1 66/2/1 67/3/1 68/4/1
f 69/1/1 70/2/1 71/3/1 72/4/1
f 73/1/1 74/2/1 75/3/1 76/4/1
f 77/1/1 78/2/1 79/3/1 80/4/1
f 81/1/1 82/2/1 83/3/1 84/4/1
f 85/1/1 86/2/1 87/3/1 88/4/1
f 89/5/1 90/6/1 91/7/1 92/8/1
f 93/5/1 94/6/1 95/7/1 96/8/1
f 97/5/1 98/6/1 99/7/1 100/8/1
f 101/5/1 102/6/1 103/7/1 104/8/1
f 105/1/1 106/2/1 107/3/1 108/4/1
f 109/1/1 110/2/1 111/3/1 112/4/1
f 113/1/1 114/2/1 115/3/1 116/4/1
f 117/1/1 118/2/1 119/3/1 120/4/1
f 121/1/1 122/2/1 123/3/1 124/4/1
f 125/1/1 126/2/1 127/3/1 128/4/1
f 129/1/1 130/2/1 131/3/1 132/4/1
f 133/1/1 134/2/1 135/3/1 136/4/1
f 137/1/1 138/2/1 139/3/1 140/4/1
f 141/1/1 142/2/1 143/3/1 144/4/1
f 145/1/1 146/2/1 147/3/1 148/4/1
f 149/6/1 150/5/1 151/8/1 152/7/1
f 153/5/1 154/6/1 155/7/1 156/8/1
f 157/5/1 158/6/1 159/7/1 160/8/1
f 161/5/1 162/6/1 163/7/1 164/8/1
f 165/5/1 166/6/1 167/7/1 168/8/1
f 169/5/1 170/6/1 171/7/1 172/8/1
f 173/1/1 174/2/1 175/3/1 176/4/1
f 177/1/1 178/2/1 179/3/1 180/4/1
f 181/1/1 182/2/1 183/3/1 184/4/1
f 185/1/1 186/2/1 187/3/1 188/4/1
f 189/1/1 190/2/1 191/3/1 192/4/1
f 193/1/1 194/2/1 195/3/1 196/4/1
f 197/1/1 198/2/1 199/3/1 200/4/1
f 201/1/1 202/2/1 203/3/1 204/4/1
f 205/1/1 206/2/1 207/3/1 208/4/1
f 209/1/1 210/2/1 211/3/1 212/4/1
f 213/1/1 214/2/1 215/3/1 216/4/1
f 217/6/1 218/5/1 219/8/1 220/7/1
f 221/5/1 222/6/1 223/7/1 224/8/1
f 225/5/1 226/6/1 227/7/1 228/8/1
f 229/5/1 230/6/1 231/7/1 232/8/1
f 233/5/1 234/6/1 235/7/1 236/8/1
f 237/5/1 238/6/1 239/7/1 240/8/1
f 241/1/1 242/2/1 243/3/1 244/4/1
f 245/1/1 246/2/1 247/3/1 248/4/1
f 249/1/1 250/2/1 251/3/1 252/4/1
f 253/1/1 254/2/1 255/3/1 256/4/1
f 257/1/1 258/2/1 259/3/1 260/4/1
f 261/1/1 262/2/1 263/3/1 264/4/1
f 265/1/1 266/2/1 267/3/1 268/4/1
f 269/1/1 270/2/1 271/3/1 272/4/1
f 273/1/1 274/2/1 275/3/1 276/4/1
f 277/1/1 278/2/1 279/3/1 280/4/1
f 281/1/1 282/2/1 283/3/1 284/4/1
f 285/6/1 286/5/1 287/8/1 288/7/1
f 289/5/1 290/6/1 291/7/1 292/8/1
f 293/5/1 294/6/1 295/7/1 296/8/1
f 297/5/1 298/6/1 299/7/1 300/8/1
f 301/5/1 302/6/1 303/7/1 304/8/1
f 305/5/1 306/6/1 307/7/1 308/8/1
f 309/5/1 310/6/1 311/7/1 312/8/1
f 313/5/1 314/6/1 315/7/1 316/8/1
f 317/6/1 318/5/1 319/8/1 320/7/1
f 321/6/1 322/5/1 323/8/1 324/7/1
f 325/5/1 326/6/1 327/7/1 328/8/1
f 329/5/1 330/6/1 331/7/1 332/8/1
f 333/5/1 334/6/1 335/7/1 336/8/1
f 337/5/1 338/6/1 339/7/1 340/8/1
f 341/5/1 342/6/1 343/7/1 344/8/1
f 345/5/1 346/6/1 347/7/1 348/8/1
f 349/5/1 350/6/1 351/7/1 352/8/1
f 353/5/1 354/6/1 355/7/1 356/8/1
f 357/5/1 358/6/1 359/7/1 360/8/1
f 361/6/1 362/5/1 363/8/1 364/7/1
f 365/6/1 366/5/1 367/8/1 368/7/1
f 369/6/1 370/5/1 371/8/1 372/7/1
f 373/6/1 374/5/1 375/8/1 376/7/1
f 377/6/1 378/5/1 379/8/1 380/7/1
f 381/1/1 382/2/1 383/3/1 384/4/1
f 385/1/1 386/2/1 387/3/1 388/4/1
f 389/1/1 390/2/1 391/3/1 392/4/1
f 393/1/1 394/2/1 395/3/1 396/4/1
f 397/2/1 398/1/1 399/4/1 400/3/1
f 401/2/1 402/1/1 403/4/1 404/3/1
f 405/2/1 406/1/1 407/4/1 408/3/1
f 409/5/1 410/6/1 411/7/1 412/8/1
f 413/5/1 414/6/1 415/7/1 416/8/1
f 417/5/1 418/6/1 419/7/1 420/8/1
f 421/5/1 422/6/1 423/7/1 424/8/1
f 425/5/1 426/6/1 427/7/1 428/8/1
f 429/5/1 430/6/1 431/7/1 432/8/1
f 433/5/1 434/6/1 435/7/1 436/8/1
f 437/5/1 438/6/1 439/7/1 440/8/1
f 441/5/1 442/6/1 443/7/1 444/8/1
f 445/5/1 446/6/1 447/7/1 448/8/1
f 449/5/1 450/6/1 451/7/1 452/8/1
f 453/5/1 454/6/1 455/7/1 456/8/1
f 457/5/1 458/6/1 459/7/1 460/8/1
f 461/6/1 462/5/1 463/8/1 464/7/1
f 465/6/1 466/5/1 467/8/1 468/7/1
f 469/6/1 470/5/1 471/8/1 472/7/1
f 473/6/1 474/5/1 475/8/1 476/7/1
f 477/6/1 478/5/1 479/8/1 480/7/1
f 481/6/1 482/5/1 483/8/1 484/7/1
f 485/6/1 486/5/1 487/8/1 488/7/1
f 489/6/1 490/5/1 491/8/1 492/7/1
f 493/6/1 494/5/1 495/8/1 496/7/1
f 497/6/1 498/5/1 499/8/1 500/7/1
f 501/6/1 502/5/1 503/8/1 504/7/1
f 505/6/1 506/5/1 507/8/1 508/7/1
f 509/6/1 510/5/1 511/8/1 512/7/1
f 513/6/1 514/5/1 515/8/1 516/7/1
f 517/6/1 518/5/1 519/8/1 520/7/1
f 521/6/1 522/5/1 523/8/1 524/7/1
f 525/6/1 526/5/1 527/8/1 528/7/1
f 529/6/1 530/5/1 531/8/1 532/7/1
f 533/6/1 534/5/1 535/8/1 536/7/1
f 537/6/1 538/5/1 539/8/1 540/7/1
f 541/6/1 542/5/1 543/8/1 544/7/1
f 545/6/1 546/5/1 547/8/1 548/7/1
f 549/6/1 550/5/1 551/8/1 552/7/1
f 553/6/1 554/5/1 555/8/1 556/7/1
f 557/6/1 558/5/1 559/8/1 560/7/1
f 561/9/1 562/10/1 563/11/1 564/12/1
f 565/10/1 566/9/1 567/12/1 568/11/1
f 569/1/1 570/2/1 571/3/1 572/4/1
f 573/1/1 574/2/1 575/3/1 576/4/1
f 577/1/1 578/2/1 579/3/1 580/4/1
f 581/1/1 582/2/1 583/3/1 584/4/1
f 585/2/1 586/1/1 587/4/1 588/3/1
f 589/2/1 590/1/1 591/4/1 592/3/1
f 593/2/1 594/1/1 595/4/1 596/3/1
f 597/5/1 598/6/1 599/7/1 600/8/1
f 601/5/1 602/6/1 603/7/1 604/8/1
f 605/5/1 606/6/1 607/7/1 608/8/1
f 609/5/1 610/6/1 611/7/1 612/8/1
f 613/5/1 614/6/1 615/7/1 616/8/1
f 617/5/1 618/6/1 619/7/1 620/8/1
f 621/5/1 622/6/1 623/7/1 624/8/1
f 625/5/1 626/6/1 627/7/1 628/8/1
f 629/5/1 630/6/1 631/7/1 632/8/1
f 633/5/1 634/6/1 635/7/1 636/8/1
f 637/5/1 638/6/1 639/7/1 640/8/1
f 641/5/1 642/6/1 643/7/1 644/8/1
f 645/5/1 646/6/1 647/7/1 648/8/1
f 649/5/1 650/6/1 651/7/1 652/8/1
f 653/5/1 654/6/1 655/7/1 656/8/1
f 657/5/1 658/6/1 659/7/1 660/8/1
f 661/5/1 662/6/1 663/7/1 664/8/1
f 665/5/1 666/6/1 667/7/1 668/8/1
f 669/5/1 670/6/1 671/7/1 672/8/1
f 673/5/1 674/6/1 675/7/1 676/8/1
f 677/5/1 678/6/1 679/7/1 680/8/1
f 681/5/1 682/6/1 683/7/1 684/8/1
f 685/5/1 686/6/1 687/7/1 688/8/1
f 689/5/1 690/6/1 691/7/1 692/8/1
f 693/5/1 694/6/1 695/7/1 696/8/1
f 697/5/1 698/6/1 699/7/1 700/8/1
f 701/5/1 702/6/1 703/7/1 704/8/1
f 705/5/1 706/6/1 707/7/1 708/8/1
f 709/5/1 710/6/1 711/7/1 712/8/1
f 713/5/1 714/6/1 715/7/1 716/8/1
f 717/5/1 718/6/1 719/7/1 720/8/1
f 721/5/1 722/6/1 723/7/1 724/8/1
f 725/5/1 726/6/1 727/7/1 728/8/1
f 729/13/1 730/14/1 731/15/1 732/16/1
f 733/13/1 734/14/1 735/15/1 736/16/1

