# Tiled2Unity generated file. Do not modify by hand.
# Wavefront file for 'destroyer_mesh_0014.obj'

# Vertices (Count = 488)
v -15.56757 -5.621622 0
v -16 -5.621622 0
v -16 -5.189189 0
v -15.56757 -5.189189 0
v -16 -5.621622 0
v -16.43243 -5.621622 0
v -16.43243 -5.189189 0
v -16 -5.189189 0
v -16.43243 -5.621622 0
v -16.86486 -5.621622 0
v -16.86486 -5.189189 0
v -16.43243 -5.189189 0
v -16.86486 -5.621622 0
v -17.2973 -5.621622 0
v -17.2973 -5.189189 0
v -16.86486 -5.189189 0
v -17.2973 -5.621622 0
v -17.72973 -5.621622 0
v -17.72973 -5.189189 0
v -17.2973 -5.189189 0
v -17.72973 -5.621622 0
v -18.16216 -5.621622 0
v -18.16216 -5.189189 0
v -17.72973 -5.189189 0
v -18.16216 -5.621622 0
v -18.59459 -5.621622 0
v -18.59459 -5.189189 0
v -18.16216 -5.189189 0
v -18.59459 -5.621622 0
v -19.02703 -5.621622 0
v -19.02703 -5.189189 0
v -18.59459 -5.189189 0
v -19.02703 -5.621622 0
v -19.45946 -5.621622 0
v -19.45946 -5.189189 0
v -19.02703 -5.189189 0
v -19.45946 -5.621622 0
v -19.89189 -5.621622 0
v -19.89189 -5.189189 0
v -19.45946 -5.189189 0
v -19.89189 -5.621622 0
v -20.32433 -5.621622 0
v -20.32433 -5.189189 0
v -19.89189 -5.189189 0
v -20.32433 -5.621622 0
v -20.75676 -5.621622 0
v -20.75676 -5.189189 0
v -20.32433 -5.189189 0
v -20.75676 -5.621622 0
v -21.18919 -5.621622 0
v -21.18919 -5.189189 0
v -20.75676 -5.189189 0
v -21.18919 -5.621622 0
v -21.62162 -5.621622 0
v -21.62162 -5.189189 0
v -21.18919 -5.189189 0
v -21.62162 -5.621622 0
v -22.05405 -5.621622 0
v -22.05405 -5.189189 0
v -21.62162 -5.189189 0
v -22.05405 -5.621622 0
v -22.48649 -5.621622 0
v -22.48649 -5.189189 0
v -22.05405 -5.189189 0
v -6.486486 -6.054054 0
v -6.918919 -6.054054 0
v -6.918919 -5.621622 0
v -6.486486 -5.621622 0
v -6.918919 -6.054054 0
v -7.351352 -6.054054 0
v -7.351352 -5.621622 0
v -6.918919 -5.621622 0
v -7.351352 -6.054054 0
v -7.783784 -6.054054 0
v -7.783784 -5.621622 0
v -7.351352 -5.621622 0
v -7.783784 -6.054054 0
v -8.216216 -6.054054 0
v -8.216216 -5.621622 0
v -7.783784 -5.621622 0
v -8.216216 -6.054054 0
v -8.648649 -6.054054 0
v -8.648649 -5.621622 0
v -8.216216 -5.621622 0
v -8.648649 -6.054054 0
v -9.081081 -6.054054 0
v -9.081081 -5.621622 0
v -8.648649 -5.621622 0
v -9.081081 -6.054054 0
v -9.513514 -6.054054 0
v -9.513514 -5.621622 0
v -9.081081 -5.621622 0
v -9.513514 -6.054054 0
v -9.945946 -6.054054 0
v -9.945946 -5.621622 0
v -9.513514 -5.621622 0
v -9.945946 -6.054054 0
v -10.37838 -6.054054 0
v -10.37838 -5.621622 0
v -9.945946 -5.621622 0
v -10.37838 -6.054054 0
v -10.81081 -6.054054 0
v -10.81081 -5.621622 0
v -10.37838 -5.621622 0
v -10.81081 -6.054054 0
v -11.24324 -6.054054 0
v -11.24324 -5.621622 0
v -10.81081 -5.621622 0
v -11.24324 -6.054054 0
v -11.67568 -6.054054 0
v -11.67568 -5.621622 0
v -11.24324 -5.621622 0
v -11.67568 -6.054054 0
v -12.10811 -6.054054 0
v -12.10811 -5.621622 0
v -11.67568 -5.621622 0
v -12.10811 -6.054054 0
v -12.54054 -6.054054 0
v -12.54054 -5.621622 0
v -12.10811 -5.621622 0
v -12.54054 -6.054054 0
v -12.97297 -6.054054 0
v -12.97297 -5.621622 0
v -12.54054 -5.621622 0
v -12.97297 -6.054054 0
v -13.40541 -6.054054 0
v -13.40541 -5.621622 0
v -12.97297 -5.621622 0
v -15.56757 -6.054054 0
v -16 -6.054054 0
v -16 -5.621622 0
v -15.56757 -5.621622 0
v -16 -6.054054 0
v -16.43243 -6.054054 0
v -16.43243 -5.621622 0
v -16 -5.621622 0
v -16.43243 -6.054054 0
v -16.86486 -6.054054 0
v -16.86486 -5.621622 0
v -16.43243 -5.621622 0
v -16.86486 -6.054054 0
v -17.2973 -6.054054 0
v -17.2973 -5.621622 0
v -16.86486 -5.621622 0
v -17.2973 -6.054054 0
v -17.72973 -6.054054 0
v -17.72973 -5.621622 0
v -17.2973 -5.621622 0
v -17.72973 -6.054054 0
v -18.16216 -6.054054 0
v -18.16216 -5.621622 0
v -17.72973 -5.621622 0
v -18.16216 -6.054054 0
v -18.59459 -6.054054 0
v -18.59459 -5.621622 0
v -18.16216 -5.621622 0
v -18.59459 -6.054054 0
v -19.02703 -6.054054 0
v -19.02703 -5.621622 0
v -18.59459 -5.621622 0
v -19.02703 -6.054054 0
v -19.45946 -6.054054 0
v -19.45946 -5.621622 0
v -19.02703 -5.621622 0
v -19.45946 -6.054054 0
v -19.89189 -6.054054 0
v -19.89189 -5.621622 0
v -19.45946 -5.621622 0
v -19.89189 -6.054054 0
v -20.32433 -6.054054 0
v -20.32433 -5.621622 0
v -19.89189 -5.621622 0
v -20.32433 -6.054054 0
v -20.75676 -6.054054 0
v -20.75676 -5.621622 0
v -20.32433 -5.621622 0
v -20.75676 -6.054054 0
v -21.18919 -6.054054 0
v -21.18919 -5.621622 0
v -20.75676 -5.621622 0
v -21.18919 -6.054054 0
v -21.62162 -6.054054 0
v -21.62162 -5.621622 0
v -21.18919 -5.621622 0
v -21.62162 -6.054054 0
v -22.05405 -6.054054 0
v -22.05405 -5.621622 0
v -21.62162 -5.621622 0
v -22.05405 -6.054054 0
v -22.48649 -6.054054 0
v -22.48649 -5.621622 0
v -22.05405 -5.621622 0
v -6.486486 -6.486486 0
v -6.918919 -6.486486 0
v -6.918919 -6.054054 0
v -6.486486 -6.054054 0
v -6.918919 -6.486486 0
v -7.351352 -6.486486 0
v -7.351352 -6.054054 0
v -6.918919 -6.054054 0
v -7.351352 -6.486486 0
v -7.783784 -6.486486 0
v -7.783784 -6.054054 0
v -7.351352 -6.054054 0
v -7.783784 -6.486486 0
v -8.216216 -6.486486 0
v -8.216216 -6.054054 0
v -7.783784 -6.054054 0
v -8.216216 -6.486486 0
v -8.648649 -6.486486 0
v -8.648649 -6.054054 0
v -8.216216 -6.054054 0
v -8.648649 -6.486486 0
v -9.081081 -6.486486 0
v -9.081081 -6.054054 0
v -8.648649 -6.054054 0
v -9.081081 -6.486486 0
v -9.513514 -6.486486 0
v -9.513514 -6.054054 0
v -9.081081 -6.054054 0
v -9.513514 -6.486486 0
v -9.945946 -6.486486 0
v -9.945946 -6.054054 0
v -9.513514 -6.054054 0
v -9.945946 -6.486486 0
v -10.37838 -6.486486 0
v -10.37838 -6.054054 0
v -9.945946 -6.054054 0
v -10.37838 -6.486486 0
v -10.81081 -6.486486 0
v -10.81081 -6.054054 0
v -10.37838 -6.054054 0
v -10.81081 -6.486486 0
v -11.24324 -6.486486 0
v -11.24324 -6.054054 0
v -10.81081 -6.054054 0
v -11.24324 -6.486486 0
v -11.67568 -6.486486 0
v -11.67568 -6.054054 0
v -11.24324 -6.054054 0
v -11.67568 -6.486486 0
v -12.10811 -6.486486 0
v -12.10811 -6.054054 0
v -11.67568 -6.054054 0
v -12.10811 -6.486486 0
v -12.54054 -6.486486 0
v -12.54054 -6.054054 0
v -12.10811 -6.054054 0
v -12.54054 -6.486486 0
v -12.97297 -6.486486 0
v -12.97297 -6.054054 0
v -12.54054 -6.054054 0
v -12.97297 -6.486486 0
v -13.40541 -6.486486 0
v -13.40541 -6.054054 0
v -12.97297 -6.054054 0
v -15.56757 -6.486486 0
v -16 -6.486486 0
v -16 -6.054054 0
v -15.56757 -6.054054 0
v -16 -6.486486 0
v -16.43243 -6.486486 0
v -16.43243 -6.054054 0
v -16 -6.054054 0
v -16.43243 -6.486486 0
v -16.86486 -6.486486 0
v -16.86486 -6.054054 0
v -16.43243 -6.054054 0
v -16.86486 -6.486486 0
v -17.2973 -6.486486 0
v -17.2973 -6.054054 0
v -16.86486 -6.054054 0
v -17.2973 -6.486486 0
v -17.72973 -6.486486 0
v -17.72973 -6.054054 0
v -17.2973 -6.054054 0
v -17.72973 -6.486486 0
v -18.16216 -6.486486 0
v -18.16216 -6.054054 0
v -17.72973 -6.054054 0
v -18.16216 -6.486486 0
v -18.59459 -6.486486 0
v -18.59459 -6.054054 0
v -18.16216 -6.054054 0
v -18.59459 -6.486486 0
v -19.02703 -6.486486 0
v -19.02703 -6.054054 0
v -18.59459 -6.054054 0
v -19.02703 -6.486486 0
v -19.45946 -6.486486 0
v -19.45946 -6.054054 0
v -19.02703 -6.054054 0
v -19.45946 -6.486486 0
v -19.89189 -6.486486 0
v -19.89189 -6.054054 0
v -19.45946 -6.054054 0
v -19.89189 -6.486486 0
v -20.32433 -6.486486 0
v -20.32433 -6.054054 0
v -19.89189 -6.054054 0
v -20.32433 -6.486486 0
v -20.75676 -6.486486 0
v -20.75676 -6.054054 0
v -20.32433 -6.054054 0
v -20.75676 -6.486486 0
v -21.18919 -6.486486 0
v -21.18919 -6.054054 0
v -20.75676 -6.054054 0
v -21.18919 -6.486486 0
v -21.62162 -6.486486 0
v -21.62162 -6.054054 0
v -21.18919 -6.054054 0
v -22.05405 -6.486486 0
v -22.48649 -6.486486 0
v -22.48649 -6.054054 0
v -22.05405 -6.054054 0
v -6.486486 -6.918919 0
v -6.918919 -6.918919 0
v -6.918919 -6.486486 0
v -6.486486 -6.486486 0
v -6.918919 -6.918919 0
v -7.351352 -6.918919 0
v -7.351352 -6.486486 0
v -6.918919 -6.486486 0
v -7.351352 -6.918919 0
v -7.783784 -6.918919 0
v -7.783784 -6.486486 0
v -7.351352 -6.486486 0
v -7.783784 -6.918919 0
v -8.216216 -6.918919 0
v -8.216216 -6.486486 0
v -7.783784 -6.486486 0
v -8.216216 -6.918919 0
v -8.648649 -6.918919 0
v -8.648649 -6.486486 0
v -8.216216 -6.486486 0
v -8.648649 -6.918919 0
v -9.081081 -6.918919 0
v -9.081081 -6.486486 0
v -8.648649 -6.486486 0
v -9.081081 -6.918919 0
v -9.513514 -6.918919 0
v -9.513514 -6.486486 0
v -9.081081 -6.486486 0
v -9.513514 -6.918919 0
v -9.945946 -6.918919 0
v -9.945946 -6.486486 0
v -9.513514 -6.486486 0
v -9.945946 -6.918919 0
v -10.37838 -6.918919 0
v -10.37838 -6.486486 0
v -9.945946 -6.486486 0
v -10.37838 -6.918919 0
v -10.81081 -6.918919 0
v -10.81081 -6.486486 0
v -10.37838 -6.486486 0
v -10.81081 -6.918919 0
v -11.24324 -6.918919 0
v -11.24324 -6.486486 0
v -10.81081 -6.486486 0
v -11.24324 -6.918919 0
v -11.67568 -6.918919 0
v -11.67568 -6.486486 0
v -11.24324 -6.486486 0
v -11.67568 -6.918919 0
v -12.10811 -6.918919 0
v -12.10811 -6.486486 0
v -11.67568 -6.486486 0
v -12.10811 -6.918919 0
v -12.54054 -6.918919 0
v -12.54054 -6.486486 0
v -12.10811 -6.486486 0
v -12.97297 -6.918919 0
v -13.40541 -6.918919 0
v -13.40541 -6.486486 0
v -12.97297 -6.486486 0
v 0 -7.351352 0
v -0.4324324 -7.351352 0
v -0.4324324 -6.918919 0
v 0 -6.918919 0
v -0.4324324 -7.351352 0
v -0.8648649 -7.351352 0
v -0.8648649 -6.918919 0
v -0.4324324 -6.918919 0
v -0.8648649 -7.351352 0
v -1.297297 -7.351352 0
v -1.297297 -6.918919 0
v -0.8648649 -6.918919 0
v -1.297297 -7.351352 0
v -1.72973 -7.351352 0
v -1.72973 -6.918919 0
v -1.297297 -6.918919 0
v -1.72973 -7.351352 0
v -2.162162 -7.351352 0
v -2.162162 -6.918919 0
v -1.72973 -6.918919 0
v -2.162162 -7.351352 0
v -2.594595 -7.351352 0
v -2.594595 -6.918919 0
v -2.162162 -6.918919 0
v -2.594595 -7.351352 0
v -3.027027 -7.351352 0
v -3.027027 -6.918919 0
v -2.594595 -6.918919 0
v -3.027027 -7.351352 0
v -3.45946 -7.351352 0
v -3.45946 -6.918919 0
v -3.027027 -6.918919 0
v -3.45946 -7.351352 0
v -3.891892 -7.351352 0
v -3.891892 -6.918919 0
v -3.45946 -6.918919 0
v 0 -7.783784 0
v -0.4324324 -7.783784 0
v -0.4324324 -7.351352 0
v 0 -7.351352 0
v -0.4324324 -7.783784 0
v -0.8648649 -7.783784 0
v -0.8648649 -7.351352 0
v -0.4324324 -7.351352 0
v -0.8648649 -7.783784 0
v -1.297297 -7.783784 0
v -1.297297 -7.351352 0
v -0.8648649 -7.351352 0
v -1.297297 -7.783784 0
v -1.72973 -7.783784 0
v -1.72973 -7.351352 0
v -1.297297 -7.351352 0
v -1.72973 -7.783784 0
v -2.162162 -7.783784 0
v -2.162162 -7.351352 0
v -1.72973 -7.351352 0
v -2.162162 -7.783784 0
v -2.594595 -7.783784 0
v -2.594595 -7.351352 0
v -2.162162 -7.351352 0
v -2.594595 -7.783784 0
v -3.027027 -7.783784 0
v -3.027027 -7.351352 0
v -2.594595 -7.351352 0
v -3.027027 -7.783784 0
v -3.45946 -7.783784 0
v -3.45946 -7.351352 0
v -3.027027 -7.351352 0
v -3.45946 -7.783784 0
v -3.891892 -7.783784 0
v -3.891892 -7.351352 0
v -3.45946 -7.351352 0
v 0 -8.216216 0
v -0.4324324 -8.216216 0
v -0.4324324 -7.783784 0
v 0 -7.783784 0
v -0.4324324 -8.216216 0
v -0.8648649 -8.216216 0
v -0.8648649 -7.783784 0
v -0.4324324 -7.783784 0
v -0.8648649 -8.216216 0
v -1.297297 -8.216216 0
v -1.297297 -7.783784 0
v -0.8648649 -7.783784 0
v -1.297297 -8.216216 0
v -1.72973 -8.216216 0
v -1.72973 -7.783784 0
v -1.297297 -7.783784 0
v -1.72973 -8.216216 0
v -2.162162 -8.216216 0
v -2.162162 -7.783784 0
v -1.72973 -7.783784 0
v -2.162162 -8.216216 0
v -2.594595 -8.216216 0
v -2.594595 -7.783784 0
v -2.162162 -7.783784 0
v -2.594595 -8.216216 0
v -3.027027 -8.216216 0
v -3.027027 -7.783784 0
v -2.594595 -7.783784 0
v -3.027027 -8.216216 0
v -3.45946 -8.216216 0
v -3.45946 -7.783784 0
v -3.027027 -7.783784 0
v -3.45946 -8.216216 0
v -3.891892 -8.216216 0
v -3.891892 -7.783784 0
v -3.45946 -7.783784 0
v -19.89189 -9.081081 0
v -20.32433 -9.081081 0
v -20.32433 -8.648649 0
v -19.89189 -8.648649 0

# Texture cooridinates (Count = 104)
vt 0.0001220703 0.8334554
vt 0.08321127 0.8334554
vt 0.08321127 0.9165446
vt 0.0001220703 0.9165446
vt 0.08345541 0.8334554
vt 0.1665446 0.8334554
vt 0.1665446 0.9165446
vt 0.08345541 0.9165446
vt 0.2498779 0.8334554
vt 0.1667887 0.8334554
vt 0.1667887 0.9165446
vt 0.2498779 0.9165446
vt 0.3332113 0.8334554
vt 0.2501221 0.8334554
vt 0.2501221 0.9165446
vt 0.3332113 0.9165446
vt 0.3334554 0.8334554
vt 0.4165446 0.8334554
vt 0.4165446 0.9165446
vt 0.3334554 0.9165446
vt 0.4167887 0.8334554
vt 0.4998779 0.8334554
vt 0.4998779 0.9165446
vt 0.4167887 0.9165446
vt 0.1667887 0.1667888
vt 0.2498779 0.1667888
vt 0.2498779 0.2498779
vt 0.1667887 0.2498779
vt 0.2501221 0.1667888
vt 0.3332113 0.1667888
vt 0.3332113 0.2498779
vt 0.2501221 0.2498779
vt 0.5832112 0.8334554
vt 0.5001221 0.8334554
vt 0.5001221 0.9165446
vt 0.5832112 0.9165446
vt 0.0001220703 0.7501221
vt 0.08321127 0.7501221
vt 0.08321127 0.8332112
vt 0.0001220703 0.8332112
vt 0.08345541 0.7501221
vt 0.1665446 0.7501221
vt 0.1665446 0.8332112
vt 0.08345541 0.8332112
vt 0.2498779 0.7501221
vt 0.1667887 0.7501221
vt 0.1667887 0.8332112
vt 0.2498779 0.8332112
vt 0.3332113 0.7501221
vt 0.2501221 0.7501221
vt 0.2501221 0.8332112
vt 0.3332113 0.8332112
vt 0.3334554 0.7501221
vt 0.4165446 0.7501221
vt 0.4165446 0.8332112
vt 0.3334554 0.8332112
vt 0.4167887 0.7501221
vt 0.4998779 0.7501221
vt 0.4998779 0.8332112
vt 0.4167887 0.8332112
vt 0.1667887 0.08345538
vt 0.2498779 0.08345538
vt 0.2498779 0.1665446
vt 0.1667887 0.1665446
vt 0.2501221 0.08345538
vt 0.3332113 0.08345538
vt 0.3332113 0.1665446
vt 0.2501221 0.1665446
vt 0.5832112 0.7501221
vt 0.5001221 0.7501221
vt 0.5001221 0.8332112
vt 0.5832112 0.8332112
vt 0.0001220703 0.6667887
vt 0.08321127 0.6667887
vt 0.08321127 0.7498779
vt 0.0001220703 0.7498779
vt 0.08345541 0.6667887
vt 0.1665446 0.6667887
vt 0.1665446 0.7498779
vt 0.08345541 0.7498779
vt 0.2498779 0.6667887
vt 0.1667887 0.6667887
vt 0.1667887 0.7498779
vt 0.2498779 0.7498779
vt 0.3332113 0.6667887
vt 0.2501221 0.6667887
vt 0.2501221 0.7498779
vt 0.3332113 0.7498779
vt 0.4167887 0.6667887
vt 0.4998779 0.6667887
vt 0.4998779 0.7498779
vt 0.4167887 0.7498779
vt 0.1667887 0.0001220703
vt 0.2498779 0.0001220703
vt 0.2498779 0.08321124
vt 0.1667887 0.08321124
vt 0.2501221 0.0001220703
vt 0.3332113 0.0001220703
vt 0.3332113 0.08321124
vt 0.2501221 0.08321124
vt 0.5832112 0.6667887
vt 0.5001221 0.6667887
vt 0.5001221 0.7498779
vt 0.5832112 0.7498779

# Normal
vn 0 0 -1

# Mesh description
g destroyer_mesh_0014

# Faces
f 1/1/1 2/2/1 3/3/1 4/4/1
f 5/5/1 6/6/1 7/7/1 8/8/1
f 9/9/1 10/10/1 11/11/1 12/12/1
f 13/13/1 14/14/1 15/15/1 16/16/1
f 17/9/1 18/10/1 19/11/1 20/12/1
f 21/13/1 22/14/1 23/15/1 24/16/1
f 25/9/1 26/10/1 27/11/1 28/12/1
f 29/9/1 30/10/1 31/11/1 32/12/1
f 33/13/1 34/14/1 35/15/1 36/16/1
f 37/9/1 38/10/1 39/11/1 40/12/1
f 41/9/1 42/10/1 43/11/1 44/12/1
f 45/13/1 46/14/1 47/15/1 48/16/1
f 49/9/1 50/10/1 51/11/1 52/12/1
f 53/13/1 54/14/1 55/15/1 56/16/1
f 57/17/1 58/18/1 59/19/1 60/20/1
f 61/21/1 62/22/1 63/23/1 64/24/1
f 65/25/1 66/26/1 67/27/1 68/28/1
f 69/29/1 70/30/1 71/31/1 72/32/1
f 73/25/1 74/26/1 75/27/1 76/28/1
f 77/29/1 78/30/1 79/31/1 80/32/1
f 81/25/1 82/26/1 83/27/1 84/28/1
f 85/29/1 86/30/1 87/31/1 88/32/1
f 89/33/1 90/34/1 91/35/1 92/36/1
f 93/10/1 94/9/1 95/12/1 96/11/1
f 97/14/1 98/13/1 99/16/1 100/15/1
f 101/10/1 102/9/1 103/12/1 104/11/1
f 105/14/1 106/13/1 107/16/1 108/15/1
f 109/10/1 110/9/1 111/12/1 112/11/1
f 113/10/1 114/9/1 115/12/1 116/11/1
f 117/14/1 118/13/1 119/16/1 120/15/1
f 121/17/1 122/18/1 123/19/1 124/20/1
f 125/21/1 126/22/1 127/23/1 128/24/1
f 129/37/1 130/38/1 131/39/1 132/40/1
f 133/41/1 134/42/1 135/43/1 136/44/1
f 137/45/1 138/46/1 139/47/1 140/48/1
f 141/49/1 142/50/1 143/51/1 144/52/1
f 145/45/1 146/46/1 147/47/1 148/48/1
f 149/49/1 150/50/1 151/51/1 152/52/1
f 153/45/1 154/46/1 155/47/1 156/48/1
f 157/45/1 158/46/1 159/47/1 160/48/1
f 161/49/1 162/50/1 163/51/1 164/52/1
f 165/45/1 166/46/1 167/47/1 168/48/1
f 169/45/1 170/46/1 171/47/1 172/48/1
f 173/49/1 174/50/1 175/51/1 176/52/1
f 177/45/1 178/46/1 179/47/1 180/48/1
f 181/49/1 182/50/1 183/51/1 184/52/1
f 185/53/1 186/54/1 187/55/1 188/56/1
f 189/57/1 190/58/1 191/59/1 192/60/1
f 193/61/1 194/62/1 195/63/1 196/64/1
f 197/65/1 198/66/1 199/67/1 200/68/1
f 201/61/1 202/62/1 203/63/1 204/64/1
f 205/65/1 206/66/1 207/67/1 208/68/1
f 209/61/1 210/62/1 211/63/1 212/64/1
f 213/65/1 214/66/1 215/67/1 216/68/1
f 217/69/1 218/70/1 219/71/1 220/72/1
f 221/46/1 222/45/1 223/48/1 224/47/1
f 225/50/1 226/49/1 227/52/1 228/51/1
f 229/46/1 230/45/1 231/48/1 232/47/1
f 233/50/1 234/49/1 235/52/1 236/51/1
f 237/46/1 238/45/1 239/48/1 240/47/1
f 241/46/1 242/45/1 243/48/1 244/47/1
f 245/50/1 246/49/1 247/52/1 248/51/1
f 249/53/1 250/54/1 251/55/1 252/56/1
f 253/57/1 254/58/1 255/59/1 256/60/1
f 257/73/1 258/74/1 259/75/1 260/76/1
f 261/77/1 262/78/1 263/79/1 264/80/1
f 265/81/1 266/82/1 267/83/1 268/84/1
f 269/85/1 270/86/1 271/87/1 272/88/1
f 273/81/1 274/82/1 275/83/1 276/84/1
f 277/85/1 278/86/1 279/87/1 280/88/1
f 281/81/1 282/82/1 283/83/1 284/84/1
f 285/81/1 286/82/1 287/83/1 288/84/1
f 289/85/1 290/86/1 291/87/1 292/88/1
f 293/81/1 294/82/1 295/83/1 296/84/1
f 297/81/1 298/82/1 299/83/1 300/84/1
f 301/85/1 302/86/1 303/87/1 304/88/1
f 305/81/1 306/82/1 307/83/1 308/84/1
f 309/85/1 310/86/1 311/87/1 312/88/1
f 313/89/1 314/90/1 315/91/1 316/92/1
f 317/93/1 318/94/1 319/95/1 320/96/1
f 321/97/1 322/98/1 323/99/1 324/100/1
f 325/93/1 326/94/1 327/95/1 328/96/1
f 329/97/1 330/98/1 331/99/1 332/100/1
f 333/93/1 334/94/1 335/95/1 336/96/1
f 337/97/1 338/98/1 339/99/1 340/100/1
f 341/101/1 342/102/1 343/103/1 344/104/1
f 345/82/1 346/81/1 347/84/1 348/83/1
f 349/86/1 350/85/1 351/88/1 352/87/1
f 353/82/1 354/81/1 355/84/1 356/83/1
f 357/86/1 358/85/1 359/88/1 360/87/1
f 361/82/1 362/81/1 363/84/1 364/83/1
f 365/82/1 366/81/1 367/84/1 368/83/1
f 369/86/1 370/85/1 371/88/1 372/87/1
f 373/89/1 374/90/1 375/91/1 376/92/1
f 377/25/1 378/26/1 379/27/1 380/28/1
f 381/25/1 382/26/1 383/27/1 384/28/1
f 385/25/1 386/26/1 387/27/1 388/28/1
f 389/25/1 390/26/1 391/27/1 392/28/1
f 393/25/1 394/26/1 395/27/1 396/28/1
f 397/25/1 398/26/1 399/27/1 400/28/1
f 401/29/1 402/30/1 403/31/1 404/32/1
f 405/25/1 406/26/1 407/27/1 408/28/1
f 409/29/1 410/30/1 411/31/1 412/32/1
f 413/61/1 414/62/1 415/63/1 416/64/1
f 417/61/1 418/62/1 419/63/1 420/64/1
f 421/61/1 422/62/1 423/63/1 424/64/1
f 425/61/1 426/62/1 427/63/1 428/64/1
f 429/61/1 430/62/1 431/63/1 432/64/1
f 433/61/1 434/62/1 435/63/1 436/64/1
f 437/65/1 438/66/1 439/67/1 440/68/1
f 441/61/1 442/62/1 443/63/1 444/64/1
f 445/65/1 446/66/1 447/67/1 448/68/1
f 449/93/1 450/94/1 451/95/1 452/96/1
f 453/93/1 454/94/1 455/95/1 456/96/1
f 457/93/1 458/94/1 459/95/1 460/96/1
f 461/93/1 462/94/1 463/95/1 464/96/1
f 465/93/1 466/94/1 467/95/1 468/96/1
f 469/93/1 470/94/1 471/95/1 472/96/1
f 473/97/1 474/98/1 475/99/1 476/100/1
f 477/93/1 478/94/1 479/95/1 480/96/1
f 481/97/1 482/98/1 483/99/1 484/100/1
f 485/90/1 486/89/1 487/92/1 488/91/1

