# Tiled2Unity generated file. Do not modify by hand.
# Wavefront file for 'destroyer_mesh_0020.obj'

# Vertices (Count = 16)
v -6.486486 -3.027027 0
v -6.918919 -3.027027 0
v -6.918919 -2.594595 0
v -6.486486 -2.594595 0
v -6.918919 -3.027027 0
v -7.351352 -3.027027 0
v -7.351352 -2.594595 0
v -6.918919 -2.594595 0
v -4.756757 -4.324325 0
v -5.189189 -4.324325 0
v -5.189189 -3.891892 0
v -4.756757 -3.891892 0
v -8.648649 -4.324325 0
v -9.081081 -4.324325 0
v -9.081081 -3.891892 0
v -8.648649 -3.891892 0

# Texture cooridinates (Count = 16)
vt 0.1819403 0.6667887
vt 0.2271507 0.6667887
vt 0.2271507 0.8332112
vt 0.1819403 0.8332112
vt 0.2273948 0.6667887
vt 0.2726052 0.6667887
vt 0.2726052 0.8332112
vt 0.2273948 0.8332112
vt 0.0001220703 0.1667888
vt 0.04533248 0.1667888
vt 0.04533248 0.3332112
vt 0.0001220703 0.3332112
vt 0.5001221 0.1667888
vt 0.5453325 0.1667888
vt 0.5453325 0.3332112
vt 0.5001221 0.3332112

# Normal
vn 0 0 -1

# Mesh description
g destroyer_mesh_0020

# Faces
f 1/1/1 2/2/1 3/3/1 4/4/1
f 5/5/1 6/6/1 7/7/1 8/8/1
f 9/9/1 10/10/1 11/11/1 12/12/1
f 13/13/1 14/14/1 15/15/1 16/16/1

