# Tiled2Unity generated file. Do not modify by hand.
# Wavefront file for 'village_mesh_0001.obj'

# Vertices (Count = 32)
v -528 -192 0
v -544 -192 0
v -544 -176 0
v -528 -176 0
v -544 -192 0
v -560 -192 0
v -560 -176 0
v -544 -176 0
v -560 -192 0
v -576 -192 0
v -576 -176 0
v -560 -176 0
v -576 -192 0
v -592 -192 0
v -592 -176 0
v -576 -176 0
v -528 -208 0
v -544 -208 0
v -544 -192 0
v -528 -192 0
v -544 -208 0
v -560 -208 0
v -560 -192 0
v -544 -192 0
v -560 -208 0
v -576 -208 0
v -576 -192 0
v -560 -192 0
v -576 -208 0
v -592 -208 0
v -592 -192 0
v -576 -192 0

# Texture cooridinates (Count = 32)
vt 0.0001220703 0.9376221
vt 0.03321126 0.9376221
vt 0.03321126 0.9998779
vt 0.0001220703 0.9998779
vt 0.03345541 0.9376221
vt 0.0665446 0.9376221
vt 0.0665446 0.9998779
vt 0.03345541 0.9998779
vt 0.06678874 0.9376221
vt 0.09987793 0.9376221
vt 0.09987793 0.9998779
vt 0.06678874 0.9998779
vt 0.1001221 0.9376221
vt 0.1332113 0.9376221
vt 0.1332113 0.9998779
vt 0.1001221 0.9998779
vt 0.0001220703 0.8751221
vt 0.03321126 0.8751221
vt 0.03321126 0.9373779
vt 0.0001220703 0.9373779
vt 0.03345541 0.8751221
vt 0.0665446 0.8751221
vt 0.0665446 0.9373779
vt 0.03345541 0.9373779
vt 0.06678874 0.8751221
vt 0.09987793 0.8751221
vt 0.09987793 0.9373779
vt 0.06678874 0.9373779
vt 0.1001221 0.8751221
vt 0.1332113 0.8751221
vt 0.1332113 0.9373779
vt 0.1001221 0.9373779

# Normal
vn 0 0 -1

# Mesh description
g village_mesh_0001

# Faces
f 1/1/1 2/2/1 3/3/1 4/4/1
f 5/5/1 6/6/1 7/7/1 8/8/1
f 9/9/1 10/10/1 11/11/1 12/12/1
f 13/13/1 14/14/1 15/15/1 16/16/1
f 17/17/1 18/18/1 19/19/1 20/20/1
f 21/21/1 22/22/1 23/23/1 24/24/1
f 25/25/1 26/26/1 27/27/1 28/28/1
f 29/29/1 30/30/1 31/31/1 32/32/1

