# Tiled2Unity generated file. Do not modify by hand.
# Wavefront file for 'intro_mesh_0001.obj'

# Vertices (Count = 420)
v -16 -64 0
v -32 -64 0
v -32 -48 0
v -16 -48 0
v -32 -64 0
v -48 -64 0
v -48 -48 0
v -32 -48 0
v -48 -64 0
v -64 -64 0
v -64 -48 0
v -48 -48 0
v -64 -64 0
v -80 -64 0
v -80 -48 0
v -64 -48 0
v -80 -64 0
v -96 -64 0
v -96 -48 0
v -80 -48 0
v -96 -64 0
v -112 -64 0
v -112 -48 0
v -96 -48 0
v -112 -64 0
v -128 -64 0
v -128 -48 0
v -112 -48 0
v -128 -64 0
v -144 -64 0
v -144 -48 0
v -128 -48 0
v -144 -64 0
v -160 -64 0
v -160 -48 0
v -144 -48 0
v -160 -64 0
v -176 -64 0
v -176 -48 0
v -160 -48 0
v -176 -64 0
v -192 -64 0
v -192 -48 0
v -176 -48 0
v -192 -64 0
v -208 -64 0
v -208 -48 0
v -192 -48 0
v -208 -64 0
v -224 -64 0
v -224 -48 0
v -208 -48 0
v -224 -64 0
v -240 -64 0
v -240 -48 0
v -224 -48 0
v -240 -64 0
v -256 -64 0
v -256 -48 0
v -240 -48 0
v -256 -64 0
v -272 -64 0
v -272 -48 0
v -256 -48 0
v -272 -64 0
v -288 -64 0
v -288 -48 0
v -272 -48 0
v -288 -64 0
v -304 -64 0
v -304 -48 0
v -288 -48 0
v -304 -64 0
v -320 -64 0
v -320 -48 0
v -304 -48 0
v -320 -64 0
v -336 -64 0
v -336 -48 0
v -320 -48 0
v -336 -64 0
v -352 -64 0
v -352 -48 0
v -336 -48 0
v -352 -64 0
v -368 -64 0
v -368 -48 0
v -352 -48 0
v -368 -64 0
v -384 -64 0
v -384 -48 0
v -368 -48 0
v -384 -64 0
v -400 -64 0
v -400 -48 0
v -384 -48 0
v -400 -64 0
v -416 -64 0
v -416 -48 0
v -400 -48 0
v -416 -64 0
v -432 -64 0
v -432 -48 0
v -416 -48 0
v -432 -64 0
v -448 -64 0
v -448 -48 0
v -432 -48 0
v -448 -64 0
v -464 -64 0
v -464 -48 0
v -448 -48 0
v -464 -64 0
v -480 -64 0
v -480 -48 0
v -464 -48 0
v -480 -64 0
v -496 -64 0
v -496 -48 0
v -480 -48 0
v -496 -64 0
v -512 -64 0
v -512 -48 0
v -496 -48 0
v -512 -64 0
v -528 -64 0
v -528 -48 0
v -512 -48 0
v -528 -64 0
v -544 -64 0
v -544 -48 0
v -528 -48 0
v -544 -64 0
v -560 -64 0
v -560 -48 0
v -544 -48 0
v -560 -64 0
v -576 -64 0
v -576 -48 0
v -560 -48 0
v -16 -80 0
v -32 -80 0
v -32 -64 0
v -16 -64 0
v -32 -80 0
v -48 -80 0
v -48 -64 0
v -32 -64 0
v -48 -80 0
v -64 -80 0
v -64 -64 0
v -48 -64 0
v -64 -80 0
v -80 -80 0
v -80 -64 0
v -64 -64 0
v -80 -80 0
v -96 -80 0
v -96 -64 0
v -80 -64 0
v -96 -80 0
v -112 -80 0
v -112 -64 0
v -96 -64 0
v -112 -80 0
v -128 -80 0
v -128 -64 0
v -112 -64 0
v -128 -80 0
v -144 -80 0
v -144 -64 0
v -128 -64 0
v -144 -80 0
v -160 -80 0
v -160 -64 0
v -144 -64 0
v -160 -80 0
v -176 -80 0
v -176 -64 0
v -160 -64 0
v -176 -80 0
v -192 -80 0
v -192 -64 0
v -176 -64 0
v -192 -80 0
v -208 -80 0
v -208 -64 0
v -192 -64 0
v -208 -80 0
v -224 -80 0
v -224 -64 0
v -208 -64 0
v -224 -80 0
v -240 -80 0
v -240 -64 0
v -224 -64 0
v -240 -80 0
v -256 -80 0
v -256 -64 0
v -240 -64 0
v -256 -80 0
v -272 -80 0
v -272 -64 0
v -256 -64 0
v -272 -80 0
v -288 -80 0
v -288 -64 0
v -272 -64 0
v -288 -80 0
v -304 -80 0
v -304 -64 0
v -288 -64 0
v -304 -80 0
v -320 -80 0
v -320 -64 0
v -304 -64 0
v -320 -80 0
v -336 -80 0
v -336 -64 0
v -320 -64 0
v -336 -80 0
v -352 -80 0
v -352 -64 0
v -336 -64 0
v -352 -80 0
v -368 -80 0
v -368 -64 0
v -352 -64 0
v -368 -80 0
v -384 -80 0
v -384 -64 0
v -368 -64 0
v -384 -80 0
v -400 -80 0
v -400 -64 0
v -384 -64 0
v -400 -80 0
v -416 -80 0
v -416 -64 0
v -400 -64 0
v -416 -80 0
v -432 -80 0
v -432 -64 0
v -416 -64 0
v -432 -80 0
v -448 -80 0
v -448 -64 0
v -432 -64 0
v -448 -80 0
v -464 -80 0
v -464 -64 0
v -448 -64 0
v -464 -80 0
v -480 -80 0
v -480 -64 0
v -464 -64 0
v -480 -80 0
v -496 -80 0
v -496 -64 0
v -480 -64 0
v -496 -80 0
v -512 -80 0
v -512 -64 0
v -496 -64 0
v -512 -80 0
v -528 -80 0
v -528 -64 0
v -512 -64 0
v -528 -80 0
v -544 -80 0
v -544 -64 0
v -528 -64 0
v -544 -80 0
v -560 -80 0
v -560 -64 0
v -544 -64 0
v -560 -80 0
v -576 -80 0
v -576 -64 0
v -560 -64 0
v -16 -96 0
v -32 -96 0
v -32 -80 0
v -16 -80 0
v -32 -96 0
v -48 -96 0
v -48 -80 0
v -32 -80 0
v -48 -96 0
v -64 -96 0
v -64 -80 0
v -48 -80 0
v -64 -96 0
v -80 -96 0
v -80 -80 0
v -64 -80 0
v -80 -96 0
v -96 -96 0
v -96 -80 0
v -80 -80 0
v -96 -96 0
v -112 -96 0
v -112 -80 0
v -96 -80 0
v -112 -96 0
v -128 -96 0
v -128 -80 0
v -112 -80 0
v -128 -96 0
v -144 -96 0
v -144 -80 0
v -128 -80 0
v -144 -96 0
v -160 -96 0
v -160 -80 0
v -144 -80 0
v -160 -96 0
v -176 -96 0
v -176 -80 0
v -160 -80 0
v -176 -96 0
v -192 -96 0
v -192 -80 0
v -176 -80 0
v -192 -96 0
v -208 -96 0
v -208 -80 0
v -192 -80 0
v -208 -96 0
v -224 -96 0
v -224 -80 0
v -208 -80 0
v -224 -96 0
v -240 -96 0
v -240 -80 0
v -224 -80 0
v -240 -96 0
v -256 -96 0
v -256 -80 0
v -240 -80 0
v -256 -96 0
v -272 -96 0
v -272 -80 0
v -256 -80 0
v -272 -96 0
v -288 -96 0
v -288 -80 0
v -272 -80 0
v -288 -96 0
v -304 -96 0
v -304 -80 0
v -288 -80 0
v -304 -96 0
v -320 -96 0
v -320 -80 0
v -304 -80 0
v -320 -96 0
v -336 -96 0
v -336 -80 0
v -320 -80 0
v -336 -96 0
v -352 -96 0
v -352 -80 0
v -336 -80 0
v -352 -96 0
v -368 -96 0
v -368 -80 0
v -352 -80 0
v -368 -96 0
v -384 -96 0
v -384 -80 0
v -368 -80 0
v -384 -96 0
v -400 -96 0
v -400 -80 0
v -384 -80 0
v -400 -96 0
v -416 -96 0
v -416 -80 0
v -400 -80 0
v -416 -96 0
v -432 -96 0
v -432 -80 0
v -416 -80 0
v -432 -96 0
v -448 -96 0
v -448 -80 0
v -432 -80 0
v -448 -96 0
v -464 -96 0
v -464 -80 0
v -448 -80 0
v -464 -96 0
v -480 -96 0
v -480 -80 0
v -464 -80 0
v -480 -96 0
v -496 -96 0
v -496 -80 0
v -480 -80 0
v -496 -96 0
v -512 -96 0
v -512 -80 0
v -496 -80 0
v -512 -96 0
v -528 -96 0
v -528 -80 0
v -512 -80 0
v -528 -96 0
v -544 -96 0
v -544 -80 0
v -528 -80 0
v -544 -96 0
v -560 -96 0
v -560 -80 0
v -544 -80 0
v -560 -96 0
v -576 -96 0
v -576 -80 0
v -560 -80 0

# Texture cooridinates (Count = 48)
vt 0.0001220703 0.5001221
vt 0.08321127 0.5001221
vt 0.08321127 0.5832113
vt 0.0001220703 0.5832113
vt 0.08345541 0.5001221
vt 0.1665446 0.5001221
vt 0.1665446 0.5832113
vt 0.08345541 0.5832113
vt 0.1667887 0.5001221
vt 0.2498779 0.5001221
vt 0.2498779 0.5832113
vt 0.1667887 0.5832113
vt 0.2501221 0.5001221
vt 0.3332113 0.5001221
vt 0.3332113 0.5832113
vt 0.2501221 0.5832113
vt 0.0001220703 0.4167888
vt 0.08321127 0.4167888
vt 0.08321127 0.4998779
vt 0.0001220703 0.4998779
vt 0.08345541 0.4167888
vt 0.1665446 0.4167888
vt 0.1665446 0.4998779
vt 0.08345541 0.4998779
vt 0.1667887 0.4167888
vt 0.2498779 0.4167888
vt 0.2498779 0.4998779
vt 0.1667887 0.4998779
vt 0.2501221 0.4167888
vt 0.3332113 0.4167888
vt 0.3332113 0.4998779
vt 0.2501221 0.4998779
vt 0.0001220703 0.3334554
vt 0.08321127 0.3334554
vt 0.08321127 0.4165446
vt 0.0001220703 0.4165446
vt 0.08345541 0.3334554
vt 0.1665446 0.3334554
vt 0.1665446 0.4165446
vt 0.08345541 0.4165446
vt 0.1667887 0.3334554
vt 0.2498779 0.3334554
vt 0.2498779 0.4165446
vt 0.1667887 0.4165446
vt 0.2501221 0.3334554
vt 0.3332113 0.3334554
vt 0.3332113 0.4165446
vt 0.2501221 0.4165446

# Normal
vn 0 0 -1

# Mesh description
g intro_mesh_0001

# Faces
f 1/1/1 2/2/1 3/3/1 4/4/1
f 5/5/1 6/6/1 7/7/1 8/8/1
f 9/9/1 10/10/1 11/11/1 12/12/1
f 13/9/1 14/10/1 15/11/1 16/12/1
f 17/9/1 18/10/1 19/11/1 20/12/1
f 21/9/1 22/10/1 23/11/1 24/12/1
f 25/9/1 26/10/1 27/11/1 28/12/1
f 29/9/1 30/10/1 31/11/1 32/12/1
f 33/9/1 34/10/1 35/11/1 36/12/1
f 37/9/1 38/10/1 39/11/1 40/12/1
f 41/9/1 42/10/1 43/11/1 44/12/1
f 45/9/1 46/10/1 47/11/1 48/12/1
f 49/9/1 50/10/1 51/11/1 52/12/1
f 53/9/1 54/10/1 55/11/1 56/12/1
f 57/9/1 58/10/1 59/11/1 60/12/1
f 61/9/1 62/10/1 63/11/1 64/12/1
f 65/9/1 66/10/1 67/11/1 68/12/1
f 69/9/1 70/10/1 71/11/1 72/12/1
f 73/9/1 74/10/1 75/11/1 76/12/1
f 77/9/1 78/10/1 79/11/1 80/12/1
f 81/9/1 82/10/1 83/11/1 84/12/1
f 85/9/1 86/10/1 87/11/1 88/12/1
f 89/9/1 90/10/1 91/11/1 92/12/1
f 93/13/1 94/14/1 95/15/1 96/16/1
f 97/9/1 98/10/1 99/11/1 100/12/1
f 101/9/1 102/10/1 103/11/1 104/12/1
f 105/9/1 106/10/1 107/11/1 108/12/1
f 109/9/1 110/10/1 111/11/1 112/12/1
f 113/9/1 114/10/1 115/11/1 116/12/1
f 117/9/1 118/10/1 119/11/1 120/12/1
f 121/9/1 122/10/1 123/11/1 124/12/1
f 125/9/1 126/10/1 127/11/1 128/12/1
f 129/9/1 130/10/1 131/11/1 132/12/1
f 133/9/1 134/10/1 135/11/1 136/12/1
f 137/13/1 138/14/1 139/15/1 140/16/1
f 141/17/1 142/18/1 143/19/1 144/20/1
f 145/21/1 146/22/1 147/23/1 148/24/1
f 149/25/1 150/26/1 151/27/1 152/28/1
f 153/25/1 154/26/1 155/27/1 156/28/1
f 157/25/1 158/26/1 159/27/1 160/28/1
f 161/25/1 162/26/1 163/27/1 164/28/1
f 165/25/1 166/26/1 167/27/1 168/28/1
f 169/25/1 170/26/1 171/27/1 172/28/1
f 173/25/1 174/26/1 175/27/1 176/28/1
f 177/25/1 178/26/1 179/27/1 180/28/1
f 181/25/1 182/26/1 183/27/1 184/28/1
f 185/25/1 186/26/1 187/27/1 188/28/1
f 189/25/1 190/26/1 191/27/1 192/28/1
f 193/25/1 194/26/1 195/27/1 196/28/1
f 197/25/1 198/26/1 199/27/1 200/28/1
f 201/25/1 202/26/1 203/27/1 204/28/1
f 205/25/1 206/26/1 207/27/1 208/28/1
f 209/25/1 210/26/1 211/27/1 212/28/1
f 213/25/1 214/26/1 215/27/1 216/28/1
f 217/25/1 218/26/1 219/27/1 220/28/1
f 221/25/1 222/26/1 223/27/1 224/28/1
f 225/25/1 226/26/1 227/27/1 228/28/1
f 229/25/1 230/26/1 231/27/1 232/28/1
f 233/29/1 234/30/1 235/31/1 236/32/1
f 237/25/1 238/26/1 239/27/1 240/28/1
f 241/25/1 242/26/1 243/27/1 244/28/1
f 245/25/1 246/26/1 247/27/1 248/28/1
f 249/25/1 250/26/1 251/27/1 252/28/1
f 253/25/1 254/26/1 255/27/1 256/28/1
f 257/25/1 258/26/1 259/27/1 260/28/1
f 261/25/1 262/26/1 263/27/1 264/28/1
f 265/25/1 266/26/1 267/27/1 268/28/1
f 269/25/1 270/26/1 271/27/1 272/28/1
f 273/25/1 274/26/1 275/27/1 276/28/1
f 277/29/1 278/30/1 279/31/1 280/32/1
f 281/33/1 282/34/1 283/35/1 284/36/1
f 285/37/1 286/38/1 287/39/1 288/40/1
f 289/41/1 290/42/1 291/43/1 292/44/1
f 293/41/1 294/42/1 295/43/1 296/44/1
f 297/41/1 298/42/1 299/43/1 300/44/1
f 301/41/1 302/42/1 303/43/1 304/44/1
f 305/41/1 306/42/1 307/43/1 308/44/1
f 309/41/1 310/42/1 311/43/1 312/44/1
f 313/41/1 314/42/1 315/43/1 316/44/1
f 317/41/1 318/42/1 319/43/1 320/44/1
f 321/41/1 322/42/1 323/43/1 324/44/1
f 325/41/1 326/42/1 327/43/1 328/44/1
f 329/41/1 330/42/1 331/43/1 332/44/1
f 333/41/1 334/42/1 335/43/1 336/44/1
f 337/41/1 338/42/1 339/43/1 340/44/1
f 341/41/1 342/42/1 343/43/1 344/44/1
f 345/41/1 346/42/1 347/43/1 348/44/1
f 349/41/1 350/42/1 351/43/1 352/44/1
f 353/41/1 354/42/1 355/43/1 356/44/1
f 357/41/1 358/42/1 359/43/1 360/44/1
f 361/41/1 362/42/1 363/43/1 364/44/1
f 365/41/1 366/42/1 367/43/1 368/44/1
f 369/41/1 370/42/1 371/43/1 372/44/1
f 373/45/1 374/46/1 375/47/1 376/48/1
f 377/41/1 378/42/1 379/43/1 380/44/1
f 381/41/1 382/42/1 383/43/1 384/44/1
f 385/41/1 386/42/1 387/43/1 388/44/1
f 389/41/1 390/42/1 391/43/1 392/44/1
f 393/41/1 394/42/1 395/43/1 396/44/1
f 397/41/1 398/42/1 399/43/1 400/44/1
f 401/41/1 402/42/1 403/43/1 404/44/1
f 405/41/1 406/42/1 407/43/1 408/44/1
f 409/41/1 410/42/1 411/43/1 412/44/1
f 413/41/1 414/42/1 415/43/1 416/44/1
f 417/45/1 418/46/1 419/47/1 420/48/1

