# Tiled2Unity generated file. Do not modify by hand.
# Wavefront file for 'responbility_mesh_0007.obj'

# Vertices (Count = 56)
v -8.216216 -2.162162 0
v -8.648649 -2.162162 0
v -8.648649 -1.72973 0
v -8.216216 -1.72973 0
v -8.648649 -2.162162 0
v -9.081081 -2.162162 0
v -9.081081 -1.72973 0
v -8.648649 -1.72973 0
v -9.081081 -2.162162 0
v -9.513514 -2.162162 0
v -9.513514 -1.72973 0
v -9.081081 -1.72973 0
v -50.5946 -4.756757 0
v -51.02703 -4.756757 0
v -51.02703 -4.324325 0
v -50.5946 -4.324325 0
v -51.02703 -4.756757 0
v -51.45946 -4.756757 0
v -51.45946 -4.324325 0
v -51.02703 -4.324325 0
v -55.35135 -4.756757 0
v -55.78379 -4.756757 0
v -55.78379 -4.324325 0
v -55.35135 -4.324325 0
v -55.78379 -4.756757 0
v -56.21622 -4.756757 0
v -56.21622 -4.324325 0
v -55.78379 -4.324325 0
v -56.21622 -4.756757 0
v -56.64865 -4.756757 0
v -56.64865 -4.324325 0
v -56.21622 -4.324325 0
v -50.5946 -5.189189 0
v -51.02703 -5.189189 0
v -51.02703 -4.756757 0
v -50.5946 -4.756757 0
v -56.21622 -5.189189 0
v -56.64865 -5.189189 0
v -56.64865 -4.756757 0
v -56.21622 -4.756757 0
v -48.86486 -5.621622 0
v -49.2973 -5.621622 0
v -49.2973 -5.189189 0
v -48.86486 -5.189189 0
v -49.2973 -5.621622 0
v -49.72973 -5.621622 0
v -49.72973 -5.189189 0
v -49.2973 -5.189189 0
v -57.51352 -5.621622 0
v -57.94595 -5.621622 0
v -57.94595 -5.189189 0
v -57.51352 -5.189189 0
v -57.94595 -5.621622 0
v -58.37838 -5.621622 0
v -58.37838 -5.189189 0
v -57.94595 -5.189189 0

# Texture cooridinates (Count = 28)
vt 0.9998779 0.8001221
vt 0.9167888 0.8001221
vt 0.9167888 0.8998779
vt 0.9998779 0.8998779
vt 0.9165446 0.8001221
vt 0.8334554 0.8001221
vt 0.8334554 0.8998779
vt 0.9165446 0.8998779
vt 0.8332112 0.8001221
vt 0.7501221 0.8001221
vt 0.7501221 0.8998779
vt 0.8332112 0.8998779
vt 0.3334554 0.8001221
vt 0.4165446 0.8001221
vt 0.4165446 0.8998779
vt 0.3334554 0.8998779
vt 0.4167887 0.8001221
vt 0.4998779 0.8001221
vt 0.4998779 0.8998779
vt 0.4167887 0.8998779
vt 0.5832112 0.8001221
vt 0.5001221 0.8001221
vt 0.5001221 0.8998779
vt 0.5832112 0.8998779
vt 0.3334554 0.7001221
vt 0.4165446 0.7001221
vt 0.4165446 0.7998779
vt 0.3334554 0.7998779

# Normal
vn 0 0 -1

# Mesh description
g responbility_mesh_0007

# Faces
f 1/1/1 2/2/1 3/3/1 4/4/1
f 5/5/1 6/6/1 7/7/1 8/8/1
f 9/9/1 10/10/1 11/11/1 12/12/1
f 13/13/1 14/14/1 15/15/1 16/16/1
f 17/17/1 18/18/1 19/19/1 20/20/1
f 21/21/1 22/22/1 23/23/1 24/24/1
f 25/18/1 26/17/1 27/20/1 28/19/1
f 29/14/1 30/13/1 31/16/1 32/15/1
f 33/25/1 34/26/1 35/27/1 36/28/1
f 37/26/1 38/25/1 39/28/1 40/27/1
f 41/13/1 42/14/1 43/15/1 44/16/1
f 45/17/1 46/18/1 47/19/1 48/20/1
f 49/18/1 50/17/1 51/20/1 52/19/1
f 53/14/1 54/13/1 55/16/1 56/15/1

