# Tiled2Unity generated file. Do not modify by hand.
# Wavefront file for 'responbility_mesh_0010.obj'

# Vertices (Count = 252)
v -3.891892 -4.324325 0
v -4.324325 -4.324325 0
v -4.324325 -3.891892 0
v -3.891892 -3.891892 0
v -4.324325 -4.324325 0
v -4.756757 -4.324325 0
v -4.756757 -3.891892 0
v -4.324325 -3.891892 0
v -3.891892 -4.756757 0
v -4.324325 -4.756757 0
v -4.324325 -4.324325 0
v -3.891892 -4.324325 0
v -4.324325 -4.756757 0
v -4.756757 -4.756757 0
v -4.756757 -4.324325 0
v -4.324325 -4.324325 0
v -4.756757 -4.756757 0
v -5.189189 -4.756757 0
v -5.189189 -4.324325 0
v -4.756757 -4.324325 0
v -5.189189 -4.756757 0
v -5.621622 -4.756757 0
v -5.621622 -4.324325 0
v -5.189189 -4.324325 0
v -5.621622 -4.756757 0
v -6.054054 -4.756757 0
v -6.054054 -4.324325 0
v -5.621622 -4.324325 0
v -6.054054 -4.756757 0
v -6.486486 -4.756757 0
v -6.486486 -4.324325 0
v -6.054054 -4.324325 0
v -3.891892 -5.189189 0
v -4.324325 -5.189189 0
v -4.324325 -4.756757 0
v -3.891892 -4.756757 0
v -4.324325 -5.189189 0
v -4.756757 -5.189189 0
v -4.756757 -4.756757 0
v -4.324325 -4.756757 0
v -4.756757 -5.189189 0
v -5.189189 -5.189189 0
v -5.189189 -4.756757 0
v -4.756757 -4.756757 0
v -5.189189 -5.189189 0
v -5.621622 -5.189189 0
v -5.621622 -4.756757 0
v -5.189189 -4.756757 0
v -5.621622 -5.189189 0
v -6.054054 -5.189189 0
v -6.054054 -4.756757 0
v -5.621622 -4.756757 0
v -6.054054 -5.189189 0
v -6.486486 -5.189189 0
v -6.486486 -4.756757 0
v -6.054054 -4.756757 0
v 0 -5.621622 0
v -0.4324324 -5.621622 0
v -0.4324324 -5.189189 0
v 0 -5.189189 0
v -0.4324324 -5.621622 0
v -0.8648649 -5.621622 0
v -0.8648649 -5.189189 0
v -0.4324324 -5.189189 0
v -0.8648649 -5.621622 0
v -1.297297 -5.621622 0
v -1.297297 -5.189189 0
v -0.8648649 -5.189189 0
v -1.297297 -5.621622 0
v -1.72973 -5.621622 0
v -1.72973 -5.189189 0
v -1.297297 -5.189189 0
v -1.72973 -5.621622 0
v -2.162162 -5.621622 0
v -2.162162 -5.189189 0
v -1.72973 -5.189189 0
v -2.162162 -5.621622 0
v -2.594595 -5.621622 0
v -2.594595 -5.189189 0
v -2.162162 -5.189189 0
v -2.594595 -5.621622 0
v -3.027027 -5.621622 0
v -3.027027 -5.189189 0
v -2.594595 -5.189189 0
v -3.027027 -5.621622 0
v -3.45946 -5.621622 0
v -3.45946 -5.189189 0
v -3.027027 -5.189189 0
v -3.45946 -5.621622 0
v -3.891892 -5.621622 0
v -3.891892 -5.189189 0
v -3.45946 -5.189189 0
v -3.891892 -5.621622 0
v -4.324325 -5.621622 0
v -4.324325 -5.189189 0
v -3.891892 -5.189189 0
v -4.324325 -5.621622 0
v -4.756757 -5.621622 0
v -4.756757 -5.189189 0
v -4.324325 -5.189189 0
v -4.756757 -5.621622 0
v -5.189189 -5.621622 0
v -5.189189 -5.189189 0
v -4.756757 -5.189189 0
v -5.189189 -5.621622 0
v -5.621622 -5.621622 0
v -5.621622 -5.189189 0
v -5.189189 -5.189189 0
v -5.621622 -5.621622 0
v -6.054054 -5.621622 0
v -6.054054 -5.189189 0
v -5.621622 -5.189189 0
v -6.054054 -5.621622 0
v -6.486486 -5.621622 0
v -6.486486 -5.189189 0
v -6.054054 -5.189189 0
v -6.486486 -5.621622 0
v -6.918919 -5.621622 0
v -6.918919 -5.189189 0
v -6.486486 -5.189189 0
v -6.918919 -5.621622 0
v -7.351352 -5.621622 0
v -7.351352 -5.189189 0
v -6.918919 -5.189189 0
v -7.351352 -5.621622 0
v -7.783784 -5.621622 0
v -7.783784 -5.189189 0
v -7.351352 -5.189189 0
v -7.783784 -5.621622 0
v -8.216216 -5.621622 0
v -8.216216 -5.189189 0
v -7.783784 -5.189189 0
v -3.891892 -6.054054 0
v -4.324325 -6.054054 0
v -4.324325 -5.621622 0
v -3.891892 -5.621622 0
v -4.324325 -6.054054 0
v -4.756757 -6.054054 0
v -4.756757 -5.621622 0
v -4.324325 -5.621622 0
v -4.756757 -6.054054 0
v -5.189189 -6.054054 0
v -5.189189 -5.621622 0
v -4.756757 -5.621622 0
v -5.189189 -6.054054 0
v -5.621622 -6.054054 0
v -5.621622 -5.621622 0
v -5.189189 -5.621622 0
v -5.621622 -6.054054 0
v -6.054054 -6.054054 0
v -6.054054 -5.621622 0
v -5.621622 -5.621622 0
v -6.054054 -6.054054 0
v -6.486486 -6.054054 0
v -6.486486 -5.621622 0
v -6.054054 -5.621622 0
v -6.486486 -6.054054 0
v -6.918919 -6.054054 0
v -6.918919 -5.621622 0
v -6.486486 -5.621622 0
v -6.918919 -6.054054 0
v -7.351352 -6.054054 0
v -7.351352 -5.621622 0
v -6.918919 -5.621622 0
v -7.351352 -6.054054 0
v -7.783784 -6.054054 0
v -7.783784 -5.621622 0
v -7.351352 -5.621622 0
v -7.783784 -6.054054 0
v -8.216216 -6.054054 0
v -8.216216 -5.621622 0
v -7.783784 -5.621622 0
v -3.891892 -6.486486 0
v -4.324325 -6.486486 0
v -4.324325 -6.054054 0
v -3.891892 -6.054054 0
v -4.324325 -6.486486 0
v -4.756757 -6.486486 0
v -4.756757 -6.054054 0
v -4.324325 -6.054054 0
v -4.756757 -6.486486 0
v -5.189189 -6.486486 0
v -5.189189 -6.054054 0
v -4.756757 -6.054054 0
v -5.189189 -6.486486 0
v -5.621622 -6.486486 0
v -5.621622 -6.054054 0
v -5.189189 -6.054054 0
v -5.621622 -6.486486 0
v -6.054054 -6.486486 0
v -6.054054 -6.054054 0
v -5.621622 -6.054054 0
v -6.054054 -6.486486 0
v -6.486486 -6.486486 0
v -6.486486 -6.054054 0
v -6.054054 -6.054054 0
v -6.486486 -6.486486 0
v -6.918919 -6.486486 0
v -6.918919 -6.054054 0
v -6.486486 -6.054054 0
v -6.918919 -6.486486 0
v -7.351352 -6.486486 0
v -7.351352 -6.054054 0
v -6.918919 -6.054054 0
v -7.351352 -6.486486 0
v -7.783784 -6.486486 0
v -7.783784 -6.054054 0
v -7.351352 -6.054054 0
v -7.783784 -6.486486 0
v -8.216216 -6.486486 0
v -8.216216 -6.054054 0
v -7.783784 -6.054054 0
v -3.891892 -6.918919 0
v -4.324325 -6.918919 0
v -4.324325 -6.486486 0
v -3.891892 -6.486486 0
v -4.324325 -6.918919 0
v -4.756757 -6.918919 0
v -4.756757 -6.486486 0
v -4.324325 -6.486486 0
v -4.756757 -6.918919 0
v -5.189189 -6.918919 0
v -5.189189 -6.486486 0
v -4.756757 -6.486486 0
v -5.189189 -6.918919 0
v -5.621622 -6.918919 0
v -5.621622 -6.486486 0
v -5.189189 -6.486486 0
v -5.621622 -6.918919 0
v -6.054054 -6.918919 0
v -6.054054 -6.486486 0
v -5.621622 -6.486486 0
v -6.054054 -6.918919 0
v -6.486486 -6.918919 0
v -6.486486 -6.486486 0
v -6.054054 -6.486486 0
v -6.486486 -6.918919 0
v -6.918919 -6.918919 0
v -6.918919 -6.486486 0
v -6.486486 -6.486486 0
v -6.918919 -6.918919 0
v -7.351352 -6.918919 0
v -7.351352 -6.486486 0
v -6.918919 -6.486486 0
v -7.351352 -6.918919 0
v -7.783784 -6.918919 0
v -7.783784 -6.486486 0
v -7.351352 -6.486486 0
v -7.783784 -6.918919 0
v -8.216216 -6.918919 0
v -8.216216 -6.486486 0
v -7.783784 -6.486486 0

# Texture cooridinates (Count = 72)
vt 0.8334554 0.7001221
vt 0.9165446 0.7001221
vt 0.9165446 0.7998779
vt 0.8334554 0.7998779
vt 0.9167888 0.7001221
vt 0.9998779 0.7001221
vt 0.9998779 0.7998779
vt 0.9167888 0.7998779
vt 0.8334554 0.6001221
vt 0.9165446 0.6001221
vt 0.9165446 0.6998779
vt 0.8334554 0.6998779
vt 0.9167888 0.6001221
vt 0.9998779 0.6001221
vt 0.9998779 0.6998779
vt 0.9167888 0.6998779
vt 0.6667888 0.8001221
vt 0.7498779 0.8001221
vt 0.7498779 0.8998779
vt 0.6667888 0.8998779
vt 0.7501221 0.8001221
vt 0.8332112 0.8001221
vt 0.8332112 0.8998779
vt 0.7501221 0.8998779
vt 0.8334554 0.8001221
vt 0.9165446 0.8001221
vt 0.9165446 0.8998779
vt 0.8334554 0.8998779
vt 0.9167888 0.8001221
vt 0.9998779 0.8001221
vt 0.9998779 0.8998779
vt 0.9167888 0.8998779
vt 0.8334554 0.5001221
vt 0.9165446 0.5001221
vt 0.9165446 0.599878
vt 0.8334554 0.599878
vt 0.9167888 0.5001221
vt 0.9998779 0.5001221
vt 0.9998779 0.599878
vt 0.9167888 0.599878
vt 0.6667888 0.7001221
vt 0.7498779 0.7001221
vt 0.7498779 0.7998779
vt 0.6667888 0.7998779
vt 0.7501221 0.7001221
vt 0.8332112 0.7001221
vt 0.8332112 0.7998779
vt 0.7501221 0.7998779
vt 0.6667888 0.5001221
vt 0.7498779 0.5001221
vt 0.7498779 0.599878
vt 0.6667888 0.599878
vt 0.7501221 0.5001221
vt 0.8332112 0.5001221
vt 0.8332112 0.599878
vt 0.7501221 0.599878
vt 0.6667888 0.6001221
vt 0.7498779 0.6001221
vt 0.7498779 0.6998779
vt 0.6667888 0.6998779
vt 0.7501221 0.6001221
vt 0.8332112 0.6001221
vt 0.8332112 0.6998779
vt 0.7501221 0.6998779
vt 0.6667888 0.400122
vt 0.7498779 0.400122
vt 0.7498779 0.4998779
vt 0.6667888 0.4998779
vt 0.7501221 0.400122
vt 0.8332112 0.400122
vt 0.8332112 0.4998779
vt 0.7501221 0.4998779

# Normal
vn 0 0 -1

# Mesh description
g responbility_mesh_0010

# Faces
f 1/1/1 2/2/1 3/3/1 4/4/1
f 5/5/1 6/6/1 7/7/1 8/8/1
f 9/9/1 10/10/1 11/11/1 12/12/1
f 13/13/1 14/14/1 15/15/1 16/16/1
f 17/17/1 18/18/1 19/19/1 20/20/1
f 21/21/1 22/22/1 23/23/1 24/24/1
f 25/25/1 26/26/1 27/27/1 28/28/1
f 29/29/1 30/30/1 31/31/1 32/32/1
f 33/33/1 34/34/1 35/35/1 36/36/1
f 37/37/1 38/38/1 39/39/1 40/40/1
f 41/41/1 42/42/1 43/43/1 44/44/1
f 45/45/1 46/46/1 47/47/1 48/48/1
f 49/1/1 50/2/1 51/3/1 52/4/1
f 53/5/1 54/6/1 55/7/1 56/8/1
f 57/49/1 58/50/1 59/51/1 60/52/1
f 61/49/1 62/50/1 63/51/1 64/52/1
f 65/49/1 66/50/1 67/51/1 68/52/1
f 69/49/1 70/50/1 71/51/1 72/52/1
f 73/49/1 74/50/1 75/51/1 76/52/1
f 77/49/1 78/50/1 79/51/1 80/52/1
f 81/49/1 82/50/1 83/51/1 84/52/1
f 85/49/1 86/50/1 87/51/1 88/52/1
f 89/53/1 90/54/1 91/55/1 92/56/1
f 93/49/1 94/50/1 95/51/1 96/52/1
f 97/53/1 98/54/1 99/55/1 100/56/1
f 101/57/1 102/58/1 103/59/1 104/60/1
f 105/61/1 106/62/1 107/63/1 108/64/1
f 109/9/1 110/10/1 111/11/1 112/12/1
f 113/13/1 114/14/1 115/15/1 116/16/1
f 117/17/1 118/18/1 119/19/1 120/20/1
f 121/21/1 122/22/1 123/23/1 124/24/1
f 125/25/1 126/26/1 127/27/1 128/28/1
f 129/29/1 130/30/1 131/31/1 132/32/1
f 133/65/1 134/66/1 135/67/1 136/68/1
f 137/69/1 138/70/1 139/71/1 140/72/1
f 141/49/1 142/50/1 143/51/1 144/52/1
f 145/53/1 146/54/1 147/55/1 148/56/1
f 149/33/1 150/34/1 151/35/1 152/36/1
f 153/37/1 154/38/1 155/39/1 156/40/1
f 157/41/1 158/42/1 159/43/1 160/44/1
f 161/45/1 162/46/1 163/47/1 164/48/1
f 165/1/1 166/2/1 167/3/1 168/4/1
f 169/5/1 170/6/1 171/7/1 172/8/1
f 173/65/1 174/66/1 175/67/1 176/68/1
f 177/65/1 178/66/1 179/67/1 180/68/1
f 181/65/1 182/66/1 183/67/1 184/68/1
f 185/65/1 186/66/1 187/67/1 188/68/1
f 189/65/1 190/66/1 191/67/1 192/68/1
f 193/69/1 194/70/1 195/71/1 196/72/1
f 197/57/1 198/58/1 199/59/1 200/60/1
f 201/61/1 202/62/1 203/63/1 204/64/1
f 205/9/1 206/10/1 207/11/1 208/12/1
f 209/13/1 210/14/1 211/15/1 212/16/1
f 213/65/1 214/66/1 215/67/1 216/68/1
f 217/65/1 218/66/1 219/67/1 220/68/1
f 221/65/1 222/66/1 223/67/1 224/68/1
f 225/65/1 226/66/1 227/67/1 228/68/1
f 229/65/1 230/66/1 231/67/1 232/68/1
f 233/69/1 234/70/1 235/71/1 236/72/1
f 237/49/1 238/50/1 239/51/1 240/52/1
f 241/53/1 242/54/1 243/55/1 244/56/1
f 245/33/1 246/34/1 247/35/1 248/36/1
f 249/37/1 250/38/1 251/39/1 252/40/1

