# Tiled2Unity generated file. Do not modify by hand.
# Wavefront file for 'responbility_mesh_0022.obj'

# Vertices (Count = 264)
v -8.216216 -4.324325 0
v -8.648649 -4.324325 0
v -8.648649 -3.891892 0
v -8.216216 -3.891892 0
v -8.648649 -4.324325 0
v -9.081081 -4.324325 0
v -9.081081 -3.891892 0
v -8.648649 -3.891892 0
v -44.54054 -4.756757 0
v -44.97297 -4.756757 0
v -44.97297 -4.324325 0
v -44.54054 -4.324325 0
v -44.97297 -4.756757 0
v -45.40541 -4.756757 0
v -45.40541 -4.324325 0
v -44.97297 -4.324325 0
v -33.2973 -6.054054 0
v -33.72973 -6.054054 0
v -33.72973 -5.621622 0
v -33.2973 -5.621622 0
v -33.72973 -6.054054 0
v -34.16216 -6.054054 0
v -34.16216 -5.621622 0
v -33.72973 -5.621622 0
v -34.16216 -6.054054 0
v -34.5946 -6.054054 0
v -34.5946 -5.621622 0
v -34.16216 -5.621622 0
v -34.5946 -6.054054 0
v -35.02703 -6.054054 0
v -35.02703 -5.621622 0
v -34.5946 -5.621622 0
v -35.02703 -6.054054 0
v -35.45946 -6.054054 0
v -35.45946 -5.621622 0
v -35.02703 -5.621622 0
v -35.45946 -6.054054 0
v -35.89189 -6.054054 0
v -35.89189 -5.621622 0
v -35.45946 -5.621622 0
v -35.89189 -6.054054 0
v -36.32433 -6.054054 0
v -36.32433 -5.621622 0
v -35.89189 -5.621622 0
v -36.32433 -6.054054 0
v -36.75676 -6.054054 0
v -36.75676 -5.621622 0
v -36.32433 -5.621622 0
v -37.62162 -6.054054 0
v -38.05405 -6.054054 0
v -38.05405 -5.621622 0
v -37.62162 -5.621622 0
v -38.05405 -6.054054 0
v -38.48649 -6.054054 0
v -38.48649 -5.621622 0
v -38.05405 -5.621622 0
v -38.48649 -6.054054 0
v -38.91892 -6.054054 0
v -38.91892 -5.621622 0
v -38.48649 -5.621622 0
v -38.91892 -6.054054 0
v -39.35135 -6.054054 0
v -39.35135 -5.621622 0
v -38.91892 -5.621622 0
v -39.35135 -6.054054 0
v -39.78378 -6.054054 0
v -39.78378 -5.621622 0
v -39.35135 -5.621622 0
v -39.78378 -6.054054 0
v -40.21622 -6.054054 0
v -40.21622 -5.621622 0
v -39.78378 -5.621622 0
v -33.2973 -6.486486 0
v -33.72973 -6.486486 0
v -33.72973 -6.054054 0
v -33.2973 -6.054054 0
v -33.72973 -6.486486 0
v -34.16216 -6.486486 0
v -34.16216 -6.054054 0
v -33.72973 -6.054054 0
v -34.16216 -6.486486 0
v -34.5946 -6.486486 0
v -34.5946 -6.054054 0
v -34.16216 -6.054054 0
v -34.5946 -6.486486 0
v -35.02703 -6.486486 0
v -35.02703 -6.054054 0
v -34.5946 -6.054054 0
v -35.02703 -6.486486 0
v -35.45946 -6.486486 0
v -35.45946 -6.054054 0
v -35.02703 -6.054054 0
v -35.45946 -6.486486 0
v -35.89189 -6.486486 0
v -35.89189 -6.054054 0
v -35.45946 -6.054054 0
v -35.89189 -6.486486 0
v -36.32433 -6.486486 0
v -36.32433 -6.054054 0
v -35.89189 -6.054054 0
v -36.32433 -6.486486 0
v -36.75676 -6.486486 0
v -36.75676 -6.054054 0
v -36.32433 -6.054054 0
v -36.75676 -6.486486 0
v -37.18919 -6.486486 0
v -37.18919 -6.054054 0
v -36.75676 -6.054054 0
v -37.18919 -6.486486 0
v -37.62162 -6.486486 0
v -37.62162 -6.054054 0
v -37.18919 -6.054054 0
v -37.62162 -6.486486 0
v -38.05405 -6.486486 0
v -38.05405 -6.054054 0
v -37.62162 -6.054054 0
v -38.05405 -6.486486 0
v -38.48649 -6.486486 0
v -38.48649 -6.054054 0
v -38.05405 -6.054054 0
v -38.48649 -6.486486 0
v -38.91892 -6.486486 0
v -38.91892 -6.054054 0
v -38.48649 -6.054054 0
v -38.91892 -6.486486 0
v -39.35135 -6.486486 0
v -39.35135 -6.054054 0
v -38.91892 -6.054054 0
v -39.35135 -6.486486 0
v -39.78378 -6.486486 0
v -39.78378 -6.054054 0
v -39.35135 -6.054054 0
v -39.78378 -6.486486 0
v -40.21622 -6.486486 0
v -40.21622 -6.054054 0
v -39.78378 -6.054054 0
v -33.2973 -6.918919 0
v -33.72973 -6.918919 0
v -33.72973 -6.486486 0
v -33.2973 -6.486486 0
v -33.72973 -6.918919 0
v -34.16216 -6.918919 0
v -34.16216 -6.486486 0
v -33.72973 -6.486486 0
v -34.16216 -6.918919 0
v -34.5946 -6.918919 0
v -34.5946 -6.486486 0
v -34.16216 -6.486486 0
v -34.5946 -6.918919 0
v -35.02703 -6.918919 0
v -35.02703 -6.486486 0
v -34.5946 -6.486486 0
v -35.02703 -6.918919 0
v -35.45946 -6.918919 0
v -35.45946 -6.486486 0
v -35.02703 -6.486486 0
v -35.45946 -6.918919 0
v -35.89189 -6.918919 0
v -35.89189 -6.486486 0
v -35.45946 -6.486486 0
v -35.89189 -6.918919 0
v -36.32433 -6.918919 0
v -36.32433 -6.486486 0
v -35.89189 -6.486486 0
v -36.32433 -6.918919 0
v -36.75676 -6.918919 0
v -36.75676 -6.486486 0
v -36.32433 -6.486486 0
v -36.75676 -6.918919 0
v -37.18919 -6.918919 0
v -37.18919 -6.486486 0
v -36.75676 -6.486486 0
v -37.18919 -6.918919 0
v -37.62162 -6.918919 0
v -37.62162 -6.486486 0
v -37.18919 -6.486486 0
v -37.62162 -6.918919 0
v -38.05405 -6.918919 0
v -38.05405 -6.486486 0
v -37.62162 -6.486486 0
v -38.05405 -6.918919 0
v -38.48649 -6.918919 0
v -38.48649 -6.486486 0
v -38.05405 -6.486486 0
v -38.48649 -6.918919 0
v -38.91892 -6.918919 0
v -38.91892 -6.486486 0
v -38.48649 -6.486486 0
v -38.91892 -6.918919 0
v -39.35135 -6.918919 0
v -39.35135 -6.486486 0
v -38.91892 -6.486486 0
v -39.35135 -6.918919 0
v -39.78378 -6.918919 0
v -39.78378 -6.486486 0
v -39.35135 -6.486486 0
v -39.78378 -6.918919 0
v -40.21622 -6.918919 0
v -40.21622 -6.486486 0
v -39.78378 -6.486486 0
v -33.2973 -7.351352 0
v -33.72973 -7.351352 0
v -33.72973 -6.918919 0
v -33.2973 -6.918919 0
v -33.72973 -7.351352 0
v -34.16216 -7.351352 0
v -34.16216 -6.918919 0
v -33.72973 -6.918919 0
v -34.16216 -7.351352 0
v -34.5946 -7.351352 0
v -34.5946 -6.918919 0
v -34.16216 -6.918919 0
v -34.5946 -7.351352 0
v -35.02703 -7.351352 0
v -35.02703 -6.918919 0
v -34.5946 -6.918919 0
v -35.02703 -7.351352 0
v -35.45946 -7.351352 0
v -35.45946 -6.918919 0
v -35.02703 -6.918919 0
v -35.45946 -7.351352 0
v -35.89189 -7.351352 0
v -35.89189 -6.918919 0
v -35.45946 -6.918919 0
v -35.89189 -7.351352 0
v -36.32433 -7.351352 0
v -36.32433 -6.918919 0
v -35.89189 -6.918919 0
v -36.32433 -7.351352 0
v -36.75676 -7.351352 0
v -36.75676 -6.918919 0
v -36.32433 -6.918919 0
v -36.75676 -7.351352 0
v -37.18919 -7.351352 0
v -37.18919 -6.918919 0
v -36.75676 -6.918919 0
v -37.18919 -7.351352 0
v -37.62162 -7.351352 0
v -37.62162 -6.918919 0
v -37.18919 -6.918919 0
v -37.62162 -7.351352 0
v -38.05405 -7.351352 0
v -38.05405 -6.918919 0
v -37.62162 -6.918919 0
v -38.05405 -7.351352 0
v -38.48649 -7.351352 0
v -38.48649 -6.918919 0
v -38.05405 -6.918919 0
v -38.48649 -7.351352 0
v -38.91892 -7.351352 0
v -38.91892 -6.918919 0
v -38.48649 -6.918919 0
v -38.91892 -7.351352 0
v -39.35135 -7.351352 0
v -39.35135 -6.918919 0
v -38.91892 -6.918919 0
v -39.35135 -7.351352 0
v -39.78378 -7.351352 0
v -39.78378 -6.918919 0
v -39.35135 -6.918919 0
v -39.78378 -7.351352 0
v -40.21622 -7.351352 0
v -40.21622 -6.918919 0
v -39.78378 -6.918919 0

# Texture cooridinates (Count = 160)
vt 0.909213 0.1667888
vt 0.9544234 0.1667888
vt 0.9544234 0.3332112
vt 0.909213 0.3332112
vt 0.9546675 0.1667888
vt 0.9998779 0.1667888
vt 0.9998779 0.3332112
vt 0.9546675 0.3332112
vt 0.5455766 0.6667887
vt 0.590787 0.6667887
vt 0.590787 0.8332112
vt 0.5455766 0.8332112
vt 0.5910311 0.6667887
vt 0.6362416 0.6667887
vt 0.6362416 0.8332112
vt 0.5910311 0.8332112
vt 0.6364857 0.6667887
vt 0.6816961 0.6667887
vt 0.6816961 0.8332112
vt 0.6364857 0.8332112
vt 0.6819403 0.6667887
vt 0.7271507 0.6667887
vt 0.7271507 0.8332112
vt 0.6819403 0.8332112
vt 0.7273948 0.6667887
vt 0.7726052 0.6667887
vt 0.7726052 0.8332112
vt 0.7273948 0.8332112
vt 0.7728493 0.6667887
vt 0.8180597 0.6667887
vt 0.8180597 0.8332112
vt 0.7728493 0.8332112
vt 0.8183039 0.6667887
vt 0.8635143 0.6667887
vt 0.8635143 0.8332112
vt 0.8183039 0.8332112
vt 0.8637584 0.6667887
vt 0.9089689 0.6667887
vt 0.9089689 0.8332112
vt 0.8637584 0.8332112
vt 0.909213 0.6667887
vt 0.9544234 0.6667887
vt 0.9544234 0.8332112
vt 0.909213 0.8332112
vt 0.9546675 0.6667887
vt 0.9998779 0.6667887
vt 0.9998779 0.8332112
vt 0.9546675 0.8332112
vt 0.5455766 0.5001221
vt 0.590787 0.5001221
vt 0.590787 0.6665446
vt 0.5455766 0.6665446
vt 0.5910311 0.5001221
vt 0.6362416 0.5001221
vt 0.6362416 0.6665446
vt 0.5910311 0.6665446
vt 0.6364857 0.5001221
vt 0.6816961 0.5001221
vt 0.6816961 0.6665446
vt 0.6364857 0.6665446
vt 0.6819403 0.5001221
vt 0.7271507 0.5001221
vt 0.7271507 0.6665446
vt 0.6819403 0.6665446
vt 0.7273948 0.5001221
vt 0.7726052 0.5001221
vt 0.7726052 0.6665446
vt 0.7273948 0.6665446
vt 0.7728493 0.5001221
vt 0.8180597 0.5001221
vt 0.8180597 0.6665446
vt 0.7728493 0.6665446
vt 0.8183039 0.5001221
vt 0.8635143 0.5001221
vt 0.8635143 0.6665446
vt 0.8183039 0.6665446
vt 0.8637584 0.5001221
vt 0.9089689 0.5001221
vt 0.9089689 0.6665446
vt 0.8637584 0.6665446
vt 0.909213 0.5001221
vt 0.9544234 0.5001221
vt 0.9544234 0.6665446
vt 0.909213 0.6665446
vt 0.9546675 0.5001221
vt 0.9998779 0.5001221
vt 0.9998779 0.6665446
vt 0.9546675 0.6665446
vt 0.5455766 0.3334554
vt 0.590787 0.3334554
vt 0.590787 0.4998779
vt 0.5455766 0.4998779
vt 0.5910311 0.3334554
vt 0.6362416 0.3334554
vt 0.6362416 0.4998779
vt 0.5910311 0.4998779
vt 0.6364857 0.3334554
vt 0.6816961 0.3334554
vt 0.6816961 0.4998779
vt 0.6364857 0.4998779
vt 0.6819403 0.3334554
vt 0.7271507 0.3334554
vt 0.7271507 0.4998779
vt 0.6819403 0.4998779
vt 0.7273948 0.3334554
vt 0.7726052 0.3334554
vt 0.7726052 0.4998779
vt 0.7273948 0.4998779
vt 0.7728493 0.3334554
vt 0.8180597 0.3334554
vt 0.8180597 0.4998779
vt 0.7728493 0.4998779
vt 0.8183039 0.3334554
vt 0.8635143 0.3334554
vt 0.8635143 0.4998779
vt 0.8183039 0.4998779
vt 0.8637584 0.3334554
vt 0.9089689 0.3334554
vt 0.9089689 0.4998779
vt 0.8637584 0.4998779
vt 0.909213 0.3334554
vt 0.9544234 0.3334554
vt 0.9544234 0.4998779
vt 0.909213 0.4998779
vt 0.9546675 0.3334554
vt 0.9998779 0.3334554
vt 0.9998779 0.4998779
vt 0.9546675 0.4998779
vt 0.5455766 0.1667888
vt 0.590787 0.1667888
vt 0.590787 0.3332112
vt 0.5455766 0.3332112
vt 0.5910311 0.1667888
vt 0.6362416 0.1667888
vt 0.6362416 0.3332112
vt 0.5910311 0.3332112
vt 0.6364857 0.1667888
vt 0.6816961 0.1667888
vt 0.6816961 0.3332112
vt 0.6364857 0.3332112
vt 0.6819403 0.1667888
vt 0.7271507 0.1667888
vt 0.7271507 0.3332112
vt 0.6819403 0.3332112
vt 0.7273948 0.1667888
vt 0.7726052 0.1667888
vt 0.7726052 0.3332112
vt 0.7273948 0.3332112
vt 0.7728493 0.1667888
vt 0.8180597 0.1667888
vt 0.8180597 0.3332112
vt 0.7728493 0.3332112
vt 0.8183039 0.1667888
vt 0.8635143 0.1667888
vt 0.8635143 0.3332112
vt 0.8183039 0.3332112
vt 0.8637584 0.1667888
vt 0.9089689 0.1667888
vt 0.9089689 0.3332112
vt 0.8637584 0.3332112

# Normal
vn 0 0 -1

# Mesh description
g responbility_mesh_0022

# Faces
f 1/1/1 2/2/1 3/3/1 4/4/1
f 5/5/1 6/6/1 7/7/1 8/8/1
f 9/1/1 10/2/1 11/3/1 12/4/1
f 13/5/1 14/6/1 15/7/1 16/8/1
f 17/9/1 18/10/1 19/11/1 20/12/1
f 21/13/1 22/14/1 23/15/1 24/16/1
f 25/17/1 26/18/1 27/19/1 28/20/1
f 29/21/1 30/22/1 31/23/1 32/24/1
f 33/25/1 34/26/1 35/27/1 36/28/1
f 37/21/1 38/22/1 39/23/1 40/24/1
f 41/25/1 42/26/1 43/27/1 44/28/1
f 45/29/1 46/30/1 47/31/1 48/32/1
f 49/25/1 50/26/1 51/27/1 52/28/1
f 53/29/1 54/30/1 55/31/1 56/32/1
f 57/33/1 58/34/1 59/35/1 60/36/1
f 61/37/1 62/38/1 63/39/1 64/40/1
f 65/41/1 66/42/1 67/43/1 68/44/1
f 69/45/1 70/46/1 71/47/1 72/48/1
f 73/49/1 74/50/1 75/51/1 76/52/1
f 77/53/1 78/54/1 79/55/1 80/56/1
f 81/57/1 82/58/1 83/59/1 84/60/1
f 85/61/1 86/62/1 87/63/1 88/64/1
f 89/65/1 90/66/1 91/67/1 92/68/1
f 93/61/1 94/62/1 95/63/1 96/64/1
f 97/65/1 98/66/1 99/67/1 100/68/1
f 101/69/1 102/70/1 103/71/1 104/72/1
f 105/65/1 106/66/1 107/67/1 108/68/1
f 109/69/1 110/70/1 111/71/1 112/72/1
f 113/65/1 114/66/1 115/67/1 116/68/1
f 117/69/1 118/70/1 119/71/1 120/72/1
f 121/73/1 122/74/1 123/75/1 124/76/1
f 125/77/1 126/78/1 127/79/1 128/80/1
f 129/81/1 130/82/1 131/83/1 132/84/1
f 133/85/1 134/86/1 135/87/1 136/88/1
f 137/89/1 138/90/1 139/91/1 140/92/1
f 141/93/1 142/94/1 143/95/1 144/96/1
f 145/97/1 146/98/1 147/99/1 148/100/1
f 149/101/1 150/102/1 151/103/1 152/104/1
f 153/105/1 154/106/1 155/107/1 156/108/1
f 157/101/1 158/102/1 159/103/1 160/104/1
f 161/105/1 162/106/1 163/107/1 164/108/1
f 165/109/1 166/110/1 167/111/1 168/112/1
f 169/105/1 170/106/1 171/107/1 172/108/1
f 173/109/1 174/110/1 175/111/1 176/112/1
f 177/105/1 178/106/1 179/107/1 180/108/1
f 181/109/1 182/110/1 183/111/1 184/112/1
f 185/113/1 186/114/1 187/115/1 188/116/1
f 189/117/1 190/118/1 191/119/1 192/120/1
f 193/121/1 194/122/1 195/123/1 196/124/1
f 197/125/1 198/126/1 199/127/1 200/128/1
f 201/129/1 202/130/1 203/131/1 204/132/1
f 205/133/1 206/134/1 207/135/1 208/136/1
f 209/137/1 210/138/1 211/139/1 212/140/1
f 213/141/1 214/142/1 215/143/1 216/144/1
f 217/145/1 218/146/1 219/147/1 220/148/1
f 221/141/1 222/142/1 223/143/1 224/144/1
f 225/145/1 226/146/1 227/147/1 228/148/1
f 229/149/1 230/150/1 231/151/1 232/152/1
f 233/145/1 234/146/1 235/147/1 236/148/1
f 237/149/1 238/150/1 239/151/1 240/152/1
f 241/145/1 242/146/1 243/147/1 244/148/1
f 245/149/1 246/150/1 247/151/1 248/152/1
f 249/153/1 250/154/1 251/155/1 252/156/1
f 253/157/1 254/158/1 255/159/1 256/160/1
f 257/1/1 258/2/1 259/3/1 260/4/1
f 261/5/1 262/6/1 263/7/1 264/8/1

