# Tiled2Unity generated file. Do not modify by hand.
# Wavefront file for 'responbility_mesh_0012.obj'

# Vertices (Count = 284)
v 0 -5.189189 0
v -0.4324324 -5.189189 0
v -0.4324324 -4.756757 0
v 0 -4.756757 0
v -0.4324324 -5.189189 0
v -0.8648649 -5.189189 0
v -0.8648649 -4.756757 0
v -0.4324324 -4.756757 0
v -0.8648649 -5.189189 0
v -1.297297 -5.189189 0
v -1.297297 -4.756757 0
v -0.8648649 -4.756757 0
v -1.297297 -5.189189 0
v -1.72973 -5.189189 0
v -1.72973 -4.756757 0
v -1.297297 -4.756757 0
v -1.72973 -5.189189 0
v -2.162162 -5.189189 0
v -2.162162 -4.756757 0
v -1.72973 -4.756757 0
v -2.162162 -5.189189 0
v -2.594595 -5.189189 0
v -2.594595 -4.756757 0
v -2.162162 -4.756757 0
v -2.594595 -5.189189 0
v -3.027027 -5.189189 0
v -3.027027 -4.756757 0
v -2.594595 -4.756757 0
v -3.027027 -5.189189 0
v -3.45946 -5.189189 0
v -3.45946 -4.756757 0
v -3.027027 -4.756757 0
v -3.45946 -5.189189 0
v -3.891892 -5.189189 0
v -3.891892 -4.756757 0
v -3.45946 -4.756757 0
v 0 -6.054054 0
v -0.4324324 -6.054054 0
v -0.4324324 -5.621622 0
v 0 -5.621622 0
v -0.4324324 -6.054054 0
v -0.8648649 -6.054054 0
v -0.8648649 -5.621622 0
v -0.4324324 -5.621622 0
v -0.8648649 -6.054054 0
v -1.297297 -6.054054 0
v -1.297297 -5.621622 0
v -0.8648649 -5.621622 0
v -1.297297 -6.054054 0
v -1.72973 -6.054054 0
v -1.72973 -5.621622 0
v -1.297297 -5.621622 0
v -1.72973 -6.054054 0
v -2.162162 -6.054054 0
v -2.162162 -5.621622 0
v -1.72973 -5.621622 0
v -2.162162 -6.054054 0
v -2.594595 -6.054054 0
v -2.594595 -5.621622 0
v -2.162162 -5.621622 0
v -2.594595 -6.054054 0
v -3.027027 -6.054054 0
v -3.027027 -5.621622 0
v -2.594595 -5.621622 0
v -3.027027 -6.054054 0
v -3.45946 -6.054054 0
v -3.45946 -5.621622 0
v -3.027027 -5.621622 0
v -3.45946 -6.054054 0
v -3.891892 -6.054054 0
v -3.891892 -5.621622 0
v -3.45946 -5.621622 0
v 0 -6.486486 0
v -0.4324324 -6.486486 0
v -0.4324324 -6.054054 0
v 0 -6.054054 0
v -0.4324324 -6.486486 0
v -0.8648649 -6.486486 0
v -0.8648649 -6.054054 0
v -0.4324324 -6.054054 0
v -0.8648649 -6.486486 0
v -1.297297 -6.486486 0
v -1.297297 -6.054054 0
v -0.8648649 -6.054054 0
v -1.297297 -6.486486 0
v -1.72973 -6.486486 0
v -1.72973 -6.054054 0
v -1.297297 -6.054054 0
v -1.72973 -6.486486 0
v -2.162162 -6.486486 0
v -2.162162 -6.054054 0
v -1.72973 -6.054054 0
v -2.162162 -6.486486 0
v -2.594595 -6.486486 0
v -2.594595 -6.054054 0
v -2.162162 -6.054054 0
v -2.594595 -6.486486 0
v -3.027027 -6.486486 0
v -3.027027 -6.054054 0
v -2.594595 -6.054054 0
v -3.027027 -6.486486 0
v -3.45946 -6.486486 0
v -3.45946 -6.054054 0
v -3.027027 -6.054054 0
v -3.45946 -6.486486 0
v -3.891892 -6.486486 0
v -3.891892 -6.054054 0
v -3.45946 -6.054054 0
v -8.216216 -6.486486 0
v -8.648649 -6.486486 0
v -8.648649 -6.054054 0
v -8.216216 -6.054054 0
v -8.648649 -6.486486 0
v -9.081081 -6.486486 0
v -9.081081 -6.054054 0
v -8.648649 -6.054054 0
v 0 -6.918919 0
v -0.4324324 -6.918919 0
v -0.4324324 -6.486486 0
v 0 -6.486486 0
v -0.4324324 -6.918919 0
v -0.8648649 -6.918919 0
v -0.8648649 -6.486486 0
v -0.4324324 -6.486486 0
v -0.8648649 -6.918919 0
v -1.297297 -6.918919 0
v -1.297297 -6.486486 0
v -0.8648649 -6.486486 0
v -1.297297 -6.918919 0
v -1.72973 -6.918919 0
v -1.72973 -6.486486 0
v -1.297297 -6.486486 0
v -1.72973 -6.918919 0
v -2.162162 -6.918919 0
v -2.162162 -6.486486 0
v -1.72973 -6.486486 0
v -2.162162 -6.918919 0
v -2.594595 -6.918919 0
v -2.594595 -6.486486 0
v -2.162162 -6.486486 0
v -2.594595 -6.918919 0
v -3.027027 -6.918919 0
v -3.027027 -6.486486 0
v -2.594595 -6.486486 0
v -3.027027 -6.918919 0
v -3.45946 -6.918919 0
v -3.45946 -6.486486 0
v -3.027027 -6.486486 0
v -3.45946 -6.918919 0
v -3.891892 -6.918919 0
v -3.891892 -6.486486 0
v -3.45946 -6.486486 0
v -8.216216 -6.918919 0
v -8.648649 -6.918919 0
v -8.648649 -6.486486 0
v -8.216216 -6.486486 0
v -8.648649 -6.918919 0
v -9.081081 -6.918919 0
v -9.081081 -6.486486 0
v -8.648649 -6.486486 0
v 0 -7.351352 0
v -0.4324324 -7.351352 0
v -0.4324324 -6.918919 0
v 0 -6.918919 0
v -0.4324324 -7.351352 0
v -0.8648649 -7.351352 0
v -0.8648649 -6.918919 0
v -0.4324324 -6.918919 0
v -0.8648649 -7.351352 0
v -1.297297 -7.351352 0
v -1.297297 -6.918919 0
v -0.8648649 -6.918919 0
v -1.297297 -7.351352 0
v -1.72973 -7.351352 0
v -1.72973 -6.918919 0
v -1.297297 -6.918919 0
v -1.72973 -7.351352 0
v -2.162162 -7.351352 0
v -2.162162 -6.918919 0
v -1.72973 -6.918919 0
v -2.162162 -7.351352 0
v -2.594595 -7.351352 0
v -2.594595 -6.918919 0
v -2.162162 -6.918919 0
v -2.594595 -7.351352 0
v -3.027027 -7.351352 0
v -3.027027 -6.918919 0
v -2.594595 -6.918919 0
v -3.027027 -7.351352 0
v -3.45946 -7.351352 0
v -3.45946 -6.918919 0
v -3.027027 -6.918919 0
v -3.45946 -7.351352 0
v -3.891892 -7.351352 0
v -3.891892 -6.918919 0
v -3.45946 -6.918919 0
v -3.891892 -7.351352 0
v -4.324325 -7.351352 0
v -4.324325 -6.918919 0
v -3.891892 -6.918919 0
v -4.324325 -7.351352 0
v -4.756757 -7.351352 0
v -4.756757 -6.918919 0
v -4.324325 -6.918919 0
v -4.756757 -7.351352 0
v -5.189189 -7.351352 0
v -5.189189 -6.918919 0
v -4.756757 -6.918919 0
v -5.189189 -7.351352 0
v -5.621622 -7.351352 0
v -5.621622 -6.918919 0
v -5.189189 -6.918919 0
v -5.621622 -7.351352 0
v -6.054054 -7.351352 0
v -6.054054 -6.918919 0
v -5.621622 -6.918919 0
v -6.054054 -7.351352 0
v -6.486486 -7.351352 0
v -6.486486 -6.918919 0
v -6.054054 -6.918919 0
v -6.486486 -7.351352 0
v -6.918919 -7.351352 0
v -6.918919 -6.918919 0
v -6.486486 -6.918919 0
v -6.918919 -7.351352 0
v -7.351352 -7.351352 0
v -7.351352 -6.918919 0
v -6.918919 -6.918919 0
v -7.351352 -7.351352 0
v -7.783784 -7.351352 0
v -7.783784 -6.918919 0
v -7.351352 -6.918919 0
v -7.783784 -7.351352 0
v -8.216216 -7.351352 0
v -8.216216 -6.918919 0
v -7.783784 -6.918919 0
v -8.216216 -7.351352 0
v -8.648649 -7.351352 0
v -8.648649 -6.918919 0
v -8.216216 -6.918919 0
v -8.648649 -7.351352 0
v -9.081081 -7.351352 0
v -9.081081 -6.918919 0
v -8.648649 -6.918919 0
v 0 -7.783784 0
v -0.4324324 -7.783784 0
v -0.4324324 -7.351352 0
v 0 -7.351352 0
v -0.4324324 -7.783784 0
v -0.8648649 -7.783784 0
v -0.8648649 -7.351352 0
v -0.4324324 -7.351352 0
v -0.8648649 -7.783784 0
v -1.297297 -7.783784 0
v -1.297297 -7.351352 0
v -0.8648649 -7.351352 0
v -1.297297 -7.783784 0
v -1.72973 -7.783784 0
v -1.72973 -7.351352 0
v -1.297297 -7.351352 0
v -4.756757 -7.783784 0
v -5.189189 -7.783784 0
v -5.189189 -7.351352 0
v -4.756757 -7.351352 0
v -5.189189 -7.783784 0
v -5.621622 -7.783784 0
v -5.621622 -7.351352 0
v -5.189189 -7.351352 0
v -5.621622 -7.783784 0
v -6.054054 -7.783784 0
v -6.054054 -7.351352 0
v -5.621622 -7.351352 0
v -6.054054 -7.783784 0
v -6.486486 -7.783784 0
v -6.486486 -7.351352 0
v -6.054054 -7.351352 0
v -8.216216 -7.783784 0
v -8.648649 -7.783784 0
v -8.648649 -7.351352 0
v -8.216216 -7.351352 0
v -8.648649 -7.783784 0
v -9.081081 -7.783784 0
v -9.081081 -7.351352 0
v -8.648649 -7.351352 0

# Texture cooridinates (Count = 48)
vt 0.6667888 0.400122
vt 0.7498779 0.400122
vt 0.7498779 0.4998779
vt 0.6667888 0.4998779
vt 0.7501221 0.400122
vt 0.8332112 0.400122
vt 0.8332112 0.4998779
vt 0.7501221 0.4998779
vt 0.6667888 0.8001221
vt 0.7498779 0.8001221
vt 0.7498779 0.8998779
vt 0.6667888 0.8998779
vt 0.7501221 0.8001221
vt 0.8332112 0.8001221
vt 0.8332112 0.8998779
vt 0.7501221 0.8998779
vt 0.6667888 0.5001221
vt 0.7498779 0.5001221
vt 0.7498779 0.599878
vt 0.6667888 0.599878
vt 0.7501221 0.5001221
vt 0.8332112 0.5001221
vt 0.8332112 0.599878
vt 0.7501221 0.599878
vt 0.6667888 0.7001221
vt 0.7498779 0.7001221
vt 0.7498779 0.7998779
vt 0.6667888 0.7998779
vt 0.7501221 0.7001221
vt 0.8332112 0.7001221
vt 0.8332112 0.7998779
vt 0.7501221 0.7998779
vt 0.6667888 0.6001221
vt 0.7498779 0.6001221
vt 0.7498779 0.6998779
vt 0.6667888 0.6998779
vt 0.7501221 0.6001221
vt 0.8332112 0.6001221
vt 0.8332112 0.6998779
vt 0.7501221 0.6998779
vt 0.8334554 0.400122
vt 0.9165446 0.400122
vt 0.9165446 0.4998779
vt 0.8334554 0.4998779
vt 0.9167888 0.400122
vt 0.9998779 0.400122
vt 0.9998779 0.4998779
vt 0.9167888 0.4998779

# Normal
vn 0 0 -1

# Mesh description
g responbility_mesh_0012

# Faces
f 1/1/1 2/2/1 3/3/1 4/4/1
f 5/5/1 6/6/1 7/7/1 8/8/1
f 9/5/1 10/6/1 11/7/1 12/8/1
f 13/5/1 14/6/1 15/7/1 16/8/1
f 17/5/1 18/6/1 19/7/1 20/8/1
f 21/5/1 22/6/1 23/7/1 24/8/1
f 25/5/1 26/6/1 27/7/1 28/8/1
f 29/5/1 30/6/1 31/7/1 32/8/1
f 33/5/1 34/6/1 35/7/1 36/8/1
f 37/1/1 38/2/1 39/3/1 40/4/1
f 41/1/1 42/2/1 43/3/1 44/4/1
f 45/1/1 46/2/1 47/3/1 48/4/1
f 49/1/1 50/2/1 51/3/1 52/4/1
f 53/1/1 54/2/1 55/3/1 56/4/1
f 57/1/1 58/2/1 59/3/1 60/4/1
f 61/1/1 62/2/1 63/3/1 64/4/1
f 65/1/1 66/2/1 67/3/1 68/4/1
f 69/5/1 70/6/1 71/7/1 72/8/1
f 73/1/1 74/2/1 75/3/1 76/4/1
f 77/1/1 78/2/1 79/3/1 80/4/1
f 81/1/1 82/2/1 83/3/1 84/4/1
f 85/1/1 86/2/1 87/3/1 88/4/1
f 89/1/1 90/2/1 91/3/1 92/4/1
f 93/1/1 94/2/1 95/3/1 96/4/1
f 97/1/1 98/2/1 99/3/1 100/4/1
f 101/1/1 102/2/1 103/3/1 104/4/1
f 105/5/1 106/6/1 107/7/1 108/8/1
f 109/9/1 110/10/1 111/11/1 112/12/1
f 113/13/1 114/14/1 115/15/1 116/16/1
f 117/1/1 118/2/1 119/3/1 120/4/1
f 121/1/1 122/2/1 123/3/1 124/4/1
f 125/17/1 126/18/1 127/19/1 128/20/1
f 129/1/1 130/2/1 131/3/1 132/4/1
f 133/1/1 134/2/1 135/3/1 136/4/1
f 137/17/1 138/18/1 139/19/1 140/20/1
f 141/17/1 142/18/1 143/19/1 144/20/1
f 145/21/1 146/22/1 147/23/1 148/24/1
f 149/17/1 150/18/1 151/19/1 152/20/1
f 153/25/1 154/26/1 155/27/1 156/28/1
f 157/29/1 158/30/1 159/31/1 160/32/1
f 161/17/1 162/18/1 163/19/1 164/20/1
f 165/21/1 166/22/1 167/23/1 168/24/1
f 169/1/1 170/2/1 171/3/1 172/4/1
f 173/1/1 174/2/1 175/3/1 176/4/1
f 177/5/1 178/6/1 179/7/1 180/8/1
f 181/1/1 182/2/1 183/3/1 184/4/1
f 185/1/1 186/2/1 187/3/1 188/4/1
f 189/5/1 190/6/1 191/7/1 192/8/1
f 193/1/1 194/2/1 195/3/1 196/4/1
f 197/1/1 198/2/1 199/3/1 200/4/1
f 201/5/1 202/6/1 203/7/1 204/8/1
f 205/5/1 206/6/1 207/7/1 208/8/1
f 209/5/1 210/6/1 211/7/1 212/8/1
f 213/5/1 214/6/1 215/7/1 216/8/1
f 217/5/1 218/6/1 219/7/1 220/8/1
f 221/5/1 222/6/1 223/7/1 224/8/1
f 225/5/1 226/6/1 227/7/1 228/8/1
f 229/5/1 230/6/1 231/7/1 232/8/1
f 233/5/1 234/6/1 235/7/1 236/8/1
f 237/33/1 238/34/1 239/35/1 240/36/1
f 241/37/1 242/38/1 243/39/1 244/40/1
f 245/1/1 246/2/1 247/3/1 248/4/1
f 249/5/1 250/6/1 251/7/1 252/8/1
f 253/1/1 254/2/1 255/3/1 256/4/1
f 257/5/1 258/6/1 259/7/1 260/8/1
f 261/1/1 262/2/1 263/3/1 264/4/1
f 265/5/1 266/6/1 267/7/1 268/8/1
f 269/41/1 270/42/1 271/43/1 272/44/1
f 273/45/1 274/46/1 275/47/1 276/48/1
f 277/17/1 278/18/1 279/19/1 280/20/1
f 281/21/1 282/22/1 283/23/1 284/24/1

