# Tiled2Unity generated file. Do not modify by hand.
# Wavefront file for 'responbility_mesh_0011.obj'

# Vertices (Count = 72)
v -68.32433 -4.324325 0
v -68.75676 -4.324325 0
v -68.75676 -3.891892 0
v -68.32433 -3.891892 0
v -68.75676 -4.324325 0
v -69.18919 -4.324325 0
v -69.18919 -3.891892 0
v -68.75676 -3.891892 0
v -69.18919 -4.324325 0
v -69.62162 -4.324325 0
v -69.62162 -3.891892 0
v -69.18919 -3.891892 0
v -69.62162 -4.324325 0
v -70.05405 -4.324325 0
v -70.05405 -3.891892 0
v -69.62162 -3.891892 0
v -70.05405 -4.324325 0
v -70.48649 -4.324325 0
v -70.48649 -3.891892 0
v -70.05405 -3.891892 0
v -70.48649 -4.324325 0
v -70.91892 -4.324325 0
v -70.91892 -3.891892 0
v -70.48649 -3.891892 0
v -82.5946 -6.918919 0
v -83.02703 -6.918919 0
v -83.02703 -6.486486 0
v -82.5946 -6.486486 0
v -83.02703 -6.918919 0
v -83.45947 -6.918919 0
v -83.45947 -6.486486 0
v -83.02703 -6.486486 0
v -83.45947 -6.918919 0
v -83.89189 -6.918919 0
v -83.89189 -6.486486 0
v -83.45947 -6.486486 0
v -83.89189 -6.918919 0
v -84.32433 -6.918919 0
v -84.32433 -6.486486 0
v -83.89189 -6.486486 0
v -84.32433 -6.918919 0
v -84.75676 -6.918919 0
v -84.75676 -6.486486 0
v -84.32433 -6.486486 0
v -84.75676 -6.918919 0
v -85.18919 -6.918919 0
v -85.18919 -6.486486 0
v -84.75676 -6.486486 0
v -86.91892 -6.918919 0
v -87.35136 -6.918919 0
v -87.35136 -6.486486 0
v -86.91892 -6.486486 0
v -87.35136 -6.918919 0
v -87.78378 -6.918919 0
v -87.78378 -6.486486 0
v -87.35136 -6.486486 0
v -87.78378 -6.918919 0
v -88.21622 -6.918919 0
v -88.21622 -6.486486 0
v -87.78378 -6.486486 0
v -88.21622 -6.918919 0
v -88.64865 -6.918919 0
v -88.64865 -6.486486 0
v -88.21622 -6.486486 0
v -88.64865 -6.918919 0
v -89.08109 -6.918919 0
v -89.08109 -6.486486 0
v -88.64865 -6.486486 0
v -89.08109 -6.918919 0
v -89.51352 -6.918919 0
v -89.51352 -6.486486 0
v -89.08109 -6.486486 0

# Texture cooridinates (Count = 24)
vt 0.0001220703 0.6667887
vt 0.08321127 0.6667887
vt 0.08321127 0.7498779
vt 0.0001220703 0.7498779
vt 0.08345541 0.6667887
vt 0.1665446 0.6667887
vt 0.1665446 0.7498779
vt 0.08345541 0.7498779
vt 0.1667887 0.6667887
vt 0.2498779 0.6667887
vt 0.2498779 0.7498779
vt 0.1667887 0.7498779
vt 0.2501221 0.6667887
vt 0.3332113 0.6667887
vt 0.3332113 0.7498779
vt 0.2501221 0.7498779
vt 0.3334554 0.6667887
vt 0.4165446 0.6667887
vt 0.4165446 0.7498779
vt 0.3334554 0.7498779
vt 0.4167887 0.6667887
vt 0.4998779 0.6667887
vt 0.4998779 0.7498779
vt 0.4167887 0.7498779

# Normal
vn 0 0 -1

# Mesh description
g responbility_mesh_0011

# Faces
f 1/1/1 2/2/1 3/3/1 4/4/1
f 5/5/1 6/6/1 7/7/1 8/8/1
f 9/9/1 10/10/1 11/11/1 12/12/1
f 13/13/1 14/14/1 15/15/1 16/16/1
f 17/17/1 18/18/1 19/19/1 20/20/1
f 21/21/1 22/22/1 23/23/1 24/24/1
f 25/1/1 26/2/1 27/3/1 28/4/1
f 29/5/1 30/6/1 31/7/1 32/8/1
f 33/9/1 34/10/1 35/11/1 36/12/1
f 37/13/1 38/14/1 39/15/1 40/16/1
f 41/17/1 42/18/1 43/19/1 44/20/1
f 45/21/1 46/22/1 47/23/1 48/24/1
f 49/1/1 50/2/1 51/3/1 52/4/1
f 53/5/1 54/6/1 55/7/1 56/8/1
f 57/9/1 58/10/1 59/11/1 60/12/1
f 61/13/1 62/14/1 63/15/1 64/16/1
f 65/17/1 66/18/1 67/19/1 68/20/1
f 69/21/1 70/22/1 71/23/1 72/24/1

