# Tiled2Unity generated file. Do not modify by hand.
# Wavefront file for 'responbility_mesh_0015.obj'

# Vertices (Count = 288)
v 0 -8.216216 0
v -0.4324324 -8.216216 0
v -0.4324324 -7.783784 0
v 0 -7.783784 0
v -0.4324324 -8.216216 0
v -0.8648649 -8.216216 0
v -0.8648649 -7.783784 0
v -0.4324324 -7.783784 0
v -12.97297 -8.216216 0
v -13.40541 -8.216216 0
v -13.40541 -7.783784 0
v -12.97297 -7.783784 0
v -13.40541 -8.216216 0
v -13.83784 -8.216216 0
v -13.83784 -7.783784 0
v -13.40541 -7.783784 0
v -20.32433 -8.216216 0
v -20.75676 -8.216216 0
v -20.75676 -7.783784 0
v -20.32433 -7.783784 0
v -20.75676 -8.216216 0
v -21.18919 -8.216216 0
v -21.18919 -7.783784 0
v -20.75676 -7.783784 0
v -33.2973 -8.216216 0
v -33.72973 -8.216216 0
v -33.72973 -7.783784 0
v -33.2973 -7.783784 0
v -33.72973 -8.216216 0
v -34.16216 -8.216216 0
v -34.16216 -7.783784 0
v -33.72973 -7.783784 0
v -39.35135 -8.216216 0
v -39.78378 -8.216216 0
v -39.78378 -7.783784 0
v -39.35135 -7.783784 0
v -39.78378 -8.216216 0
v -40.21622 -8.216216 0
v -40.21622 -7.783784 0
v -39.78378 -7.783784 0
v -45.40541 -8.216216 0
v -45.83784 -8.216216 0
v -45.83784 -7.783784 0
v -45.40541 -7.783784 0
v -45.83784 -8.216216 0
v -46.27027 -8.216216 0
v -46.27027 -7.783784 0
v -45.83784 -7.783784 0
v -46.27027 -8.216216 0
v -46.70271 -8.216216 0
v -46.70271 -7.783784 0
v -46.27027 -7.783784 0
v -46.70271 -8.216216 0
v -47.13514 -8.216216 0
v -47.13514 -7.783784 0
v -46.70271 -7.783784 0
v -48 -8.216216 0
v -48.43243 -8.216216 0
v -48.43243 -7.783784 0
v -48 -7.783784 0
v -48.43243 -8.216216 0
v -48.86486 -8.216216 0
v -48.86486 -7.783784 0
v -48.43243 -7.783784 0
v -48.86486 -8.216216 0
v -49.2973 -8.216216 0
v -49.2973 -7.783784 0
v -48.86486 -7.783784 0
v -49.2973 -8.216216 0
v -49.72973 -8.216216 0
v -49.72973 -7.783784 0
v -49.2973 -7.783784 0
v -51.45946 -8.216216 0
v -51.89189 -8.216216 0
v -51.89189 -7.783784 0
v -51.45946 -7.783784 0
v -51.89189 -8.216216 0
v -52.32433 -8.216216 0
v -52.32433 -7.783784 0
v -51.89189 -7.783784 0
v -53.62162 -8.216216 0
v -54.05405 -8.216216 0
v -54.05405 -7.783784 0
v -53.62162 -7.783784 0
v -54.05405 -8.216216 0
v -54.48649 -8.216216 0
v -54.48649 -7.783784 0
v -54.05405 -7.783784 0
v -55.78379 -8.216216 0
v -56.21622 -8.216216 0
v -56.21622 -7.783784 0
v -55.78379 -7.783784 0
v -56.21622 -8.216216 0
v -56.64865 -8.216216 0
v -56.64865 -7.783784 0
v -56.21622 -7.783784 0
v -56.64865 -8.216216 0
v -57.08108 -8.216216 0
v -57.08108 -7.783784 0
v -56.64865 -7.783784 0
v -57.08108 -8.216216 0
v -57.51352 -8.216216 0
v -57.51352 -7.783784 0
v -57.08108 -7.783784 0
v -59.24324 -8.216216 0
v -59.67568 -8.216216 0
v -59.67568 -7.783784 0
v -59.24324 -7.783784 0
v -59.67568 -8.216216 0
v -60.10811 -8.216216 0
v -60.10811 -7.783784 0
v -59.67568 -7.783784 0
v -60.10811 -8.216216 0
v -60.54054 -8.216216 0
v -60.54054 -7.783784 0
v -60.10811 -7.783784 0
v -60.54054 -8.216216 0
v -60.97297 -8.216216 0
v -60.97297 -7.783784 0
v -60.54054 -7.783784 0
v -61.83784 -8.216216 0
v -62.27027 -8.216216 0
v -62.27027 -7.783784 0
v -61.83784 -7.783784 0
v -62.27027 -8.216216 0
v -62.70271 -8.216216 0
v -62.70271 -7.783784 0
v -62.27027 -7.783784 0
v -91.67567 -8.216216 0
v -92.10811 -8.216216 0
v -92.10811 -7.783784 0
v -91.67567 -7.783784 0
v -92.10811 -8.216216 0
v -92.54054 -8.216216 0
v -92.54054 -7.783784 0
v -92.10811 -7.783784 0
v -93.40541 -8.216216 0
v -93.83784 -8.216216 0
v -93.83784 -7.783784 0
v -93.40541 -7.783784 0
v -93.83784 -8.216216 0
v -94.27027 -8.216216 0
v -94.27027 -7.783784 0
v -93.83784 -7.783784 0
v 0 -8.648649 0
v -0.4324324 -8.648649 0
v -0.4324324 -8.216216 0
v 0 -8.216216 0
v -0.4324324 -8.648649 0
v -0.8648649 -8.648649 0
v -0.8648649 -8.216216 0
v -0.4324324 -8.216216 0
v -12.97297 -8.648649 0
v -13.40541 -8.648649 0
v -13.40541 -8.216216 0
v -12.97297 -8.216216 0
v -13.40541 -8.648649 0
v -13.83784 -8.648649 0
v -13.83784 -8.216216 0
v -13.40541 -8.216216 0
v -20.32433 -8.648649 0
v -20.75676 -8.648649 0
v -20.75676 -8.216216 0
v -20.32433 -8.216216 0
v -20.75676 -8.648649 0
v -21.18919 -8.648649 0
v -21.18919 -8.216216 0
v -20.75676 -8.216216 0
v -33.2973 -8.648649 0
v -33.72973 -8.648649 0
v -33.72973 -8.216216 0
v -33.2973 -8.216216 0
v -33.72973 -8.648649 0
v -34.16216 -8.648649 0
v -34.16216 -8.216216 0
v -33.72973 -8.216216 0
v -39.35135 -8.648649 0
v -39.78378 -8.648649 0
v -39.78378 -8.216216 0
v -39.35135 -8.216216 0
v -39.78378 -8.648649 0
v -40.21622 -8.648649 0
v -40.21622 -8.216216 0
v -39.78378 -8.216216 0
v -45.40541 -8.648649 0
v -45.83784 -8.648649 0
v -45.83784 -8.216216 0
v -45.40541 -8.216216 0
v -45.83784 -8.648649 0
v -46.27027 -8.648649 0
v -46.27027 -8.216216 0
v -45.83784 -8.216216 0
v -46.27027 -8.648649 0
v -46.70271 -8.648649 0
v -46.70271 -8.216216 0
v -46.27027 -8.216216 0
v -46.70271 -8.648649 0
v -47.13514 -8.648649 0
v -47.13514 -8.216216 0
v -46.70271 -8.216216 0
v -48 -8.648649 0
v -48.43243 -8.648649 0
v -48.43243 -8.216216 0
v -48 -8.216216 0
v -48.43243 -8.648649 0
v -48.86486 -8.648649 0
v -48.86486 -8.216216 0
v -48.43243 -8.216216 0
v -48.86486 -8.648649 0
v -49.2973 -8.648649 0
v -49.2973 -8.216216 0
v -48.86486 -8.216216 0
v -49.2973 -8.648649 0
v -49.72973 -8.648649 0
v -49.72973 -8.216216 0
v -49.2973 -8.216216 0
v -51.45946 -8.648649 0
v -51.89189 -8.648649 0
v -51.89189 -8.216216 0
v -51.45946 -8.216216 0
v -51.89189 -8.648649 0
v -52.32433 -8.648649 0
v -52.32433 -8.216216 0
v -51.89189 -8.216216 0
v -53.62162 -8.648649 0
v -54.05405 -8.648649 0
v -54.05405 -8.216216 0
v -53.62162 -8.216216 0
v -54.05405 -8.648649 0
v -54.48649 -8.648649 0
v -54.48649 -8.216216 0
v -54.05405 -8.216216 0
v -55.78379 -8.648649 0
v -56.21622 -8.648649 0
v -56.21622 -8.216216 0
v -55.78379 -8.216216 0
v -56.21622 -8.648649 0
v -56.64865 -8.648649 0
v -56.64865 -8.216216 0
v -56.21622 -8.216216 0
v -56.64865 -8.648649 0
v -57.08108 -8.648649 0
v -57.08108 -8.216216 0
v -56.64865 -8.216216 0
v -57.08108 -8.648649 0
v -57.51352 -8.648649 0
v -57.51352 -8.216216 0
v -57.08108 -8.216216 0
v -59.24324 -8.648649 0
v -59.67568 -8.648649 0
v -59.67568 -8.216216 0
v -59.24324 -8.216216 0
v -59.67568 -8.648649 0
v -60.10811 -8.648649 0
v -60.10811 -8.216216 0
v -59.67568 -8.216216 0
v -60.10811 -8.648649 0
v -60.54054 -8.648649 0
v -60.54054 -8.216216 0
v -60.10811 -8.216216 0
v -60.54054 -8.648649 0
v -60.97297 -8.648649 0
v -60.97297 -8.216216 0
v -60.54054 -8.216216 0
v -61.83784 -8.648649 0
v -62.27027 -8.648649 0
v -62.27027 -8.216216 0
v -61.83784 -8.216216 0
v -62.27027 -8.648649 0
v -62.70271 -8.648649 0
v -62.70271 -8.216216 0
v -62.27027 -8.216216 0
v -91.67567 -8.648649 0
v -92.10811 -8.648649 0
v -92.10811 -8.216216 0
v -91.67567 -8.216216 0
v -92.10811 -8.648649 0
v -92.54054 -8.648649 0
v -92.54054 -8.216216 0
v -92.10811 -8.216216 0
v -93.40541 -8.648649 0
v -93.83784 -8.648649 0
v -93.83784 -8.216216 0
v -93.40541 -8.216216 0
v -93.83784 -8.648649 0
v -94.27027 -8.648649 0
v -94.27027 -8.216216 0
v -93.83784 -8.216216 0

# Texture cooridinates (Count = 16)
vt 0.3998779 0.1251221
vt 0.3001221 0.1251221
vt 0.3001221 0.2498779
vt 0.3998779 0.2498779
vt 0.2998779 0.1251221
vt 0.2001221 0.1251221
vt 0.2001221 0.2498779
vt 0.2998779 0.2498779
vt 0.3998779 0.0001220703
vt 0.3001221 0.0001220703
vt 0.3001221 0.1248779
vt 0.3998779 0.1248779
vt 0.2998779 0.0001220703
vt 0.2001221 0.0001220703
vt 0.2001221 0.1248779
vt 0.2998779 0.1248779

# Normal
vn 0 0 -1

# Mesh description
g responbility_mesh_0015

# Faces
f 1/1/1 2/2/1 3/3/1 4/4/1
f 5/5/1 6/6/1 7/7/1 8/8/1
f 9/6/1 10/5/1 11/8/1 12/7/1
f 13/2/1 14/1/1 15/4/1 16/3/1
f 17/1/1 18/2/1 19/3/1 20/4/1
f 21/5/1 22/6/1 23/7/1 24/8/1
f 25/6/1 26/5/1 27/8/1 28/7/1
f 29/2/1 30/1/1 31/4/1 32/3/1
f 33/1/1 34/2/1 35/3/1 36/4/1
f 37/5/1 38/6/1 39/7/1 40/8/1
f 41/6/1 42/5/1 43/8/1 44/7/1
f 45/2/1 46/1/1 47/4/1 48/3/1
f 49/1/1 50/2/1 51/3/1 52/4/1
f 53/5/1 54/6/1 55/7/1 56/8/1
f 57/6/1 58/5/1 59/8/1 60/7/1
f 61/2/1 62/1/1 63/4/1 64/3/1
f 65/1/1 66/2/1 67/3/1 68/4/1
f 69/5/1 70/6/1 71/7/1 72/8/1
f 73/6/1 74/5/1 75/8/1 76/7/1
f 77/2/1 78/1/1 79/4/1 80/3/1
f 81/1/1 82/2/1 83/3/1 84/4/1
f 85/5/1 86/6/1 87/7/1 88/8/1
f 89/6/1 90/5/1 91/8/1 92/7/1
f 93/2/1 94/1/1 95/4/1 96/3/1
f 97/1/1 98/2/1 99/3/1 100/4/1
f 101/5/1 102/6/1 103/7/1 104/8/1
f 105/6/1 106/5/1 107/8/1 108/7/1
f 109/2/1 110/1/1 111/4/1 112/3/1
f 113/1/1 114/2/1 115/3/1 116/4/1
f 117/5/1 118/6/1 119/7/1 120/8/1
f 121/6/1 122/5/1 123/8/1 124/7/1
f 125/2/1 126/1/1 127/4/1 128/3/1
f 129/1/1 130/2/1 131/3/1 132/4/1
f 133/5/1 134/6/1 135/7/1 136/8/1
f 137/6/1 138/5/1 139/8/1 140/7/1
f 141/2/1 142/1/1 143/4/1 144/3/1
f 145/9/1 146/10/1 147/11/1 148/12/1
f 149/13/1 150/14/1 151/15/1 152/16/1
f 153/14/1 154/13/1 155/16/1 156/15/1
f 157/10/1 158/9/1 159/12/1 160/11/1
f 161/9/1 162/10/1 163/11/1 164/12/1
f 165/13/1 166/14/1 167/15/1 168/16/1
f 169/14/1 170/13/1 171/16/1 172/15/1
f 173/10/1 174/9/1 175/12/1 176/11/1
f 177/9/1 178/10/1 179/11/1 180/12/1
f 181/13/1 182/14/1 183/15/1 184/16/1
f 185/14/1 186/13/1 187/16/1 188/15/1
f 189/10/1 190/9/1 191/12/1 192/11/1
f 193/9/1 194/10/1 195/11/1 196/12/1
f 197/13/1 198/14/1 199/15/1 200/16/1
f 201/14/1 202/13/1 203/16/1 204/15/1
f 205/10/1 206/9/1 207/12/1 208/11/1
f 209/9/1 210/10/1 211/11/1 212/12/1
f 213/13/1 214/14/1 215/15/1 216/16/1
f 217/14/1 218/13/1 219/16/1 220/15/1
f 221/10/1 222/9/1 223/12/1 224/11/1
f 225/9/1 226/10/1 227/11/1 228/12/1
f 229/13/1 230/14/1 231/15/1 232/16/1
f 233/14/1 234/13/1 235/16/1 236/15/1
f 237/10/1 238/9/1 239/12/1 240/11/1
f 241/9/1 242/10/1 243/11/1 244/12/1
f 245/13/1 246/14/1 247/15/1 248/16/1
f 249/14/1 250/13/1 251/16/1 252/15/1
f 253/10/1 254/9/1 255/12/1 256/11/1
f 257/9/1 258/10/1 259/11/1 260/12/1
f 261/13/1 262/14/1 263/15/1 264/16/1
f 265/14/1 266/13/1 267/16/1 268/15/1
f 269/10/1 270/9/1 271/12/1 272/11/1
f 273/9/1 274/10/1 275/11/1 276/12/1
f 277/13/1 278/14/1 279/15/1 280/16/1
f 281/14/1 282/13/1 283/16/1 284/15/1
f 285/10/1 286/9/1 287/12/1 288/11/1

