# Tiled2Unity generated file. Do not modify by hand.
# Wavefront file for 'responbility_mesh_0014.obj'

# Vertices (Count = 32)
v -67.89189 -7.351352 0
v -68.32433 -7.351352 0
v -68.32433 -6.918919 0
v -67.89189 -6.918919 0
v -68.32433 -7.351352 0
v -68.75676 -7.351352 0
v -68.75676 -6.918919 0
v -68.32433 -6.918919 0
v -68.75676 -7.351352 0
v -69.18919 -7.351352 0
v -69.18919 -6.918919 0
v -68.75676 -6.918919 0
v -69.18919 -7.351352 0
v -69.62162 -7.351352 0
v -69.62162 -6.918919 0
v -69.18919 -6.918919 0
v -69.62162 -7.351352 0
v -70.05405 -7.351352 0
v -70.05405 -6.918919 0
v -69.62162 -6.918919 0
v -70.05405 -7.351352 0
v -70.48649 -7.351352 0
v -70.48649 -6.918919 0
v -70.05405 -6.918919 0
v -70.48649 -7.351352 0
v -70.91892 -7.351352 0
v -70.91892 -6.918919 0
v -70.48649 -6.918919 0
v -70.91892 -7.351352 0
v -71.35136 -7.351352 0
v -71.35136 -6.918919 0
v -70.91892 -6.918919 0

# Texture cooridinates (Count = 4)
vt 0.6251221 0.3751221
vt 0.7498779 0.3751221
vt 0.7498779 0.4998779
vt 0.6251221 0.4998779

# Normal
vn 0 0 -1

# Mesh description
g responbility_mesh_0014

# Faces
f 1/1/1 2/2/1 3/3/1 4/4/1
f 5/1/1 6/2/1 7/3/1 8/4/1
f 9/1/1 10/2/1 11/3/1 12/4/1
f 13/1/1 14/2/1 15/3/1 16/4/1
f 17/1/1 18/2/1 19/3/1 20/4/1
f 21/1/1 22/2/1 23/3/1 24/4/1
f 25/1/1 26/2/1 27/3/1 28/4/1
f 29/1/1 30/2/1 31/3/1 32/4/1

