# Tiled2Unity generated file. Do not modify by hand.
# Wavefront file for 'responbility_mesh_0008.obj'

# Vertices (Count = 604)
v -68.32433 -3.45946 0
v -68.75676 -3.45946 0
v -68.75676 -3.027027 0
v -68.32433 -3.027027 0
v -68.75676 -3.45946 0
v -69.18919 -3.45946 0
v -69.18919 -3.027027 0
v -68.75676 -3.027027 0
v -69.18919 -3.45946 0
v -69.62162 -3.45946 0
v -69.62162 -3.027027 0
v -69.18919 -3.027027 0
v -69.62162 -3.45946 0
v -70.05405 -3.45946 0
v -70.05405 -3.027027 0
v -69.62162 -3.027027 0
v -70.05405 -3.45946 0
v -70.48649 -3.45946 0
v -70.48649 -3.027027 0
v -70.05405 -3.027027 0
v -70.48649 -3.45946 0
v -70.91892 -3.45946 0
v -70.91892 -3.027027 0
v -70.48649 -3.027027 0
v -68.32433 -3.891892 0
v -68.75676 -3.891892 0
v -68.75676 -3.45946 0
v -68.32433 -3.45946 0
v -68.75676 -3.891892 0
v -69.18919 -3.891892 0
v -69.18919 -3.45946 0
v -68.75676 -3.45946 0
v -69.18919 -3.891892 0
v -69.62162 -3.891892 0
v -69.62162 -3.45946 0
v -69.18919 -3.45946 0
v -69.62162 -3.891892 0
v -70.05405 -3.891892 0
v -70.05405 -3.45946 0
v -69.62162 -3.45946 0
v -70.05405 -3.891892 0
v -70.48649 -3.891892 0
v -70.48649 -3.45946 0
v -70.05405 -3.45946 0
v -70.48649 -3.891892 0
v -70.91892 -3.891892 0
v -70.91892 -3.45946 0
v -70.48649 -3.45946 0
v -64.43243 -6.054054 0
v -64.86487 -6.054054 0
v -64.86487 -5.621622 0
v -64.43243 -5.621622 0
v -64.86487 -6.054054 0
v -65.2973 -6.054054 0
v -65.2973 -5.621622 0
v -64.86487 -5.621622 0
v -65.2973 -6.054054 0
v -65.72973 -6.054054 0
v -65.72973 -5.621622 0
v -65.2973 -5.621622 0
v -65.72973 -6.054054 0
v -66.16216 -6.054054 0
v -66.16216 -5.621622 0
v -65.72973 -5.621622 0
v -66.16216 -6.054054 0
v -66.5946 -6.054054 0
v -66.5946 -5.621622 0
v -66.16216 -5.621622 0
v -66.5946 -6.054054 0
v -67.02703 -6.054054 0
v -67.02703 -5.621622 0
v -66.5946 -5.621622 0
v -67.02703 -6.054054 0
v -67.45946 -6.054054 0
v -67.45946 -5.621622 0
v -67.02703 -5.621622 0
v -67.45946 -6.054054 0
v -67.89189 -6.054054 0
v -67.89189 -5.621622 0
v -67.45946 -5.621622 0
v -67.89189 -6.054054 0
v -68.32433 -6.054054 0
v -68.32433 -5.621622 0
v -67.89189 -5.621622 0
v -68.32433 -6.054054 0
v -68.75676 -6.054054 0
v -68.75676 -5.621622 0
v -68.32433 -5.621622 0
v -68.75676 -6.054054 0
v -69.18919 -6.054054 0
v -69.18919 -5.621622 0
v -68.75676 -5.621622 0
v -69.18919 -6.054054 0
v -69.62162 -6.054054 0
v -69.62162 -5.621622 0
v -69.18919 -5.621622 0
v -69.62162 -6.054054 0
v -70.05405 -6.054054 0
v -70.05405 -5.621622 0
v -69.62162 -5.621622 0
v -70.05405 -6.054054 0
v -70.48649 -6.054054 0
v -70.48649 -5.621622 0
v -70.05405 -5.621622 0
v -70.48649 -6.054054 0
v -70.91892 -6.054054 0
v -70.91892 -5.621622 0
v -70.48649 -5.621622 0
v -70.91892 -6.054054 0
v -71.35136 -6.054054 0
v -71.35136 -5.621622 0
v -70.91892 -5.621622 0
v -71.35136 -6.054054 0
v -71.78378 -6.054054 0
v -71.78378 -5.621622 0
v -71.35136 -5.621622 0
v -71.78378 -6.054054 0
v -72.21622 -6.054054 0
v -72.21622 -5.621622 0
v -71.78378 -5.621622 0
v -72.21622 -6.054054 0
v -72.64865 -6.054054 0
v -72.64865 -5.621622 0
v -72.21622 -5.621622 0
v -72.64865 -6.054054 0
v -73.08109 -6.054054 0
v -73.08109 -5.621622 0
v -72.64865 -5.621622 0
v -73.08109 -6.054054 0
v -73.51351 -6.054054 0
v -73.51351 -5.621622 0
v -73.08109 -5.621622 0
v -73.51351 -6.054054 0
v -73.94595 -6.054054 0
v -73.94595 -5.621622 0
v -73.51351 -5.621622 0
v -73.94595 -6.054054 0
v -74.37838 -6.054054 0
v -74.37838 -5.621622 0
v -73.94595 -5.621622 0
v -74.37838 -6.054054 0
v -74.81081 -6.054054 0
v -74.81081 -5.621622 0
v -74.37838 -5.621622 0
v -74.81081 -6.054054 0
v -75.24325 -6.054054 0
v -75.24325 -5.621622 0
v -74.81081 -5.621622 0
v -75.24325 -6.054054 0
v -75.67567 -6.054054 0
v -75.67567 -5.621622 0
v -75.24325 -5.621622 0
v -75.67567 -6.054054 0
v -76.10811 -6.054054 0
v -76.10811 -5.621622 0
v -75.67567 -5.621622 0
v -76.10811 -6.054054 0
v -76.54054 -6.054054 0
v -76.54054 -5.621622 0
v -76.10811 -5.621622 0
v -76.54054 -6.054054 0
v -76.97298 -6.054054 0
v -76.97298 -5.621622 0
v -76.54054 -5.621622 0
v -76.97298 -6.054054 0
v -77.40541 -6.054054 0
v -77.40541 -5.621622 0
v -76.97298 -5.621622 0
v -77.40541 -6.054054 0
v -77.83784 -6.054054 0
v -77.83784 -5.621622 0
v -77.40541 -5.621622 0
v -77.83784 -6.054054 0
v -78.27027 -6.054054 0
v -78.27027 -5.621622 0
v -77.83784 -5.621622 0
v -78.27027 -6.054054 0
v -78.70271 -6.054054 0
v -78.70271 -5.621622 0
v -78.27027 -5.621622 0
v -78.70271 -6.054054 0
v -79.13514 -6.054054 0
v -79.13514 -5.621622 0
v -78.70271 -5.621622 0
v -79.13514 -6.054054 0
v -79.56757 -6.054054 0
v -79.56757 -5.621622 0
v -79.13514 -5.621622 0
v -79.56757 -6.054054 0
v -80 -6.054054 0
v -80 -5.621622 0
v -79.56757 -5.621622 0
v -80 -6.054054 0
v -80.43243 -6.054054 0
v -80.43243 -5.621622 0
v -80 -5.621622 0
v -80.43243 -6.054054 0
v -80.86487 -6.054054 0
v -80.86487 -5.621622 0
v -80.43243 -5.621622 0
v -82.5946 -6.054054 0
v -83.02703 -6.054054 0
v -83.02703 -5.621622 0
v -82.5946 -5.621622 0
v -83.02703 -6.054054 0
v -83.45947 -6.054054 0
v -83.45947 -5.621622 0
v -83.02703 -5.621622 0
v -83.45947 -6.054054 0
v -83.89189 -6.054054 0
v -83.89189 -5.621622 0
v -83.45947 -5.621622 0
v -83.89189 -6.054054 0
v -84.32433 -6.054054 0
v -84.32433 -5.621622 0
v -83.89189 -5.621622 0
v -84.32433 -6.054054 0
v -84.75676 -6.054054 0
v -84.75676 -5.621622 0
v -84.32433 -5.621622 0
v -84.75676 -6.054054 0
v -85.18919 -6.054054 0
v -85.18919 -5.621622 0
v -84.75676 -5.621622 0
v -86.91892 -6.054054 0
v -87.35136 -6.054054 0
v -87.35136 -5.621622 0
v -86.91892 -5.621622 0
v -87.35136 -6.054054 0
v -87.78378 -6.054054 0
v -87.78378 -5.621622 0
v -87.35136 -5.621622 0
v -87.78378 -6.054054 0
v -88.21622 -6.054054 0
v -88.21622 -5.621622 0
v -87.78378 -5.621622 0
v -88.21622 -6.054054 0
v -88.64865 -6.054054 0
v -88.64865 -5.621622 0
v -88.21622 -5.621622 0
v -88.64865 -6.054054 0
v -89.08109 -6.054054 0
v -89.08109 -5.621622 0
v -88.64865 -5.621622 0
v -89.08109 -6.054054 0
v -89.51352 -6.054054 0
v -89.51352 -5.621622 0
v -89.08109 -5.621622 0
v -64.43243 -6.486486 0
v -64.86487 -6.486486 0
v -64.86487 -6.054054 0
v -64.43243 -6.054054 0
v -64.86487 -6.486486 0
v -65.2973 -6.486486 0
v -65.2973 -6.054054 0
v -64.86487 -6.054054 0
v -65.2973 -6.486486 0
v -65.72973 -6.486486 0
v -65.72973 -6.054054 0
v -65.2973 -6.054054 0
v -65.72973 -6.486486 0
v -66.16216 -6.486486 0
v -66.16216 -6.054054 0
v -65.72973 -6.054054 0
v -66.16216 -6.486486 0
v -66.5946 -6.486486 0
v -66.5946 -6.054054 0
v -66.16216 -6.054054 0
v -66.5946 -6.486486 0
v -67.02703 -6.486486 0
v -67.02703 -6.054054 0
v -66.5946 -6.054054 0
v -67.02703 -6.486486 0
v -67.45946 -6.486486 0
v -67.45946 -6.054054 0
v -67.02703 -6.054054 0
v -67.45946 -6.486486 0
v -67.89189 -6.486486 0
v -67.89189 -6.054054 0
v -67.45946 -6.054054 0
v -67.89189 -6.486486 0
v -68.32433 -6.486486 0
v -68.32433 -6.054054 0
v -67.89189 -6.054054 0
v -68.32433 -6.486486 0
v -68.75676 -6.486486 0
v -68.75676 -6.054054 0
v -68.32433 -6.054054 0
v -68.75676 -6.486486 0
v -69.18919 -6.486486 0
v -69.18919 -6.054054 0
v -68.75676 -6.054054 0
v -69.18919 -6.486486 0
v -69.62162 -6.486486 0
v -69.62162 -6.054054 0
v -69.18919 -6.054054 0
v -69.62162 -6.486486 0
v -70.05405 -6.486486 0
v -70.05405 -6.054054 0
v -69.62162 -6.054054 0
v -70.05405 -6.486486 0
v -70.48649 -6.486486 0
v -70.48649 -6.054054 0
v -70.05405 -6.054054 0
v -70.48649 -6.486486 0
v -70.91892 -6.486486 0
v -70.91892 -6.054054 0
v -70.48649 -6.054054 0
v -70.91892 -6.486486 0
v -71.35136 -6.486486 0
v -71.35136 -6.054054 0
v -70.91892 -6.054054 0
v -71.35136 -6.486486 0
v -71.78378 -6.486486 0
v -71.78378 -6.054054 0
v -71.35136 -6.054054 0
v -71.78378 -6.486486 0
v -72.21622 -6.486486 0
v -72.21622 -6.054054 0
v -71.78378 -6.054054 0
v -72.21622 -6.486486 0
v -72.64865 -6.486486 0
v -72.64865 -6.054054 0
v -72.21622 -6.054054 0
v -72.64865 -6.486486 0
v -73.08109 -6.486486 0
v -73.08109 -6.054054 0
v -72.64865 -6.054054 0
v -73.08109 -6.486486 0
v -73.51351 -6.486486 0
v -73.51351 -6.054054 0
v -73.08109 -6.054054 0
v -73.51351 -6.486486 0
v -73.94595 -6.486486 0
v -73.94595 -6.054054 0
v -73.51351 -6.054054 0
v -73.94595 -6.486486 0
v -74.37838 -6.486486 0
v -74.37838 -6.054054 0
v -73.94595 -6.054054 0
v -74.37838 -6.486486 0
v -74.81081 -6.486486 0
v -74.81081 -6.054054 0
v -74.37838 -6.054054 0
v -74.81081 -6.486486 0
v -75.24325 -6.486486 0
v -75.24325 -6.054054 0
v -74.81081 -6.054054 0
v -75.24325 -6.486486 0
v -75.67567 -6.486486 0
v -75.67567 -6.054054 0
v -75.24325 -6.054054 0
v -75.67567 -6.486486 0
v -76.10811 -6.486486 0
v -76.10811 -6.054054 0
v -75.67567 -6.054054 0
v -76.10811 -6.486486 0
v -76.54054 -6.486486 0
v -76.54054 -6.054054 0
v -76.10811 -6.054054 0
v -76.54054 -6.486486 0
v -76.97298 -6.486486 0
v -76.97298 -6.054054 0
v -76.54054 -6.054054 0
v -76.97298 -6.486486 0
v -77.40541 -6.486486 0
v -77.40541 -6.054054 0
v -76.97298 -6.054054 0
v -77.40541 -6.486486 0
v -77.83784 -6.486486 0
v -77.83784 -6.054054 0
v -77.40541 -6.054054 0
v -77.83784 -6.486486 0
v -78.27027 -6.486486 0
v -78.27027 -6.054054 0
v -77.83784 -6.054054 0
v -78.27027 -6.486486 0
v -78.70271 -6.486486 0
v -78.70271 -6.054054 0
v -78.27027 -6.054054 0
v -78.70271 -6.486486 0
v -79.13514 -6.486486 0
v -79.13514 -6.054054 0
v -78.70271 -6.054054 0
v -79.13514 -6.486486 0
v -79.56757 -6.486486 0
v -79.56757 -6.054054 0
v -79.13514 -6.054054 0
v -79.56757 -6.486486 0
v -80 -6.486486 0
v -80 -6.054054 0
v -79.56757 -6.054054 0
v -80 -6.486486 0
v -80.43243 -6.486486 0
v -80.43243 -6.054054 0
v -80 -6.054054 0
v -80.43243 -6.486486 0
v -80.86487 -6.486486 0
v -80.86487 -6.054054 0
v -80.43243 -6.054054 0
v -82.5946 -6.486486 0
v -83.02703 -6.486486 0
v -83.02703 -6.054054 0
v -82.5946 -6.054054 0
v -83.02703 -6.486486 0
v -83.45947 -6.486486 0
v -83.45947 -6.054054 0
v -83.02703 -6.054054 0
v -83.45947 -6.486486 0
v -83.89189 -6.486486 0
v -83.89189 -6.054054 0
v -83.45947 -6.054054 0
v -83.89189 -6.486486 0
v -84.32433 -6.486486 0
v -84.32433 -6.054054 0
v -83.89189 -6.054054 0
v -84.32433 -6.486486 0
v -84.75676 -6.486486 0
v -84.75676 -6.054054 0
v -84.32433 -6.054054 0
v -84.75676 -6.486486 0
v -85.18919 -6.486486 0
v -85.18919 -6.054054 0
v -84.75676 -6.054054 0
v -86.91892 -6.486486 0
v -87.35136 -6.486486 0
v -87.35136 -6.054054 0
v -86.91892 -6.054054 0
v -87.35136 -6.486486 0
v -87.78378 -6.486486 0
v -87.78378 -6.054054 0
v -87.35136 -6.054054 0
v -87.78378 -6.486486 0
v -88.21622 -6.486486 0
v -88.21622 -6.054054 0
v -87.78378 -6.054054 0
v -88.21622 -6.486486 0
v -88.64865 -6.486486 0
v -88.64865 -6.054054 0
v -88.21622 -6.054054 0
v -88.64865 -6.486486 0
v -89.08109 -6.486486 0
v -89.08109 -6.054054 0
v -88.64865 -6.054054 0
v -89.08109 -6.486486 0
v -89.51352 -6.486486 0
v -89.51352 -6.054054 0
v -89.08109 -6.054054 0
v -64.43243 -6.918919 0
v -64.86487 -6.918919 0
v -64.86487 -6.486486 0
v -64.43243 -6.486486 0
v -64.86487 -6.918919 0
v -65.2973 -6.918919 0
v -65.2973 -6.486486 0
v -64.86487 -6.486486 0
v -65.2973 -6.918919 0
v -65.72973 -6.918919 0
v -65.72973 -6.486486 0
v -65.2973 -6.486486 0
v -65.72973 -6.918919 0
v -66.16216 -6.918919 0
v -66.16216 -6.486486 0
v -65.72973 -6.486486 0
v -66.16216 -6.918919 0
v -66.5946 -6.918919 0
v -66.5946 -6.486486 0
v -66.16216 -6.486486 0
v -66.5946 -6.918919 0
v -67.02703 -6.918919 0
v -67.02703 -6.486486 0
v -66.5946 -6.486486 0
v -67.02703 -6.918919 0
v -67.45946 -6.918919 0
v -67.45946 -6.486486 0
v -67.02703 -6.486486 0
v -67.45946 -6.918919 0
v -67.89189 -6.918919 0
v -67.89189 -6.486486 0
v -67.45946 -6.486486 0
v -67.89189 -6.918919 0
v -68.32433 -6.918919 0
v -68.32433 -6.486486 0
v -67.89189 -6.486486 0
v -68.32433 -6.918919 0
v -68.75676 -6.918919 0
v -68.75676 -6.486486 0
v -68.32433 -6.486486 0
v -68.75676 -6.918919 0
v -69.18919 -6.918919 0
v -69.18919 -6.486486 0
v -68.75676 -6.486486 0
v -69.18919 -6.918919 0
v -69.62162 -6.918919 0
v -69.62162 -6.486486 0
v -69.18919 -6.486486 0
v -69.62162 -6.918919 0
v -70.05405 -6.918919 0
v -70.05405 -6.486486 0
v -69.62162 -6.486486 0
v -70.05405 -6.918919 0
v -70.48649 -6.918919 0
v -70.48649 -6.486486 0
v -70.05405 -6.486486 0
v -70.48649 -6.918919 0
v -70.91892 -6.918919 0
v -70.91892 -6.486486 0
v -70.48649 -6.486486 0
v -70.91892 -6.918919 0
v -71.35136 -6.918919 0
v -71.35136 -6.486486 0
v -70.91892 -6.486486 0
v -71.35136 -6.918919 0
v -71.78378 -6.918919 0
v -71.78378 -6.486486 0
v -71.35136 -6.486486 0
v -71.78378 -6.918919 0
v -72.21622 -6.918919 0
v -72.21622 -6.486486 0
v -71.78378 -6.486486 0
v -72.21622 -6.918919 0
v -72.64865 -6.918919 0
v -72.64865 -6.486486 0
v -72.21622 -6.486486 0
v -72.64865 -6.918919 0
v -73.08109 -6.918919 0
v -73.08109 -6.486486 0
v -72.64865 -6.486486 0
v -73.08109 -6.918919 0
v -73.51351 -6.918919 0
v -73.51351 -6.486486 0
v -73.08109 -6.486486 0
v -73.51351 -6.918919 0
v -73.94595 -6.918919 0
v -73.94595 -6.486486 0
v -73.51351 -6.486486 0
v -73.94595 -6.918919 0
v -74.37838 -6.918919 0
v -74.37838 -6.486486 0
v -73.94595 -6.486486 0
v -74.37838 -6.918919 0
v -74.81081 -6.918919 0
v -74.81081 -6.486486 0
v -74.37838 -6.486486 0
v -74.81081 -6.918919 0
v -75.24325 -6.918919 0
v -75.24325 -6.486486 0
v -74.81081 -6.486486 0
v -75.24325 -6.918919 0
v -75.67567 -6.918919 0
v -75.67567 -6.486486 0
v -75.24325 -6.486486 0
v -75.67567 -6.918919 0
v -76.10811 -6.918919 0
v -76.10811 -6.486486 0
v -75.67567 -6.486486 0
v -76.10811 -6.918919 0
v -76.54054 -6.918919 0
v -76.54054 -6.486486 0
v -76.10811 -6.486486 0
v -76.54054 -6.918919 0
v -76.97298 -6.918919 0
v -76.97298 -6.486486 0
v -76.54054 -6.486486 0
v -76.97298 -6.918919 0
v -77.40541 -6.918919 0
v -77.40541 -6.486486 0
v -76.97298 -6.486486 0
v -77.40541 -6.918919 0
v -77.83784 -6.918919 0
v -77.83784 -6.486486 0
v -77.40541 -6.486486 0
v -77.83784 -6.918919 0
v -78.27027 -6.918919 0
v -78.27027 -6.486486 0
v -77.83784 -6.486486 0
v -78.27027 -6.918919 0
v -78.70271 -6.918919 0
v -78.70271 -6.486486 0
v -78.27027 -6.486486 0
v -78.70271 -6.918919 0
v -79.13514 -6.918919 0
v -79.13514 -6.486486 0
v -78.70271 -6.486486 0
v -79.13514 -6.918919 0
v -79.56757 -6.918919 0
v -79.56757 -6.486486 0
v -79.13514 -6.486486 0
v -79.56757 -6.918919 0
v -80 -6.918919 0
v -80 -6.486486 0
v -79.56757 -6.486486 0
v -80 -6.918919 0
v -80.43243 -6.918919 0
v -80.43243 -6.486486 0
v -80 -6.486486 0
v -80.43243 -6.918919 0
v -80.86487 -6.918919 0
v -80.86487 -6.486486 0
v -80.43243 -6.486486 0
v -80.43243 -7.783784 0
v -80.86487 -7.783784 0
v -80.86487 -7.351352 0
v -80.43243 -7.351352 0

# Texture cooridinates (Count = 68)
vt 0.0001220703 0.1667888
vt 0.08321127 0.1667888
vt 0.08321127 0.2498779
vt 0.0001220703 0.2498779
vt 0.08345541 0.1667888
vt 0.1665446 0.1667888
vt 0.1665446 0.2498779
vt 0.08345541 0.2498779
vt 0.1667887 0.1667888
vt 0.2498779 0.1667888
vt 0.2498779 0.2498779
vt 0.1667887 0.2498779
vt 0.2501221 0.1667888
vt 0.3332113 0.1667888
vt 0.3332113 0.2498779
vt 0.2501221 0.2498779
vt 0.3334554 0.1667888
vt 0.4165446 0.1667888
vt 0.4165446 0.2498779
vt 0.3334554 0.2498779
vt 0.4167887 0.1667888
vt 0.4998779 0.1667888
vt 0.4998779 0.2498779
vt 0.4167887 0.2498779
vt 0.0001220703 0.08345538
vt 0.08321127 0.08345538
vt 0.08321127 0.1665446
vt 0.0001220703 0.1665446
vt 0.08345541 0.08345538
vt 0.1665446 0.08345538
vt 0.1665446 0.1665446
vt 0.08345541 0.1665446
vt 0.1667887 0.08345538
vt 0.2498779 0.08345538
vt 0.2498779 0.1665446
vt 0.1667887 0.1665446
vt 0.2501221 0.08345538
vt 0.3332113 0.08345538
vt 0.3332113 0.1665446
vt 0.2501221 0.1665446
vt 0.3334554 0.08345538
vt 0.4165446 0.08345538
vt 0.4165446 0.1665446
vt 0.3334554 0.1665446
vt 0.4167887 0.08345538
vt 0.4998779 0.08345538
vt 0.4998779 0.1665446
vt 0.4167887 0.1665446
vt 0.0001220703 0.0001220703
vt 0.08321127 0.0001220703
vt 0.08321127 0.08321124
vt 0.0001220703 0.08321124
vt 0.08345541 0.0001220703
vt 0.1665446 0.0001220703
vt 0.1665446 0.08321124
vt 0.08345541 0.08321124
vt 0.1667887 0.0001220703
vt 0.2498779 0.0001220703
vt 0.2498779 0.08321124
vt 0.1667887 0.08321124
vt 0.2501221 0.0001220703
vt 0.3332113 0.0001220703
vt 0.3332113 0.08321124
vt 0.2501221 0.08321124
vt 0.4167887 0.6667887
vt 0.4998779 0.6667887
vt 0.4998779 0.7498779
vt 0.4167887 0.7498779

# Normal
vn 0 0 -1

# Mesh description
g responbility_mesh_0008

# Faces
f 1/1/1 2/2/1 3/3/1 4/4/1
f 5/5/1 6/6/1 7/7/1 8/8/1
f 9/9/1 10/10/1 11/11/1 12/12/1
f 13/13/1 14/14/1 15/15/1 16/16/1
f 17/17/1 18/18/1 19/19/1 20/20/1
f 21/21/1 22/22/1 23/23/1 24/24/1
f 25/25/1 26/26/1 27/27/1 28/28/1
f 29/29/1 30/30/1 31/31/1 32/32/1
f 33/33/1 34/34/1 35/35/1 36/36/1
f 37/37/1 38/38/1 39/39/1 40/40/1
f 41/41/1 42/42/1 43/43/1 44/44/1
f 45/45/1 46/46/1 47/47/1 48/48/1
f 49/1/1 50/2/1 51/3/1 52/4/1
f 53/5/1 54/6/1 55/7/1 56/8/1
f 57/9/1 58/10/1 59/11/1 60/12/1
f 61/9/1 62/10/1 63/11/1 64/12/1
f 65/13/1 66/14/1 67/15/1 68/16/1
f 69/9/1 70/10/1 71/11/1 72/12/1
f 73/9/1 74/10/1 75/11/1 76/12/1
f 77/9/1 78/10/1 79/11/1 80/12/1
f 81/9/1 82/10/1 83/11/1 84/12/1
f 85/13/1 86/14/1 87/15/1 88/16/1
f 89/9/1 90/10/1 91/11/1 92/12/1
f 93/9/1 94/10/1 95/11/1 96/12/1
f 97/9/1 98/10/1 99/11/1 100/12/1
f 101/9/1 102/10/1 103/11/1 104/12/1
f 105/13/1 106/14/1 107/15/1 108/16/1
f 109/9/1 110/10/1 111/11/1 112/12/1
f 113/9/1 114/10/1 115/11/1 116/12/1
f 117/9/1 118/10/1 119/11/1 120/12/1
f 121/13/1 122/14/1 123/15/1 124/16/1
f 125/9/1 126/10/1 127/11/1 128/12/1
f 129/9/1 130/10/1 131/11/1 132/12/1
f 133/13/1 134/14/1 135/15/1 136/16/1
f 137/9/1 138/10/1 139/11/1 140/12/1
f 141/9/1 142/10/1 143/11/1 144/12/1
f 145/9/1 146/10/1 147/11/1 148/12/1
f 149/9/1 150/10/1 151/11/1 152/12/1
f 153/9/1 154/10/1 155/11/1 156/12/1
f 157/13/1 158/14/1 159/15/1 160/16/1
f 161/9/1 162/10/1 163/11/1 164/12/1
f 165/9/1 166/10/1 167/11/1 168/12/1
f 169/14/1 170/13/1 171/16/1 172/15/1
f 173/10/1 174/9/1 175/12/1 176/11/1
f 177/10/1 178/9/1 179/12/1 180/11/1
f 181/14/1 182/13/1 183/16/1 184/15/1
f 185/10/1 186/9/1 187/12/1 188/11/1
f 189/10/1 190/9/1 191/12/1 192/11/1
f 193/6/1 194/5/1 195/8/1 196/7/1
f 197/2/1 198/1/1 199/4/1 200/3/1
f 201/1/1 202/2/1 203/3/1 204/4/1
f 205/5/1 206/6/1 207/7/1 208/8/1
f 209/9/1 210/10/1 211/11/1 212/12/1
f 213/13/1 214/14/1 215/15/1 216/16/1
f 217/17/1 218/18/1 219/19/1 220/20/1
f 221/21/1 222/22/1 223/23/1 224/24/1
f 225/1/1 226/2/1 227/3/1 228/4/1
f 229/5/1 230/6/1 231/7/1 232/8/1
f 233/9/1 234/10/1 235/11/1 236/12/1
f 237/13/1 238/14/1 239/15/1 240/16/1
f 241/17/1 242/18/1 243/19/1 244/20/1
f 245/21/1 246/22/1 247/23/1 248/24/1
f 249/25/1 250/26/1 251/27/1 252/28/1
f 253/29/1 254/30/1 255/31/1 256/32/1
f 257/33/1 258/34/1 259/35/1 260/36/1
f 261/33/1 262/34/1 263/35/1 264/36/1
f 265/37/1 266/38/1 267/39/1 268/40/1
f 269/33/1 270/34/1 271/35/1 272/36/1
f 273/33/1 274/34/1 275/35/1 276/36/1
f 277/33/1 278/34/1 279/35/1 280/36/1
f 281/33/1 282/34/1 283/35/1 284/36/1
f 285/37/1 286/38/1 287/39/1 288/40/1
f 289/33/1 290/34/1 291/35/1 292/36/1
f 293/33/1 294/34/1 295/35/1 296/36/1
f 297/33/1 298/34/1 299/35/1 300/36/1
f 301/33/1 302/34/1 303/35/1 304/36/1
f 305/37/1 306/38/1 307/39/1 308/40/1
f 309/33/1 310/34/1 311/35/1 312/36/1
f 313/33/1 314/34/1 315/35/1 316/36/1
f 317/33/1 318/34/1 319/35/1 320/36/1
f 321/37/1 322/38/1 323/39/1 324/40/1
f 325/33/1 326/34/1 327/35/1 328/36/1
f 329/33/1 330/34/1 331/35/1 332/36/1
f 333/37/1 334/38/1 335/39/1 336/40/1
f 337/33/1 338/34/1 339/35/1 340/36/1
f 341/33/1 342/34/1 343/35/1 344/36/1
f 345/33/1 346/34/1 347/35/1 348/36/1
f 349/33/1 350/34/1 351/35/1 352/36/1
f 353/33/1 354/34/1 355/35/1 356/36/1
f 357/37/1 358/38/1 359/39/1 360/40/1
f 361/33/1 362/34/1 363/35/1 364/36/1
f 365/33/1 366/34/1 367/35/1 368/36/1
f 369/37/1 370/38/1 371/39/1 372/40/1
f 373/34/1 374/33/1 375/36/1 376/35/1
f 377/34/1 378/33/1 379/36/1 380/35/1
f 381/38/1 382/37/1 383/40/1 384/39/1
f 385/34/1 386/33/1 387/36/1 388/35/1
f 389/34/1 390/33/1 391/36/1 392/35/1
f 393/30/1 394/29/1 395/32/1 396/31/1
f 397/26/1 398/25/1 399/28/1 400/27/1
f 401/25/1 402/26/1 403/27/1 404/28/1
f 405/29/1 406/30/1 407/31/1 408/32/1
f 409/33/1 410/34/1 411/35/1 412/36/1
f 413/37/1 414/38/1 415/39/1 416/40/1
f 417/41/1 418/42/1 419/43/1 420/44/1
f 421/45/1 422/46/1 423/47/1 424/48/1
f 425/25/1 426/26/1 427/27/1 428/28/1
f 429/29/1 430/30/1 431/31/1 432/32/1
f 433/33/1 434/34/1 435/35/1 436/36/1
f 437/37/1 438/38/1 439/39/1 440/40/1
f 441/41/1 442/42/1 443/43/1 444/44/1
f 445/45/1 446/46/1 447/47/1 448/48/1
f 449/49/1 450/50/1 451/51/1 452/52/1
f 453/53/1 454/54/1 455/55/1 456/56/1
f 457/57/1 458/58/1 459/59/1 460/60/1
f 461/57/1 462/58/1 463/59/1 464/60/1
f 465/61/1 466/62/1 467/63/1 468/64/1
f 469/57/1 470/58/1 471/59/1 472/60/1
f 473/57/1 474/58/1 475/59/1 476/60/1
f 477/57/1 478/58/1 479/59/1 480/60/1
f 481/57/1 482/58/1 483/59/1 484/60/1
f 485/61/1 486/62/1 487/63/1 488/64/1
f 489/57/1 490/58/1 491/59/1 492/60/1
f 493/57/1 494/58/1 495/59/1 496/60/1
f 497/57/1 498/58/1 499/59/1 500/60/1
f 501/57/1 502/58/1 503/59/1 504/60/1
f 505/61/1 506/62/1 507/63/1 508/64/1
f 509/57/1 510/58/1 511/59/1 512/60/1
f 513/57/1 514/58/1 515/59/1 516/60/1
f 517/57/1 518/58/1 519/59/1 520/60/1
f 521/61/1 522/62/1 523/63/1 524/64/1
f 525/57/1 526/58/1 527/59/1 528/60/1
f 529/57/1 530/58/1 531/59/1 532/60/1
f 533/61/1 534/62/1 535/63/1 536/64/1
f 537/57/1 538/58/1 539/59/1 540/60/1
f 541/57/1 542/58/1 543/59/1 544/60/1
f 545/57/1 546/58/1 547/59/1 548/60/1
f 549/57/1 550/58/1 551/59/1 552/60/1
f 553/57/1 554/58/1 555/59/1 556/60/1
f 557/61/1 558/62/1 559/63/1 560/64/1
f 561/57/1 562/58/1 563/59/1 564/60/1
f 565/57/1 566/58/1 567/59/1 568/60/1
f 569/61/1 570/62/1 571/63/1 572/64/1
f 573/58/1 574/57/1 575/60/1 576/59/1
f 577/58/1 578/57/1 579/60/1 580/59/1
f 581/62/1 582/61/1 583/64/1 584/63/1
f 585/58/1 586/57/1 587/60/1 588/59/1
f 589/58/1 590/57/1 591/60/1 592/59/1
f 593/54/1 594/53/1 595/56/1 596/55/1
f 597/50/1 598/49/1 599/52/1 600/51/1
f 601/65/1 602/66/1 603/67/1 604/68/1

